<?xml version="1.0" encoding="UTF-8" standalone="no"?>
<svg
   xmlns:dc="http://purl.org/dc/elements/1.1/"
   xmlns:cc="http://creativecommons.org/ns#"
   xmlns:rdf="http://www.w3.org/1999/02/22-rdf-syntax-ns#"
   xmlns:svg="http://www.w3.org/2000/svg"
   xmlns="http://www.w3.org/2000/svg"
   xmlns:sodipodi="http://sodipodi.sourceforge.net/DTD/sodipodi-0.dtd"
   xmlns:inkscape="http://www.inkscape.org/namespaces/inkscape"
   x="0"
   y="0"
   width="512"
   height="512"
   version="1.1"
   viewBox="0 0 512 512"
   id="svg4136"
   inkscape:version="0.91 r13725"
   sodipodi:docname="gear_ok.svg">
  <metadata
     id="metadata4156">
    <rdf:RDF>
      <cc:Work
         rdf:about="">
        <dc:format>image/svg+xml</dc:format>
        <dc:type
           rdf:resource="http://purl.org/dc/dcmitype/StillImage" />
        <dc:title>gearwheel icon</dc:title>
      </cc:Work>
    </rdf:RDF>
  </metadata>
  <defs
     id="defs4154" />
  <sodipodi:namedview
     pagecolor="#ffffff"
     bordercolor="#666666"
     borderopacity="1"
     objecttolerance="10"
     gridtolerance="10"
     guidetolerance="10"
     inkscape:pageopacity="0"
     inkscape:pageshadow="2"
     inkscape:window-width="1920"
     inkscape:window-height="1017"
     id="namedview4152"
     showgrid="false"
     inkscape:zoom="1.6601562"
     inkscape:cx="256"
     inkscape:cy="256"
     inkscape:window-x="1912"
     inkscape:window-y="-8"
     inkscape:window-maximized="1"
     inkscape:current-layer="svg4136" />
  <title
     id="title4138">gearwheel icon</title>
  <desc
     id="desc4140">gearwheel icon from the IconExperience.com G-Collection. Copyright by INCORS GmbH (www.incors.com).</desc>
  <g
     id="g4142"
     transform="matrix(1.0779553,0,0,1.0779553,-23.982264,-21.085404)">
    <path
       d="m 255.5,67.4 22.65,-42.2 c 1.1,-2 2.75,-3.35 5,-3.9 9.55,-2.25 18.9,-2.3 27.75,-0.25 8.8,2.1 17.15,6.3 24.7,12.55 1.8,1.5 2.65,3.45 2.75,5.7 l 1.55,47.9 c 0.15,5.3 2.8,9.8 7.4,12.5 5,2.95 9.9,6.15 14.6,9.55 4.3,3.15 9.5,3.8 14.45,1.8 l 44.5,-17.75 c 2.1,-0.85 4.25,-0.8 6.3,0.25 8.75,4.4 15.95,10.35 21.4,17.6 5.45,7.3 9.15,15.9 10.9,25.55 0.4,2.25 -0.2,4.3 -1.6,6.1 l -29.55,37.65 c -3.3,4.15 -4.15,9.3 -2.35,14.3 1.95,5.5 3.6,11.1 5.05,16.8 1.25,5.15 4.8,9 9.9,10.65 l 45.45,15 c 2.15,0.7 3.8,2.1 4.7,4.25 3.9,9 5.55,18.2 5.05,27.25 -0.5,9.1 -3.2,18.05 -8.05,26.55 -1.15,2 -2.9,3.2 -5.15,3.65 l -46.85,9.85 c -5.2,1.1 -9.15,4.5 -11,9.45 -2.05,5.5 -4.35,10.85 -6.95,16.1 -2.3,4.8 -2.05,10 0.75,14.5 l 25.2,40.75 c 1.2,1.95 1.55,4.05 0.85,6.25 -2.8,9.4 -7.4,17.55 -13.65,24.15 -6.2,6.6 -14,11.75 -23.2,15.15 -2.2,0.8 -4.3,0.6 -6.3,-0.5 L 359.55,412 c -4.7,-2.5 -9.9,-2.45 -14.55,0.2 -5.05,2.85 -10.3,5.5 -15.65,7.9 -4.85,2.15 -8,6.35 -8.75,11.6 l -6.9,47.35 c -0.3,2.25 -1.4,4.1 -3.35,5.35 -8.2,5.4 -16.95,8.65 -25.95,9.75 -9.05,1.05 -18.3,-0.05 -27.55,-3.35 -2.15,-0.8 -3.65,-2.3 -4.5,-4.45 l -17.8,-44.4 c -2,-4.95 -6.05,-8.25 -11.25,-9.2 -5.8,-1.05 -11.5,-2.4 -17.1,-4 -5.1,-1.5 -10.2,-0.3 -14.15,3.2 l -35.7,31.9 c -1.7,1.5 -3.7,2.2 -6.05,1.95 -9.7,-1.15 -18.5,-4.3 -26.1,-9.25 -7.6,-5 -14,-11.8 -18.95,-20.25 -1.15,-2 -1.35,-4.15 -0.65,-6.3 l 14.95,-45.5 c 1.65,-5.05 0.7,-10.2 -2.7,-14.3 -3.75,-4.5 -7.25,-9.15 -10.55,-14 -2.95,-4.4 -7.6,-6.8 -12.9,-6.65 l -47.85,1.5 c -2.25,0.05 -4.25,-0.7 -5.85,-2.4 -6.75,-7.1 -11.45,-15.2 -14.1,-23.9 -2.6,-8.7 -3.15,-18 -1.45,-27.65 0.4,-2.3 1.6,-4.05 3.55,-5.25 L 68.4,266.6 c 4.5,-2.8 7.05,-7.35 7.1,-12.7 0.05,-5.9 0.35,-11.7 0.95,-17.5 C 77,231.15 75,226.35 70.8,223.05 L 33.2,193.4 c -1.75,-1.4 -2.8,-3.25 -2.95,-5.6 -0.55,-9.75 1,-19 4.55,-27.35 3.6,-8.35 9.2,-15.8 16.7,-22.15 1.75,-1.5 3.8,-2.05 6.05,-1.7 l 47.45,6.8 c 5.25,0.75 10.15,-1.1 13.6,-5.15 3.75,-4.45 7.75,-8.7 11.95,-12.75 3.85,-3.7 5.35,-8.7 4.3,-13.9 l -9.8,-46.9 c -0.45,-2.2 -0.05,-4.3 1.35,-6.15 5.85,-7.9 12.95,-13.95 21.1,-18.05 8.1,-4.05 17.2,-6.2 27,-6.25 2.3,0 4.25,0.9 5.75,2.6 l 31.95,35.7 c 3.55,3.95 8.45,5.7 13.7,4.8 5.75,-0.95 11.55,-1.65 17.4,-2.05 5.3,-0.4 9.65,-3.2 12.2,-7.9 z m 0.5,122.7 c -36.4,0 -65.9,29.5 -65.9,65.9 0,36.4 29.5,65.9 65.9,65.9 36.4,0 65.9,-29.5 65.9,-65.9 0,-36.4 -29.5,-65.9 -65.9,-65.9 z"
       id="path4144"
       inkscape:connector-curvature="0"
       style="fill:#788f9b" />
    <path
       d="m 417.3,94.7 3.55,-1.4 c 2.1,-0.85 4.25,-0.8 6.3,0.25 8.75,4.4 15.95,10.35 21.4,17.6 5.45,7.3 9.15,15.9 10.9,25.55 0.4,2.25 -0.2,4.3 -1.6,6.1 l -29.55,37.65 c -3.3,4.15 -4.15,9.3 -2.35,14.3 1.95,5.5 3.6,11.1 5.05,16.8 1.25,5.15 4.8,9 9.9,10.65 l 45.45,15 c 2.15,0.7 3.8,2.1 4.7,4.25 2.5,5.8 4.1,11.7 4.8,17.6 l 0,12.95 c -0.95,7.95 -3.55,15.75 -7.8,23.25 -1.15,2 -2.9,3.2 -5.15,3.65 l -46.85,9.85 c -5.2,1.1 -9.15,4.5 -11,9.45 -2.05,5.5 -4.35,10.85 -6.95,16.1 -2.3,4.8 -2.05,10 0.75,14.5 l 25.2,40.75 c 1.2,1.95 1.55,4.05 0.85,6.25 -2.8,9.4 -7.4,17.55 -13.65,24.15 -6.2,6.6 -14,11.75 -23.2,15.15 -2.2,0.8 -4.3,0.6 -6.3,-0.5 L 359.55,412 c -4.7,-2.5 -9.9,-2.45 -14.55,0.2 -5.05,2.85 -10.3,5.5 -15.65,7.9 -4.85,2.15 -8,6.35 -8.75,11.6 l -6.9,47.35 c -0.3,2.25 -1.4,4.1 -3.35,5.35 -8.2,5.4 -16.95,8.65 -25.95,9.75 -9.05,1.05 -18.3,-0.05 -27.55,-3.35 -2.15,-0.8 -3.65,-2.3 -4.5,-4.45 l -17.8,-44.4 c -2,-4.95 -6.05,-8.25 -11.25,-9.2 -5.8,-1.05 -11.5,-2.4 -17.1,-4 -5.1,-1.5 -10.2,-0.3 -14.15,3.2 l -35.7,31.9 c -1.7,1.5 -3.7,2.2 -6.05,1.95 -9.7,-1.15 -18.5,-4.3 -26.1,-9.25 -7.6,-5 -14,-11.8 -18.95,-20.25 -1.15,-2 -1.35,-4.15 -0.65,-6.3 l 11.05,-33.65 93.75,-93.75 c 11.9,11.95 28.4,19.3 46.6,19.3 36.4,0 65.9,-29.5 65.9,-65.9 0,-18.2 -7.35,-34.7 -19.3,-46.6 z"
       id="path4146"
       inkscape:connector-curvature="0"
       style="fill:#546e7a" />
    <path
       d="m 256,96 c 88.35,0 160,71.65 160,160 0,88.35 -71.65,160 -160,160 C 167.65,416 96,344.35 96,256 96,167.65 167.65,96 256,96 Z m 0,62 c -54.1,0 -98,43.9 -98,98 0,54.1 43.9,98 98,98 54.1,0 98,-43.9 98,-98 0,-54.1 -43.9,-98 -98,-98 z"
       id="path4148"
       inkscape:connector-curvature="0"
       style="fill:#afbdc3" />
    <path
       d="M 369.15,142.85 C 398.1,171.8 416,211.8 416,256 c 0,88.35 -71.65,160 -160,160 -44.2,0 -84.2,-17.9 -113.15,-46.85 L 186.7,325.3 c 17.75,17.75 42.25,28.7 69.3,28.7 54.1,0 98,-43.9 98,-98 0,-27.05 -10.95,-51.55 -28.7,-69.3 z"
       id="path4150"
       inkscape:connector-curvature="0"
       style="fill:#8fa3ad" />
  </g>
  <g
     id="g4272"
     transform="matrix(0.58331814,0,0,0.58331814,222.66691,222.66691)">
    <path
       id="path4274"
       d="M 256,16 C 388.55,16 496,123.45 496,256 496,388.55 388.55,496 256,496 123.45,496 16,388.55 16,256 16,123.45 123.45,16 256,16 Z"
       inkscape:connector-curvature="0"
       style="fill:#68ba1c" />
    <path
       id="path4276"
       d="m 425.7,86.3 c 93.75,93.7 93.75,245.7 0,339.4 -93.7,93.75 -245.7,93.75 -339.4,0 z"
       inkscape:connector-curvature="0"
       style="fill:#53a616" />
    <polygon
       id="polygon4278"
       points="380.8,97.6 437.35,154.2 199.75,391.75 64,256 120.55,199.45 199.75,278.65 "
       style="fill:#ffffff" />
    <polygon
       id="polygon4280"
       points="199.75,391.75 160,352 397.6,114.4 437.35,154.2 "
       style="fill:#ebedef" />
  </g>
</svg>
