<svg x="0" y="0" width="512" height="512" version="1.1"
    xmlns="http://www.w3.org/2000/svg"
    xmlns:xlink="http://www.w3.org/1999/xlink" viewBox="0 0 512 512">
    <title>shield icon</title>
    <desc>shield icon from the IconExperience.com G-Collection. Copyright by INCORS GmbH (www.incors.com).</desc>
    <g>
        <path d="M256,512c-131.65,-55.75 -224,-185.6 -224,-336.95l0,-111.75c0,-4.5 1.65,-8.35 4.95,-11.45c3.25,-3.15 7.2,-4.6 11.75,-4.45c5.05,0.25 10.15,0.35 15.3,0.35c67.05,0 129.85,-14.4 184,-45.55c2.55,-1.45 5.25,-2.2 8,-2.2c2.75,0 5.45,0.75 8,2.2c54.15,31.15 116.95,45.55 184,45.55c5.15,0 10.25,-0.1 15.3,-0.35c4.55,-0.15 8.5,1.3 11.75,4.45c3.3,3.1 4.95,6.95 4.95,11.45l0,111.75c0,151.35 -92.3,281.2 -224,336.95z" fill="#cdd7db"/>
        <path d="M256,0c2.75,0 5.45,0.75 8,2.2c54.15,31.15 116.95,45.55 184,45.55c5.15,0 10.25,-0.1 15.3,-0.35c4.55,-0.15 8.5,1.3 11.75,4.45c3.3,3.1 4.95,6.95 4.95,11.45l0,111.75c0,151.35 -92.3,281.2 -224,336.95z" fill="#afbdc3"/>
        <path d="M256,477.1c116.75,-55.1 192,-172.35 192,-302.05l0,-95.5l0,0c-66.95,0 -133.05,-13.5 -192,-45.35c-58.95,31.85 -125.05,45.35 -192,45.35l0,95.5c0,129.7 75.25,246.95 192,302.05z" fill="#ff9f00"/>
        <path d="M256,477.1c116.75,-55.1 192,-172.35 192,-302.05l0,-95.5l0,0c-66.95,0 -133.05,-13.5 -192,-45.35z" fill="#ff8d00"/>
    </g>
</svg>