<svg x="0" y="0" width="512" height="512" version="1.1"
    xmlns="http://www.w3.org/2000/svg"
    xmlns:xlink="http://www.w3.org/1999/xlink" viewBox="0 0 512 512">
    <title>cpu icon</title>
    <desc>cpu icon from the IconExperience.com G-Collection. Copyright by INCORS GmbH (www.incors.com).</desc>
    <g>
        <path d="M102.65,416l41.35,0l0,64l-41.35,0c-4.45,0 -8.2,-1.55 -11.35,-4.7l-6.6,-6.6c-3.15,-3.15 -6.9,-4.7 -11.35,-4.7l-25.35,0l0,-32l25.35,0c4.45,0 8.2,-1.55 11.35,-4.7l6.6,-6.6c3.15,-3.15 6.9,-4.7 11.35,-4.7z M102.65,320l41.35,0l0,64l-41.35,0c-4.45,0 -8.2,-1.55 -11.35,-4.7l-6.6,-6.6c-3.15,-3.15 -6.9,-4.7 -11.35,-4.7l-25.35,0l0,-32l25.35,0c4.45,0 8.2,-1.55 11.35,-4.7l6.6,-6.6c3.15,-3.15 6.9,-4.7 11.35,-4.7z M102.65,224l41.35,0l0,64l-41.35,0c-4.45,0 -8.2,-1.55 -11.35,-4.7l-6.6,-6.6c-3.15,-3.15 -6.9,-4.7 -11.35,-4.7l-25.35,0l0,-32l25.35,0c4.45,0 8.2,-1.55 11.35,-4.7l6.6,-6.6c3.15,-3.15 6.9,-4.7 11.35,-4.7z M102.65,128l41.35,0l0,64l-41.35,0c-4.45,0 -8.2,-1.55 -11.35,-4.7l-6.6,-6.6c-3.15,-3.15 -6.9,-4.7 -11.35,-4.7l-25.35,0l0,-32l25.35,0c4.45,0 8.2,-1.55 11.35,-4.7l6.6,-6.6c3.15,-3.15 6.9,-4.7 11.35,-4.7z M102.65,32l41.35,0l0,64l-41.35,0c-4.45,0 -8.2,-1.55 -11.35,-4.7l-6.6,-6.6c-3.15,-3.15 -6.9,-4.7 -11.35,-4.7l-25.35,0l0,-32l25.35,0c4.45,0 8.2,-1.55 11.35,-4.7l6.6,-6.6c3.15,-3.15 6.9,-4.7 11.35,-4.7z" fill="#cdd7db"/>
        <path d="M409.35,416l-41.35,0l0,64l41.35,0c4.45,0 8.2,-1.55 11.35,-4.7l6.6,-6.6c3.15,-3.15 6.9,-4.7 11.35,-4.7l25.35,0l0,-32l-25.35,0c-4.45,0 -8.2,-1.55 -11.35,-4.7l-6.6,-6.6c-3.15,-3.15 -6.9,-4.7 -11.35,-4.7z M409.35,320l-41.35,0l0,64l41.35,0c4.45,0 8.2,-1.55 11.35,-4.7l6.6,-6.6c3.15,-3.15 6.9,-4.7 11.35,-4.7l25.35,0l0,-32l-25.35,0c-4.45,0 -8.2,-1.55 -11.35,-4.7l-6.6,-6.6c-3.15,-3.15 -6.9,-4.7 -11.35,-4.7z M409.35,224l-41.35,0l0,64l41.35,0c4.45,0 8.2,-1.55 11.35,-4.7l6.6,-6.6c3.15,-3.15 6.9,-4.7 11.35,-4.7l25.35,0l0,-32l-25.35,0c-4.45,0 -8.2,-1.55 -11.35,-4.7l-6.6,-6.6c-3.15,-3.15 -6.9,-4.7 -11.35,-4.7z M409.35,128l-41.35,0l0,64l41.35,0c4.45,0 8.2,-1.55 11.35,-4.7l6.6,-6.6c3.15,-3.15 6.9,-4.7 11.35,-4.7l25.35,0l0,-32l-25.35,0c-4.45,0 -8.2,-1.55 -11.35,-4.7l-6.6,-6.6c-3.15,-3.15 -6.9,-4.7 -11.35,-4.7z M409.35,32l-41.35,0l0,64l41.35,0c4.45,0 8.2,-1.55 11.35,-4.7l6.6,-6.6c3.15,-3.15 6.9,-4.7 11.35,-4.7l25.35,0l0,-32l-25.35,0c-4.45,0 -8.2,-1.55 -11.35,-4.7l-6.6,-6.6c-3.15,-3.15 -6.9,-4.7 -11.35,-4.7z" fill="#afbdc3"/>
        <path d="M144,0l224,0c8.8,0 16,7.2 16,16l0,480c0,8.8 -7.2,16 -16,16l-224,0c-8.8,0 -16,-7.2 -16,-16l0,-480c0,-8.8 7.2,-16 16,-16z" fill="#546e7a"/>
        <path d="M380.8,6.4c2,2.7 3.2,6 3.2,9.6l0,480c0,8.8 -7.2,16 -16,16l-224,0c-5.2,0 -9.85,-2.5 -12.8,-6.4z" fill="#445a64"/>
        <path d="M256,464c26.5,0 48,21.5 48,48l-96,0c0,-26.5 21.5,-48 48,-48z" fill="#36464e"/>
    </g>
</svg>