<?xml version="1.0" encoding="UTF-8" standalone="no"?>
<svg
   xmlns:dc="http://purl.org/dc/elements/1.1/"
   xmlns:cc="http://creativecommons.org/ns#"
   xmlns:rdf="http://www.w3.org/1999/02/22-rdf-syntax-ns#"
   xmlns:svg="http://www.w3.org/2000/svg"
   xmlns="http://www.w3.org/2000/svg"
   xmlns:sodipodi="http://sodipodi.sourceforge.net/DTD/sodipodi-0.dtd"
   xmlns:inkscape="http://www.inkscape.org/namespaces/inkscape"
   x="0"
   y="0"
   width="512"
   height="512"
   version="1.1"
   viewBox="0 0 512 512"
   id="svg24"
   sodipodi:docname="chart_daq_config4.svg"
   inkscape:version="0.92.4 (5da689c313, 2019-01-14)">
  <metadata
     id="metadata30">
    <rdf:RDF>
      <cc:Work
         rdf:about="">
        <dc:format>image/svg+xml</dc:format>
        <dc:type
           rdf:resource="http://purl.org/dc/dcmitype/StillImage" />
        <dc:title>chart step icon</dc:title>
      </cc:Work>
    </rdf:RDF>
  </metadata>
  <defs
     id="defs28" />
  <sodipodi:namedview
     pagecolor="#ffffff"
     bordercolor="#666666"
     borderopacity="1"
     objecttolerance="10"
     gridtolerance="10"
     guidetolerance="10"
     inkscape:pageopacity="0"
     inkscape:pageshadow="2"
     inkscape:window-width="1920"
     inkscape:window-height="1017"
     id="namedview26"
     showgrid="false"
     inkscape:zoom="0.96763393"
     inkscape:cx="-232.48231"
     inkscape:cy="288"
     inkscape:window-x="1912"
     inkscape:window-y="-8"
     inkscape:window-maximized="1"
     inkscape:current-layer="svg24" />
  <title
     id="title2">chart step icon</title>
  <desc
     id="desc4">chart step icon from the IconExperience.com G-Collection. Copyright by INCORS GmbH (www.incors.com).</desc>
  <g
     id="g2788"
     transform="translate(-31.99786,-32)">
    <path
       d="M 63.999999,32 H 448 c 17.65,0 32,14.35 32,32 v 384 c 0,17.65 -14.35,32 -32,32 H 63.999999 c -17.65,0 -32,-14.35 -32,-32 V 64 c 0,-17.65 14.35,-32 32,-32 z"
       id="path6-9"
       inkscape:connector-curvature="0"
       style="fill:#546e7a" />
    <path
       d="m 470.6,41.4 c 5.8,5.8 9.4,13.8 9.4,22.6 v 384 c 0,17.65 -14.35,32 -32,32 H 63.999998 c -8.8,0 -16.8,-3.6 -22.6,-9.4 z"
       id="path8-0"
       inkscape:connector-curvature="0"
       style="fill:#445a64" />
    <path
       d="M 112,480 V 400 H 31.999998 V 384 H 112 V 304 H 31.999998 V 288 H 112 V 208 H 31.999998 V 192 H 112 V 112 H 31.999998 V 96 H 112 V 32 h 16 v 64 h 80 V 32 h 16 v 64 h 80 V 32 h 16 v 64 h 80 V 32 h 16 v 64 h 64 v 16 h -64 v 80 h 64 v 16 h -64 v 80 h 64 v 16 h -64 v 80 h 64 v 16 h -64 v 80 h -16 v -80 h -80 v 80 h -16 v -80 h -80 v 80 h -16 v -80 h -80 v 80 z m 16,-368 v 80 h 80 v -80 z m 0,96 v 80 h 80 v -80 z m 0,96 v 80 h 80 V 304 Z M 400,112 h -80 v 80 h 80 z m -96,0 h -80 v 80 h 80 z m -80,272 h 80 v -80 h -80 z m 96,0 h 80 v -80 h -80 z m -96,-96 h 80 v -80 h -80 z m 96,0 h 80 v -80 h -80 z"
       id="path10-2"
       inkscape:connector-curvature="0"
       style="fill:#445a64" />
    <path
       d="m 112,480 v -80 l 16,-16 h 80 v -80 l 16,-16 h 80 v -80 l 16,-16 h 80 v -80 l 16,-16 h 64 v 16 h -64 v 80 h 64 v 16 h -64 v 80 h 64 v 16 h -64 v 80 h 64 v 16 h -64 v 80 h -16 v -80 h -80 v 80 h -16 v -80 h -80 v 80 h -16 v -80 h -80 v 80 z m 112,-96 h 80 v -80 h -80 z m 96,0 h 80 v -80 h -80 z m 0,-96 h 80 v -80 h -80 z"
       id="path12-8"
       inkscape:connector-curvature="0"
       style="fill:#36464e" />
    <path
       inkscape:connector-curvature="0"
       id="path832"
       d="m 178.07014,82.925604 v 0.0022 c -3.18965,-0.159267 -6.90084,1.379275 -7.63695,4.081531 -0.608,2.232005 -3.91068,43.191105 -7.34154,91.018555 -6.13843,85.57263 -7.43311,99.60963 -8.12048,88.11553 -0.19078,-3.18856 -2.90054,-32.74835 -6.02262,-65.69031 -4.1729,-44.03018 -6.45506,-60.45012 -8.61531,-61.99457 -8.85716,-6.33189 -10.34622,-1.37712 -17.57115,58.47806 -3.74802,31.05042 -6.83648,57.41012 -6.86742,58.57923 -0.16165,6.46391 -2.63777,-3.26712 -7.07438,-27.80754 -6.21072,-34.35328 -6.70401,-35.76819 -12.506207,-35.76819 -4.080827,0 -6.100296,3.69178 -14.890041,27.24674 l -10.167524,27.24674 -18.22593,1.15956 c -15.946721,1.01434 -18.3235,1.7202 -18.986039,5.6437 -1.307849,7.74681 5.264697,10.58965 24.487496,10.58965 21.291418,0 23.770336,-1.76552 30.739652,-21.87075 2.622229,-7.56458 5.048008,-12.78068 5.388567,-11.59317 0.34088,1.18756 3.840338,20.22061 7.776156,42.29738 3.9359,22.07678 7.6918,41.12122 8.34815,42.3206 1.71111,3.12812 8.29221,2.68973 10.75454,-0.7168 1.15239,-1.59422 4.6637,-24.24879 7.80441,-50.34241 3.14077,-26.09363 5.95501,-46.4427 6.25215,-45.21937 0.2973,1.22326 3.49304,35.09497 7.10073,75.27007 3.60772,40.17501 7.46575,74.3505 8.57578,75.94472 2.55714,3.67329 9.01668,3.75668 10.99351,0.14319 0.82903,-1.51535 4.10817,-37.74924 7.28697,-80.51954 5.55261,-74.70886 7.33714,-91.90761 7.7235,-74.40995 0.78721,35.66837 12.84281,207.58794 14.73764,210.16723 v -0.009 c 2.93674,3.99747 6.83318,4.05822 9.70281,0.15177 1.22058,-1.66137 5.53169,-39.4896 9.57862,-84.06139 4.04693,-44.57188 7.59803,-81.99219 7.89281,-83.15701 0.29481,-1.16483 2.69073,9.79357 5.32461,24.35005 5.53298,30.57938 6.9857,34.58129 12.55135,34.58129 5.99117,0 7.46822,-6.00209 13.02928,-52.97559 2.77003,-23.39761 5.37977,-42.92884 5.79874,-43.40207 0.41898,-0.47337 3.78131,32.21516 7.47324,72.6432 3.69187,40.42811 7.6849,74.82913 8.87306,76.44648 3.44296,4.68672 9.81134,3.43875 11.62005,-2.27687 0.90829,-2.86964 4.76582,-28.43363 8.57204,-56.81044 3.8061,-28.37697 7.546,-50.81333 8.30861,-49.85751 0.76278,0.95579 3.39621,8.69003 5.85328,17.18839 7.06265,24.42728 13.10012,23.704 23.81582,-2.85454 3.80792,-9.438 7.65978,-17.43599 8.56074,-17.77237 0.90092,-0.33657 4.25999,4.07752 7.46571,9.80958 3.20561,5.73211 6.67986,11.01584 7.71786,11.74072 4.67843,3.26639 9.83168,-2.3241 15.13651,-16.4252 3.10796,-8.26097 6.27309,-15.02111 7.03488,-15.02111 0.76185,0 4.39596,10.38068 8.0772,23.06822 4.86129,16.75504 7.78425,23.45896 10.68115,24.49761 5.83718,2.09296 7.46675,0.19582 15.60692,-18.17289 4.05545,-9.15185 7.69607,-17.0397 8.09036,-17.52783 0.39431,-0.48862 4.01303,2.38147 8.04147,6.37739 9.15824,9.08812 12.39752,9.08608 23.34353,-0.009 l 8.75831,-7.27549 9.96429,5.27269 c 3.73254,1.97485 6.79388,3.16713 9.22306,3.63246 v -16.83749 c -2.44023,-0.61113 -5.28506,-1.91467 -9.41682,-4.0773 -11.92477,-6.24145 -9.7599,-6.6544 -25.56936,4.88687 -5.15674,3.76456 -5.40503,3.65857 -14.14686,-6.03375 -11.32419,-12.55547 -14.94556,-11.4549 -22.70761,6.89178 -3.23773,7.65274 -6.51938,13.11811 -7.2945,12.14764 -0.77503,-0.97048 -4.37554,-11.94952 -8.00004,-24.39855 -9.8589,-33.86194 -15.93358,-34.5913 -27.69544,-3.32678 -3.21277,8.53965 -6.50163,15.52711 -7.30766,15.52711 -0.80615,0 -4.06359,-4.23756 -7.23995,-9.41535 -6.4172,-10.46126 -11.24246,-14.295 -14.83737,-11.78499 -1.31293,0.91674 -5.1986,8.67073 -8.63411,17.23053 -3.43565,8.55977 -6.64008,15.56297 -7.11954,15.56297 -0.47973,0 -3.92943,-10.5342 -7.66516,-23.40976 -7.05663,-24.321 -11.77856,-31.16796 -17.19674,-24.93406 -1.49382,1.71885 -5.41644,20.34467 -8.71879,41.38876 -3.30249,21.04404 -6.51713,36.69681 -7.144,34.78369 -0.62681,-1.91305 -4.02317,-36.29831 -7.54849,-76.40854 -3.52525,-40.11019 -7.40961,-74.2836 -8.62848,-75.9426 -2.83575,-3.85978 -6.75612,-3.84953 -9.60309,0.0245 -1.22915,1.6732 -5.21414,28.28212 -8.85803,59.13158 -3.64386,30.84945 -7.16644,56.08944 -7.82507,56.08944 -0.65894,0 -3.38826,-12.26076 -6.06403,-27.24674 -2.67574,-14.98597 -5.68302,-29.0732 -6.68491,-31.30511 -2.34999,-5.2352 -9.01708,-5.2352 -10.93704,0 -0.81856,2.23191 -3.99893,30.14751 -7.06685,62.03251 -4.33242,45.02668 -5.87851,55.64121 -6.92198,47.53637 -0.7388,-5.73928 -4.09477,-57.17995 -7.4582,-114.3124 -3.36337,-57.13241 -6.65898,-104.873178 -7.32461,-106.090281 -0.78436,-1.433784 -2.51145,-2.139073 -4.42524,-2.23472 z"
       style="fill:#57cbff;fill-opacity:1;stroke:#57cbff;stroke-width:3.77952671;stroke-opacity:1" />
    <path
       id="path2757"
       d="m 298.3457,213.6543 -6.77539,6.77539 c -1.88514,7.16734 -4.6059,21.11899 -7.00976,36.4375 -3.30249,21.04404 -6.51766,36.69632 -7.14453,34.7832 -0.49163,-1.50045 -2.69919,-23.19538 -5.32422,-51.74219 l -12.62305,12.62305 c 1.17223,11.80006 2.47928,25.36781 3.89648,40.88672 3.69187,40.42811 7.68489,74.82991 8.87305,76.44726 3.44296,4.68672 9.81043,3.43828 11.61914,-2.27734 0.90829,-2.86964 4.76605,-28.43374 8.57227,-56.81055 3.8061,-28.37697 7.54598,-50.81324 8.30859,-49.85742 0.76278,0.95579 3.39645,8.6911 5.85352,17.18946 7.06265,24.42727 13.1007,23.70307 23.8164,-2.85547 3.80792,-9.438 7.65959,-17.43511 8.56055,-17.77149 0.90092,-0.33657 4.25912,4.07654 7.46484,9.8086 3.20561,5.73211 6.68075,11.0173 7.71875,11.74218 4.67843,3.26639 9.83189,-2.32468 15.13672,-16.42578 3.10796,-8.26097 6.27337,-15.02148 7.03516,-15.02148 0.76185,0 4.39493,10.38082 8.07617,23.06836 4.86129,16.75504 7.78474,23.45939 10.68164,24.49804 5.83718,2.09296 7.46725,0.19489 15.60742,-18.17382 4.05545,-9.15185 7.69556,-17.03922 8.08985,-17.52735 0.39431,-0.48862 4.01257,2.38103 8.04101,6.37695 9.15824,9.08813 12.39774,9.08727 23.34375,-0.008 l 8.75782,-7.27539 9.96484,5.27149 c 3.73254,1.97485 6.79347,3.16748 9.22266,3.63281 v -16.83789 c -2.44023,-0.61113 -5.28426,-1.91354 -9.41602,-4.07617 -11.92477,-6.24145 -9.76085,-6.65456 -25.57031,4.88672 -5.15674,3.76455 -5.40466,3.65716 -14.14649,-6.03516 -11.32419,-12.55547 -14.94498,-11.4541 -22.70703,6.89258 -3.23773,7.65274 -6.5198,13.1189 -7.29492,12.14843 -0.77503,-0.97048 -4.3755,-11.9494 -8,-24.39843 -9.8589,-33.86194 -15.93345,-34.59265 -27.69531,-3.32813 -3.21277,8.53965 -6.50061,15.52735 -7.30664,15.52735 -0.80615,0 -4.06388,-4.23823 -7.24024,-9.41602 -6.4172,-10.46126 -11.24298,-14.29321 -14.83789,-11.7832 -1.31293,0.91674 -5.19925,8.67067 -8.63476,17.23047 -3.43565,8.55977 -6.63968,15.5625 -7.11915,15.5625 -0.47973,0 -3.92833,-10.5346 -7.66406,-23.41016 -4.8069,-16.56722 -8.53261,-25.01857 -12.13086,-26.75781 z m -47.9375,47.9375 -25.1289,25.1289 c 4.88195,26.54004 6.50064,30.4336 11.78515,30.4336 5.99117,0 7.46824,-6.00307 13.0293,-52.97657 0.10797,-0.91199 0.20709,-1.68658 0.31445,-2.58593 z m -34.98242,34.98242 -31.5039,31.5039 c 3.44309,49.49835 7.11447,95.88841 8.09179,97.21876 v -0.008 c 2.93674,3.99747 6.8335,4.0588 9.70313,0.15235 1.22058,-1.66137 5.53119,-39.49071 9.57812,-84.0625 1.51993,-16.74016 2.89706,-31.62397 4.13086,-44.80469 z m -50.57422,50.57422 -14.99609,14.99609 c 0.62508,4.51068 1.12161,7.34866 1.41601,7.77149 2.55714,3.67329 9.01731,3.75802 10.99414,0.14453 0.39492,-0.72185 1.35477,-9.48012 2.58594,-22.91211 z"
       style="fill:#2daae7;fill-opacity:1;stroke:#2daae7;stroke-width:3.77952671;stroke-opacity:1"
       inkscape:connector-curvature="0" />
  </g>
  <g
     transform="translate(-3.5888771e-7,1.9255788e-6)"
     id="g830">
    <path
       id="path6702"
       d="m 374.12242,271.68298 c 1.72506,-0.77906 3.22754,-1.94765 4.50742,-3.56142 l 24.48475,-30.49464 c 1.16859,-1.44683 2.72671,-2.28154 4.61872,-2.39283 7.95754,-0.38953 15.46991,0.946 22.25886,3.95095 6.78895,3.00494 12.91014,7.62366 18.02968,13.74485 1.16859,1.50247 1.61377,3.17188 1.33553,5.00824 l -5.8986,38.67478 c -0.33388,2.00329 -0.16694,3.95095 0.44518,5.73165 2.22589,2.33719 4.28483,4.78566 6.23248,7.28978 1.72506,0.89036 3.61707,1.33553 5.62037,1.33553 l 39.11995,0.1113 c 1.83636,0 3.45012,0.72341 4.73001,2.11459 5.28648,6.00989 8.90354,12.7432 10.79555,19.86604 1.94765,7.17848 2.11459,14.80214 0.50082,22.64839 -0.38953,1.892 -1.44682,3.28318 -3.06059,4.17354 l -33.88912,19.4765 c -1.78071,1.0573 -3.17189,2.39283 -4.22919,3.95095 -0.44517,3.22754 -1.05729,6.34378 -1.83635,9.46002 0.38953,1.83636 1.22423,3.61706 2.50412,5.23083 l 24.26216,30.60594 c 1.11294,1.44683 1.61377,3.17189 1.27989,5.00824 -1.39118,7.9019 -4.39613,14.91344 -8.79226,20.86769 -4.39612,5.95425 -10.29472,10.8512 -17.41756,14.46826 -1.66941,0.89036 -3.45012,0.89036 -5.17518,0.22259 l -36.3376,-14.35697 c -1.892,-0.72341 -3.83965,-1.00165 -5.73166,-0.8347 -2.72671,1.61376 -5.62036,3.11624 -8.51401,4.50742 -1.22424,1.44682 -2.05895,3.17188 -2.55977,5.17518 l -8.79225,38.06266 c -0.44518,1.78071 -1.44683,3.22753 -3.11624,4.11789 -7.01154,3.83965 -14.35697,5.8986 -21.81369,6.12119 -7.40107,0.27823 -14.85779,-1.22424 -22.14757,-4.56307 -1.72506,-0.77906 -2.838,-2.11459 -3.39448,-3.8953 l -11.46331,-37.39489 c -0.55647,-1.94765 -1.55812,-3.61707 -2.83801,-4.9526 -3.06059,-1.16859 -6.00989,-2.44848 -8.84789,-3.8953 -1.89201,-0.0557 -3.78401,0.38953 -5.62037,1.22424 l -35.2803,16.86108 c -1.66941,0.77907 -3.39447,0.89036 -5.17518,0.16695 -7.34543,-3.11624 -13.57791,-7.56802 -18.36357,-13.24403 -4.8413,-5.62036 -8.29142,-12.40931 -10.23907,-20.19992 -0.44518,-1.83635 -0.1113,-3.56142 0.946,-5.06389 l 22.03627,-32.27535 c 1.16859,-1.66942 1.83636,-3.45013 2.1146,-5.34213 -1.00165,-3.06059 -1.78071,-6.17683 -2.50413,-9.34872 -1.11294,-1.50247 -2.61541,-2.72671 -4.45177,-3.61707 l -35.169,-17.08367 c -1.66942,-0.77907 -2.83801,-2.1146 -3.33883,-3.89531 -2.17024,-7.73495 -2.50413,-15.35861 -1.11295,-22.64839 1.39118,-7.28978 4.56307,-14.24567 9.40437,-20.58945 1.16859,-1.50247 2.72671,-2.28153 4.56307,-2.44847 l 39.00866,-2.83801 c 2.0033,-0.16694 3.8953,-0.72341 5.50907,-1.72506 1.78071,-2.67107 3.67271,-5.23083 5.67601,-7.67931 0.50082,-1.83636 0.50082,-3.83965 0.0557,-5.7873 l -8.56967,-38.17396 c -0.38953,-1.78071 -0.11129,-3.50577 1.00165,-5.06389 4.67436,-6.51072 10.40602,-11.51896 16.97239,-14.96908 6.56636,-3.45013 13.96743,-5.34213 21.98062,-5.50907 1.89201,0 3.50578,0.72341 4.73001,2.05894 l 26.5437,28.71394 c 1.39118,1.50247 3.00494,2.55977 4.78565,3.22753 3.22754,-0.27823 6.39943,-0.38953 9.62696,-0.33388 z m -1.39118,62.32482 c -19.64344,0 -35.61418,15.97073 -35.61418,35.61418 0,19.64345 15.97074,35.61418 35.61418,35.61418 19.64345,0 35.61419,-15.97073 35.61419,-35.61418 0,-19.64345 -15.97074,-35.61418 -35.61419,-35.61418 z"
       inkscape:connector-curvature="0"
       style="fill:#f98b00" />
    <path
       id="path6704"
       d="m 443.29184,299.06138 c 0.0557,1.11295 0.27824,2.22589 0.61212,3.28318 2.22589,2.33719 4.28483,4.78566 6.23248,7.28978 1.72506,0.89036 3.61707,1.33553 5.62037,1.33553 l 39.11995,0.1113 c 1.83636,0 3.45012,0.72341 4.73001,2.11459 5.28648,6.00989 8.90354,12.7432 10.79555,19.86604 1.94765,7.17848 2.11459,14.80214 0.50082,22.64839 -0.38953,1.892 -1.44682,3.28318 -3.06059,4.17354 l -33.88912,19.4765 c -1.78071,1.0573 -3.17189,2.39283 -4.22919,3.95095 -0.44517,3.22754 -1.05729,6.34378 -1.83635,9.46002 0.38953,1.83636 1.22423,3.61706 2.50412,5.23083 l 24.26216,30.60594 c 1.11294,1.44683 1.61377,3.17189 1.27989,5.00824 -1.39118,7.9019 -4.39613,14.91344 -8.79226,20.86769 -4.39612,5.95425 -10.29472,10.8512 -17.41756,14.46826 -1.66941,0.89036 -3.45012,0.89036 -5.17518,0.22259 l -36.3376,-14.35697 c -1.892,-0.72341 -3.83965,-1.00165 -5.73166,-0.8347 -2.72671,1.61376 -5.62036,3.11624 -8.51401,4.50742 -1.22424,1.44682 -2.05895,3.17188 -2.55977,5.17518 l -8.79225,38.06266 c -0.44518,1.78071 -1.44683,3.22753 -3.11624,4.11789 -7.01154,3.83965 -14.35697,5.8986 -21.81369,6.12119 -7.40107,0.27823 -14.85779,-1.22424 -22.14757,-4.56307 -1.72506,-0.77906 -2.838,-2.11459 -3.39448,-3.8953 l -11.46331,-37.39489 c -0.55647,-1.94765 -1.55812,-3.61707 -2.83801,-4.9526 -3.06059,-1.16859 -6.00989,-2.44848 -8.84789,-3.8953 -1.89201,-0.0557 -3.78401,0.38953 -5.62037,1.22424 l -35.2803,16.86108 c -1.66941,0.77907 -3.39447,0.89036 -5.17518,0.16695 -3.72836,-1.61377 -7.17849,-3.50577 -10.29473,-5.78731 l 74.90108,-74.90108 c 6.45507,6.39943 15.35862,10.40602 25.20816,10.40602 19.64345,0 35.61419,-15.97073 35.61419,-35.61418 0,-9.84955 -4.0066,-18.75309 -10.40602,-25.20816 z"
       inkscape:connector-curvature="0"
       style="fill:#f37c00" />
    <path
       id="path6706"
       d="m 372.73124,280.58652 c 49.19209,0 89.03546,39.84337 89.03546,89.03546 0,49.19209 -39.84337,89.03546 -89.03546,89.03546 -49.19209,0 -89.03545,-39.84337 -89.03545,-89.03546 0,-49.19209 39.84336,-89.03546 89.03545,-89.03546 z m 0,35.61419 c -29.49299,0 -53.42127,23.92828 -53.42127,53.42127 0,29.493 23.92828,53.42127 53.42127,53.42127 29.493,0 53.42128,-23.92827 53.42128,-53.42127 0,-29.49299 -23.92828,-53.42127 -53.42128,-53.42127 z"
       inkscape:connector-curvature="0"
       style="fill:#ffb54c" />
    <path
       id="path6708"
       d="m 435.66818,306.68504 c 16.13768,16.08203 26.09852,38.3409 26.09852,62.93694 0,49.19209 -39.84337,89.03546 -89.03546,89.03546 -24.59604,0 -46.85491,-9.96084 -62.93693,-26.09852 l 25.15251,-25.15252 c 9.68261,9.68261 23.03793,15.63685 37.78442,15.63685 29.493,0 53.42128,-23.92827 53.42128,-53.42127 0,-14.7465 -5.95425,-28.10181 -15.63685,-37.78442 z"
       inkscape:connector-curvature="0"
       style="fill:#ffa526" />
  </g>
</svg>
