<?xml version="1.0" encoding="UTF-8" standalone="no"?>
<!-- Created with Inkscape (http://www.inkscape.org/) -->

<svg
   xmlns:dc="http://purl.org/dc/elements/1.1/"
   xmlns:cc="http://creativecommons.org/ns#"
   xmlns:rdf="http://www.w3.org/1999/02/22-rdf-syntax-ns#"
   xmlns:svg="http://www.w3.org/2000/svg"
   xmlns="http://www.w3.org/2000/svg"
   xmlns:sodipodi="http://sodipodi.sourceforge.net/DTD/sodipodi-0.dtd"
   xmlns:inkscape="http://www.inkscape.org/namespaces/inkscape"
   width="144.49777mm"
   height="144.49777mm"
   viewBox="0 0 511.99998 511.99998"
   id="svg2"
   version="1.1"
   inkscape:version="0.91 r13725"
   sodipodi:docname="userinput.svg">
  <defs
     id="defs4" />
  <sodipodi:namedview
     id="base"
     pagecolor="#ffffff"
     bordercolor="#666666"
     borderopacity="1.0"
     inkscape:pageopacity="0.0"
     inkscape:pageshadow="2"
     inkscape:zoom="0.91"
     inkscape:cx="221.14779"
     inkscape:cy="241.28735"
     inkscape:document-units="px"
     inkscape:current-layer="layer1"
     showgrid="false"
     fit-margin-top="0"
     fit-margin-left="0"
     fit-margin-right="0"
     fit-margin-bottom="0"
     inkscape:window-width="1920"
     inkscape:window-height="1017"
     inkscape:window-x="1912"
     inkscape:window-y="-8"
     inkscape:window-maximized="1" />
  <metadata
     id="metadata7">
    <rdf:RDF>
      <cc:Work
         rdf:about="">
        <dc:format>image/svg+xml</dc:format>
        <dc:type
           rdf:resource="http://purl.org/dc/dcmitype/StillImage" />
        <dc:title></dc:title>
      </cc:Work>
    </rdf:RDF>
  </metadata>
  <g
     inkscape:label="Ebene 1"
     inkscape:groupmode="layer"
     id="layer1"
     transform="translate(-6.3054154,23.342229)">
    <g
       id="g4469"
       transform="matrix(0.78125,0,0,0.78125,168.70102,-22.375219)">
      <path
         id="path4471"
         d="m 183.8,297.6 -0.2,-54.95 c 48.85,0 95.95,0 144.8,0 l -0.2,54.95 c 9.9,9 21.5,16.15 32.9,23.05 28.6,17.25 54.25,32.25 69.25,63.8 9.6,20.1 12.65,42.75 12.65,64.8 0,2.25 -0.3,4.45 -0.95,6.65 -7.5,25.6 -58.15,37.6 -82,42.15 C 326.2,504.45 290.35,507 256,507 221.65,507 185.8,504.45 151.95,498.05 128.1,493.5 77.45,481.5 69.95,455.9 69.3,453.7 69,451.5 69,449.25 c 0,-22.05 3.05,-44.7 12.65,-64.8 15,-31.55 40.65,-46.55 69.25,-63.8 11.4,-6.9 23,-14.05 32.9,-23.05 z"
         inkscape:connector-curvature="0"
         style="fill:#f5a557" />
      <path
         id="path4473"
         d="m 256,512 c -80,0 -192,-15.7 -192,-62.75 0,-98.9 61,-115.5 103,-144.8 5.85,12.45 18.95,21.2 31.35,26.65 17.6,7.75 38.5,11.55 57.65,11.55 19.15,0 40.05,-3.8 57.65,-11.55 12.4,-5.45 25.5,-14.2 31.35,-26.65 42,29.3 103,45.9 103,144.8 C 448,496.3 336,512 256,512 Z"
         inkscape:connector-curvature="0"
         style="fill:#0299e3" />
      <path
         id="path4475"
         d="m 345,304.45 c 42,29.3 103,45.9 103,144.8 C 448,496.3 336,512 256,512 l 0,-169.35 c 19.15,0 40.05,-3.8 57.65,-11.55 12.4,-5.45 25.5,-14.2 31.35,-26.65 z"
         inkscape:connector-curvature="0"
         style="fill:#0287cf" />
      <path
         id="path4477"
         d="m 256,342.65 c -19.15,0 -40.05,-3.8 -57.65,-11.55 -12.4,-5.45 -25.5,-14.2 -31.35,-26.65 6.15,-4.25 11.7,-8.65 16.8,-13.75 0.1,16.5 36,31.95 72.2,31.95 36.2,0 72.1,-15.55 72.2,-32.05 5.1,5.1 10.65,9.6 16.8,13.85 -5.85,12.45 -18.95,21.2 -31.35,26.65 -17.6,7.75 -38.5,11.55 -57.65,11.55 z"
         inkscape:connector-curvature="0"
         style="fill:#ffffff" />
      <path
         id="path4479"
         d="m 328.2,290.6 c 5.1,5.1 10.65,9.6 16.8,13.85 -5.85,12.45 -18.95,21.2 -31.35,26.65 -17.6,7.75 -38.5,11.55 -57.65,11.55 l 0,-20 c 36.2,0 72.1,-15.55 72.2,-32.05 z"
         inkscape:connector-curvature="0"
         style="fill:#ebedef" />
      <path
         id="path4481"
         d="m 256,0 c 91.7,0 122.3,64 122.3,128 0,80 -61.15,160 -122.3,160 C 194.85,288 133.7,208 133.7,128 133.7,64 164.3,0 256,0 Z"
         inkscape:connector-curvature="0"
         style="fill:#f5b673" />
      <path
         id="path4483"
         d="m 256,0 c 91.7,0 122.3,64 122.3,128 0,80 -61.15,160 -122.3,160 z"
         inkscape:connector-curvature="0"
         style="fill:#f5a557" />
    </g>
    <g
       id="g4591"
       transform="matrix(0.87890625,0,0,0.87890625,7.4482764,166.23124)">
      <path
         id="path4593"
         d="m 8,176 496,0 c 4.4,0 8,3.6 8,8 l 0,144 c 0,4.4 -3.6,8 -8,8 L 8,336 c -4.4,0 -8,-3.6 -8,-8 L 0,184 c 0,-4.4 3.6,-8 8,-8 z"
         inkscape:connector-curvature="0"
         style="fill:#ebedef" />
      <path
         id="path4595"
         d="m 0,256 512,0 0,72 c 0,4.4 -3.6,8 -8,8 L 8,336 c -4.4,0 -8,-3.6 -8,-8 z"
         inkscape:connector-curvature="0"
         style="fill:#cdd7db" />
      <path
         id="path4597"
         d="m 92.3,285.2 -30.85,0 -5.4,17.5 -24.05,0 34.25,-93.4 21.15,0 34.5,93.4 -24.15,0 z m -25.5,-17.3 20.1,0 -10.05,-32.45 z m 66.5,34.8 0,-93.4 33.55,0 c 12,0 21.15,2.2 27.45,6.6 6.25,4.45 9.35,10.85 9.35,19.2 0,4.85 -1.1,9 -3.3,12.4 -2.25,3.45 -5.5,5.95 -9.8,7.6 4.85,1.25 8.6,3.65 11.2,7.15 2.6,3.5 3.9,7.8 3.9,12.8 0,9.15 -2.9,16.05 -8.7,20.65 -5.8,4.55 -14.35,6.9 -25.7,7 z m 22.5,-39.55 0,22.2 14.75,0 c 4.1,0 7.2,-0.9 9.4,-2.75 2.2,-1.85 3.25,-4.45 3.25,-7.8 0,-7.75 -3.85,-11.6 -11.6,-11.65 z m 0,-14.95 11.75,0 c 4.95,-0.05 8.45,-0.95 10.55,-2.7 2.1,-1.75 3.15,-4.35 3.15,-7.75 0,-3.95 -1.15,-6.75 -3.45,-8.5 -2.25,-1.75 -5.9,-2.6 -10.95,-2.6 l -11.05,0 z m 142.4,22.9 c -0.35,6.5 -2.1,12.25 -5.3,17.25 -3.2,4.95 -7.7,8.8 -13.5,11.55 -5.8,2.7 -12.4,4.1 -19.85,4.1 -12.25,0 -21.9,-4 -28.95,-12 -7.1,-8 -10.6,-19.3 -10.6,-33.85 l 0,-4.6 c 0,-9.15 1.6,-17.2 4.8,-24.05 3.15,-6.85 7.75,-12.15 13.75,-15.9 5.95,-3.75 12.9,-5.6 20.75,-5.6 11.35,0 20.45,3 27.3,8.95 6.9,5.95 10.8,14.2 11.75,24.65 l -22.45,0 c -0.15,-5.7 -1.6,-9.8 -4.25,-12.3 -2.7,-2.45 -6.85,-3.7 -12.35,-3.7 -5.6,0 -9.7,2.1 -12.3,6.3 -2.6,4.2 -4,10.9 -4.1,20.1 l 0,6.6 c 0,9.95 1.25,17.1 3.75,21.4 2.5,4.25 6.8,6.4 12.9,6.4 5.2,0 9.15,-1.2 11.9,-3.65 2.7,-2.45 4.15,-6.35 4.35,-11.65 z"
         inkscape:connector-curvature="0"
         style="fill:#0287cf" />
      <path
         id="path4599"
         d="m 92.3,285.2 -30.85,0 -5.4,17.5 -24.05,0 17.15,-46.7 21.35,0 -3.7,11.9 20.1,0 -3.7,-11.9 21.45,0 17.25,46.7 -24.15,0 z m 41,-29.2 60.05,0 c 3.5,1.4 6.3,3.45 8.4,6.25 2.6,3.5 3.9,7.8 3.9,12.8 0,9.15 -2.9,16.05 -8.7,20.65 -5.8,4.55 -14.35,6.9 -25.7,7 l -37.95,0 z m 86.7,0 22.9,0 0,2.6 c 0,9.95 1.25,17.1 3.75,21.4 2.5,4.25 6.8,6.4 12.9,6.4 5.2,0 9.15,-1.2 11.9,-3.65 2.7,-2.45 4.15,-6.35 4.35,-11.65 l 22.4,0 c -0.35,6.5 -2.1,12.25 -5.3,17.25 -3.2,4.95 -7.7,8.8 -13.5,11.55 -5.8,2.7 -12.4,4.1 -19.85,4.1 -12.25,0 -21.9,-4 -28.95,-12 -7.1,-8 -10.6,-19.3 -10.6,-33.85 z m -64.2,7.15 0,22.2 14.75,0 c 4.1,0 7.2,-0.9 9.4,-2.75 2.2,-1.85 3.25,-4.45 3.25,-7.8 0,-7.75 -3.85,-11.6 -11.6,-11.65 z"
         inkscape:connector-curvature="0"
         style="fill:#0276bb" />
      <path
         id="path4601"
         d="m 304,144 32,0 c 2.9,0 5.65,0.8 8,2.15 2.35,-1.35 5.1,-2.15 8,-2.15 l 32,0 0,16 -32,0 0,192 32,0 0,16 -32,0 c -2.9,0 -5.65,-0.8 -8,-2.15 -2.35,1.35 -5.1,2.15 -8,2.15 l -32,0 0,-16 32,0 0,-192 -32,0 z"
         inkscape:connector-curvature="0"
         style="fill:#546e7a" />
      <path
         id="path4603"
         d="m 352,256 0,96 32,0 0,16 -32,0 c -2.9,0 -5.65,-0.8 -8,-2.15 -2.35,1.35 -5.1,2.15 -8,2.15 l -32,0 0,-16 32,0 0,-96 z"
         inkscape:connector-curvature="0"
         style="fill:#445a64" />
    </g>
  </g>
</svg>
