<?xml version="1.0" encoding="UTF-8" standalone="no"?>
<svg
   xmlns:dc="http://purl.org/dc/elements/1.1/"
   xmlns:cc="http://creativecommons.org/ns#"
   xmlns:rdf="http://www.w3.org/1999/02/22-rdf-syntax-ns#"
   xmlns:svg="http://www.w3.org/2000/svg"
   xmlns="http://www.w3.org/2000/svg"
   xmlns:sodipodi="http://sodipodi.sourceforge.net/DTD/sodipodi-0.dtd"
   xmlns:inkscape="http://www.inkscape.org/namespaces/inkscape"
   x="0"
   y="0"
   width="512"
   height="512"
   version="1.1"
   viewBox="0 0 512 512"
   id="svg4136"
   inkscape:version="0.91 r13725"
   sodipodi:docname="node_reset.svg">
  <metadata
     id="metadata4154">
    <rdf:RDF>
      <cc:Work
         rdf:about="">
        <dc:format>image/svg+xml</dc:format>
        <dc:type
           rdf:resource="http://purl.org/dc/dcmitype/StillImage" />
        <dc:title>elements hierarchy icon</dc:title>
      </cc:Work>
    </rdf:RDF>
  </metadata>
  <defs
     id="defs4152" />
  <sodipodi:namedview
     pagecolor="#ffffff"
     bordercolor="#666666"
     borderopacity="1"
     objecttolerance="10"
     gridtolerance="10"
     guidetolerance="10"
     inkscape:pageopacity="0"
     inkscape:pageshadow="2"
     inkscape:window-width="1920"
     inkscape:window-height="1017"
     id="namedview4150"
     showgrid="false"
     inkscape:zoom="1.6601562"
     inkscape:cx="256"
     inkscape:cy="143.22591"
     inkscape:window-x="1912"
     inkscape:window-y="-8"
     inkscape:window-maximized="1"
     inkscape:current-layer="svg4136" />
  <title
     id="title4138">elements hierarchy icon</title>
  <desc
     id="desc4140">elements hierarchy icon from the IconExperience.com G-Collection. Copyright by INCORS GmbH (www.incors.com).</desc>
  <g
     id="g5194"
     transform="translate(-48,0)">
    <path
       id="path5196"
       d="m 102.65,416 41.35,0 0,64 -41.35,0 c -4.45,0 -8.2,-1.55 -11.35,-4.7 l -6.6,-6.6 C 81.55,465.55 77.8,464 73.35,464 l -25.35,0 0,-32 25.35,0 c 4.45,0 8.2,-1.55 11.35,-4.7 l 6.6,-6.6 c 3.15,-3.15 6.9,-4.7 11.35,-4.7 z m 0,-96 41.35,0 0,64 -41.35,0 c -4.45,0 -8.2,-1.55 -11.35,-4.7 l -6.6,-6.6 C 81.55,369.55 77.8,368 73.35,368 l -25.35,0 0,-32 25.35,0 c 4.45,0 8.2,-1.55 11.35,-4.7 l 6.6,-6.6 c 3.15,-3.15 6.9,-4.7 11.35,-4.7 z m 0,-96 41.35,0 0,64 -41.35,0 c -4.45,0 -8.2,-1.55 -11.35,-4.7 l -6.6,-6.6 C 81.55,273.55 77.8,272 73.35,272 l -25.35,0 0,-32 25.35,0 c 4.45,0 8.2,-1.55 11.35,-4.7 l 6.6,-6.6 c 3.15,-3.15 6.9,-4.7 11.35,-4.7 z m 0,-96 41.35,0 0,64 -41.35,0 c -4.45,0 -8.2,-1.55 -11.35,-4.7 l -6.6,-6.6 C 81.55,177.55 77.8,176 73.35,176 l -25.35,0 0,-32 25.35,0 c 4.45,0 8.2,-1.55 11.35,-4.7 l 6.6,-6.6 c 3.15,-3.15 6.9,-4.7 11.35,-4.7 z m 0,-96 41.35,0 0,64 -41.35,0 C 98.2,96 94.45,94.45 91.3,91.3 L 84.7,84.7 C 81.55,81.55 77.8,80 73.35,80 L 48,80 48,48 73.35,48 c 4.45,0 8.2,-1.55 11.35,-4.7 l 6.6,-6.6 C 94.45,33.55 98.2,32 102.65,32 Z"
       inkscape:connector-curvature="0"
       style="fill:#cdd7db" />
    <path
       id="path5198"
       d="m 409.35,416 -41.35,0 0,64 41.35,0 c 4.45,0 8.2,-1.55 11.35,-4.7 l 6.6,-6.6 c 3.15,-3.15 6.9,-4.7 11.35,-4.7 l 25.35,0 0,-32 -25.35,0 c -4.45,0 -8.2,-1.55 -11.35,-4.7 l -6.6,-6.6 c -3.15,-3.15 -6.9,-4.7 -11.35,-4.7 z m 0,-96 -41.35,0 0,64 41.35,0 c 4.45,0 8.2,-1.55 11.35,-4.7 l 6.6,-6.6 c 3.15,-3.15 6.9,-4.7 11.35,-4.7 l 25.35,0 0,-32 -25.35,0 c -4.45,0 -8.2,-1.55 -11.35,-4.7 l -6.6,-6.6 c -3.15,-3.15 -6.9,-4.7 -11.35,-4.7 z m 0,-96 -41.35,0 0,64 41.35,0 c 4.45,0 8.2,-1.55 11.35,-4.7 l 6.6,-6.6 c 3.15,-3.15 6.9,-4.7 11.35,-4.7 l 25.35,0 0,-32 -25.35,0 c -4.45,0 -8.2,-1.55 -11.35,-4.7 l -6.6,-6.6 c -3.15,-3.15 -6.9,-4.7 -11.35,-4.7 z m 0,-96 -41.35,0 0,64 41.35,0 c 4.45,0 8.2,-1.55 11.35,-4.7 l 6.6,-6.6 c 3.15,-3.15 6.9,-4.7 11.35,-4.7 l 25.35,0 0,-32 -25.35,0 c -4.45,0 -8.2,-1.55 -11.35,-4.7 l -6.6,-6.6 c -3.15,-3.15 -6.9,-4.7 -11.35,-4.7 z m 0,-96 -41.35,0 0,64 41.35,0 c 4.45,0 8.2,-1.55 11.35,-4.7 l 6.6,-6.6 c 3.15,-3.15 6.9,-4.7 11.35,-4.7 l 25.35,0 0,-32 -25.35,0 c -4.45,0 -8.2,-1.55 -11.35,-4.7 l -6.6,-6.6 C 417.55,33.55 413.8,32 409.35,32 Z"
       inkscape:connector-curvature="0"
       style="fill:#afbdc3" />
    <path
       id="path5200"
       d="m 144,0 224,0 c 8.8,0 16,7.2 16,16 l 0,480 c 0,8.8 -7.2,16 -16,16 l -224,0 c -8.8,0 -16,-7.2 -16,-16 l 0,-480 c 0,-8.8 7.2,-16 16,-16 z"
       inkscape:connector-curvature="0"
       style="fill:#546e7a" />
    <path
       id="path5202"
       d="m 380.8,6.4 c 2,2.7 3.2,6 3.2,9.6 l 0,480 c 0,8.8 -7.2,16 -16,16 l -224,0 c -5.2,0 -9.85,-2.5 -12.8,-6.4 z"
       inkscape:connector-curvature="0"
       style="fill:#445a64" />
    <path
       id="path5204"
       d="m 256,464 c 26.5,0 48,21.5 48,48 l -96,0 c 0,-26.5 21.5,-48 48,-48 z"
       inkscape:connector-curvature="0"
       style="fill:#36464e" />
  </g>
  <path
     style="fill:#e55000;fill-opacity:1"
     inkscape:connector-curvature="0"
     d="m 232,372 c 0,77.32084 62.67917,140 140,140 77.32084,0 140,-62.67916 140,-140 0,-77.32083 -62.67916,-140 -140,-140 -77.32083,0 -140,62.67917 -140,140 z"
     id="path5015" />
  <path
     style="fill:#d74214;fill-opacity:1"
     inkscape:connector-curvature="0"
     d="m 512,372 c 0,77.32084 -62.67916,140 -140,140 -38.64583,0 -73.64583,-15.6625 -98.99166,-41.00833 L 470.99167,273.00834 C 496.3375,298.35417 512,333.35417 512,372 Z"
     id="path5017" />
  <path
     style="fill:#ffffff"
     inkscape:connector-curvature="0"
     d="m 399.825,344.175 -18.8125,-18.84166 -55.67916,0 0,-46.66667 65.33333,0 0,0 c 5.97917,0 11.92917,2.275 16.50833,6.825 l 25.66667,25.66667 27.825,-27.825 0,88.66666 L 372,372 Z m -55.65,55.65 18.8125,18.84167 55.67917,0 0,46.66667 -65.33333,0 0,0 c -5.97917,0 -11.92917,-2.275 -16.50834,-6.825 l -25.66666,-25.66667 -27.825,27.825 0,-88.66667 L 372,372 Z"
     id="path5019" />
  <path
     style="fill:#ebedef"
     inkscape:connector-curvature="0"
     d="m 344.175,399.825 18.8125,18.84167 55.67917,0 0,46.66667 -65.33333,0 0,0 c -5.97917,0 -11.92917,-2.275 -16.50834,-6.825 l -25.66666,-25.66667 z m 88.66667,-88.66666 27.825,-27.825 0,88.66666 L 372,372 399.825,344.175 Z"
     id="path5021" />
</svg>
