<?xml version="1.0" encoding="UTF-8" standalone="no"?>
<svg
   xmlns:dc="http://purl.org/dc/elements/1.1/"
   xmlns:cc="http://creativecommons.org/ns#"
   xmlns:rdf="http://www.w3.org/1999/02/22-rdf-syntax-ns#"
   xmlns:svg="http://www.w3.org/2000/svg"
   xmlns="http://www.w3.org/2000/svg"
   xmlns:sodipodi="http://sodipodi.sourceforge.net/DTD/sodipodi-0.dtd"
   xmlns:inkscape="http://www.inkscape.org/namespaces/inkscape"
   x="0"
   y="0"
   width="512"
   height="512"
   version="1.1"
   viewBox="0 0 512 512"
   id="svg7089"
   inkscape:version="0.91 r13725"
   sodipodi:docname="monitor_symbol_blue.svg">
  <metadata
     id="metadata7109">
    <rdf:RDF>
      <cc:Work
         rdf:about="">
        <dc:format>image/svg+xml</dc:format>
        <dc:type
           rdf:resource="http://purl.org/dc/dcmitype/StillImage" />
        <dc:title>hint icon</dc:title>
      </cc:Work>
    </rdf:RDF>
  </metadata>
  <defs
     id="defs7107" />
  <sodipodi:namedview
     pagecolor="#ffffff"
     bordercolor="#666666"
     borderopacity="1"
     objecttolerance="10"
     gridtolerance="10"
     guidetolerance="10"
     inkscape:pageopacity="0"
     inkscape:pageshadow="2"
     inkscape:window-width="1920"
     inkscape:window-height="1017"
     id="namedview7105"
     showgrid="false"
     inkscape:zoom="0.4609375"
     inkscape:cx="256"
     inkscape:cy="603.11864"
     inkscape:window-x="1912"
     inkscape:window-y="-8"
     inkscape:window-maximized="1"
     inkscape:current-layer="svg7089" />
  <title
     id="title7091">hint icon</title>
  <desc
     id="desc7093">hint icon from the IconExperience.com G-Collection. Copyright by INCORS GmbH (www.incors.com).</desc>
  <path
     style="fill:#28b5f5"
     inkscape:connector-curvature="0"
     id="path7097"
     d="M 256,16 C 388.55,16 496,123.45 496,256 496,388.55 388.55,496 256,496 123.45,496 16,388.55 16,256 16,123.45 123.45,16 256,16 Z" />
  <path
     style="fill:#0299e3"
     inkscape:connector-curvature="0"
     id="path7099"
     d="M 425.7,86.3 C 469.15,129.75 496,189.75 496,256 496,388.55 388.55,496 256,496 189.75,496 129.75,469.15 86.3,425.7 Z" />
  <path
     style="fill:#ffffff"
     inkscape:connector-curvature="0"
     id="path7101"
     d="m 1104.3178,-97.194915 -55.55,0 -8.75,-202.500005 73.05,0 z m -66.3,63.15 c 0,-10.1 3.6,-18.3 10.9,-24.75 7.2,-6.45 16.3,-9.65 27.15,-9.65 10.85,0 19.85,3.2 27.15,9.65 7.2,6.45 10.9,14.65 10.9,24.75 0,10 -3.7,18.25 -10.9,24.6999997 -7.3,6.45 -16.3,9.65000005 -27.15,9.65000005 -10.85,0 -19.95,-3.20000005 -27.15,-9.65000005 -7.3,-6.4499997 -10.9,-14.6999997 -10.9,-24.6999997 z" />
  <path
     inkscape:connector-curvature="0"
     id="path7681"
     d="m 365.26325,144.33606 c -74.81408,0.86677 -149.72254,-0.15536 -224.55208,0.52062 -13.55865,1.62529 -22.30567,16.35554 -19.61726,29.38842 0.31788,52.86456 -0.66921,105.79307 0.50298,158.61866 2.76626,13.69488 18.27541,20.04022 30.87658,17.71363 23.67955,-0.0411 47.35915,-0.0358 71.03871,-0.004 -1.37225,8.29992 2.1519,17.14038 -1.20931,25.02299 -8.89546,4.69321 -19.81987,-1.71466 -28.81784,3.19577 -6.16291,3.17886 -7.9397,10.47208 -7.64706,16.8082 -1.8342,5.88671 4.42992,9.82615 9.61861,8.82104 43.40794,-0.48299 86.83524,-0.0514 130.25032,-0.19833 0.32945,-8.67995 2.15288,-21.14572 -7.51072,-25.62022 -9.14667,-4.57544 -20.22443,2.01807 -28.67254,-3.44141 -3.78863,-7.18552 2.13582,-16.5624 -2.54827,-23.4454 -3.99341,-2.35667 4.19959,-0.44342 5.72467,-1.09979 26.97549,-0.30889 54.0625,0.50391 80.97029,-0.72571 12.47402,-2.82334 19.61656,-16.70497 17.2816,-28.89488 -0.31662,-52.86681 0.66689,-105.79756 -0.501,-158.62541 -2.27652,-11.46448 -14.15639,-18.42655 -25.18768,-18.03423 z m -2.08555,27.42996 c 0,50.56733 0,101.13467 0,151.702 -71.43661,0 -142.87321,0 -214.30982,0 0,-50.56733 0,-101.13467 0,-151.702 71.43661,0 142.87321,0 214.30982,0 z m -90.87503,178.85025 c -0.50538,0.0321 -1.99662,-0.0299 0,0 z"
     style="fill:#ebedef;fill-opacity:1" />
  <path
     style="fill:#ffffff;fill-opacity:1"
     d="M 365.26367 144.33594 C 290.44959 145.20271 215.54048 144.18144 140.71094 144.85742 C 127.15229 146.48271 118.40534 161.21126 121.09375 174.24414 C 121.41163 227.1087 120.42547 280.03769 121.59766 332.86328 C 124.36392 346.55816 139.87149 352.90471 152.47266 350.57812 C 155.45832 350.57294 158.44403 350.57406 161.42969 350.57031 L 188.53125 323.46875 L 148.86719 323.46875 L 148.86719 171.76562 L 340.23438 171.76562 L 367.62695 144.37305 C 366.83749 144.32756 366.04831 144.30803 365.26367 144.33594 z "
     id="curve2" />
</svg>
