<?xml version="1.0" encoding="UTF-8" standalone="no"?>
<!-- Created with Inkscape (http://www.inkscape.org/) -->

<svg
   xmlns:dc="http://purl.org/dc/elements/1.1/"
   xmlns:cc="http://creativecommons.org/ns#"
   xmlns:rdf="http://www.w3.org/1999/02/22-rdf-syntax-ns#"
   xmlns:svg="http://www.w3.org/2000/svg"
   xmlns="http://www.w3.org/2000/svg"
   xmlns:sodipodi="http://sodipodi.sourceforge.net/DTD/sodipodi-0.dtd"
   xmlns:inkscape="http://www.inkscape.org/namespaces/inkscape"
   width="511.99997"
   height="511.99997"
   viewBox="0 0 511.99998 511.99998"
   id="svg4461"
   version="1.1"
   inkscape:version="0.92.3 (2405546, 2018-03-11)"
   sodipodi:docname="text_code_line_request_stop_blue.svg">
  <defs
     id="defs4463" />
  <sodipodi:namedview
     id="base"
     pagecolor="#ffffff"
     bordercolor="#666666"
     borderopacity="1.0"
     inkscape:pageopacity="0.0"
     inkscape:pageshadow="2"
     inkscape:zoom="1.16"
     inkscape:cx="195.98248"
     inkscape:cy="244.9042"
     inkscape:document-units="px"
     inkscape:current-layer="layer1"
     showgrid="false"
     fit-margin-top="0"
     fit-margin-left="0"
     fit-margin-right="0"
     fit-margin-bottom="0"
     units="px"
     inkscape:window-width="1920"
     inkscape:window-height="1017"
     inkscape:window-x="1912"
     inkscape:window-y="-8"
     inkscape:window-maximized="1" />
  <metadata
     id="metadata4466">
    <rdf:RDF>
      <cc:Work
         rdf:about="">
        <dc:format>image/svg+xml</dc:format>
        <dc:type
           rdf:resource="http://purl.org/dc/dcmitype/StillImage" />
        <dc:title />
      </cc:Work>
    </rdf:RDF>
  </metadata>
  <g
     inkscape:label="Ebene 1"
     inkscape:groupmode="layer"
     id="layer1"
     transform="translate(382.10837,-174.22756)">
    <polygon
       style="fill:#dff3fd"
       points="448,0 448,512 64,512 64,0 "
       id="polygon4192"
       transform="matrix(1.0416666,0,0,0.78125,-448.77504,174.22753)" />
    <path
       style="fill:#445a64"
       d="m -346.17087,203.91503 0,25.60096 112.25329,0 0,-25.60096 -112.25329,0 z m 48.10855,51.20192 0,25.60096 176.39803,0 0,-25.60096 -176.39803,0 z m 64.14474,51.20192 0,25.60096 192.43421,0 0,-25.60096 -192.43421,0 z m 0,51.20192 0,25.60097 112.25329,0 0,-25.60097 -112.25329,0 z m -64.14474,51.20193 0,25.60096 144.32566,0 0,-25.60096 -144.32566,0 z m 0,51.20192 0,25.60097 112.25329,0 0,-25.60097 -112.25329,0 z m 0,51.20193 0,25.60099 192.43422,0 0,-25.60099 -192.43422,0 z"
       id="path4200"
       inkscape:connector-curvature="0" />
    <path
       style="fill:#15b1fd;fill-opacity:1;stroke:#016c9e;stroke-width:10.6658268;stroke-miterlimit:4;stroke-dasharray:none;stroke-opacity:1"
       inkscape:connector-curvature="0"
       d="m -133.06529,411.56044 h 245.9138 c 6.4406,0 11.71018,5.26958 11.71018,11.71018 v 245.91381 c 0,6.4406 -5.26958,11.71019 -11.71018,11.71019 h -245.9138 c -6.44061,0 -11.71019,-5.26959 -11.71019,-11.71019 V 423.27062 c 0,-6.4406 5.26958,-11.71018 11.71019,-11.71018 z"
       id="path835" />
  </g>
</svg>
