<?xml version="1.0" encoding="UTF-8" standalone="no"?>
<svg
   xmlns:dc="http://purl.org/dc/elements/1.1/"
   xmlns:cc="http://creativecommons.org/ns#"
   xmlns:rdf="http://www.w3.org/1999/02/22-rdf-syntax-ns#"
   xmlns:svg="http://www.w3.org/2000/svg"
   xmlns="http://www.w3.org/2000/svg"
   xmlns:sodipodi="http://sodipodi.sourceforge.net/DTD/sodipodi-0.dtd"
   xmlns:inkscape="http://www.inkscape.org/namespaces/inkscape"
   x="0"
   y="0"
   width="512"
   height="512"
   version="1.1"
   viewBox="0 0 512 512"
   id="svg4136"
   inkscape:version="0.91 r13725"
   sodipodi:docname="function.svg">
  <metadata
     id="metadata4152">
    <rdf:RDF>
      <cc:Work
         rdf:about="">
        <dc:format>image/svg+xml</dc:format>
        <dc:type
           rdf:resource="http://purl.org/dc/dcmitype/StillImage" />
        <dc:title>function icon</dc:title>
      </cc:Work>
    </rdf:RDF>
  </metadata>
  <defs
     id="defs4150" />
  <sodipodi:namedview
     pagecolor="#ffffff"
     bordercolor="#666666"
     borderopacity="1"
     objecttolerance="10"
     gridtolerance="10"
     guidetolerance="10"
     inkscape:pageopacity="0"
     inkscape:pageshadow="2"
     inkscape:window-width="1920"
     inkscape:window-height="1017"
     id="namedview4148"
     showgrid="false"
     inkscape:zoom="0.78"
     inkscape:cx="256"
     inkscape:cy="256"
     inkscape:window-x="1912"
     inkscape:window-y="-8"
     inkscape:window-maximized="1"
     inkscape:current-layer="svg4136" />
  <title
     id="title4138">function icon</title>
  <desc
     id="desc4140">function icon from the IconExperience.com G-Collection. Copyright by INCORS GmbH (www.incors.com).</desc>
  <path
     style="fill:#66b96a;fill-opacity:1"
     inkscape:connector-curvature="0"
     id="path4144"
     d="m 198.55,190.4 -40.55,0 -26.65,176.55 c -3.15,25.75 -11.95,45.75 -26.4,60 -14.45,14.3 -33.25,21.3 -56.5,21.05 -10,-0.3 -20.85,-1.6 -32.55,-3.85 L 23.55,393 c 6.55,1.95 12.05,3 16.45,3 7.4,0 13.3,-2.2 17.65,-6.65 4.3,-4.35 7.25,-11.85 8.8,-22.4 L 93.1,190.4 l -29.75,0 7.2,-46.7 29.6,0 2.4,-19.4 c 3.1,-24 12.6,-42.8 28.5,-56.2 15.85,-13.45 36.4,-20.1 61.65,-19.8 7.8,0 18.9,1.4 33.3,4.2 l -8.65,50.4 c -6.75,-1.7 -13.15,-2.6 -19.2,-2.6 -17.1,0.25 -27.3,8.85 -30.55,25.85 l -2.55,17.55 40.75,0 z m 85.05,-52.55 6.65,22.65 c -16.85,12.8 -29.95,30.55 -39.45,53.2 -9.5,22.65 -16.65,52.3 -18.55,89.05 l -0.65,13.1 c -1.85,36.3 6.3,61.05 23,74.25 l -9.4,22.1 c -10.6,-5.4 -19.45,-13.4 -26.7,-24.05 -7.2,-10.6 -12.45,-23.55 -15.7,-38.85 -3.2,-15.3 -4.5,-31.25 -4,-47.75 0.75,-24.6 4.8,-48.5 12,-71.55 7.25,-23.15 17,-42.7 29.4,-58.6 12.35,-15.9 26.85,-27.05 43.4,-33.55 z m 65.35,109.6 26,-39.45 46.5,0 -48.2,72.2 25.85,71.95 -42.85,0 -14.9,-42.35 -27.55,42.35 -47.05,0 50.7,-75.95 -24.7,-68.2 43.25,0 z m 143.3,28.9 c -2.3,21.4 -8.25,41.6 -16.4,60.75 -8.15,19.15 -18.15,35.15 -29.95,48 -11.8,12.8 -24.85,21.95 -39.1,27.4 l -6.65,-22.65 c 16.8,-13.15 29.95,-31.1 39.5,-53.75 9.55,-22.65 16.25,-52.2 18.5,-88.65 l 0.8,-13.1 c 2.2,-36.45 -6.85,-61.2 -23.15,-74.15 l 9.55,-22.1 c 15.15,7.55 26.9,20.2 35.25,37.8 8.35,17.65 13.2,39.05 13.6,64.2 l 0.15,8.4 c 0.15,8.55 -0.9,16.55 -1.7,24.1 z" />
  <path
     style="fill:#429f46;fill-opacity:1"
     inkscape:connector-curvature="0"
     id="path4146"
     d="m 132.8,357.3 -1.45,9.65 c -3.15,25.75 -11.95,45.75 -26.4,60 C 90.75,441 72.3,448.05 49.5,448 l -1.05,0 c -10,-0.3 -20.85,-1.6 -32.55,-3.85 l 3.45,-23.05 z m 66.2,-37.25 33.35,-18.75 -0.1,1.45 -0.65,13.1 c -1.85,36.3 6.3,61.05 23,74.25 l -9.4,22.1 c -10.6,-5.4 -19.45,-13.4 -26.7,-24.05 -7.2,-10.6 -12.45,-23.55 -15.7,-38.85 -2,-9.5 -3.25,-19.25 -3.8,-29.25 z m 111.6,-62.75 35.1,-19.75 3.25,9.9 12.25,-18.65 37,-20.8 23.25,0 -48.2,72.2 25.85,71.95 -42.85,0 -14.9,-42.35 -27.55,42.35 -47.05,0 50.7,-75.95 z m 139.75,-78.6 24.25,-13.65 c 2.15,3.35 4.15,7 6,10.85 8.35,17.65 13.2,39.05 13.6,64.2 l 0.15,8.4 c 0.15,8.55 -0.9,16.55 -1.7,24.1 l -0.4,3.75 c -2.3,21.4 -8.25,41.6 -16.4,60.75 -8.15,19.15 -18.15,35.15 -29.95,48 -11.8,12.8 -24.85,21.95 -39.1,27.4 l -6.65,-22.65 c 16.8,-13.15 29.95,-31.1 39.5,-53.75 9.55,-22.65 16.25,-52.2 18.5,-88.65 l 0.8,-13.1 c 1.4,-23.4 -1.8,-41.95 -8.6,-55.65 z" />
</svg>
