<?xml version="1.0" encoding="UTF-8" standalone="no"?>
<svg
   xmlns:dc="http://purl.org/dc/elements/1.1/"
   xmlns:cc="http://creativecommons.org/ns#"
   xmlns:rdf="http://www.w3.org/1999/02/22-rdf-syntax-ns#"
   xmlns:svg="http://www.w3.org/2000/svg"
   xmlns="http://www.w3.org/2000/svg"
   xmlns:sodipodi="http://sodipodi.sourceforge.net/DTD/sodipodi-0.dtd"
   xmlns:inkscape="http://www.inkscape.org/namespaces/inkscape"
   x="0"
   y="0"
   width="512"
   height="512"
   version="1.1"
   viewBox="0 0 512 512"
   id="svg5320"
   inkscape:version="0.91 r13725"
   sodipodi:docname="line-chart_start.svg">
  <metadata
     id="metadata5348">
    <rdf:RDF>
      <cc:Work
         rdf:about="">
        <dc:format>image/svg+xml</dc:format>
        <dc:type
           rdf:resource="http://purl.org/dc/dcmitype/StillImage" />
        <dc:title>chart line icon</dc:title>
      </cc:Work>
    </rdf:RDF>
  </metadata>
  <defs
     id="defs5346" />
  <sodipodi:namedview
     pagecolor="#ffffff"
     bordercolor="#666666"
     borderopacity="1"
     objecttolerance="10"
     gridtolerance="10"
     guidetolerance="10"
     inkscape:pageopacity="0"
     inkscape:pageshadow="2"
     inkscape:window-width="1920"
     inkscape:window-height="1017"
     id="namedview5344"
     showgrid="false"
     inkscape:zoom="0.525169"
     inkscape:cx="258.36347"
     inkscape:cy="256"
     inkscape:window-x="1912"
     inkscape:window-y="-8"
     inkscape:window-maximized="1"
     inkscape:current-layer="svg5320" />
  <title
     id="title5322">chart line icon</title>
  <desc
     id="desc5324">chart line icon from the IconExperience.com G-Collection. Copyright by INCORS GmbH (www.incors.com).</desc>
  <g
     id="g5326"
     transform="translate(-32,-32)">
    <path
       d="m 64,32 384,0 c 17.65,0 32,14.35 32,32 l 0,384 c 0,17.65 -14.35,32 -32,32 L 64,480 C 46.35,480 32,465.65 32,448 L 32,64 C 32,46.35 46.35,32 64,32 Z"
       id="path5328"
       inkscape:connector-curvature="0"
       style="fill:#546e7a" />
    <path
       d="m 470.6,41.4 c 5.8,5.8 9.4,13.8 9.4,22.6 l 0,384 c 0,17.65 -14.35,32 -32,32 l -384,0 c -8.8,0 -16.8,-3.6 -22.6,-9.4 z"
       id="path5330"
       inkscape:connector-curvature="0"
       style="fill:#445a64" />
    <path
       d="m 112,480 0,-80 -80,0 0,-16 80,0 0,-80 -80,0 0,-16 80,0 0,-80 -80,0 0,-16 80,0 0,-80 -80,0 0,-16 80,0 0,-64 16,0 0,64 80,0 0,-64 16,0 0,64 80,0 0,-64 16,0 0,64 80,0 0,-64 16,0 0,64 64,0 0,16 -64,0 0,80 64,0 0,16 -64,0 0,80 64,0 0,16 -64,0 0,80 64,0 0,16 -64,0 0,80 -16,0 0,-80 -80,0 0,80 -16,0 0,-80 -80,0 0,80 -16,0 0,-80 -80,0 0,80 z m 16,-368 0,80 80,0 0,-80 z m 0,96 0,80 80,0 0,-80 z m 0,96 0,80 80,0 0,-80 z m 272,-192 -80,0 0,80 80,0 z m -96,0 -80,0 0,80 80,0 z m -80,272 80,0 0,-80 -80,0 z m 96,0 80,0 0,-80 -80,0 z m -96,-96 80,0 0,-80 -80,0 z m 96,0 80,0 0,-80 -80,0 z"
       id="path5332"
       inkscape:connector-curvature="0"
       style="fill:#445a64" />
    <path
       d="m 112,480 0,-80 16,-16 80,0 0,-80 16,-16 80,0 0,-80 16,-16 80,0 0,-80 16,-16 64,0 0,16 -64,0 0,80 64,0 0,16 -64,0 0,80 64,0 0,16 -64,0 0,80 64,0 0,16 -64,0 0,80 -16,0 0,-80 -80,0 0,80 -16,0 0,-80 -80,0 0,80 -16,0 0,-80 -80,0 0,80 z m 112,-96 80,0 0,-80 -80,0 z m 96,0 80,0 0,-80 -80,0 z m 0,-96 80,0 0,-80 -80,0 z"
       id="path5334"
       inkscape:connector-curvature="0"
       style="fill:#36464e" />
    <polygon
       points="69.65,122.35 100.8,153.5 125.25,165.7 153.35,123.55 161.75,110.95 167.4,125.05 198.8,203.45 226.2,230.85 269.5,216.45 275.3,214.5 278.65,219.55 310.65,267.55 311.05,268.15 311.4,269.05 340.2,341 364.45,328.85 370.75,325.7 374.65,331.55 402.75,373.7 426.05,362.05 456.9,300.45 458.05,298.05 460.45,296.9 480,287.1 480,304.9 469.95,309.95 439.15,371.55 437.95,373.95 435.55,375.1 403.55,391.1 397.25,394.3 393.35,388.45 365.25,346.3 339.55,359.15 331.8,363 328.6,354.95 296.95,275.85 268.7,233.5 226.5,247.55 221.8,249.1 218.35,245.65 186.35,213.65 185.2,212.55 184.6,210.95 158.25,145.05 134.65,180.45 130.75,186.3 124.45,183.1 92.45,167.1 91.2,166.5 90.35,165.65 63,138.3 32,158.95 32,139.7 59.55,121.35 65,117.7 "
       id="polygon5336"
       style="fill:#ff9f00" />
    <polygon
       points="311.4,269.05 340.2,341 364.45,328.85 370.75,325.7 374.65,331.55 402.75,373.7 426.05,362.05 456.9,300.45 458.05,298.05 460.45,296.9 480,287.1 480,304.9 469.95,309.95 439.15,371.55 437.95,373.95 435.55,375.1 403.55,391.1 397.25,394.3 393.35,388.45 365.25,346.3 339.55,359.15 331.8,363 328.6,354.95 296.95,275.85 272.65,239.35 284.15,227.85 310.65,267.55 311.05,268.15 "
       id="polygon5338"
       style="fill:#ff8d00" />
    <polygon
       points="94.4,310.3 99.55,312.85 126.4,326.3 154.35,298.35 163.95,288.75 167.7,301.8 194.05,394.1 216.9,348.45 218.35,345.5 221.5,344.45 266.35,329.5 296.9,268.45 297.5,267.2 298.35,266.35 330.35,234.35 334.4,230.3 339.55,232.85 365.25,245.7 393.35,203.55 398.75,195.45 405.65,202.35 428.05,224.75 456.3,125.8 459.5,114.65 468.8,121.6 480,130.05 480,149.95 468.5,141.35 439.7,242.2 435.95,255.25 426.35,245.65 401.25,220.55 374.65,260.45 370.75,266.3 364.45,263.15 337.6,249.7 310.5,276.8 279.15,339.55 277.65,342.5 274.5,343.55 229.65,358.5 199.15,419.55 189.95,437.9 184.3,418.2 156.05,319.25 133.65,341.65 129.6,345.7 124.45,343.1 97.6,329.7 69.65,357.65 66.2,361.1 61.5,359.55 32,349.75 32,332.95 61.8,342.85 90.35,314.35 "
       id="polygon5340"
       style="fill:#28b5f5" />
    <polygon
       points="218.35,345.5 221.5,344.45 266.35,329.5 296.9,268.45 297.5,267.2 298.35,266.35 330.35,234.35 334.4,230.3 339.55,232.85 365.25,245.7 393.35,203.55 398.75,195.45 405.65,202.35 428.05,224.75 456.3,125.8 459.5,114.65 468.8,121.6 480,130.05 480,149.95 468.5,141.35 439.7,242.2 435.95,255.25 426.35,245.65 401.25,220.55 374.65,260.45 370.75,266.3 364.45,263.15 337.6,249.7 310.5,276.8 279.15,339.55 277.65,342.5 274.5,343.55 229.65,358.5 199.15,419.55 189.95,437.9 184.3,418.2 164.2,347.8 177.15,334.85 194.05,394.1 216.9,348.45 "
       id="polygon5342"
       style="fill:#0299e3" />
  </g>
  <path
     id="path4249"
     d="m 281.75971,229.02077 220.44856,129.77094 c 3.115,1.869 4.98404,4.984 4.98404,8.62855 0,3.64455 -1.83789,6.7907 -4.98404,8.62855 L 281.75971,505.85093 c -3.14615,1.86894 -6.79077,1.83779 -9.96808,0 -3.17721,-1.83788 -4.98394,-4.98404 -4.98394,-8.62856 l 0,-129.80211 0,-129.77093 c 0,-3.67571 1.80673,-6.82186 4.98394,-8.62856 3.17731,-1.83785 6.82193,-1.90015 9.96808,0 z"
     inkscape:connector-curvature="0"
     style="fill:#78e918;fill-opacity:1;stroke:#489d00;stroke-width:9.61538506;stroke-miterlimit:4;stroke-dasharray:none;stroke-opacity:1" />
</svg>
