<?xml version="1.0" encoding="UTF-8" standalone="no"?>
<svg
   xmlns:dc="http://purl.org/dc/elements/1.1/"
   xmlns:cc="http://creativecommons.org/ns#"
   xmlns:rdf="http://www.w3.org/1999/02/22-rdf-syntax-ns#"
   xmlns:svg="http://www.w3.org/2000/svg"
   xmlns="http://www.w3.org/2000/svg"
   xmlns:sodipodi="http://sodipodi.sourceforge.net/DTD/sodipodi-0.dtd"
   xmlns:inkscape="http://www.inkscape.org/namespaces/inkscape"
   x="0"
   y="0"
   width="512"
   height="512"
   version="1.1"
   viewBox="0 0 512 512"
   id="svg4136"
   inkscape:version="0.91 r13725"
   sodipodi:docname="gears_run.svg">
  <metadata
     id="metadata4164">
    <rdf:RDF>
      <cc:Work
         rdf:about="">
        <dc:format>image/svg+xml</dc:format>
        <dc:type
           rdf:resource="http://purl.org/dc/dcmitype/StillImage" />
      </cc:Work>
    </rdf:RDF>
  </metadata>
  <defs
     id="defs4162" />
  <sodipodi:namedview
     pagecolor="#ffffff"
     bordercolor="#666666"
     borderopacity="1"
     objecttolerance="10"
     gridtolerance="10"
     guidetolerance="10"
     inkscape:pageopacity="0"
     inkscape:pageshadow="2"
     inkscape:window-width="1920"
     inkscape:window-height="1017"
     id="namedview4160"
     showgrid="false"
     inkscape:zoom="0.20899583"
     inkscape:cx="256"
     inkscape:cy="256"
     inkscape:window-x="1912"
     inkscape:window-y="-8"
     inkscape:window-maximized="1"
     inkscape:current-layer="svg4136" />
  <title
     id="title4138">gearwheels icon</title>
  <desc
     id="desc4140">gearwheels icon from the IconExperience.com G-Collection. Copyright by INCORS GmbH (www.incors.com).</desc>
  <g
     id="g4142">
    <path
       d="M200.7,184.25l21.15,-30.1c1,-1.4 2.35,-2.3 4.15,-2.5c7.45,-0.85 14.6,-0.05 21.15,2.35c6.55,2.35 12.5,6.35 17.65,11.8c1.25,1.3 1.75,2.85 1.6,4.6l-3.2,36.6c-0.35,4.05 1.3,7.7 4.55,10.2c3.55,2.7 6.95,5.6 10.25,8.6c3,2.8 6.9,3.75 10.8,2.7l35.55,-9.5c1.7,-0.45 3.3,-0.2 4.8,0.75c6.25,4.15 11.2,9.35 14.7,15.4c3.5,6 5.5,12.9 5.95,20.4c0.1,1.8 -0.5,3.3 -1.75,4.55l-25.95,26c-2.85,2.85 -4,6.7 -3.1,10.65c1,4.35 1.8,8.8 2.35,13.25c0.5,4.05 2.85,7.3 6.55,9.05l33.3,15.55c1.6,0.75 2.7,1.95 3.2,3.65c2.15,7.2 2.6,14.35 1.35,21.25c-1.2,6.85 -4.05,13.4 -8.55,19.45c-1.05,1.45 -2.5,2.2 -4.25,2.35l-36.6,3.25c-4.05,0.35 -7.35,2.55 -9.2,6.2c-2.1,4 -4.35,7.85 -6.75,11.6c-2.2,3.45 -2.5,7.45 -0.75,11.15l15.5,33.3c0.75,1.6 0.8,3.25 0.1,4.85c-3,6.9 -7.25,12.7 -12.6,17.15c-5.35,4.5 -11.75,7.7 -19.1,9.45c-1.7,0.4 -3.3,0.05 -4.75,-0.95l-30.1,-21.05c-3.35,-2.35 -7.3,-2.75 -11.1,-1.15c-4.1,1.7 -8.3,3.25 -12.65,4.6c-3.85,1.2 -6.65,4.05 -7.7,8l-9.55,35.5c-0.45,1.65 -1.45,2.95 -3.05,3.75c-6.7,3.35 -13.7,5.05 -20.65,5.05c-6.95,0 -13.95,-1.7 -20.65,-5.05c-1.6,-0.8 -2.6,-2.1 -3.05,-3.75l-9.55,-35.5c-1.05,-3.95 -3.85,-6.8 -7.7,-8c-4.35,-1.35 -8.55,-2.9 -12.65,-4.6c-3.8,-1.6 -7.75,-1.2 -11.1,1.15l-30.1,21.05c-1.45,1 -3.05,1.35 -4.75,0.95c-7.35,-1.75 -13.75,-4.95 -19.1,-9.45c-5.35,-4.45 -9.6,-10.25 -12.6,-17.15c-0.7,-1.6 -0.65,-3.25 0.1,-4.85l15.5,-33.3c1.75,-3.7 1.45,-7.7 -0.75,-11.1c-2.45,-3.8 -4.7,-7.65 -6.75,-11.65c-1.85,-3.65 -5.15,-5.85 -9.25,-6.2l-36.55,-3.25c-1.75,-0.15 -3.2,-0.9 -4.25,-2.35c-4.5,-6.05 -7.35,-12.6 -8.55,-19.45c-1.25,-6.9 -0.8,-14.05 1.35,-21.25c0.5,-1.7 1.6,-2.9 3.2,-3.65l33.3,-15.55c3.7,-1.75 6.05,-5 6.55,-9.05c0.55,-4.45 1.35,-8.9 2.35,-13.2c0.9,-4 -0.25,-7.85 -3.1,-10.7l-25.95,-26c-1.25,-1.25 -1.85,-2.75 -1.75,-4.55c0.45,-7.5 2.45,-14.4 5.95,-20.4c3.5,-6.05 8.45,-11.25 14.7,-15.4c1.5,-0.95 3.1,-1.2 4.8,-0.75l35.5,9.5c3.95,1.05 7.85,0.1 10.85,-2.7c3.25,-3 6.7,-5.9 10.25,-8.6c3.25,-2.5 4.9,-6.15 4.55,-10.2l-3.2,-36.6c-0.15,-1.75 0.35,-3.3 1.6,-4.6c5.15,-5.45 11.1,-9.45 17.65,-11.8c6.55,-2.4 13.7,-3.2 21.15,-2.35c1.8,0.2 3.15,1.1 4.15,2.5l21.15,30.1c2.3,3.35 5.9,5.1 10,4.9c4.45,-0.2 8.95,-0.2 13.4,0c4.1,0.2 7.7,-1.55 10,-4.9z M184,272c-30.95,0 -56,25.05 -56,56c0,30.95 25.05,56 56,56c30.95,0 56,-25.05 56,-56c0,-30.95 -25.05,-56 -56,-56z"
       fill="#788f9b"
       id="path4144" />
    <path
       d="M283.35,228.65c1.75,0.4 3.6,0.35 5.45,-0.15l35.55,-9.5c1.7,-0.45 3.3,-0.2 4.8,0.75c6.25,4.15 11.2,9.35 14.7,15.4c3.5,6 5.5,12.9 5.95,20.4c0.1,1.8 -0.5,3.3 -1.75,4.55l-25.95,26c-2.85,2.85 -4,6.7 -3.1,10.65c1,4.35 1.8,8.8 2.35,13.25c0.5,4.05 2.85,7.3 6.55,9.05l33.3,15.55c1.6,0.75 2.7,1.95 3.2,3.65c2.15,7.2 2.6,14.35 1.35,21.25c-1.2,6.85 -4.05,13.4 -8.55,19.45c-1.05,1.45 -2.5,2.2 -4.25,2.35l-36.6,3.25c-4.05,0.35 -7.35,2.55 -9.2,6.2c-2.1,4 -4.35,7.85 -6.75,11.6c-2.2,3.45 -2.5,7.45 -0.75,11.15l15.5,33.3c0.75,1.6 0.8,3.25 0.1,4.85c-3,6.9 -7.25,12.7 -12.6,17.15c-5.35,4.5 -11.75,7.7 -19.1,9.45c-1.7,0.4 -3.3,0.05 -4.75,-0.95l-30.1,-21.05c-3.35,-2.35 -7.3,-2.75 -11.1,-1.15c-4.1,1.7 -8.3,3.25 -12.65,4.6c-3.85,1.2 -6.65,4.05 -7.7,8l-9.55,35.5c-0.45,1.65 -1.45,2.95 -3.05,3.75c-6.7,3.35 -13.7,5.05 -20.65,5.05c-6.95,0 -13.95,-1.7 -20.65,-5.05c-1.6,-0.8 -2.6,-2.1 -3.05,-3.75l-9.55,-35.5c-1.05,-3.95 -3.85,-6.8 -7.7,-8c-4.35,-1.35 -8.55,-2.9 -12.65,-4.6c-3.8,-1.6 -7.75,-1.2 -11.1,1.15l-30.1,21.05c-1.45,1 -3.05,1.35 -4.75,0.95c-7.35,-1.75 -13.75,-4.95 -19.1,-9.45c-4,-3.3 -7.35,-7.4 -10.05,-12.1l89.1,-89.1c10.15,10.15 24.15,16.4 39.6,16.4c30.95,0 56,-25.05 56,-56c0,-15.45 -6.25,-29.45 -16.4,-39.6z"
       fill="#546e7a"
       id="path4146" />
    <path
       d="M184,208c66.25,0 120,53.75 120,120c0,66.25 -53.75,120 -120,120c-66.25,0 -120,-53.75 -120,-120c0,-66.25 53.75,-120 120,-120z M184,256c-39.75,0 -72,32.25 -72,72c0,39.75 32.25,72 72,72c39.75,0 72,-32.25 72,-72c0,-39.75 -32.25,-72 -72,-72z"
       fill="#afbdc3"
       id="path4148" />
    <path
       d="M99.15,412.85l33.95,-33.95c13,13.05 31,21.1 50.9,21.1c39.75,0 72,-32.25 72,-72c0,-19.9 -8.05,-37.9 -21.1,-50.9l33.95,-33.95c21.7,21.7 35.15,51.7 35.15,84.85c0,66.25 -53.75,120 -120,120c-33.15,0 -63.15,-13.45 -84.85,-35.15z"
       fill="#8fa3ad"
       id="path4150" />
    <path
       d="M385.25,40c1.55,-0.7 2.9,-1.75 4.05,-3.2l22,-27.4c1.05,-1.3 2.45,-2.05 4.15,-2.15c7.15,-0.35 13.9,0.85 20,3.55c6.1,2.7 11.6,6.85 16.2,12.35c1.05,1.35 1.45,2.85 1.2,4.5l-5.3,34.75c-0.3,1.8 -0.15,3.55 0.4,5.15c2,2.1 3.85,4.3 5.6,6.55c1.55,0.8 3.25,1.2 5.05,1.2l35.15,0.1c1.65,0 3.1,0.65 4.25,1.9c4.75,5.4 8,11.45 9.7,17.85c1.75,6.45 1.9,13.3 0.45,20.35c-0.35,1.7 -1.3,2.95 -2.75,3.75l-30.45,17.5c-1.6,0.95 -2.85,2.15 -3.8,3.55c-0.4,2.9 -0.95,5.7 -1.65,8.5c0.35,1.65 1.1,3.25 2.25,4.7l21.8,27.5c1,1.3 1.45,2.85 1.15,4.5c-1.25,7.1 -3.95,13.4 -7.9,18.75c-3.95,5.35 -9.25,9.75 -15.65,13c-1.5,0.8 -3.1,0.8 -4.65,0.2l-32.65,-12.9c-1.7,-0.65 -3.45,-0.9 -5.15,-0.75c-2.45,1.45 -5.05,2.8 -7.65,4.05c-1.1,1.3 -1.85,2.85 -2.3,4.65l-7.9,34.2c-0.4,1.6 -1.3,2.9 -2.8,3.7c-6.3,3.45 -12.9,5.3 -19.6,5.5c-6.65,0.25 -13.35,-1.1 -19.9,-4.1c-1.55,-0.7 -2.55,-1.9 -3.05,-3.5l-10.3,-33.6c-0.5,-1.75 -1.4,-3.25 -2.55,-4.45c-2.75,-1.05 -5.4,-2.2 -7.95,-3.5c-1.7,-0.05 -3.4,0.35 -5.05,1.1l-31.7,15.15c-1.5,0.7 -3.05,0.8 -4.65,0.15c-6.6,-2.8 -12.2,-6.8 -16.5,-11.9c-4.35,-5.05 -7.45,-11.15 -9.2,-18.15c-0.4,-1.65 -0.1,-3.2 0.85,-4.55l19.8,-29c1.05,-1.5 1.65,-3.1 1.9,-4.8c-0.9,-2.75 -1.6,-5.55 -2.25,-8.4c-1,-1.35 -2.35,-2.45 -4,-3.25l-31.6,-15.35c-1.5,-0.7 -2.55,-1.9 -3,-3.5c-1.95,-6.95 -2.25,-13.8 -1,-20.35c1.25,-6.55 4.1,-12.8 8.45,-18.5c1.05,-1.35 2.45,-2.05 4.1,-2.2l35.05,-2.55c1.8,-0.15 3.5,-0.65 4.95,-1.55c1.6,-2.4 3.3,-4.7 5.1,-6.9c0.45,-1.65 0.45,-3.45 0.05,-5.2l-7.7,-34.3c-0.35,-1.6 -0.1,-3.15 0.9,-4.55c4.2,-5.85 9.35,-10.35 15.25,-13.45c5.9,-3.1 12.55,-4.8 19.75,-4.95c1.7,0 3.15,0.65 4.25,1.85l23.85,25.8c1.25,1.35 2.7,2.3 4.3,2.9c2.9,-0.25 5.75,-0.35 8.65,-0.3z M384,96c-17.65,0 -32,14.35 -32,32c0,17.65 14.35,32 32,32c17.65,0 32,-14.35 32,-32c0,-17.65 -14.35,-32 -32,-32z"
       fill="#f98b00"
       id="path4152" />
    <path
       d="M447.4,64.6c0.05,1 0.25,2 0.55,2.95c2,2.1 3.85,4.3 5.6,6.55c1.55,0.8 3.25,1.2 5.05,1.2l35.15,0.1c1.65,0 3.1,0.65 4.25,1.9c4.75,5.4 8,11.45 9.7,17.85c1.75,6.45 1.9,13.3 0.45,20.35c-0.35,1.7 -1.3,2.95 -2.75,3.75l-30.45,17.5c-1.6,0.95 -2.85,2.15 -3.8,3.55c-0.4,2.9 -0.95,5.7 -1.65,8.5c0.35,1.65 1.1,3.25 2.25,4.7l21.8,27.5c1,1.3 1.45,2.85 1.15,4.5c-1.25,7.1 -3.95,13.4 -7.9,18.75c-3.95,5.35 -9.25,9.75 -15.65,13c-1.5,0.8 -3.1,0.8 -4.65,0.2l-32.65,-12.9c-1.7,-0.65 -3.45,-0.9 -5.15,-0.75c-2.45,1.45 -5.05,2.8 -7.65,4.05c-1.1,1.3 -1.85,2.85 -2.3,4.65l-7.9,34.2c-0.4,1.6 -1.3,2.9 -2.8,3.7c-6.3,3.45 -12.9,5.3 -19.6,5.5c-6.65,0.25 -13.35,-1.1 -19.9,-4.1c-1.55,-0.7 -2.55,-1.9 -3.05,-3.5l-10.3,-33.6c-0.5,-1.75 -1.4,-3.25 -2.55,-4.45c-2.75,-1.05 -5.4,-2.2 -7.95,-3.5c-1.7,-0.05 -3.4,0.35 -5.05,1.1l-31.7,15.15c-1.5,0.7 -3.05,0.8 -4.65,0.15c-3.35,-1.45 -6.45,-3.15 -9.25,-5.2l67.3,-67.3c5.8,5.75 13.8,9.35 22.65,9.35c17.65,0 32,-14.35 32,-32c0,-8.85 -3.6,-16.85 -9.35,-22.65z"
       fill="#f37c00"
       id="path4154" />
    <path
       d="M384,48c44.2,0 80,35.8 80,80c0,44.2 -35.8,80 -80,80c-44.2,0 -80,-35.8 -80,-80c0,-44.2 35.8,-80 80,-80z M384,80c-26.5,0 -48,21.5 -48,48c0,26.5 21.5,48 48,48c26.5,0 48,-21.5 48,-48c0,-26.5 -21.5,-48 -48,-48z"
       fill="#ffb54c"
       id="path4156" />
    <path
       d="M440.55,71.45c14.5,14.45 23.45,34.45 23.45,56.55c0,44.2 -35.8,80 -80,80c-22.1,0 -42.1,-8.95 -56.55,-23.45l22.6,-22.6c8.7,8.7 20.7,14.05 33.95,14.05c26.5,0 48,-21.5 48,-48c0,-13.25 -5.35,-25.25 -14.05,-33.95z"
       fill="#ffa526"
       id="path4158" />
  </g>
  <path
     id="path4249-2"
     d="m 272.55008,217.70162 229.26656,134.96177 c 3.2396,1.94376 5.18336,5.18336 5.18336,8.97369 0,3.79033 -1.91136,7.06233 -5.18336,8.97369 L 272.55008,505.60498 c -3.27199,1.9437 -7.06233,1.9113 -10.36672,0 -3.30438,-1.9114 -5.18338,-5.1834 -5.18338,-8.9737 l 0,-134.9942 0,-134.96176 c 0,-3.82273 1.879,-7.09473 5.18338,-8.9737 3.30439,-1.91136 7.09473,-1.97615 10.36672,0 z"
     inkscape:connector-curvature="0"
     style="fill:#78e918;fill-opacity:1;stroke:#489d00;stroke-width:10;stroke-miterlimit:4;stroke-dasharray:none;stroke-opacity:1" />
</svg>
