<?xml version="1.0" encoding="UTF-8" standalone="no"?>
<svg
   xmlns:dc="http://purl.org/dc/elements/1.1/"
   xmlns:cc="http://creativecommons.org/ns#"
   xmlns:rdf="http://www.w3.org/1999/02/22-rdf-syntax-ns#"
   xmlns:svg="http://www.w3.org/2000/svg"
   xmlns="http://www.w3.org/2000/svg"
   xmlns:sodipodi="http://sodipodi.sourceforge.net/DTD/sodipodi-0.dtd"
   xmlns:inkscape="http://www.inkscape.org/namespaces/inkscape"
   x="0"
   y="0"
   width="512"
   height="512"
   version="1.1"
   viewBox="0 0 512 512"
   id="svg14"
   sodipodi:docname="document_binary_hourglass.svg"
   inkscape:version="1.0.2-2 (e86c870879, 2021-01-15)">
  <metadata
     id="metadata20">
    <rdf:RDF>
      <cc:Work
         rdf:about="">
        <dc:format>image/svg+xml</dc:format>
        <dc:type
           rdf:resource="http://purl.org/dc/dcmitype/StillImage" />
        <dc:title>document empty icon</dc:title>
      </cc:Work>
    </rdf:RDF>
  </metadata>
  <defs
     id="defs18">
    <inkscape:path-effect
       effect="powerclip"
       id="path-effect1231"
       is_visible="true"
       lpeversion="1"
       inverse="true"
       flatten="false"
       hide_clip="false"
       message="Füllregel Gerade-Ungerade im &lt;b&gt;Füllung und Kontur&lt;/b&gt;-Dialog verwenden, wenn das Anwenden des Ausschnitts mit nachfolgendem Umwandeln in Pfade kein Ergebnis bringt" />
    <inkscape:path-effect
       effect="powerclip"
       id="path-effect975"
       is_visible="true"
       lpeversion="1"
       inverse="true"
       flatten="false"
       hide_clip="false"
       message="Füllregel Gerade-Ungerade im &lt;b&gt;Füllung und Kontur&lt;/b&gt;-Dialog verwenden, wenn das Anwenden des Ausschnitts mit nachfolgendem Umwandeln in Pfade kein Ergebnis bringt" />
    <inkscape:path-effect
       effect="powerclip"
       id="path-effect920"
       is_visible="true"
       lpeversion="1"
       inverse="true"
       flatten="false"
       hide_clip="false"
       message="Füllregel Gerade-Ungerade im &lt;b&gt;Füllung und Kontur&lt;/b&gt;-Dialog verwenden, wenn das Anwenden des Ausschnitts mit nachfolgendem Umwandeln in Pfade kein Ergebnis bringt" />
    <inkscape:path-effect
       effect="powerclip"
       id="path-effect886"
       is_visible="true"
       lpeversion="1"
       inverse="true"
       flatten="false"
       hide_clip="false"
       message="Füllregel Gerade-Ungerade im &lt;b&gt;Füllung und Kontur&lt;/b&gt;-Dialog verwenden, wenn das Anwenden des Ausschnitts mit nachfolgendem Umwandeln in Pfade kein Ergebnis bringt" />
    <clipPath
       clipPathUnits="userSpaceOnUse"
       id="clipPath882-7">
      <rect
         style="fill:#fbb1b1;fill-opacity:1"
         id="rect884-1"
         width="145.69412"
         height="122.88"
         x="310.60001"
         y="9.3999996"
         d="M 310.60001,9.3999996 H 456.29413 V 132.28 H 310.60001 Z" />
      <path
         id="lpe_path-effect886-5"
         style="fill:#fbb1b1;fill-opacity:1"
         class="powerclip"
         d="M 92.044082,34.782957 H 422.04406 V 492.78296 H 92.044082 Z M 310.60001,9.3999996 V 132.28 H 456.29413 V 9.3999996 Z" />
    </clipPath>
    <clipPath
       clipPathUnits="userSpaceOnUse"
       id="clipPath971">
      <rect
         style="fill:#fbb1b1;fill-opacity:1"
         id="rect973"
         width="145.69412"
         height="122.88"
         x="310.60001"
         y="9.3999996"
         d="M 310.60001,9.3999996 H 456.29413 V 132.28 H 310.60001 Z" />
      <path
         id="lpe_path-effect975"
         style="fill:#fbb1b1;fill-opacity:1"
         class="powerclip"
         d="M 92.044082,34.782957 H 422.04406 V 492.78296 H 92.044082 Z M 310.60001,9.3999996 V 132.28 H 456.29413 V 9.3999996 Z" />
    </clipPath>
    <clipPath
       clipPathUnits="userSpaceOnUse"
       id="clipPath1062">
      <path
         d="M 66.1,509.35 C 67.55,511 69.65,512 72,512 h 368 c 4.4,0 8,-3.6 8,-8 V 160 c 0,-8.85 -3.6,-16.85 -9.4,-22.65 C 432.8,131.6 424.8,128 416,128 h -48 z"
         fill="#b1e3fb"
         id="path1064"
         clip-path="none" />
    </clipPath>
    <clipPath
       clipPathUnits="userSpaceOnUse"
       id="clipPath1062-7">
      <path
         d="M 66.1,509.35 C 67.55,511 69.65,512 72,512 h 368 c 4.4,0 8,-3.6 8,-8 V 160 c 0,-8.85 -3.6,-16.85 -9.4,-22.65 C 432.8,131.6 424.8,128 416,128 h -48 z"
         fill="#b1e3fb"
         id="path1064-0"
         clip-path="none"
         style="display:none" />
      <path
         id="lpe_path-effect975-1"
         class="powerclip"
         d="M 92.044082,34.782957 H 422.04406 V 492.78296 H 92.044082 Z M 66.1,509.35 C 67.55,511 69.65,512 72,512 h 368 c 4.4,0 8,-3.6 8,-8 V 160 c 0,-8.85 -3.6,-16.85 -9.4,-22.65 C 432.8,131.6 424.8,128 416,128 h -48 z" />
    </clipPath>
    <clipPath
       clipPathUnits="userSpaceOnUse"
       id="clipath_lpe_path-effect1231">
      <path
         d="M 66.1,509.35 C 67.55,511 69.65,512 72,512 h 368 c 4.4,0 8,-3.6 8,-8 V 160 c 0,-8.85 -3.6,-16.85 -9.4,-22.65 C 432.8,131.6 424.8,128 416,128 h -48 z"
         fill="#b1e3fb"
         id="path1233"
         clip-path="none"
         style="display:none" />
      <path
         id="lpe_path-effect1231"
         class="powerclip"
         d="M 92.044082,34.782957 H 422.04406 V 492.78296 H 92.044082 Z M 66.1,509.35 C 67.55,511 69.65,512 72,512 h 368 c 4.4,0 8,-3.6 8,-8 V 160 c 0,-8.85 -3.6,-16.85 -9.4,-22.65 C 432.8,131.6 424.8,128 416,128 h -48 z" />
    </clipPath>
    <clipPath
       clipPathUnits="userSpaceOnUse"
       id="clipPath882-7-0">
      <rect
         style="fill:#fbb1b1;fill-opacity:1"
         id="rect884-1-8"
         width="145.69412"
         height="122.88"
         x="310.60001"
         y="9.3999996"
         d="M 310.60001,9.3999996 H 456.29413 V 132.28 H 310.60001 Z" />
      <path
         id="lpe_path-effect886-5-2"
         style="fill:#fbb1b1;fill-opacity:1"
         class="powerclip"
         d="M 92.044082,34.782957 H 422.04406 V 492.78296 H 92.044082 Z M 310.60001,9.3999996 V 132.28 H 456.29413 V 9.3999996 Z" />
    </clipPath>
    <clipPath
       clipPathUnits="userSpaceOnUse"
       id="clipPath971-5">
      <rect
         style="fill:#fbb1b1;fill-opacity:1"
         id="rect973-0"
         width="145.69412"
         height="122.88"
         x="310.60001"
         y="9.3999996"
         d="M 310.60001,9.3999996 H 456.29413 V 132.28 H 310.60001 Z" />
      <path
         id="lpe_path-effect975-9"
         style="fill:#fbb1b1;fill-opacity:1"
         class="powerclip"
         d="M 92.044082,34.782957 H 422.04406 V 492.78296 H 92.044082 Z" />
    </clipPath>
    <clipPath
       clipPathUnits="userSpaceOnUse"
       id="clipPath1062-3">
      <path
         d="M 66.1,509.35 C 67.55,511 69.65,512 72,512 h 368 c 4.4,0 8,-3.6 8,-8 V 160 c 0,-8.85 -3.6,-16.85 -9.4,-22.65 C 432.8,131.6 424.8,128 416,128 h -48 z"
         fill="#b1e3fb"
         id="path1064-1"
         clip-path="none" />
    </clipPath>
  </defs>
  <sodipodi:namedview
     pagecolor="#ffffff"
     bordercolor="#666666"
     borderopacity="1"
     objecttolerance="10"
     gridtolerance="10"
     guidetolerance="10"
     inkscape:pageopacity="0"
     inkscape:pageshadow="2"
     inkscape:window-width="1920"
     inkscape:window-height="1017"
     id="namedview16"
     showgrid="false"
     inkscape:zoom="0.83007813"
     inkscape:cx="334.42435"
     inkscape:cy="363.67545"
     inkscape:window-x="1912"
     inkscape:window-y="-8"
     inkscape:window-maximized="1"
     inkscape:current-layer="svg14" />
  <title
     id="title2">document empty icon</title>
  <desc
     id="desc4">document empty icon from the IconExperience.com G-Collection. Copyright by INCORS GmbH (www.incors.com).</desc>
  <g
     id="g909"
     transform="matrix(0.92156771,0,0,0.92156771,-36.161048,1.3121894)">
    <path
       d="M 288,0 H 72 c -4.4,0 -8,3.6 -8,8 v 496 c 0,4.4 3.6,8 8,8 h 368 c 4.4,0 8,-3.6 8,-8 V 160 c 0,-8.85 -3.6,-16.85 -9.4,-22.65 L 310.65,9.4 C 304.85,3.6 296.85,0 288,0 Z"
       fill="#dff3fd"
       id="path6" />
    <path
       d="M 438.6,137.35 C 432.8,131.6 424.8,128 416,128 h -88 c -4.4,0 -8,-3.6 -8,-8 V 32 c 0,-8.5 -3.4,-16.6 -9.4,-22.6 z"
       fill="#28b5f5"
       id="path10" />
    <path
       d="M 66.1,509.35 C 67.55,511 69.65,512 72,512 h 368 c 4.4,0 8,-3.6 8,-8 V 160 c 0,-8.85 -3.6,-16.85 -9.4,-22.65 C 432.8,131.6 424.8,128 416,128 h -48 z"
       fill="#b1e3fb"
       id="path8-9"
       clip-path="none" />
    <path
       id="path10-5-5"
       clip-path="none"
       d="m 129.04492,39.783203 -31.999998,6.5 v 9.5 H 113.04492 V 103.7832 h 16 z m 40,0 c -13.2,0 -24,10.8 -24,24 v 16 c 0,13.20001 10.8,23.999997 24,23.999997 13.2,0 24,-10.799987 24,-23.999997 v -16 c 0,-13.2 -10.8,-24 -24,-24 z m 64,0 c -13.2,0 -24,10.8 -24,24 v 16 c 0,13.20001 10.8,23.999997 24,23.999997 13.2,0 24,-10.799987 24,-23.999997 v -16 c 0,-13.2 -10.8,-24 -24,-24 z m 72,0 -32,6.5 v 9.5 h 16 V 103.7832 h 16 z m -136,16 c 4.4,0 8,3.6 8,8 v 16 c 0,4.4 -3.6,8 -8,8 -4.4,0 -8,-3.6 -8,-8 v -16 c 0,-4.4 3.6,-8 8,-8 z m 64,0 c 4.4,0 8,3.6 8,8 v 16 c 0,4.4 -3.6,8 -8,8 -4.4,0 -8,-3.6 -8,-8 v -16 c 0,-4.4 3.6,-8 8,-8 z m -40,77.150387 -32,6.5 v 9.5 h 16 v 48 h 16 z m -72,2.84961 c -13.19998,0 -23.999998,10.8 -23.999998,24 v 16 c 0,13.2 10.800018,24 23.999998,24 13.2,0 24,-10.8 24,-24 v -16 c 0,-13.2 -10.8,-24 -24,-24 z m 120,0 -32,6.5 v 9.5 h 16 v 48 h 16 z m 40,0 c -13.2,0 -24,10.8 -24,24 v 16 c 0,13.2 10.8,24 24,24 13.2,0 24,-10.8 24,-24 v -16 c 0,-13.2 -10.8,-24 -24,-24 z m 64,0 c -13.2,0 -24,10.8 -24,24 v 16 c 0,13.2 10.8,24 24,24 13.2,0 24,-10.8 24,-24 v -16 c 0,-13.2 -10.8,-24 -24,-24 z m 72,0 -32,6.5 v 9.5 h 16 v 48 h 16 z m -296,16 c 4.4,0 8,3.6 8,8 v 16 c 0,4.4 -3.6,8 -8,8 -4.39998,0 -8,-3.6 -8,-8 v -16 c 0,-4.4 3.60002,-8 8,-8 z m 160,0 c 4.4,0 8,3.6 8,8 v 16 c 0,4.4 -3.6,8 -8,8 -4.4,0 -8,-3.6 -8,-8 v -16 c 0,-4.4 3.6,-8 8,-8 z m 64,0 c 4.4,0 8,3.6 8,8 v 16 c 0,4.4 -3.6,8 -8,8 -4.4,0 -8,-3.6 -8,-8 v -16 c 0,-4.4 3.6,-8 8,-8 z m -128,79.15039 c -13.2,0 -24,10.75 -24,24 v 16 c 0,13.2 10.8,24 24,24 13.2,0 24,-10.8 24,-24 v -16 c 0,-13.25 -10.8,-24 -24,-24 z m -88,0.84961 -31.999998,6.5 v 9.5 h 15.999998 v 48 h 16 z m 48,0 -32,6.5 v 9.5 h 16 v 48 h 16 z m 104,0 c -13.2,0 -24,10.8 -24,24 v 16 c 0,13.2 10.8,24 24,24 13.2,0 24,-10.8 24,-24 v -16 c 0,-13.2 -10.8,-24 -24,-24 z m 72,0 -32,6.5 v 9.5 h 16 v 48 h 16 z m 40,0 c -13.2,0 -24,10.8 -24,24 v 16 c 0,13.2 10.8,24 24,24 13.2,0 24,-10.8 24,-24 v -16 c 0,-13.2 -10.8,-24 -24,-24 z m -176,15.15039 c 4.4,0 8,3.55 8,8 v 16 c 0,4.4 -3.6,8 -8,8 -4.4,0 -8,-3.6 -8,-8 v -16 c 0,-4.45 3.6,-8 8,-8 z m 64,0.84961 c 4.4,0 8,3.6 8,8 v 16 c 0,4.4 -3.6,8 -8,8 -4.4,0 -8,-3.6 -8,-8 v -16 c 0,-4.4 3.6,-8 8,-8 z m 112,0 c 4.4,0 8,3.6 8,8 v 16 c 0,4.4 -3.6,8 -8,8 -4.4,0 -8,-3.6 -8,-8 v -16 c 0,-4.4 3.6,-8 8,-8 z m -272,80 c -13.19998,0 -23.999998,10.8 -23.999998,24 v 16 c 0,13.2 10.800018,24 23.999998,24 13.2,0 24,-10.8 24,-24 v -16 c 0,-13.2 -10.8,-24 -24,-24 z m 72,0 -32,6.5 v 9.5 h 16 v 48 h 16 z m 40,0 c -13.2,0 -24,10.8 -24,24 v 16 c 0,13.2 10.8,24 24,24 13.2,0 24,-10.8 24,-24 v -16 c 0,-13.2 -10.8,-24 -24,-24 z m 64,0 c -13.2,0 -24,10.8 -24,24 v 16 c 0,13.2 10.8,24 24,24 13.2,0 24,-10.8 24,-24 v -16 c 0,-13.2 -10.8,-24 -24,-24 z m 72,0 -32,6.5 v 9.5 h 16 v 48 h 16 z m 48,0 -32,6.5 v 9.5 h 16 v 48 h 16 z m -296,16 c 4.4,0 8,3.6 8,8 v 16 c 0,4.4 -3.6,8 -8,8 -4.39998,0 -8,-3.6 -8,-8 v -16 c 0,-4.4 3.60002,-8 8,-8 z m 112,0 c 4.4,0 8,3.6 8,8 v 16 c 0,4.4 -3.6,8 -8,8 -4.4,0 -8,-3.6 -8,-8 v -16 c 0,-4.4 3.6,-8 8,-8 z m 64,0 c 4.4,0 8,3.6 8,8 v 16 c 0,4.4 -3.6,8 -8,8 -4.4,0 -8,-3.6 -8,-8 v -16 c 0,-4.4 3.6,-8 8,-8 z m -168,80 -31.999998,6.5 v 9.5 h 15.999998 v 48 h 16 z m 48,0 -32,6.5 v 9.5 h 16 v 48 h 16 z m 40,0 c -13.2,0 -24,10.8 -24,24 v 16 c 0,13.2 10.8,24 24,24 13.2,0 24,-10.8 24,-24 v -16 c 0,-13.2 -10.8,-24 -24,-24 z m 72,0 -32,6.5 v 9.5 h 16 v 48 h 16 z m 40,0 c -13.2,0 -24,10.8 -24,24 v 16 c 0,13.2 10.8,24 24,24 13.2,0 24,-10.8 24,-24 v -16 c 0,-13.2 -10.8,-24 -24,-24 z m 64,0 c -13.2,0 -24,10.8 -24,24 v 16 c 0,13.2 10.8,24 24,24 13.2,0 24,-10.8 24,-24 v -16 c 0,-13.2 -10.8,-24 -24,-24 z m -176,16 c 4.4,0 8,3.6 8,8 v 16 c 0,4.4 -3.6,8 -8,8 -4.4,0 -8,-3.6 -8,-8 v -16 c 0,-4.4 3.6,-8 8,-8 z m 112,0 c 4.4,0 8,3.6 8,8 v 16 c 0,4.4 -3.6,8 -8,8 -4.4,0 -8,-3.6 -8,-8 v -16 c 0,-4.4 3.6,-8 8,-8 z m 64,0 c 4.4,0 8,3.6 8,8 v 16 c 0,4.4 -3.6,8 -8,8 -4.4,0 -8,-3.6 -8,-8 v -16 c 0,-4.4 3.6,-8 8,-8 z"
       style="display:inline;fill:#788f9b;fill-opacity:1" />
    <path
       id="path10-5"
       clip-path="none"
       style="fill:#546e7a;fill-opacity:1"
       d="m 417.04492,135.7832 -32,6.5 v 9.5 h 16 v 48 h 16 z m -58.51367,4.17774 -10.00391,12.63476 c 2.6653,1.30167 4.51758,4.03568 4.51758,7.1875 v 16 c 0,4.4 -3.6,8 -8,8 -4.4,0 -8,-3.6 -8,-8 v -8.68164 l -14.1543,17.88086 c 3.62803,8.66858 12.20918,14.80078 22.1543,14.80078 13.2,0 24,-10.8 24,-24 v -16 c 0,-8.20995 -4.17894,-15.49021 -10.51367,-19.82226 z m -5.48633,91.82226 -32,6.5 v 9.5 h 16 v 48 h 16 z m 40,0 c -13.2,0 -24,10.8 -24,24 v 16 c 0,13.2 10.8,24 24,24 13.2,0 24,-10.8 24,-24 v -16 c 0,-13.2 -10.8,-24 -24,-24 z m -107.54297,0.42383 -28.45703,35.94727 v 3.6289 c 0,13.2 10.8,24 24,24 13.2,0 24,-10.8 24,-24 v -16 c 0,-11.67708 -8.4547,-21.47054 -19.54297,-23.57617 z m -4.45703,15.57617 c 4.4,0 8,3.6 8,8 v 16 c 0,4.4 -3.6,8 -8,8 -4.4,0 -8,-3.6 -8,-8 v -16 c 0,-4.4 3.6,-8 8,-8 z m 112,0 c 4.4,0 8,3.6 8,8 v 16 c 0,4.4 -3.6,8 -8,8 -4.4,0 -8,-3.6 -8,-8 v -16 c 0,-4.4 3.6,-8 8,-8 z m -160,80 c -13.2,0 -24,10.8 -24,24 v 16 c 0,13.2 10.8,24 24,24 13.2,0 24,-10.8 24,-24 v -16 c 0,-13.2 -10.8,-24 -24,-24 z m 64,0 c -13.2,0 -24,10.8 -24,24 v 16 c 0,13.2 10.8,24 24,24 13.2,0 24,-10.8 24,-24 v -16 c 0,-13.2 -10.8,-24 -24,-24 z m 72,0 -32,6.5 v 9.5 h 16 v 48 h 16 z m 48,0 -32,6.5 v 9.5 h 16 v 48 h 16 z m -184,16 c 4.4,0 8,3.6 8,8 v 16 c 0,4.4 -3.6,8 -8,8 -4.4,0 -8,-3.6 -8,-8 v -16 c 0,-4.4 3.6,-8 8,-8 z m 64,0 c 4.4,0 8,3.6 8,8 v 16 c 0,4.4 -3.6,8 -8,8 -4.4,0 -8,-3.6 -8,-8 v -16 c 0,-4.4 3.6,-8 8,-8 z m -104,5.21289 -16,20.21094 v 22.57617 h 16 z m -16,74.78711 -32,6.5 v 9.5 h 16 v 48 h 16 z m 40,0 c -13.2,0 -24,10.8 -24,24 v 16 c 0,13.2 10.8,24 24,24 13.2,0 24,-10.8 24,-24 v -16 c 0,-13.2 -10.8,-24 -24,-24 z m 72,0 -32,6.5 v 9.5 h 16 v 48 h 16 z m 40,0 c -13.2,0 -24,10.8 -24,24 v 16 c 0,13.2 10.8,24 24,24 13.2,0 24,-10.8 24,-24 v -16 c 0,-13.2 -10.8,-24 -24,-24 z m 64,0 c -13.2,0 -24,10.8 -24,24 v 16 c 0,13.2 10.8,24 24,24 13.2,0 24,-10.8 24,-24 v -16 c 0,-13.2 -10.8,-24 -24,-24 z m -264,6.05664 -16,20.21094 v 37.73242 h 16 z m 88,9.94336 c 4.4,0 8,3.6 8,8 v 16 c 0,4.4 -3.6,8 -8,8 -4.4,0 -8,-3.6 -8,-8 v -16 c 0,-4.4 3.6,-8 8,-8 z m 112,0 c 4.4,0 8,3.6 8,8 v 16 c 0,4.4 -3.6,8 -8,8 -4.4,0 -8,-3.6 -8,-8 v -16 c 0,-4.4 3.6,-8 8,-8 z m 64,0 c 4.4,0 8,3.6 8,8 v 16 c 0,4.4 -3.6,8 -8,8 -4.4,0 -8,-3.6 -8,-8 v -16 c 0,-4.4 3.6,-8 8,-8 z" />
  </g>
  <g
     id="g1180"
     transform="matrix(0.62693555,0,0,0.62693555,188.96319,186.73414)">
    <path
       d="M 307.45,226.55 C 363.4,202.75 416,149.8 416,80 V 32 H 96 v 48 c 0,69.8 52.6,122.75 108.55,146.55 C 216.6,231.7 224,242.9 224,256 c 0,13.1 -7.4,24.3 -19.45,29.45 C 148.6,309.25 96,362.2 96,432 v 48 H 416 V 432 C 416,362.2 363.4,309.25 307.45,285.45 295.4,280.3 288,269.1 288,256 c 0,-13.1 7.4,-24.3 19.45,-29.45 z"
       fill="#dff3fd"
       id="path1168" />
    <path
       d="M 307.45,226.55 C 363.4,202.75 416,149.8 416,80 V 32 H 256 96 V 80 H 256 V 480 H 416 V 432 C 416,362.2 363.4,309.25 307.45,285.45 295.4,280.3 288,269.1 288,256 c 0,-13.1 7.4,-24.3 19.45,-29.45 z"
       fill="#b1e3fb"
       id="path1170" />
    <path
       d="m 130.2,144 c 18.15,30.25 47.95,53.95 80.6,67.85 17.95,7.65 29.2,24.65 29.2,44.15 0,23.95 0,38.4 0,62.4 0,13.65 -11.25,25.55 -29.2,30.9 C 157.65,365.15 112,405.6 112,448 v 16 h 288 v -16 c 0,-42.4 -45.65,-82.85 -98.8,-98.7 -17.95,-5.35 -29.2,-17.25 -29.2,-30.9 0,-30.75 0,-33.2 0,-62.4 0,-19.5 11.25,-36.5 29.2,-44.15 32.65,-13.9 62.45,-37.6 80.6,-67.85 z"
       fill="#f7a724"
       id="path1172" />
    <path
       d="m 256,464 h 144 v -16 c 0,-42.4 -45.65,-82.85 -98.8,-98.7 -17.95,-5.35 -29.2,-17.25 -29.2,-30.9 0,-30.75 0,-33.2 0,-62.4 0,-19.5 11.25,-36.5 29.2,-44.15 32.65,-13.9 62.45,-37.6 80.6,-67.85 H 256 Z"
       fill="#f37e16"
       id="path1174" />
    <path
       d="m 80,448 h 352 c 8.8,0 16,7.2 16,16 v 48 H 64 v -48 c 0,-8.8 7.2,-16 16,-16 z M 64,0 h 384 v 48 c 0,8.8 -7.2,16 -16,16 H 80 C 71.2,64 64,56.8 64,48 Z"
       fill="#546e7a"
       id="path1176" />
    <path
       d="m 256,448 h 176 c 8.8,0 16,7.2 16,16 v 48 H 256 Z M 256,64 V 0 h 192 v 48 c 0,8.8 -7.2,16 -16,16 z"
       fill="#445a64"
       id="path1178" />
  </g>
</svg>
