<svg x="0" y="0" width="512" height="512" version="1.1"
    xmlns="http://www.w3.org/2000/svg"
    xmlns:xlink="http://www.w3.org/1999/xlink" viewBox="0 0 512 512">
    <title>media play icon</title>
    <desc>media play icon from the IconExperience.com G-Collection. Copyright by INCORS GmbH (www.incors.com).</desc>
    <g>
        <path d="M88,33.85l353.85,208.3c5,3 8,8 8,13.85c0,5.85 -2.95,10.9 -8,13.85l-353.85,208.35c-5.05,3 -10.9,2.95 -16,0c-5.1,-2.95 -8,-8 -8,-13.85l0,-208.35l0,-208.3c0,-5.9 2.9,-10.95 8,-13.85c5.1,-2.95 10.95,-3.05 16,0z" fill="#4ec1f5"/>
        <path d="M449.85,256c0,5.85 -2.95,10.9 -8,13.85l-353.85,208.35c-5.05,3 -10.9,2.95 -16,0c-5.1,-2.95 -8,-8 -8,-13.85l0,-208.35z" fill="#0299e3"/>
    </g>
</svg>