<?xml version="1.0" encoding="UTF-8" standalone="no"?>
<svg
   xmlns:dc="http://purl.org/dc/elements/1.1/"
   xmlns:cc="http://creativecommons.org/ns#"
   xmlns:rdf="http://www.w3.org/1999/02/22-rdf-syntax-ns#"
   xmlns:svg="http://www.w3.org/2000/svg"
   xmlns="http://www.w3.org/2000/svg"
   xmlns:sodipodi="http://sodipodi.sourceforge.net/DTD/sodipodi-0.dtd"
   xmlns:inkscape="http://www.inkscape.org/namespaces/inkscape"
   x="0"
   y="0"
   width="512"
   height="512"
   version="1.1"
   viewBox="0 0 512 512"
   id="svg4136"
   inkscape:version="0.91 r13725"
   sodipodi:docname="fill_syringe.svg">
  <metadata
     id="metadata4152">
    <rdf:RDF>
      <cc:Work
         rdf:about="">
        <dc:format>image/svg+xml</dc:format>
        <dc:type
           rdf:resource="http://purl.org/dc/dcmitype/StillImage" />
        <dc:title>media beginning icon</dc:title>
      </cc:Work>
    </rdf:RDF>
  </metadata>
  <defs
     id="defs4150" />
  <sodipodi:namedview
     pagecolor="#ffffff"
     bordercolor="#666666"
     borderopacity="1"
     objecttolerance="10"
     gridtolerance="10"
     guidetolerance="10"
     inkscape:pageopacity="0"
     inkscape:pageshadow="2"
     inkscape:window-width="1920"
     inkscape:window-height="1017"
     id="namedview4148"
     showgrid="false"
     inkscape:zoom="1.03"
     inkscape:cx="256"
     inkscape:cy="207.81176"
     inkscape:window-x="1912"
     inkscape:window-y="-8"
     inkscape:window-maximized="1"
     inkscape:current-layer="svg4136" />
  <title
     id="title4138">media beginning icon</title>
  <desc
     id="desc4140">media beginning icon from the IconExperience.com G-Collection. Copyright by INCORS GmbH (www.incors.com).</desc>
  <path
     style="fill:#f9bf2c;fill-opacity:1;stroke:#d39806;stroke-width:10;stroke-miterlimit:4;stroke-dasharray:none;stroke-opacity:1"
     inkscape:connector-curvature="0"
     id="path4144"
     d="m 475,146.5042 0,-78.211283 c 0,-8.60324 -7.03929,-15.64226 -15.64286,-15.64226 l -406.714283,0 c -8.60357,0 -15.64286,7.03902 -15.64286,15.64226 l 0,78.211283 c 0,8.60325 7.03929,15.64226 15.64286,15.64226 l 406.714283,0 C 467.96071,162.14646 475,155.10745 475,146.5042 Z M 469.76942,427.23383 266.46116,213.76591 c -2.98192,-3.12845 -6.74598,-4.69268 -10.46116,-4.69268 -3.71518,0 -7.47924,1.56423 -10.46116,4.69268 L 42.230577,427.23383 c -4.83951,5.13262 -6.50156,12.95374 -4.20402,20.23717 2.24866,7.28343 7.77255,11.87834 14.27411,11.87834 l 407.398663,0 c 6.50156,0 12.02544,-4.59491 14.27411,-11.87834 2.29754,-7.28343 0.63549,-15.10455 -4.20402,-20.23717 z" />
</svg>
