<?xml version="1.0" encoding="UTF-8" standalone="no"?>
<svg
   xmlns:dc="http://purl.org/dc/elements/1.1/"
   xmlns:cc="http://creativecommons.org/ns#"
   xmlns:rdf="http://www.w3.org/1999/02/22-rdf-syntax-ns#"
   xmlns:svg="http://www.w3.org/2000/svg"
   xmlns="http://www.w3.org/2000/svg"
   xmlns:sodipodi="http://sodipodi.sourceforge.net/DTD/sodipodi-0.dtd"
   xmlns:inkscape="http://www.inkscape.org/namespaces/inkscape"
   x="0"
   y="0"
   width="512"
   height="512"
   version="1.1"
   viewBox="0 0 512 512"
   id="svg10962"
   inkscape:version="0.91 r13725"
   sodipodi:docname="yfit_to_screen.svg">
  <metadata
     id="metadata10980">
    <rdf:RDF>
      <cc:Work
         rdf:about="">
        <dc:format>image/svg+xml</dc:format>
        <dc:type
           rdf:resource="http://purl.org/dc/dcmitype/StillImage" />
        <dc:title>fit to size icon</dc:title>
      </cc:Work>
    </rdf:RDF>
  </metadata>
  <defs
     id="defs10978" />
  <sodipodi:namedview
     pagecolor="#ffffff"
     bordercolor="#666666"
     borderopacity="1"
     objecttolerance="10"
     gridtolerance="10"
     guidetolerance="10"
     inkscape:pageopacity="0"
     inkscape:pageshadow="2"
     inkscape:window-width="1920"
     inkscape:window-height="1017"
     id="namedview10976"
     showgrid="false"
     inkscape:zoom="0.86"
     inkscape:cx="256"
     inkscape:cy="256"
     inkscape:window-x="1912"
     inkscape:window-y="-8"
     inkscape:window-maximized="1"
     inkscape:current-layer="svg10962" />
  <title
     id="title10964">fit to size icon</title>
  <desc
     id="desc10966">fit to size icon from the IconExperience.com G-Collection. Copyright by INCORS GmbH (www.incors.com).</desc>
  <path
     style="fill:#788f9b"
     inkscape:connector-curvature="0"
     id="path10970"
     d="m 32,0 32,0 0,32 384,0 0,-32 32,0 0,32 32,0 0,32 -32,0 0,384 32,0 0,32 -32,0 0,32 -32,0 0,-32 -384,0 0,32 -32,0 0,-32 -32,0 0,-32 32,0 0,-384 -32,0 0,-32 32,0 z m 416,448 0,-384 -384,0 0,384 z" />
  <path
     style="fill:#546e7a"
     inkscape:connector-curvature="0"
     id="path10972"
     d="m 0,64 0,-16 32,0 0,16 z m 0,416 0,-16 32,0 0,16 z m 48,-16 400,0 0,16 -384,0 0,32 -16,0 z m 464,0 0,16 -32,0 0,32 -16,0 0,-48 z M 464,0 l 16,0 0,32 -16,0 z m 16,64 0,384 -16,0 0,-400 48,0 0,16 z M 48,0 64,0 64,32 48,32 Z m 16,64 0,384 -16,0 0,-400 400,0 0,16 z" />
  <path
     style="fill:#f9bf2c;fill-opacity:1"
     d="M 256 64.714844 L 254.36914 67.974609 L 200.45703 175.80078 L 311.54297 175.80078 L 256 64.714844 z M 200.45703 336.19922 L 201.77539 338.83789 L 256 447.28516 L 311.54297 336.19922 L 200.45703 336.19922 z "
     id="path10974" />
</svg>
