<?xml version="1.0" encoding="UTF-8" standalone="no"?>
<svg
   xmlns:dc="http://purl.org/dc/elements/1.1/"
   xmlns:cc="http://creativecommons.org/ns#"
   xmlns:rdf="http://www.w3.org/1999/02/22-rdf-syntax-ns#"
   xmlns:svg="http://www.w3.org/2000/svg"
   xmlns="http://www.w3.org/2000/svg"
   xmlns:sodipodi="http://sodipodi.sourceforge.net/DTD/sodipodi-0.dtd"
   xmlns:inkscape="http://www.inkscape.org/namespaces/inkscape"
   x="0"
   y="0"
   width="512"
   height="512"
   version="1.1"
   viewBox="0 0 512 512"
   id="svg4175"
   inkscape:version="0.91 r13725"
   sodipodi:docname="row_add_after.svg">
  <metadata
     id="metadata4203">
    <rdf:RDF>
      <cc:Work
         rdf:about="">
        <dc:format>image/svg+xml</dc:format>
        <dc:type
           rdf:resource="http://purl.org/dc/dcmitype/StillImage" />
        <dc:title>spreadsheet icon</dc:title>
      </cc:Work>
    </rdf:RDF>
  </metadata>
  <defs
     id="defs4201" />
  <sodipodi:namedview
     pagecolor="#ffffff"
     bordercolor="#666666"
     borderopacity="1"
     objecttolerance="10"
     gridtolerance="10"
     guidetolerance="10"
     inkscape:pageopacity="0"
     inkscape:pageshadow="2"
     inkscape:window-width="1920"
     inkscape:window-height="1017"
     id="namedview4199"
     showgrid="false"
     inkscape:zoom="0.8117387"
     inkscape:cx="372"
     inkscape:cy="140"
     inkscape:window-x="1912"
     inkscape:window-y="-8"
     inkscape:window-maximized="1"
     inkscape:current-layer="svg4175"
     showguides="true"
     inkscape:guide-bbox="true">
    <sodipodi:guide
       position="479.89857,143.96957"
       orientation="1,0"
       id="guide5351" />
  </sodipodi:namedview>
  <title
     id="title4177">spreadsheet icon</title>
  <desc
     id="desc4179">spreadsheet icon from the IconExperience.com G-Collection. Copyright by INCORS GmbH (www.incors.com).</desc>
  <g
     id="g5484"
     transform="matrix(1.0714286,0,0,1.0721154,-34.285715,-34.307699)">
    <polygon
       id="polygon5486"
       points="464,128 464,432 144,432 144,128 "
       style="fill:#ffffff" />
    <polygon
       id="polygon5488"
       points="144,344 376.6,128 464,128 464,432 144,432 "
       style="fill:#dff3fd" />
    <polygon
       id="polygon5490"
       points="128,128 128,432 48,432 48,128 "
       style="fill:#b1e3fb" />
    <polygon
       id="polygon5492"
       points="128,368 128,432 49.25,432 118.15,368 "
       style="fill:#7fd3f9" />
    <path
       id="path5494"
       d="m 464,128 16,0 0,320 -448,0 0,-320 16,0 0,64 80,0 0,-64 16,0 0,64 96,0 0,-64 16,0 0,64 96,0 0,-64 16,0 0,64 96,0 z m -416,304 80,0 0,-64 -80,0 z m 0,-80 80,0 0,-64 -80,0 z m 0,-80 80,0 0,-64 -80,0 z m 416,160 0,-64 -96,0 0,64 z m -112,0 0,-64 -96,0 0,64 z m -112,0 0,-64 -96,0 0,64 z m 224,-80 0,-64 -96,0 0,64 z m -112,0 0,-64 -96,0 0,64 z m -112,0 0,-64 -96,0 0,64 z m 224,-80 0,-64 -96,0 0,64 z m -112,0 0,-64 -96,0 0,64 z m -112,0 0,-64 -96,0 0,64 z"
       inkscape:connector-curvature="0"
       style="fill:#4ec1f5" />
    <path
       id="path5496"
       d="m 464,128 16,0 0,320 -448,0 17.25,-16 78.75,0 0,-64 -9.85,0 25.85,-24 0,8 96,0 0,-64 -35.7,0 17.25,-16 18.45,0 0,-17.15 16,-14.85 0,32 96,0 0,-64 -61.55,0 17.25,-16 44.3,0 0,-41.15 16,-14.85 0,56 96,0 z m 0,304 0,-64 -96,0 0,64 z m -112,0 0,-64 -96,0 0,64 z m -112,0 0,-64 -96,0 0,64 z m 224,-80 0,-64 -96,0 0,64 z m -112,0 0,-64 -96,0 0,64 z m 112,-80 0,-64 -96,0 0,64 z"
       inkscape:connector-curvature="0"
       style="fill:#28b5f5" />
    <path
       id="path5498"
       d="m 48,32 416,0 c 8.8,0 16,7.2 16,16 l 0,80 -448,0 0,-80 c 0,-8.8 7.2,-16 16,-16 z"
       inkscape:connector-curvature="0"
       style="fill:#0299e3" />
    <path
       id="path5500"
       d="m 475.15,36.5 c 3,2.95 4.85,7 4.85,11.5 l 0,80 -103.4,0 z"
       inkscape:connector-curvature="0"
       style="fill:#0287cf" />
    <polygon
       id="polygon5502"
       points="480,192 480,288 32,288 32,192 "
       style="fill:#ff9f00" />
    <polygon
       id="polygon5504"
       points="480,192 480,288 204.3,288 307.7,192 "
       style="fill:#ff8d00" />
    <path
       id="path5506"
       d="m 48,208 80,0 0,64 -80,0 z m 320,0 96,0 0,64 -96,0 z m -112,0 96,0 0,64 -96,0 z m -112,0 96,0 0,64 -96,0 z"
       inkscape:connector-curvature="0"
       style="fill:#ffc928" />
    <path
       id="path5508"
       d="M 221.55,272 240,254.85 240,272 Z m 34.45,-32 34.45,-32 61.55,0 0,64 -96,0 z m 112,-32 96,0 0,64 -96,0 z"
       inkscape:connector-curvature="0"
       style="fill:#ffb100" />
  </g>
  <g
     id="g4772"
     transform="matrix(0.58333333,0,0,0.58333333,222.66667,222.66667)">
    <path
       id="path4774-4"
       d="M 256,16 C 388.55,16 496,123.45 496,256 496,388.55 388.55,496 256,496 123.45,496 16,388.55 16,256 16,123.45 123.45,16 256,16 Z"
       inkscape:connector-curvature="0"
       style="fill:#68ba1c" />
    <path
       id="path4776-3"
       d="M 425.7,86.3 C 469.15,129.75 496,189.75 496,256 496,388.55 388.55,496 256,496 189.75,496 129.75,469.15 86.3,425.7 Z"
       inkscape:connector-curvature="0"
       style="fill:#53a616" />
    <polygon
       id="polygon4778"
       points="288,224 400,224 400,288 288,288 288,400 224,400 224,288 112,288 112,224 224,224 224,112 288,112 "
       style="fill:#ffffff" />
    <polygon
       id="polygon4780"
       points="400,288 288,288 288,400 224,400 224,288 288,224 400,224 "
       style="fill:#ebedef" />
  </g>
</svg>
