<?xml version="1.0" encoding="UTF-8"?>
<svg id="mdi-code-array" width="512" height="512" version="1.1" viewBox="0 0 512 512" xml:space="preserve" xmlns="http://www.w3.org/2000/svg"><path d="m59.889 3a56.889 56.889 0 0 0-56.889 56.889v398.22c0 31.289 25.316 56.889 56.889 56.889h398.22a56.889 56.889 0 0 0 56.889-56.889v-398.22a56.889 56.889 0 0 0-56.889-56.889z" fill="#cf0f7c"/><path d="m59.889 3a56.889 56.889 0 0 0-56.889 56.889v398.22c0 14.642 5.5921 27.994 14.727 38.104l476.92-479.84a56.889 56.889 0 0 0-36.531-13.373h-398.22z" fill="#ef1090"/><g fill="#fff" stroke-width=".99998"><path d="m177.16 149.52v82.814h143.7v23.661h-143.7v118.31h129.34v23.661h-143.7c-7.9487 0-14.37-5.2868-14.37-11.831v-236.61z"/><path d="m315.06 326.98c-6.5068 0-11.831 5.3238-11.831 11.831v94.644c0 6.5068 5.3238 11.831 11.831 11.831h118.31c6.5068 0 11.831-5.3238 11.831-11.831v-94.644c0-6.5068-5.3238-11.831-11.831-11.831z"/><path d="m315.06 184.21c-6.5068 0-11.831 5.3238-11.831 11.831v94.644c0 6.5068 5.3238 11.831 11.831 11.831h118.31c6.5068 0 11.831-5.3238 11.831-11.831v-94.644c0-6.5068-5.3238-11.831-11.831-11.831z"/><path d="m101.39 62.339c-6.5068 0-11.831 5.3238-11.831 11.831v94.644c0 6.5068 5.3238 11.831 11.831 11.831h118.31c6.5068 0 11.831-5.3238 11.831-11.831v-94.644c0-6.5068-5.3238-11.831-11.831-11.831z"/></g></svg>
