<?xml version="1.0" encoding="UTF-8" standalone="no"?>
<svg
   xmlns:dc="http://purl.org/dc/elements/1.1/"
   xmlns:cc="http://creativecommons.org/ns#"
   xmlns:rdf="http://www.w3.org/1999/02/22-rdf-syntax-ns#"
   xmlns:svg="http://www.w3.org/2000/svg"
   xmlns="http://www.w3.org/2000/svg"
   xmlns:sodipodi="http://sodipodi.sourceforge.net/DTD/sodipodi-0.dtd"
   xmlns:inkscape="http://www.inkscape.org/namespaces/inkscape"
   inkscape:version="1.0 (4035a4fb49, 2020-05-01)"
   sodipodi:docname="python_header.svg"
   id="svg27"
   version="1.1"
   viewBox="5.591 3.262 243.09811 68.332066"
   height="360"
   width="1280">
  <style></style>
  <metadata
     id="metadata33">
    <rdf:RDF>
      <cc:Work
         rdf:about="">
        <dc:format>image/svg+xml</dc:format>
        <dc:type
           rdf:resource="http://purl.org/dc/dcmitype/StillImage" />
        <dc:title />
      </cc:Work>
    </rdf:RDF>
  </metadata>
  <defs
     id="defs31" />
  <sodipodi:namedview
     inkscape:document-rotation="0"
     inkscape:current-layer="svg27"
     inkscape:window-maximized="1"
     inkscape:window-y="-8"
     inkscape:window-x="-8"
     inkscape:cy="77.976144"
     inkscape:cx="734.65438"
     inkscape:zoom="0.4864"
     showgrid="false"
     id="namedview29"
     inkscape:window-height="1017"
     inkscape:window-width="1920"
     inkscape:pageshadow="2"
     inkscape:pageopacity="0"
     guidetolerance="10"
     gridtolerance="10"
     objecttolerance="10"
     borderopacity="1"
     bordercolor="#666666"
     pagecolor="#ffffff" />
  <linearGradient
     gradientTransform="matrix(0.18355609,0,0,-0.18535087,421.80474,74.048497)"
     y2="182.075"
     x2="-1922.296"
     y1="275.86801"
     x1="-2031.312"
     gradientUnits="userSpaceOnUse"
     id="a">
    <stop
       id="stop4"
       stop-color="#5a9fd4"
       offset="0" />
    <stop
       id="stop6"
       stop-color="#306998"
       offset="1" />
  </linearGradient>
  <linearGradient
     gradientTransform="matrix(0.18355609,0,0,-0.18535087,421.80474,74.048497)"
     y2="180.384"
     x2="-1919.08"
     y1="125.305"
     x1="-1880.151"
     gradientUnits="userSpaceOnUse"
     id="b">
    <stop
       id="stop11"
       stop-color="#ffd43b"
       offset="0" />
    <stop
       id="stop13"
       stop-color="#ffe873"
       offset="1" />
  </linearGradient>
  <radialGradient
     gradientUnits="userSpaceOnUse"
     gradientTransform="matrix(0,-0.11071841,-0.4867641,0,230.85775,-305.85644)"
     r="29.037001"
     cy="376.79099"
     cx="-3393.238"
     id="c">
    <stop
       id="stop20"
       stop-opacity=".498"
       stop-color="#b8b8b8"
       offset="0" />
    <stop
       id="stop22"
       stop-opacity="0"
       stop-color="#7f7f7f"
       offset="1" />
  </radialGradient>
  <rect
     y="3.2423604"
     x="5.5909982"
     height="68.371346"
     width="243.09811"
     id="rect883"
     style="fill:#1f4260;fill-opacity:1;stroke:none;stroke-width:0.18992;stroke-linecap:round;stroke-linejoin:round;stroke-miterlimit:4;stroke-dasharray:none;stroke-opacity:1;paint-order:stroke fill markers" />
  <g
     style="stroke-width:0.900183"
     transform="matrix(1.1108853,0,0,1.1108853,-14.2498,-6.674602)"
     id="g855">
    <path
       style="fill:#ffffff;fill-opacity:1;stroke-width:0.900183"
       inkscape:connector-curvature="0"
       d="m 108.22697,39.995823 c 0,-4.7519 -1.35489,-7.191483 -4.065,-7.324949 -1.07849,-0.05091 -2.13088,0.120739 -3.1552,0.518526 -0.81744,0.292384 -1.367618,0.582158 -1.657066,0.874869 v 11.342298 c 1.733426,1.087958 3.272686,1.593756 4.615176,1.514134 2.83998,-0.188288 4.26209,-2.494079 4.26209,-6.924878 z m 3.34284,0.197098 c 0,2.41413 -0.56617,4.418073 -1.70504,6.011503 -1.26906,1.803582 -3.02793,2.732294 -5.27662,2.7832 -1.69524,0.05384 -3.44172,-0.477083 -5.238772,-1.590493 V 57.705967 L 96.442176,56.668916 V 33.787222 c 0.477083,-0.585096 1.091221,-1.087632 1.835235,-1.514134 1.730489,-1.008335 3.832649,-1.526534 6.307479,-1.551988 l 0.0411,0.04112 c 2.26174,-0.02839 4.0043,0.900322 5.22898,2.783199 1.14213,1.727222 1.71482,3.94099 1.71482,6.647505 z m 17.76726,6.765633 c 0,3.238093 -0.32437,5.480251 -0.9731,6.727127 -0.65199,1.24655 -1.89267,2.242158 -3.72464,2.983561 -1.48542,0.585096 -3.0919,0.90326 -4.81554,0.957429 L 119.34312,55.7947 c 1.75268,-0.238215 2.98683,-0.477083 3.70245,-0.715624 1.40906,-0.477083 2.37595,-1.208371 2.9072,-2.188315 0.42618,-0.798184 0.636,-2.321781 0.636,-4.576665 v -0.757067 c -1.98795,0.903585 -4.07119,1.351952 -6.24971,1.351952 -1.43157,0 -2.69412,-0.448367 -3.78207,-1.351952 -1.22143,-0.982882 -1.83197,-2.229432 -1.83197,-3.740302 V 31.716709 l 2.9072,-0.995609 v 12.178662 c 0,1.300719 0.41964,2.302854 1.25927,3.005751 0.83963,0.702898 1.92759,1.040314 3.26029,1.014535 1.33269,-0.02871 2.76068,-0.543979 4.27775,-1.552313 V 31.159677 h 2.9072 v 15.798877 z m 11.34849,1.870151 a 11.587692,11.587692 0 0 1 -0.95742,0.04112 c -1.64434,0 -2.92646,-0.390934 -3.84212,-1.176717 -0.91305,-0.785457 -1.37088,-1.869825 -1.37088,-3.253757 V 32.988712 h -1.99122 v -1.828709 h 1.99122 v -4.856976 l 2.90394,-1.033787 v 5.890763 h 3.26648 v 1.828709 h -3.26648 v 11.371014 c 0,1.091221 0.29238,1.863951 0.87748,2.315907 0.50253,0.372007 1.30105,0.585095 2.38867,0.639264 v 1.513808 z m 17.60213,-0.238541 h -2.9072 V 37.368605 c 0,-1.141801 -0.26693,-2.124682 -0.79818,-2.945056 -0.61382,-0.929038 -1.46616,-1.393394 -2.56065,-1.393394 -1.3327,0 -2.99923,0.702897 -4.9999,2.108692 v 13.451317 h -2.90688 V 21.767479 l 2.90688,-0.915986 v 12.216842 c 1.85742,-1.351953 3.88682,-2.029397 6.09112,-2.029397 1.53959,0 2.78614,0.518525 3.74063,1.552314 0.95743,1.033461 1.43451,2.32178 1.43451,3.861367 v 12.137545 z m 15.45168,-9.052171 c 0,-1.825771 -0.34656,-3.333378 -1.03706,-4.526085 -0.8207,-1.453438 -2.09596,-2.220295 -3.81992,-2.299591 -3.18719,0.184372 -4.77768,2.467973 -4.77768,6.844929 0,2.00688 0.33089,3.683196 0.99887,5.028621 0.85235,1.714496 2.13121,2.560649 3.83624,2.531932 3.19959,-0.02578 4.79955,-2.551185 4.79955,-7.579806 z m 3.18392,0.01893 c 0,2.598828 -0.66472,4.761689 -1.99122,6.488585 -1.46029,1.934111 -3.4763,2.903939 -6.04968,2.903939 -2.55086,0 -4.53881,-0.970155 -5.97333,-2.903939 -1.30104,-1.726896 -1.9501,-3.889757 -1.9501,-6.488585 0,-2.44252 0.7029,-4.497369 2.10902,-6.170422 1.48542,-1.774865 3.43813,-2.665398 5.85258,-2.665398 2.41381,0 4.37957,0.890533 5.89371,2.665398 1.40612,1.673053 2.10902,3.727902 2.10902,6.170422 z m 16.66656,9.033244 h -2.9072 V 36.732603 c 0,-1.300719 -0.39093,-2.31558 -1.17345,-3.047194 -0.78252,-0.72835 -1.8261,-1.081431 -3.12682,-1.053041 -1.38002,0.02545 -2.69411,0.477083 -3.94067,1.351952 v 14.605844 h -2.9072 V 33.62504 c 1.67306,-1.217834 3.21265,-2.013407 4.61844,-2.385414 1.32617,-0.346554 2.49669,-0.518526 3.50503,-0.518526 0.68984,0 1.33922,0.06657 1.94977,0.200362 1.1418,0.263995 2.07083,0.753804 2.78613,1.472691 0.79851,0.795247 1.19597,1.749086 1.19597,2.865759 z"
       id="path2" />
    <path
       style="fill:url(#a);stroke-width:0.900183"
       inkscape:connector-curvature="0"
       d="m 67.729108,21.874839 c -1.49586,0.0069 -2.924171,0.134444 -4.180836,0.356996 -3.702449,0.654276 -4.374672,2.023196 -4.374672,4.548275 v 3.334684 h 8.749344 v 1.111453 H 55.889822 c -2.542701,0 -4.769522,1.528492 -5.465893,4.43602 -0.803404,3.332727 -0.838974,5.412376 0,8.892273 0.62197,2.590344 2.107387,4.436021 4.650088,4.436021 h 3.008362 v -3.997444 c 0,-2.887949 2.498647,-5.435218 5.465893,-5.435218 h 8.739227 c 2.432731,0 4.374672,-2.002965 4.374672,-4.446136 v -8.331979 c 0,-2.371055 -2.000353,-4.152447 -4.374672,-4.548275 -1.503365,-0.249963 -3.062531,-0.363849 -4.558391,-0.35667 z m -4.731668,2.681714 c 0.903912,0 1.641726,0.750214 1.641726,1.6724 0,0.918922 -0.73814,1.662283 -1.641726,1.662283 -0.906849,0 -1.641725,-0.743034 -1.641725,-1.662283 0,-0.922186 0.734876,-1.6724 1.641725,-1.6724 z"
       id="path9" />
    <path
       style="fill:url(#b);stroke-width:0.900183"
       inkscape:connector-curvature="0"
       d="m 77.753392,31.22592 v 3.88519 c 0,3.012277 -2.553795,5.547473 -5.465893,5.547473 h -8.739227 c -2.393899,0 -4.374672,2.048649 -4.374672,4.446136 v 8.331326 c 0,2.371382 2.061702,3.766081 4.374672,4.446137 2.769494,0.814499 5.425428,0.96167 8.739227,0 2.202674,-0.637634 4.374672,-1.921384 4.374672,-4.446137 v -3.334358 h -8.739227 v -1.111452 h 13.113899 c 2.543028,0 3.49034,-1.773886 4.374673,-4.436021 0.913701,-2.740452 0.874868,-5.376481 0,-8.892273 -0.628497,-2.531279 -1.828709,-4.436021 -4.374673,-4.436021 z m -4.915387,21.098672 c 0.906848,0 1.641725,0.743035 1.641725,1.662284 0,0.922186 -0.734877,1.6724 -1.641725,1.6724 -0.903912,0 -1.641726,-0.750214 -1.641726,-1.6724 0,-0.918922 0.73814,-1.662284 1.641726,-1.662284 z"
       id="path16" />
    <path
       style="fill:#ffffff;fill-opacity:1;stroke-width:0.900183"
       inkscape:connector-curvature="0"
       d="m 199.25121,28.568028 h 0.50971 v -3.196649 h 1.20707 v -0.381145 h -2.92449 v 0.381145 h 1.20739 v 3.196649 m 2.16939,0 h 0.43531 v -2.919602 l 0.94502,2.919276 h 0.48459 l 0.98517,-2.909486 v 2.909812 h 0.47513 v -3.577467 h -0.6285 l -1.07654,3.065142 -0.91761,-3.065142 h -0.70257 v 3.577467"
       id="path18" />
  </g>
</svg>
