<?xml version="1.0" encoding="UTF-8"?>
<svg width="144.5mm" height="144.5mm" version="1.1" viewBox="0 0 512 512" xmlns="http://www.w3.org/2000/svg">
 <style/>
 <g transform="translate(387.99 -121.26)" stroke-width=".9375">
  <path d="m-244.63 615.67v-103.66h184.32c101.57 0 184.32-83.766 184.32-186.58 0-102.81-82.753-186.58-184.32-186.58h-10.619v82.923h10.619c56.32 0 102.4 46.646 102.4 103.66 0 57.011-46.079 103.66-102.4 103.66h-184.32v-103.66l-143.36 145.12z" fill="#68ba1c"/>
  <path d="m-60.314 470.55c78.976 0 143.36-65.174 143.36-145.12s-64.385-145.12-143.36-145.12h-10.619v41.462h10.619c56.32 0 102.4 46.646 102.4 103.66 0 57.011-46.079 103.66-102.4 103.66h-184.32v-103.66l-143.36 145.12z" fill="#85d435"/>
 </g>
</svg>
