<?xml version="1.0" encoding="UTF-8" standalone="no"?>
<svg
   xmlns:dc="http://purl.org/dc/elements/1.1/"
   xmlns:cc="http://creativecommons.org/ns#"
   xmlns:rdf="http://www.w3.org/1999/02/22-rdf-syntax-ns#"
   xmlns:svg="http://www.w3.org/2000/svg"
   xmlns="http://www.w3.org/2000/svg"
   xmlns:sodipodi="http://sodipodi.sourceforge.net/DTD/sodipodi-0.dtd"
   xmlns:inkscape="http://www.inkscape.org/namespaces/inkscape"
   x="0"
   y="0"
   width="512"
   height="512"
   version="1.1"
   viewBox="0 0 512 512"
   id="svg4832"
   inkscape:version="0.91 r13725"
   sodipodi:docname="save_image.svg">
  <metadata
     id="metadata4860">
    <rdf:RDF>
      <cc:Work
         rdf:about="">
        <dc:format>image/svg+xml</dc:format>
        <dc:type
           rdf:resource="http://purl.org/dc/dcmitype/StillImage" />
      </cc:Work>
    </rdf:RDF>
  </metadata>
  <defs
     id="defs4858" />
  <sodipodi:namedview
     pagecolor="#ffffff"
     bordercolor="#666666"
     borderopacity="1"
     objecttolerance="10"
     gridtolerance="10"
     guidetolerance="10"
     inkscape:pageopacity="0"
     inkscape:pageshadow="2"
     inkscape:window-width="1920"
     inkscape:window-height="1017"
     id="namedview4856"
     showgrid="false"
     inkscape:zoom="1.17"
     inkscape:cx="48.354253"
     inkscape:cy="256"
     inkscape:window-x="1912"
     inkscape:window-y="-8"
     inkscape:window-maximized="1"
     inkscape:current-layer="svg4832" />
  <title
     id="title4834">floppy disk icon</title>
  <desc
     id="desc4836">floppy disk icon from the IconExperience.com G-Collection. Copyright by INCORS GmbH (www.incors.com).</desc>
  <g
     id="g4838"
     transform="translate(-32,-32)">
    <path
       d="m 480,48 0,416 c 0,8.8 -7.2,16 -16,16 L 64,480 32,448 32,48 c 0,-8.8 7.2,-16 16,-16 l 416,0 c 8.8,0 16,7.2 16,16 z"
       id="path4840"
       inkscape:connector-curvature="0"
       style="fill:#546e7a" />
    <path
       d="m 480,48 0,416 c 0,8.8 -7.2,16 -16,16 l -208,0 0,-448 208,0 c 8.8,0 16,7.2 16,16 z"
       id="path4842"
       inkscape:connector-curvature="0"
       style="fill:#445a64" />
    <path
       d="m 96,32 320,0 0,224 c 0,8.8 -7.2,16 -16,16 l -288,0 c -8.8,0 -16,-7.2 -16,-16 z"
       id="path4844"
       inkscape:connector-curvature="0"
       style="fill:#dff3fd" />
    <path
       d="m 256,32 160,0 0,224 c 0,8.8 -7.2,16 -16,16 l -144,0 z"
       id="path4846"
       inkscape:connector-curvature="0"
       style="fill:#b1e3fb" />
    <path
       d="m 416,208 0,48 c 0,8.8 -7.2,16 -16,16 l -288,0 c -8.8,0 -16,-7.2 -16,-16 l 0,-48 z"
       id="path4848"
       inkscape:connector-curvature="0"
       style="fill:#f98b00" />
    <path
       d="m 416,208 0,48 c 0,8.8 -7.2,16 -16,16 l -144,0 0,-64 z"
       id="path4850"
       inkscape:connector-curvature="0"
       style="fill:#f37c00" />
    <path
       d="m 384,336 0,144 -256,0 0,-144 c 0,-8.8 7.2,-16 16,-16 l 224,0 c 8.8,0 16,7.2 16,16 z m -224,0 0,112 64,0 0,-112 z"
       id="path4852"
       inkscape:connector-curvature="0"
       style="fill:#ebedef" />
    <path
       d="m 384,336 0,144 -128,0 0,-160 112,0 c 8.8,0 16,7.2 16,16 z"
       id="path4854"
       inkscape:connector-curvature="0"
       style="fill:#cdd7db" />
  </g>
  <g
     id="g5408"
     transform="matrix(0.625,0,0,0.625,192,232)">
    <polygon
       id="polygon5410"
       points="0,448 0,64 512,64 512,448 "
       style="fill:#ebedef" />
    <polygon
       id="polygon5412"
       points="0,443.75 512,68.25 512,448 0,448 "
       style="fill:#cdd7db" />
    <polygon
       id="polygon5414"
       points="16,432 16,80 496,80 496,432 "
       style="fill:#4ec1f5" />
    <polygon
       id="polygon5416"
       points="16,432 496,80 496,432 "
       style="fill:#28b5f5" />
    <path
       id="path5418"
       d="m 208,112 c 35.35,0 64,28.65 64,64 0,35.35 -28.65,64 -64,64 -35.35,0 -64,-28.65 -64,-64 0,-35.35 28.65,-64 64,-64 z"
       inkscape:connector-curvature="0"
       style="fill:#fbd734" />
    <path
       id="path5420"
       d="M 496,379.95 496,432 16,432 16,289 C 45.05,269.2 81.15,256 125.1,256 208,256 332.2,331.7 496,379.95 Z"
       inkscape:connector-curvature="0"
       style="fill:#429f46" />
    <path
       id="path5422"
       d="M 496,379.95 496,432 16,432 225.15,278.65 C 298.05,304.8 388.5,348.3 496,379.95 Z"
       inkscape:connector-curvature="0"
       style="fill:#388d3c" />
    <path
       id="path5424"
       d="M 496,275.55 496,432 16,432 16,330.7 c 223.6,104.35 326.15,-113.8 414.55,-113.8 31.95,0 65.85,46.35 65.45,58.65 z"
       inkscape:connector-curvature="0"
       style="fill:#7cb142" />
    <path
       id="path5426"
       d="M 496,275.55 496,432 16,432 116.4,358.35 C 272.75,369.5 356.6,216.9 430.55,216.9 c 31.95,0 65.85,46.35 65.45,58.65 z"
       inkscape:connector-curvature="0"
       style="fill:#689d38" />
  </g>
</svg>
