<?xml version="1.0" encoding="UTF-8" standalone="no"?>
<svg
   x="0"
   y="0"
   width="512"
   height="512"
   version="1.1"
   viewBox="0 0 512 512"
   id="svg24"
   sodipodi:docname="sila_server.svg"
   inkscape:version="1.2.1 (9c6d41e410, 2022-07-14)"
   inkscape:export-filename="..\..\CodingXP\cetoni_repository\src\qtlabb\shared_plugins\sila\configurator\images\WizardItem_SiLADevice.png"
   inkscape:export-xdpi="75"
   inkscape:export-ydpi="75"
   xmlns:inkscape="http://www.inkscape.org/namespaces/inkscape"
   xmlns:sodipodi="http://sodipodi.sourceforge.net/DTD/sodipodi-0.dtd"
   xmlns="http://www.w3.org/2000/svg"
   xmlns:svg="http://www.w3.org/2000/svg"
   xmlns:rdf="http://www.w3.org/1999/02/22-rdf-syntax-ns#"
   xmlns:cc="http://creativecommons.org/ns#"
   xmlns:dc="http://purl.org/dc/elements/1.1/">
  <metadata
     id="metadata30">
    <rdf:RDF>
      <cc:Work
         rdf:about="">
        <dc:format>image/svg+xml</dc:format>
        <dc:type
           rdf:resource="http://purl.org/dc/dcmitype/StillImage" />
        <dc:title>server icon</dc:title>
      </cc:Work>
    </rdf:RDF>
  </metadata>
  <defs
     id="defs28" />
  <sodipodi:namedview
     pagecolor="#ffffff"
     bordercolor="#666666"
     borderopacity="1"
     objecttolerance="10"
     gridtolerance="10"
     guidetolerance="10"
     inkscape:pageopacity="0"
     inkscape:pageshadow="2"
     inkscape:window-width="3440"
     inkscape:window-height="1377"
     id="namedview26"
     showgrid="false"
     inkscape:zoom="1.0765186"
     inkscape:cx="-14.398265"
     inkscape:cy="150.48509"
     inkscape:window-x="-8"
     inkscape:window-y="-8"
     inkscape:window-maximized="1"
     inkscape:current-layer="svg24"
     inkscape:showpageshadow="2"
     inkscape:pagecheckerboard="0"
     inkscape:deskcolor="#d1d1d1" />
  <title
     id="title2">server icon</title>
  <desc
     id="desc4">server icon from the IconExperience.com G-Collection. Copyright by INCORS GmbH (www.incors.com).</desc>
  <g
     id="g22"
     transform="matrix(0.7257445,0,0,0.7257445,-26.869975,32.000005)">
    <path
       d="m 112,0 h 288 c 8.8,0 16,7.2 16,16 V 512 H 96 V 16 C 96,7.2 103.2,0 112,0 Z"
       fill="#546e7a"
       id="path6" />
    <path
       d="m 256,0 h 144 c 8.8,0 16,7.2 16,16 V 512 H 256 Z"
       fill="#445a64"
       id="path8" />
    <path
       d="m 128,80 h 256 v 80 H 128 Z m 0,96 h 256 v 80 H 128 Z m 0,96 h 256 v 80 H 128 Z m 0,96 h 256 v 80 H 128 Z"
       fill="#788f9b"
       id="path10" />
    <path
       d="m 256,80 h 128 v 80 H 256 Z m 0,96 h 128 v 80 H 256 Z m 0,96 h 128 v 80 H 256 Z m 0,96 h 128 v 80 H 256 Z"
       fill="#546e7a"
       id="path12" />
    <path
       d="M 176,80 H 336 V 96 H 176 Z m 0,96 h 160 v 16 H 176 Z m 0,96 h 160 v 16 H 176 Z m 0,96 h 160 v 16 H 176 Z"
       fill="#7fd3f9"
       id="path14" />
    <path
       d="m 256,80 h 80 v 16 h -80 z m 0,96 h 80 v 16 h -80 z m 0,96 h 80 v 16 h -80 z m 0,96 h 80 v 16 h -80 z"
       fill="#28b5f5"
       id="path16" />
    <path
       d="m 368,32 c 8.85,0 16,7.15 16,16 0,8.85 -7.15,16 -16,16 -8.85,0 -16,-7.15 -16,-16 0,-8.85 7.15,-16 16,-16 z"
       fill="#85d435"
       id="path18" />
    <path
       d="m 379.3,36.7 c 2.9,2.9 4.7,6.9 4.7,11.3 0,8.85 -7.15,16 -16,16 -4.4,0 -8.4,-1.8 -11.3,-4.7 z"
       fill="#68ba1c"
       id="path20" />
  </g>
  <rect
     x="183.65968"
     y="194.46118"
     width="285.53882"
     height="285.53882"
     fill="#41889f"
     stroke-width="0.578327"
     id="rect2" />
  <path
     d="m 237.53897,273.18514 c -14.38346,-0.0757 -26.75588,4.25234 -34.79949,12.30772 -9.94479,9.95983 -12.523,24.52901 -6.49433,36.704 4.78735,9.66761 13.40916,15.96062 30.82424,22.49901 11.47343,4.30774 17.75194,8.613 20.09033,13.77669 1.70275,3.75991 1.57761,9.87395 -0.27795,13.59768 -2.66688,5.35172 -7.7313,8.33917 -16.24336,9.57948 -8.08599,1.17852 -20.93133,-1.13345 -29.99216,-5.39718 -2.23713,-1.0527 -4.23993,-1.72104 -4.45012,-1.48536 -0.21023,0.23551 -1.2843,3.79008 -2.38682,7.89861 -2.17188,8.09324 -2.12971,9.50587 0.32648,11.11481 2.67502,1.75268 19.21698,5.91545 25.92993,6.52502 l -0.002,0.002 c 4.42027,0.40149 6.3036,0.37141 11.86659,-0.18677 20.98878,-2.10618 34.82681,-12.19786 38.58622,-28.14063 1.06168,-4.50103 1.0324,-13.30878 -0.0588,-17.53889 -3.23195,-12.52745 -12.05341,-20.24427 -32.40699,-28.352 -16.95832,-6.75534 -21.77232,-11.04231 -21.80802,-19.42388 -0.0138,-3.23886 0.22463,-4.24906 1.52796,-6.46645 1.80927,-3.07797 4.75618,-5.36361 9.0681,-7.03419 2.49807,-0.96786 4.3095,-1.21119 9.39879,-1.25 6.75701,-0.0558 11.71547,0.71757 17.77703,2.77212 4.83325,1.63671 6.63487,1.64887 7.66493,0.0515 0.66633,-1.03324 4.71189,-14.14087 4.71189,-15.26684 0,-0.65419 -5.57972,-2.77631 -10.74005,-4.08545 -2.78975,-0.70765 -8.115,-1.56254 -11.83425,-1.8986 -2.13004,-0.19255 -4.22487,-0.29214 -6.27962,-0.30295 z m 169.14828,1.95152 c -13.90216,0 -14.66118,0.18764 -16.06211,3.96336 -0.60877,1.6409 -26.59805,82.15933 -29.06975,90.06184 -0.0942,0.30157 0.0363,1.10875 0.29119,1.79415 0.46095,1.2403 0.5114,1.24456 10.20746,1.09565 l 9.74567,-0.14853 1.6442,-3.28977 c 2.62194,-5.24644 2.46572,-5.20674 21.81082,-5.20752 16.70961,-9.4e-4 18.82549,0.23107 20.49634,2.24567 0.35183,0.42433 2.77285,7.4318 5.37955,15.57245 3.90821,12.20567 4.99804,15.01757 6.21326,16.03257 1.40761,1.17528 1.91864,1.23083 11.36968,1.23384 10.15393,0.003 11.21187,-0.20632 11.21187,-2.21772 0,-0.49765 -8.62472,-27.40281 -19.16512,-59.79028 -16.17756,-49.7055 -19.3854,-59.07084 -20.58892,-60.11372 -1.38519,-1.20122 -1.76722,-1.23385 -13.48445,-1.23385 z m -122.12362,0.002 -1.13679,1.44564 c -1.08193,1.37528 -1.13536,2.11165 -1.13536,15.3505 v 13.90608 h 3.20451 c 3.83515,0 4.81167,-0.81044 5.3016,-4.40014 0.5863,-4.29592 0.75918,-4.71847 2.19708,-5.37365 0.7753,-0.35357 3.74241,-0.64269 6.59305,-0.64269 h 5.18253 v -9.04578 c 0,-11.97758 0.7347,-11.23974 -11.20015,-11.23974 z m 49.01008,0.002 c -8.57789,0 -9.08036,0.0581 -10.14277,1.19859 -1.11109,1.19218 -1.11766,1.581 -1.11766,60.48181 0,58.89797 0.007,59.28834 1.11766,60.47622 1.11756,1.19961 1.12537,1.20005 25.4637,1.20005 h 24.34609 l 1.43533,-1.23535 c 1.06872,-0.91919 1.91696,-2.84858 3.31482,-7.53832 2.14109,-7.18366 2.2141,-7.81831 1.02795,-9.00451 -0.74219,-0.74242 -2.98735,-0.86181 -16.19875,-0.86181 h -15.33712 l -2.69126,-2.69127 v -49.9167 c 0,-49.18517 -0.0152,-49.93249 -1.09564,-51.01329 -1.0077,-1.00775 -1.82851,-1.09565 -10.12213,-1.09565 z m -32.05397,26.86407 c -2.85774,0 -3.38765,0.17387 -4.38688,1.44414 -0.77144,0.98077 -1.13534,2.2459 -1.13534,3.93982 0,1.80704 -0.32929,2.8443 -1.19268,3.76338 -1.09682,1.16719 -1.64453,1.26913 -6.85294,1.26913 h -5.66058 v 41.59386 c 0,41.24866 0.009,41.60558 1.13535,43.03774 l 1.13681,1.44415 h 9.00618 c 8.27559,0 9.09598,-0.0881 10.10317,-1.09566 1.07974,-1.07952 1.09709,-1.82794 1.09709,-48.24713 v -47.14959 z m 104.12686,1.09414 c 2.79706,0 3.55591,1.72255 9.29116,21.10812 3.03335,10.25207 5.51413,19.1456 5.51342,19.76353 -5.6e-4,0.61815 -0.29686,1.42045 -0.65887,1.78239 -0.47549,0.47529 -4.34108,0.65734 -13.94176,0.65734 -11.34515,0 -13.40862,-0.12597 -14.14477,-0.86181 -0.47388,-0.47385 -0.8618,-1.14315 -0.8618,-1.48825 0,-0.34501 2.48295,-9.14727 5.51782,-19.56108 5.74367,-19.70887 6.47704,-21.40035 9.28391,-21.40035 z"
     fill="#ffffff"
     id="path6-5"
     style="stroke-width:0.557693" />
</svg>
