<?xml version="1.0" encoding="UTF-8"?>
<svg id="mdi-code-array" width="512" height="512" version="1.1" viewBox="0 0 512 512" xml:space="preserve" xmlns="http://www.w3.org/2000/svg"><path d="m59.889 3a56.889 56.889 0 0 0-56.889 56.889v398.22c0 31.289 25.316 56.889 56.889 56.889h398.22a56.889 56.889 0 0 0 56.889-56.889v-398.22a56.889 56.889 0 0 0-56.889-56.889z" fill="#cf0f7c"/><path d="m59.889 3a56.889 56.889 0 0 0-56.889 56.889v398.22c0 14.642 5.5921 27.994 14.727 38.104l476.92-479.84a56.889 56.889 0 0 0-36.531-13.373h-398.22z" fill="#ef1090"/></svg>
