<?xml version="1.0" encoding="UTF-8" standalone="no"?>
<svg
   xmlns:dc="http://purl.org/dc/elements/1.1/"
   xmlns:cc="http://creativecommons.org/ns#"
   xmlns:rdf="http://www.w3.org/1999/02/22-rdf-syntax-ns#"
   xmlns:svg="http://www.w3.org/2000/svg"
   xmlns="http://www.w3.org/2000/svg"
   xmlns:sodipodi="http://sodipodi.sourceforge.net/DTD/sodipodi-0.dtd"
   xmlns:inkscape="http://www.inkscape.org/namespaces/inkscape"
   x="0"
   y="0"
   width="512"
   height="512"
   version="1.1"
   viewBox="0 0 512 512"
   id="svg4136"
   inkscape:version="0.91 r13725"
   sodipodi:docname="scan_network.svg">
  <metadata
     id="metadata4154">
    <rdf:RDF>
      <cc:Work
         rdf:about="">
        <dc:format>image/svg+xml</dc:format>
        <dc:type
           rdf:resource="http://purl.org/dc/dcmitype/StillImage" />
        <dc:title>elements hierarchy icon</dc:title>
      </cc:Work>
    </rdf:RDF>
  </metadata>
  <defs
     id="defs4152" />
  <sodipodi:namedview
     pagecolor="#ffffff"
     bordercolor="#666666"
     borderopacity="1"
     objecttolerance="10"
     gridtolerance="10"
     guidetolerance="10"
     inkscape:pageopacity="0"
     inkscape:pageshadow="2"
     inkscape:window-width="1920"
     inkscape:window-height="1017"
     id="namedview4150"
     showgrid="false"
     inkscape:zoom="1.6601562"
     inkscape:cx="124.38588"
     inkscape:cy="173.00725"
     inkscape:window-x="1912"
     inkscape:window-y="-8"
     inkscape:window-maximized="1"
     inkscape:current-layer="svg4136" />
  <title
     id="title4138">elements hierarchy icon</title>
  <desc
     id="desc4140">elements hierarchy icon from the IconExperience.com G-Collection. Copyright by INCORS GmbH (www.incors.com).</desc>
  <g
     id="g4142"
     transform="translate(0,-64)">
    <path
       d="m 416,336 0,-64 -144,0 0,64 -32,0 0,-64 -144,0 0,64 -32,0 0,-80 c 0,-8.85 7.15,-16 16,-16 l 160,0 0,-80 32,0 0,80 160,0 c 8.85,0 16,7.15 16,16 l 0,80 z"
       id="path4144"
       inkscape:connector-curvature="0"
       style="fill:#546e7a" />
    <path
       d="m 368,320 128,0 c 8.8,0 16,7.2 16,16 l 0,96 c 0,8.8 -7.2,16 -16,16 l -128,0 c -8.8,0 -16,-7.2 -16,-16 l 0,-96 c 0,-8.8 7.2,-16 16,-16 z m -176,0 128,0 c 8.8,0 16,7.2 16,16 l 0,96 c 0,8.8 -7.2,16 -16,16 l -128,0 c -8.8,0 -16,-7.2 -16,-16 l 0,-96 c 0,-8.8 7.2,-16 16,-16 z m -176,0 128,0 c 8.8,0 16,7.2 16,16 l 0,96 c 0,8.8 -7.2,16 -16,16 L 16,448 C 7.2,448 0,440.8 0,432 l 0,-96 c 0,-8.8 7.2,-16 16,-16 z M 192,64 320,64 c 8.8,0 16,7.2 16,16 l 0,96 c 0,8.8 -7.2,16 -16,16 l -128,0 c -8.8,0 -16,-7.2 -16,-16 l 0,-96 c 0,-8.8 7.2,-16 16,-16 z"
       id="path4146"
       inkscape:connector-curvature="0"
       style="fill:#28b5f5" />
    <path
       d="M 330.75,68.2 C 334,71.1 336,75.35 336,80 l 0,96 c 0,8.8 -7.2,16 -16,16 l -128,0 c -4.15,0 -7.9,-1.6 -10.75,-4.2 z m 176,256 c 3.25,2.9 5.25,7.15 5.25,11.8 l 0,96 c 0,8.8 -7.2,16 -16,16 l -128,0 c -4.15,0 -7.9,-1.6 -10.75,-4.2 z m -176,0 c 3.25,2.9 5.25,7.15 5.25,11.8 l 0,96 c 0,8.8 -7.2,16 -16,16 l -128,0 c -4.15,0 -7.9,-1.6 -10.75,-4.2 z m -176,0 c 3.25,2.9 5.25,7.15 5.25,11.8 l 0,96 c 0,8.8 -7.2,16 -16,16 l -128,0 c -4.15,0 -7.9,-1.6 -10.75,-4.2 z"
       id="path4148"
       inkscape:connector-curvature="0"
       style="fill:#0299e3" />
  </g>
  <polygon
     style="fill:#788f9b"
     points="358.15,417.25 385.25,390.15 317.55,322.45 290.45,349.55 "
     id="polygon4170"
     transform="matrix(0.96594339,0,0,0.96594339,48.359244,17.449059)" />
  <polygon
     style="fill:#546e7a"
     points="371.7,403.7 304,336 290.45,349.55 358.15,417.25 "
     id="polygon4172"
     transform="matrix(0.96594339,0,0,0.96594339,48.359244,17.449059)" />
  <path
     style="fill:#ffa526"
     inkscape:connector-curvature="0"
     d="m 510.36997,470.28332 -99.0092,-98.9609 c -2.17337,-2.22167 -5.79566,-2.22167 -7.96903,0 l -32.06932,32.06932 c -2.22167,2.17337 -2.22167,5.79566 0,7.96903 l 98.9609,99.0092 c 2.22167,2.17337 5.79566,2.17337 8.01733,0 l 16.03466,-16.03466 16.03466,-16.03466 c 2.17337,-2.22167 2.17337,-5.79566 0,-8.01733 z"
     id="path4174" />
  <path
     style="fill:#f98b00"
     inkscape:connector-curvature="0"
     d="m 387.35708,387.35708 -16.03466,16.03466 c -2.22167,2.17337 -2.22167,5.79566 0,7.96903 l 98.9609,99.0092 c 2.22167,2.17337 5.79566,2.17337 8.01733,0 l 16.03466,-16.03466 z"
     id="path4176" />
  <path
     style="fill:#788f9b"
     d="M 289.70117 172 C 224.69318 172 172 224.69318 172 289.70117 C 172 354.70916 224.69318 407.40039 289.70117 407.40039 C 354.70916 407.40039 407.40039 354.70916 407.40039 289.70117 C 407.40039 224.69318 354.70916 172 289.70117 172 z M 289.70117 202.91016 C 337.61196 202.91016 376.49023 241.74208 376.49023 289.70117 C 376.49023 337.61197 337.61196 376.49023 289.70117 376.49023 C 241.79038 376.49023 202.91016 337.61197 202.91016 289.70117 C 202.91016 241.74208 241.79038 202.91016 289.70117 202.91016 z "
     id="path4178" />
  <path
     style="fill:#ffffff;fill-opacity:0.68259388"
     inkscape:connector-curvature="0"
     d="m 289.7002,202.91019 c 47.91079,0 86.79001,38.83092 86.79001,86.79001 0,47.9108 -38.87922,86.79002 -86.79001,86.79002 -47.91079,0 -86.79001,-38.87922 -86.79001,-86.79002 0,-47.95909 38.87922,-86.79001 86.79001,-86.79001 z"
     id="path4180" />
</svg>
