<svg x="0" y="0" width="512" height="512" version="1.1"
    xmlns="http://www.w3.org/2000/svg"
    xmlns:xlink="http://www.w3.org/1999/xlink" viewBox="0 0 512 512">
    <title>tools icon</title>
    <desc>tools icon from the IconExperience.com G-Collection. Copyright by INCORS GmbH (www.incors.com).</desc>
    <g>
        <path d="M450.9,162.85c5.85,-4.35 14.2,-3.85 19.5,1.45l23.85,23.85c5.85,5.85 5.85,15.4 0,21.25l-68.9,68.95c-5.85,5.85 -15.4,5.85 -21.3,0l-23.8,-23.85c-5.3,-5.3 -5.8,-13.65 -1.5,-19.5c0.75,-1.05 1.5,-2.2 2.25,-3.5c3.45,-5.8 2.7,-12.9 -1.9,-17.9c-11.15,-11.95 -39.55,0.2 -54.6,15.25l-165.3,165.3l-45.1,-45.05l165.35,-165.35c30.05,-30.05 31.4,-52.7 29.55,-67.65c-4.05,-33.55 -54.7,-42.35 -102.55,-40.45c-3.55,0.15 -6.65,-2.1 -7.55,-5.55c-0.95,-3.4 0.55,-6.9 3.7,-8.6c48.25,-25.85 117.75,-47.25 167,2l40.7,40.7c2.95,2.95 4.4,6.5 4.4,10.65l0,29.5c0,6.2 2.2,11.55 6.6,15.95c8.1,8.1 20.3,9.4 29.6,2.55z" fill="#788f9b"/>
        <path d="M494.25,188.15c5.85,5.85 5.85,15.4 0,21.25l-68.9,68.95c-5.85,5.85 -15.4,5.85 -21.3,0l-23.8,-23.85c-5.3,-5.3 -5.8,-13.65 -1.5,-19.5c0.75,-1.05 1.5,-2.2 2.25,-3.5c3.45,-5.8 2.7,-12.9 -1.9,-17.9c-11.15,-11.95 -39.55,0.2 -54.6,15.25l-165.3,165.3l-22.55,-22.5l270.55,-270.55l3.1,3.1c2.95,2.95 4.4,6.5 4.4,10.65l0,29.5c0,6.2 2.2,11.55 6.6,15.95c8.1,8.1 20.3,9.4 29.6,2.55l-36.1,36.05l34.35,34.35z" fill="#546e7a"/>
        <path d="M238.75,329.65l-144.05,144.05c-5.9,5.9 -15.45,5.9 -21.3,0l-38.85,-38.85c-5.85,-5.85 -5.85,-15.4 0,-21.25l144.1,-144.05c5.85,-5.85 15.4,-5.85 21.25,0l38.85,38.85c5.85,5.85 5.85,15.4 0,21.25z" fill="#ffa526"/>
        <path d="M238.75,329.65l-144.05,144.05c-5.9,5.9 -15.45,5.9 -21.3,0l-19.4,-19.4l165.3,-165.35l19.45,19.45c5.85,5.85 5.85,15.4 0,21.25z" fill="#f98b00"/>
        <path d="M13.2,162.95c-1.45,26.45 7.05,52.15 25.9,71.05c26.9,26.85 67.7,32.65 104.8,18.55c5.45,-2.05 11.35,-0.65 15.3,3.7l186.75,205.4c20.8,22.9 57.35,21.9 79.2,0c21.9,-21.85 22.9,-58.4 0,-79.2l-205.4,-186.75c-4.35,-3.95 -5.75,-9.85 -3.7,-15.3c14.1,-37.1 8.3,-77.9 -18.55,-104.8c-30.4,-30.4 -78.5,-33.85 -118.95,-12.15c-2.3,1.25 -3.65,3.45 -3.7,6.05c-0.05,2.6 1.25,4.9 3.5,6.2l59.65,34.4c6.7,3.9 1.15,26 -12.35,49.45c-13.55,23.45 -29.95,39.3 -36.65,35.45l-65.3,-37.7c-2.15,-1.25 -4.65,-1.3 -6.85,-0.1c-2.2,1.2 -3.5,3.25 -3.65,5.75z M365.75,402.25c10.95,-10.9 28.7,-10.9 39.6,0c10.95,10.95 10.95,28.7 0,39.6c-10.9,10.95 -28.65,10.95 -39.6,0c-10.9,-10.9 -10.9,-28.65 0,-39.6z" fill="#afbdc3"/>
        <path d="M13.2,162.95c-1.45,26.45 7.05,52.15 25.9,71.05c26.9,26.85 67.7,32.65 104.8,18.55c5.45,-2.05 11.35,-0.65 15.3,3.7l186.75,205.4c20.8,22.9 57.35,21.9 79.2,0l-19.8,-19.8c-10.9,10.95 -28.65,10.95 -39.6,0c-10.9,-10.9 -10.9,-28.65 0,-39.6l-168.25,-168.25c10.65,-10.7 19.25,-22.6 25.65,-35.2l-3.4,-3.1c-4.3,-3.85 -5.7,-9.6 -3.8,-15c-6,15.55 -15.45,30.45 -28.35,43.4l-62.9,-62.9c-13.35,22.5 -29.15,37.55 -35.7,33.8l-65.3,-37.7c-2.15,-1.25 -4.65,-1.3 -6.85,-0.1c-2.2,1.2 -3.5,3.25 -3.65,5.75z" fill="#8fa3ad"/>
    </g>
</svg>