<?xml version="1.0" encoding="UTF-8" standalone="no"?>
<!-- Created with Inkscape (http://www.inkscape.org/) -->

<svg
   xmlns:dc="http://purl.org/dc/elements/1.1/"
   xmlns:cc="http://creativecommons.org/ns#"
   xmlns:rdf="http://www.w3.org/1999/02/22-rdf-syntax-ns#"
   xmlns:svg="http://www.w3.org/2000/svg"
   xmlns="http://www.w3.org/2000/svg"
   xmlns:sodipodi="http://sodipodi.sourceforge.net/DTD/sodipodi-0.dtd"
   xmlns:inkscape="http://www.inkscape.org/namespaces/inkscape"
   width="12.7mm"
   height="12.7mm"
   viewBox="0 0 45 44.999999"
   id="svg2"
   version="1.1"
   inkscape:version="0.91 r13725"
   sodipodi:docname="Icons_Tipp_RGB.svg">
  <defs
     id="defs4">
    <clipPath
       id="clipPath4152"
       clipPathUnits="userSpaceOnUse">
      <path
         inkscape:connector-curvature="0"
         id="path4154"
         d="m 0,841.89 595.276,0 L 595.276,0 0,0 0,841.89 Z" />
    </clipPath>
    <clipPath
       id="clipPath4178"
       clipPathUnits="userSpaceOnUse">
      <path
         inkscape:connector-curvature="0"
         id="path4180"
         d="m 0,841.89 595.276,0 L 595.276,0 0,0 0,841.89 Z" />
    </clipPath>
    <clipPath
       id="clipPath4194"
       clipPathUnits="userSpaceOnUse">
      <path
         inkscape:connector-curvature="0"
         id="path4196"
         d="m 0,0 595.276,0 0,841.89 L 0,841.89 0,0 Z" />
    </clipPath>
    <clipPath
       id="clipPath4316"
       clipPathUnits="userSpaceOnUse">
      <path
         inkscape:connector-curvature="0"
         id="path4318"
         d="m 0,0 595.276,0 0,841.89 L 0,841.89 0,0 Z" />
    </clipPath>
    <clipPath
       id="clipPath4316-5"
       clipPathUnits="userSpaceOnUse">
      <path
         inkscape:connector-curvature="0"
         id="path4318-6"
         d="m 0,0 595.276,0 0,841.89 L 0,841.89 0,0 Z" />
    </clipPath>
  </defs>
  <sodipodi:namedview
     id="base"
     pagecolor="#ffffff"
     bordercolor="#666666"
     borderopacity="1.0"
     inkscape:pageopacity="0.0"
     inkscape:pageshadow="2"
     inkscape:zoom="1.1894531"
     inkscape:cx="-80.754627"
     inkscape:cy="-31.417843"
     inkscape:document-units="px"
     inkscape:current-layer="layer1"
     showgrid="false"
     inkscape:window-width="1920"
     inkscape:window-height="1017"
     inkscape:window-x="1912"
     inkscape:window-y="-8"
     inkscape:window-maximized="1"
     fit-margin-top="0"
     fit-margin-left="0"
     fit-margin-right="0"
     fit-margin-bottom="0" />
  <metadata
     id="metadata7">
    <rdf:RDF>
      <cc:Work
         rdf:about="">
        <dc:format>image/svg+xml</dc:format>
        <dc:type
           rdf:resource="http://purl.org/dc/dcmitype/StillImage" />
        <dc:title></dc:title>
      </cc:Work>
    </rdf:RDF>
  </metadata>
  <g
     inkscape:label="Ebene 1"
     inkscape:groupmode="layer"
     id="layer1"
     transform="translate(-140.9011,-299.07387)">
    <path
       d="m 185.9011,299.07387 -45,0 0,45 45,0 0,-45 z m -3.235,41.76375 -38.53,0 0,-38.52875 38.53,0 0,38.52875 z m -26.77875,-24.995 c 0,4.15125 3.36375,7.515 7.51375,7.515 4.15,0 7.515,-3.36375 7.515,-7.515 0,-4.15 -3.365,-7.51375 -7.515,-7.51375 -4.15,0 -7.51375,3.36375 -7.51375,7.51375 m 5.31375,1.65375 -2.1175,-0.40375 1.52875,-1.365 -1.35,-1.31625 1.8975,-0.27625 -0.245,-1.9375 1.67125,0.97375 0.905,-1.8325 0.93375,1.8925 1.71125,-0.80625 -0.36875,1.7025 1.95125,0.28375 -1.5925,1.55375 1.4075,1.4975 -1.72875,0.17375 0.29875,1.74625 -1.8625,-0.97875 -1.06625,1.94375 -0.7775,-1.76375 -1.52,0.79875 0.32375,-1.88625 z m -1.50125,6.96875 0,1.36125 c 0,0 0,0.44 0.43875,0.44 l 6.52625,0 c 0,0 0.43875,0 0.43875,-0.44 l 0,-1.36125 c 0,0 0,-0.43875 -0.43875,-0.43875 l -6.52625,0 c 0,0 -0.43875,0 -0.43875,0.43875 m 0,3.04875 0,1.36125 c 0,0 0,0.43875 0.43875,0.43875 l 6.52625,0 c 0,0 0.43875,0 0.43875,-0.43875 l 0,-1.36125 c 0,0 0,-0.43875 -0.43875,-0.43875 l -6.52625,0 c 0,0 -0.43875,0 -0.43875,0.43875 m 0,3.04875 0,1.36125 c 0,0 0,0.43875 0.43875,0.43875 l 6.52625,0 c 0,0 0.43875,0 0.43875,-0.43875 l 0,-1.36125 c 0,0 0,-0.44 -0.43875,-0.44 l -6.52625,0 c 0,0 -0.43875,0 -0.43875,0.44 m 4.72875,2.60875 -2.05375,0 0,1.64625 2.05375,0 0,-1.64625 z"
       style="fill:#009a93;fill-opacity:1;fill-rule:nonzero;stroke:none"
       id="path4202"
       inkscape:connector-curvature="0" />
  </g>
</svg>
