<svg x="0" y="0" width="512" height="512" version="1.1"
    xmlns="http://www.w3.org/2000/svg"
    xmlns:xlink="http://www.w3.org/1999/xlink" viewBox="0 0 512 512">
    <title>switch3 on icon</title>
    <desc>switch3 on icon from the IconExperience.com G-Collection. Copyright by INCORS GmbH (www.incors.com).</desc>
    <g>
        <path d="M368,112c79.55,0 144,64.45 144,144c0,79.55 -64.45,144 -144,144l-224,0c-79.55,0 -144,-64.45 -144,-144c0,-79.55 64.45,-144 144,-144z" fill="#8fa3ad"/>
        <path d="M368.25,144l-224.5,0c-61.9,-0.45 -111.75,50.35 -111.75,112c0,61.65 49.85,112.45 111.75,112l0.35,0l224.15,0c61.9,0.45 111.75,-50.35 111.75,-112c0,-61.65 -49.85,-112.45 -111.75,-112z" fill="#85d435"/>
        <path d="M368.25,144l-0.35,0l-224.15,0c-61.9,-0.45 -111.75,50.35 -111.75,112c0,2.7 0.1,5.35 0.3,8c4.1,-57.95 52.25,-104.45 111.45,-104l224.15,0l0.35,0c59.2,-0.45 107.35,46.05 111.45,104c0.2,-2.65 0.3,-5.3 0.3,-8c0,-61.65 -49.85,-112.45 -111.75,-112z" fill="#68ba1c"/>
        <path d="M368,112c79.55,0 144,64.45 144,144c0,79.55 -64.45,144 -144,144c-79.55,0 -144,-64.45 -144,-144c0,-79.55 64.45,-144 144,-144z" fill="#546e7a"/>
        <path d="M469.8,154.2c26.1,26.05 42.2,62.05 42.2,101.8c0,79.55 -64.45,144 -144,144c-39.75,0 -75.75,-16.1 -101.8,-42.2z" fill="#445a64"/>
        <path d="M368,175c44.75,0 81,36.25 81,81c0,44.75 -36.25,81 -81,81c-44.75,0 -81,-36.25 -81,-81c0,-44.75 36.25,-81 81,-81z" fill="#cdd7db"/>
        <path d="M425.3,198.7c14.65,14.7 23.7,34.95 23.7,57.3c0,44.75 -36.25,81 -81,81c-22.35,0 -42.6,-9.05 -57.3,-23.7z" fill="#afbdc3"/>
    </g>
</svg>