<?xml version="1.0" encoding="UTF-8" standalone="no"?>
<svg
   xmlns:dc="http://purl.org/dc/elements/1.1/"
   xmlns:cc="http://creativecommons.org/ns#"
   xmlns:rdf="http://www.w3.org/1999/02/22-rdf-syntax-ns#"
   xmlns:svg="http://www.w3.org/2000/svg"
   xmlns="http://www.w3.org/2000/svg"
   xmlns:sodipodi="http://sodipodi.sourceforge.net/DTD/sodipodi-0.dtd"
   xmlns:inkscape="http://www.inkscape.org/namespaces/inkscape"
   inkscape:version="1.0 (4035a4fb49, 2020-05-01)"
   sodipodi:docname="external_function.svg"
   id="svg22"
   viewBox="0 0 512 512"
   version="1.1"
   height="512"
   width="512"
   y="0"
   x="0">
  <style
     id="style853"></style>
  <metadata
     id="metadata28">
    <rdf:RDF>
      <cc:Work
         rdf:about="">
        <dc:format>image/svg+xml</dc:format>
        <dc:type
           rdf:resource="http://purl.org/dc/dcmitype/StillImage" />
        <dc:title>code javascript icon</dc:title>
      </cc:Work>
    </rdf:RDF>
  </metadata>
  <defs
     id="defs26" />
  <sodipodi:namedview
     inkscape:current-layer="svg22"
     inkscape:window-maximized="1"
     inkscape:window-y="-8"
     inkscape:window-x="-8"
     inkscape:cy="82.438699"
     inkscape:cx="699.26798"
     inkscape:zoom="0.75353964"
     showgrid="false"
     id="namedview24"
     inkscape:window-height="1017"
     inkscape:window-width="1920"
     inkscape:pageshadow="2"
     inkscape:pageopacity="0"
     guidetolerance="10"
     gridtolerance="10"
     objecttolerance="10"
     borderopacity="1"
     bordercolor="#666666"
     pagecolor="#ffffff" />
  <title
     id="title2">code javascript icon</title>
  <desc
     id="desc4">code javascript icon from the IconExperience.com G-Collection. Copyright by INCORS GmbH (www.incors.com).</desc>
  <style
     id="style833" />
  <g
     transform="matrix(0.88489058,0,0,0.88489058,-381.06422,358.97672)"
     id="g1240">
    <path
       style="fill:#788f9b;fill-opacity:1;stroke:none;stroke-width:1.53985;stroke-opacity:1"
       inkscape:connector-curvature="0"
       d="m 523.02454,-362.7482 h 394.2015 c 27.17835,0 49.27519,22.09684 49.27519,49.27519 v 394.2015 c 0,27.10136 -22.09684,49.27519 -49.27519,49.27519 h -394.2015 c -27.17835,0 -49.27519,-22.17383 -49.27519,-49.27519 v -394.2015 c 0,-27.17835 22.09684,-49.27519 49.27519,-49.27519 z"
       id="path5244" />
    <path
       style="fill:#546e7a;fill-opacity:1;stroke:none;stroke-width:1.53985;stroke-opacity:1"
       inkscape:connector-curvature="0"
       d="m 952.02664,-348.27361 c 8.93113,8.93112 14.47459,21.24992 14.47459,34.8006 v 394.2015 c 0,27.10136 -22.09684,49.27519 -49.27519,49.27519 h -394.2015 c -13.55068,0 -25.86948,-5.54346 -34.8006,-14.47459 z"
       id="path5246" />
    <path
       id="path1096"
       style="fill:#ff9f00;fill-opacity:1;stroke-width:1.53985"
       d="m 523.02539,-362.74896 c -27.17835,0 -49.27632,22.09797 -49.27632,49.27631 v 91.29324 h 492.75188 v -91.29324 c 0,-27.17833 -22.09609,-49.27631 -49.27444,-49.27631 z" />
    <path
       id="path1096-9"
       style="fill:#ffb100;fill-opacity:1;stroke-width:1.53985"
       d="m 523.02539,-362.74896 c -27.17835,0 -49.27632,22.09797 -49.27632,49.27631 v 91.29324 h 352.18422 l 126.09398,-126.09398 c 0,0 0.13316,0.0795 0.13533,0.0808 -8.92983,-8.98586 -21.29158,-14.55639 -34.93609,-14.55639 z" />
    <g
       style="font-style:normal;font-variant:normal;font-weight:normal;font-stretch:normal;font-size:112.596px;line-height:95.9614px;font-family:'Kievit Offc Pro';-inkscape-font-specification:'Kievit Offc Pro';letter-spacing:0px;word-spacing:0px;fill:#36464e;fill-opacity:1;stroke:#36464e;stroke-width:2;stroke-linecap:butt;stroke-linejoin:miter;stroke-miterlimit:4;stroke-dasharray:none;stroke-opacity:1"
       id="text897-7"
       transform="matrix(1.0022935,0,0,0.92410588,473.63916,-700.61412)"
       aria-label="QSC">
      <path
         id="path899-7"
         style="font-style:normal;font-variant:normal;font-weight:bold;font-stretch:normal;font-family:Arial;-inkscape-font-specification:'Arial Bold';fill:#36464e;fill-opacity:1;stroke:#36464e;stroke-width:2;stroke-miterlimit:4;stroke-dasharray:none;stroke-opacity:1"
         d="m 197.29363,468.29249 q 5.99266,4.28832 13.02991,6.81734 l -5.99266,11.49051 q -3.68356,-1.09957 -7.20219,-3.02382 -0.7697,-0.38485 -10.83077,-7.14721 -7.9169,3.46365 -17.53814,3.46365 -18.58274,0 -29.13862,-10.94073 -10.50089,-10.94072 -10.50089,-30.73299 0,-19.73729 10.55587,-30.67801 10.55588,-10.9957 28.64381,-10.9957 17.923,0 28.42389,10.9957 10.5009,10.94072 10.5009,30.67801 0,10.44592 -2.91386,18.36283 -2.19914,6.04763 -7.03725,11.71042 z m -13.08489,-9.18141 q 3.13378,-3.68356 4.67318,-8.90652 1.59437,-5.22296 1.59437,-11.98532 0,-13.96454 -6.15759,-20.83686 -6.1576,-6.92729 -16.10871,-6.92729 -9.95111,0 -16.16368,6.92729 -6.15759,6.9273 -6.15759,20.83686 0,14.12948 6.15759,21.16673 6.21257,6.98227 15.66888,6.98227 3.51862,0 6.6524,-1.15455 -4.94807,-3.24373 -10.06107,-5.05802 l 4.56322,-9.29137 q 8.02686,2.74893 15.339,8.24678 z" />
      <path
         id="path901-1"
         style="font-style:normal;font-variant:normal;font-weight:bold;font-stretch:normal;font-family:Arial;-inkscape-font-specification:'Arial Bold';fill:#36464e;fill-opacity:1;stroke:#36464e;stroke-width:2;stroke-miterlimit:4;stroke-dasharray:none;stroke-opacity:1"
         d="m 215.82139,452.29374 15.83381,-1.5394 q 1.42944,7.97189 5.77274,11.71043 4.39828,3.73854 11.82038,3.73854 7.86193,0 11.82038,-3.29871 4.01344,-3.35369 4.01344,-7.80695 0,-2.85889 -1.70434,-4.83811 -1.64935,-2.03421 -5.82772,-3.51863 -2.85888,-0.98961 -13.02991,-3.51862 -13.08489,-3.24374 -18.36282,-7.97189 -7.4221,-6.6524 -7.4221,-16.21866 0,-6.15759 3.46364,-11.49051 3.51863,-5.3879 10.06107,-8.1918 6.59742,-2.8039 15.88879,-2.8039 15.17407,0 22.81609,6.6524 7.69699,6.6524 8.08184,17.75806 l -16.27364,0.71472 q -1.04459,-6.21257 -4.50824,-8.90652 -3.40867,-2.74893 -10.28098,-2.74893 -7.09223,0 -11.10566,2.91386 -2.58399,1.86927 -2.58399,5.00305 0,2.85888 2.41905,4.89309 3.0788,2.58399 14.95416,5.38789 11.87536,2.80391 17.53814,5.82772 5.71777,2.96884 8.90652,8.1918 3.24374,5.16798 3.24374,12.81 0,6.92729 -3.8485,12.97493 -3.8485,6.04763 -10.88575,9.01647 -7.03725,2.91387 -17.53814,2.91387 -15.28403,0 -23.47583,-7.03725 -8.1918,-7.09223 -9.78617,-20.61695 z" />
      <path
         id="path903-4"
         style="font-style:normal;font-variant:normal;font-weight:bold;font-stretch:normal;font-family:Arial;-inkscape-font-specification:'Arial Bold';fill:#36464e;fill-opacity:1;stroke:#36464e;stroke-width:2;stroke-miterlimit:4;stroke-dasharray:none;stroke-opacity:1"
         d="m 346.72523,448.88507 15.77884,5.00305 q -3.62859,13.19484 -12.09528,19.62733 -8.41171,6.37751 -21.38664,6.37751 -16.05373,0 -26.38969,-10.94073 -10.33596,-10.9957 -10.33596,-30.01827 0,-20.12213 10.39094,-31.22779 10.39094,-11.16064 27.32432,-11.16064 14.78922,0 24.02561,8.74158 5.49786,5.16798 8.24678,14.8442 l -16.1087,3.8485 q -1.42944,-6.26755 -5.99266,-9.89614 -4.50824,-3.62858 -10.9957,-3.62858 -8.9615,0 -14.56931,6.43249 -5.55283,6.43248 -5.55283,20.83685 0,15.28403 5.49785,21.7715 5.49785,6.48746 14.29441,6.48746 6.48747,0 11.16064,-4.12339 4.67318,-4.12339 6.70738,-12.97493 z" />
    </g>
    <circle
       r="43.12978"
       cy="-52.751053"
       cx="473.76407"
       id="path1182-5"
       style="fill:#ffb100;fill-opacity:1;stroke:none;stroke-width:28.8889;stroke-linecap:square;stroke-linejoin:round;stroke-miterlimit:4;stroke-dasharray:none;stroke-opacity:1" />
    <rect
       style="fill:#000000;fill-opacity:0.2891;stroke:none;stroke-width:19.257;stroke-linecap:square;stroke-linejoin:round;stroke-miterlimit:4;stroke-dasharray:none;stroke-opacity:1"
       id="rect1209"
       width="472.452"
       height="114.68671"
       x="483.03857"
       y="-222.17941" />
    <circle
       style="fill:#ffb100;fill-opacity:1;stroke:none;stroke-width:28.8889;stroke-linecap:square;stroke-linejoin:round;stroke-miterlimit:4;stroke-dasharray:none;stroke-opacity:1"
       id="path1182"
       cx="473.76407"
       cy="-163.89319"
       r="43.12978" />
    <rect
       y="7.4777236"
       x="482.05048"
       height="112.03258"
       width="474.64426"
       id="rect1209-7"
       style="fill:#000000;fill-opacity:0.2891;stroke:none;stroke-width:19.077;stroke-linecap:square;stroke-linejoin:round;stroke-miterlimit:4;stroke-dasharray:none;stroke-opacity:1" />
    <circle
       r="43.12978"
       cy="59.718151"
       cx="966.10712"
       id="path1182-1"
       style="fill:#ffb100;fill-opacity:1;stroke:none;stroke-width:28.8889;stroke-linecap:square;stroke-linejoin:round;stroke-miterlimit:4;stroke-dasharray:none;stroke-opacity:1" />
    <path
       id="path5244-3"
       d="m 523.02454,-362.7482 h 394.2015 c 27.17835,0 49.27519,22.09684 49.27519,49.27519 V 80.728492 c 0,27.101358 -22.09684,49.275188 -49.27519,49.275188 h -394.2015 c -27.17835,0 -49.27519,-22.17383 -49.27519,-49.275188 V -313.47301 c 0,-27.17835 22.09684,-49.27519 49.27519,-49.27519 z"
       inkscape:connector-curvature="0"
       style="fill:none;fill-opacity:1;stroke:#ffb100;stroke-width:19.2481;stroke-miterlimit:4;stroke-dasharray:none;stroke-opacity:1" />
  </g>
</svg>
