<?xml version="1.0" encoding="UTF-8" standalone="no"?>
<svg
   xmlns:dc="http://purl.org/dc/elements/1.1/"
   xmlns:cc="http://creativecommons.org/ns#"
   xmlns:rdf="http://www.w3.org/1999/02/22-rdf-syntax-ns#"
   xmlns:svg="http://www.w3.org/2000/svg"
   xmlns="http://www.w3.org/2000/svg"
   xmlns:sodipodi="http://sodipodi.sourceforge.net/DTD/sodipodi-0.dtd"
   xmlns:inkscape="http://www.inkscape.org/namespaces/inkscape"
   x="0"
   y="0"
   width="512"
   height="512"
   version="1.1"
   viewBox="0 0 512 512"
   id="svg4136"
   inkscape:version="0.91 r13725"
   sodipodi:docname="rotation2_on.svg">
  <metadata
     id="metadata4152">
    <rdf:RDF>
      <cc:Work
         rdf:about="">
        <dc:format>image/svg+xml</dc:format>
        <dc:type
           rdf:resource="http://purl.org/dc/dcmitype/StillImage" />
        <dc:title>arrow circle icon</dc:title>
      </cc:Work>
    </rdf:RDF>
  </metadata>
  <defs
     id="defs4150" />
  <sodipodi:namedview
     pagecolor="#ffffff"
     bordercolor="#666666"
     borderopacity="1"
     objecttolerance="10"
     gridtolerance="10"
     guidetolerance="10"
     inkscape:pageopacity="0"
     inkscape:pageshadow="2"
     inkscape:window-width="1920"
     inkscape:window-height="1017"
     id="namedview4148"
     showgrid="false"
     showguides="true"
     inkscape:guide-bbox="true"
     inkscape:zoom="1.6601563"
     inkscape:cx="256"
     inkscape:cy="256"
     inkscape:window-x="1912"
     inkscape:window-y="-8"
     inkscape:window-maximized="1"
     inkscape:current-layer="svg4136">
    <sodipodi:guide
       position="306.59765,228.29176"
       orientation="0,1"
       id="guide4167" />
    <sodipodi:guide
       position="261.42118,257.80706"
       orientation="1,0"
       id="guide4169" />
  </sodipodi:namedview>
  <title
     id="title4138">arrow circle icon</title>
  <desc
     id="desc4140">arrow circle icon from the IconExperience.com G-Collection. Copyright by INCORS GmbH (www.incors.com).</desc>
  <path
     style="fill:#17c917;fill-opacity:1"
     d="M 256 0 L 256 80 C 198.55 80 146.55039 103.30039 108.90039 140.90039 C 71.300391 178.55039 48 230.55 48 288 C 48 345.45 71.300391 397.44961 108.90039 435.09961 C 146.55039 472.69961 198.55 496 256 496 C 313.45 496 365.44961 472.69961 403.09961 435.09961 C 440.69961 397.44961 464 345.45 464 288 C 464 275.42593 462.88406 263.1129 460.74609 251.1543 L 397.55469 261.47461 C 399.15539 270.0741 400 278.93783 400 288 C 400 327.75 383.89961 363.74961 357.84961 389.84961 C 331.74961 415.89961 295.75 432 256 432 C 216.25 432 180.25039 415.89961 154.15039 389.84961 C 128.10039 363.74961 112 327.75 112 288 C 112 248.25 128.10039 212.25039 154.15039 186.15039 C 180.25039 160.10039 216.25 144 256 144 L 256 224 L 368 112 L 256 0 z "
     id="path4144" />
</svg>
