<?xml version="1.0" encoding="UTF-8" standalone="no"?>
<!-- Created with Inkscape (http://www.inkscape.org/) -->

<svg
   xmlns:dc="http://purl.org/dc/elements/1.1/"
   xmlns:cc="http://creativecommons.org/ns#"
   xmlns:rdf="http://www.w3.org/1999/02/22-rdf-syntax-ns#"
   xmlns:svg="http://www.w3.org/2000/svg"
   xmlns="http://www.w3.org/2000/svg"
   xmlns:sodipodi="http://sodipodi.sourceforge.net/DTD/sodipodi-0.dtd"
   xmlns:inkscape="http://www.inkscape.org/namespaces/inkscape"
   width="144.49777mm"
   height="144.49777mm"
   viewBox="0 0 511.99998 511.99998"
   id="svg2"
   version="1.1"
   inkscape:version="0.91 r13725"
   sodipodi:docname="conditional_loop.svg">
  <defs
     id="defs4" />
  <sodipodi:namedview
     id="base"
     pagecolor="#ffffff"
     bordercolor="#666666"
     borderopacity="1.0"
     inkscape:pageopacity="0.0"
     inkscape:pageshadow="2"
     inkscape:zoom="0.76508705"
     inkscape:cx="488.02197"
     inkscape:cy="249.14896"
     inkscape:document-units="px"
     inkscape:current-layer="layer1"
     showgrid="false"
     fit-margin-top="0"
     fit-margin-left="0"
     fit-margin-right="0"
     fit-margin-bottom="0"
     inkscape:window-width="1920"
     inkscape:window-height="1017"
     inkscape:window-x="1912"
     inkscape:window-y="-8"
     inkscape:window-maximized="1"
     showguides="true"
     inkscape:guide-bbox="true">
    <sodipodi:guide
       position="578.02199,245.05495"
       orientation="0,1"
       id="guide4828" />
    <sodipodi:guide
       position="13.070408,171.22235"
       orientation="1,0"
       id="guide4924" />
  </sodipodi:namedview>
  <metadata
     id="metadata7">
    <rdf:RDF>
      <cc:Work
         rdf:about="">
        <dc:format>image/svg+xml</dc:format>
        <dc:type
           rdf:resource="http://purl.org/dc/dcmitype/StillImage" />
        <dc:title></dc:title>
      </cc:Work>
    </rdf:RDF>
  </metadata>
  <g
     inkscape:label="Ebene 1"
     inkscape:groupmode="layer"
     id="layer1"
     transform="translate(-6.3054154,23.342229)">
    <path
       inkscape:connector-curvature="0"
       style="fill:#ffb100;fill-opacity:1"
       d="m 314.13774,13.312981 0,182.762679 65.27507,-65.27298 c 32.43221,32.43222 48.66704,74.94026 48.70782,117.48971 -0.0408,42.54944 -16.27769,85.05957 -48.7099,117.49178 -32.43223,32.43222 -74.94026,48.66912 -117.48971,48.70991 -42.54944,-0.0408 -85.05748,-16.27769 -117.48969,-48.70991 C 113.50295,334.85579 97.313551,294.76239 95.842264,254.21 l -73.882694,0 c 1.493047,59.41271 24.884868,118.42489 70.252949,163.79297 46.873731,46.87374 108.311641,70.28717 169.708501,70.32797 61.39685,-0.0408 122.83268,-23.45422 169.70642,-70.32797 46.87374,-46.87373 70.29133,-108.31374 70.33213,-169.71058 -0.0408,-61.39686 -23.45631,-122.83269 -70.33005,-169.706425 l 65.27299,-65.272984 -182.76477,0 z"
       id="path4792" />
    <path
       inkscape:connector-curvature="0"
       style="fill:#ff9f00;fill-opacity:1"
       d="m 314.13774,13.312981 0,182.762679 65.27507,-65.27298 c 32.43221,32.43222 48.66704,74.94026 48.70782,117.48971 -0.0408,42.54944 -16.27769,85.05957 -48.7099,117.49178 -32.43223,32.43222 -74.94026,48.66912 -117.48971,48.70991 -42.54944,-0.0408 -85.05748,-16.27769 -117.48969,-48.70991 C 113.50295,334.85579 97.313551,294.76239 95.842264,254.21 l -36.903839,0 c 1.44801,49.98347 21.236589,99.53435 59.384535,137.68253 79.30596,79.30595 207.89016,79.30596 287.19612,0 79.30596,-79.30597 79.30643,-207.89226 0,-287.1982 L 314.13774,13.312981 Z"
       id="path4794" />
    <g
       id="g4965"
       transform="matrix(0.52083333,0,0,0.52083333,11.538003,-31.579255)">
      <path
         id="path4967"
         d="M 256,16 C 388.55,16 496,123.45 496,256 496,388.55 388.55,496 256,496 123.45,496 16,388.55 16,256 16,123.45 123.45,16 256,16 Z"
         inkscape:connector-curvature="0"
         style="fill:#546e7a" />
      <path
         id="path4969"
         d="M 86.3,425.7 425.7,86.3 C 469.15,129.7 496,189.75 496,256 496,388.55 388.55,496 256,496 189.75,496 129.75,469.15 86.3,425.7 Z"
         inkscape:connector-curvature="0"
         style="fill:#445a64" />
      <path
         id="path4971"
         d="m 223.85,311.2 c 0,-19.8 2.2,-35.5 6.75,-46.95 4.45,-11.45 11.7,-21.4 21.7,-29.8 10.1,-8.45 17.75,-16.15 22.95,-23.1 5.2,-7 7.85,-14.75 7.85,-23.15 0,-20.45 -8.85,-30.75 -26.45,-30.75 -8.15,0 -14.75,3 -19.75,8.95 -5.05,6 -7.7,14.1 -8,24.25 l -68.75,0 c 0.3,-27.15 8.85,-48.25 25.65,-63.4 16.8,-15.15 40.4,-22.7 70.85,-22.7 30.2,0 53.65,7 70.25,20.95 16.6,13.95 24.95,33.9 24.95,59.65 0,11.25 -2.25,21.55 -6.75,30.8 -4.45,9.2 -11.65,18.65 -21.55,28.25 l -23.4,21.8 c -6.65,6.4 -11.25,12.9 -13.8,19.65 -2.65,6.75 -4.05,15.2 -4.3,25.55 z m -8.35,61.9 c 0,-10.1 3.65,-18.3 10.9,-24.75 7.25,-6.45 16.35,-9.65 27.15,-9.65 10.85,0 19.9,3.2 27.15,9.65 7.25,6.45 10.95,14.65 10.95,24.75 0,10 -3.7,18.25 -10.95,24.7 -7.25,6.45 -16.3,9.65 -27.15,9.65 -10.8,0 -19.9,-3.2 -27.15,-9.65 -7.25,-6.45 -10.9,-14.7 -10.9,-24.7 z"
         inkscape:connector-curvature="0"
         style="fill:#ffffff" />
      <path
         id="path4973"
         d="m 223.85,311.2 c 0,-9 0.45,-17.15 1.4,-24.45 l 124.1,-124.1 c 1.65,6.9 2.5,14.45 2.5,22.5 0,11.25 -2.25,21.55 -6.75,30.8 -4.45,9.2 -11.65,18.65 -21.55,28.25 l -23.4,21.8 c -6.65,6.4 -11.25,12.9 -13.8,19.65 -2.65,6.75 -4.05,15.2 -4.3,25.55 z m -8.35,61.9 c 0,-10.1 3.65,-18.3 10.9,-24.75 7.25,-6.45 16.35,-9.65 27.15,-9.65 10.85,0 19.9,3.2 27.15,9.65 7.25,6.45 10.95,14.65 10.95,24.75 0,10 -3.7,18.25 -10.95,24.7 -7.25,6.45 -16.3,9.65 -27.15,9.65 -10.8,0 -19.9,-3.2 -27.15,-9.65 -7.25,-6.45 -10.9,-14.7 -10.9,-24.7 z"
         inkscape:connector-curvature="0"
         style="fill:#ebedef" />
    </g>
  </g>
</svg>
