<svg x="0" y="0" width="512" height="512" version="1.1"
    xmlns="http://www.w3.org/2000/svg"
    xmlns:xlink="http://www.w3.org/1999/xlink" viewBox="0 0 512 512">
    <title>symbol hash icon</title>
    <desc>symbol hash icon from the IconExperience.com G-Collection. Copyright by INCORS GmbH (www.incors.com).</desc>
    <g>
        <polygon points="276.05,48 388.65,48 377.75,128 432,128 432,240 362.5,240 358.1,272 416,272 416,384 342.85,384 331.95,464 123.35,464 134.25,384 80,384 80,272 149.5,272 153.9,240 96,240 96,128 169.15,128 180.05,48" fill="#546e7a"/>
        <polygon points="276.05,48 388.65,48 377.75,128 432,128 432,240 362.5,240 358.1,272 416,272 416,384 342.85,384 331.95,464 256,464 256,48" fill="#445a64"/>
        <path d="M208,80l48,0l-10.9,80l48,0l10.9,-80l48,0l-10.9,80l58.9,0l0,48l-65.45,0l-13.1,96l62.55,0l0,48l-69.1,0l-10.9,80l-48,0l10.9,-80l-48,0l-10.9,80l-48,0l10.9,-80l-58.9,0l0,-48l65.45,0l13.1,-96l-62.55,0l0,-48l69.1,0z M273.45,304l13.1,-96l-48,0l-13.1,96z" fill="#f9bf2c"/>
        <polygon points="256,160 293.1,160 304,80 352,80 341.1,160 400,160 400,208 334.55,208 321.45,304 384,304 384,352 314.9,352 304,432 256,432 266.9,352 256,352 256,304 273.45,304 286.55,208 256,208" fill="#f7a724"/>
    </g>
</svg>