<?xml version="1.0" encoding="UTF-8" standalone="no"?>
<svg
   xmlns:dc="http://purl.org/dc/elements/1.1/"
   xmlns:cc="http://creativecommons.org/ns#"
   xmlns:rdf="http://www.w3.org/1999/02/22-rdf-syntax-ns#"
   xmlns:svg="http://www.w3.org/2000/svg"
   xmlns="http://www.w3.org/2000/svg"
   xmlns:sodipodi="http://sodipodi.sourceforge.net/DTD/sodipodi-0.dtd"
   xmlns:inkscape="http://www.inkscape.org/namespaces/inkscape"
   x="0"
   y="0"
   width="512"
   height="512"
   version="1.1"
   viewBox="0 0 512 512"
   id="svg5320"
   inkscape:version="0.91 r13725"
   sodipodi:docname="line-chart_config.svg">
  <metadata
     id="metadata5348">
    <rdf:RDF>
      <cc:Work
         rdf:about="">
        <dc:format>image/svg+xml</dc:format>
        <dc:type
           rdf:resource="http://purl.org/dc/dcmitype/StillImage" />
        <dc:title>chart line icon</dc:title>
      </cc:Work>
    </rdf:RDF>
  </metadata>
  <defs
     id="defs5346" />
  <sodipodi:namedview
     pagecolor="#ffffff"
     bordercolor="#666666"
     borderopacity="1"
     objecttolerance="10"
     gridtolerance="10"
     guidetolerance="10"
     inkscape:pageopacity="0"
     inkscape:pageshadow="2"
     inkscape:window-width="1920"
     inkscape:window-height="1017"
     id="namedview5344"
     showgrid="false"
     inkscape:zoom="0.57"
     inkscape:cx="258.36347"
     inkscape:cy="161.5869"
     inkscape:window-x="1912"
     inkscape:window-y="-8"
     inkscape:window-maximized="1"
     inkscape:current-layer="svg5320" />
  <title
     id="title5322">chart line icon</title>
  <desc
     id="desc5324">chart line icon from the IconExperience.com G-Collection. Copyright by INCORS GmbH (www.incors.com).</desc>
  <g
     id="g5326"
     transform="translate(-32,-32)">
    <path
       d="m 64,32 384,0 c 17.65,0 32,14.35 32,32 l 0,384 c 0,17.65 -14.35,32 -32,32 L 64,480 C 46.35,480 32,465.65 32,448 L 32,64 C 32,46.35 46.35,32 64,32 Z"
       id="path5328"
       inkscape:connector-curvature="0"
       style="fill:#546e7a" />
    <path
       d="m 470.6,41.4 c 5.8,5.8 9.4,13.8 9.4,22.6 l 0,384 c 0,17.65 -14.35,32 -32,32 l -384,0 c -8.8,0 -16.8,-3.6 -22.6,-9.4 z"
       id="path5330"
       inkscape:connector-curvature="0"
       style="fill:#445a64" />
    <path
       d="m 112,480 0,-80 -80,0 0,-16 80,0 0,-80 -80,0 0,-16 80,0 0,-80 -80,0 0,-16 80,0 0,-80 -80,0 0,-16 80,0 0,-64 16,0 0,64 80,0 0,-64 16,0 0,64 80,0 0,-64 16,0 0,64 80,0 0,-64 16,0 0,64 64,0 0,16 -64,0 0,80 64,0 0,16 -64,0 0,80 64,0 0,16 -64,0 0,80 64,0 0,16 -64,0 0,80 -16,0 0,-80 -80,0 0,80 -16,0 0,-80 -80,0 0,80 -16,0 0,-80 -80,0 0,80 z m 16,-368 0,80 80,0 0,-80 z m 0,96 0,80 80,0 0,-80 z m 0,96 0,80 80,0 0,-80 z m 272,-192 -80,0 0,80 80,0 z m -96,0 -80,0 0,80 80,0 z m -80,272 80,0 0,-80 -80,0 z m 96,0 80,0 0,-80 -80,0 z m -96,-96 80,0 0,-80 -80,0 z m 96,0 80,0 0,-80 -80,0 z"
       id="path5332"
       inkscape:connector-curvature="0"
       style="fill:#445a64" />
    <path
       d="m 112,480 0,-80 16,-16 80,0 0,-80 16,-16 80,0 0,-80 16,-16 80,0 0,-80 16,-16 64,0 0,16 -64,0 0,80 64,0 0,16 -64,0 0,80 64,0 0,16 -64,0 0,80 64,0 0,16 -64,0 0,80 -16,0 0,-80 -80,0 0,80 -16,0 0,-80 -80,0 0,80 -16,0 0,-80 -80,0 0,80 z m 112,-96 80,0 0,-80 -80,0 z m 96,0 80,0 0,-80 -80,0 z m 0,-96 80,0 0,-80 -80,0 z"
       id="path5334"
       inkscape:connector-curvature="0"
       style="fill:#36464e" />
    <polygon
       points="69.65,122.35 100.8,153.5 125.25,165.7 153.35,123.55 161.75,110.95 167.4,125.05 198.8,203.45 226.2,230.85 269.5,216.45 275.3,214.5 278.65,219.55 310.65,267.55 311.05,268.15 311.4,269.05 340.2,341 364.45,328.85 370.75,325.7 374.65,331.55 402.75,373.7 426.05,362.05 456.9,300.45 458.05,298.05 460.45,296.9 480,287.1 480,304.9 469.95,309.95 439.15,371.55 437.95,373.95 435.55,375.1 403.55,391.1 397.25,394.3 393.35,388.45 365.25,346.3 339.55,359.15 331.8,363 328.6,354.95 296.95,275.85 268.7,233.5 226.5,247.55 221.8,249.1 218.35,245.65 186.35,213.65 185.2,212.55 184.6,210.95 158.25,145.05 134.65,180.45 130.75,186.3 124.45,183.1 92.45,167.1 91.2,166.5 90.35,165.65 63,138.3 32,158.95 32,139.7 59.55,121.35 65,117.7 "
       id="polygon5336"
       style="fill:#ff9f00" />
    <polygon
       points="311.4,269.05 340.2,341 364.45,328.85 370.75,325.7 374.65,331.55 402.75,373.7 426.05,362.05 456.9,300.45 458.05,298.05 460.45,296.9 480,287.1 480,304.9 469.95,309.95 439.15,371.55 437.95,373.95 435.55,375.1 403.55,391.1 397.25,394.3 393.35,388.45 365.25,346.3 339.55,359.15 331.8,363 328.6,354.95 296.95,275.85 272.65,239.35 284.15,227.85 310.65,267.55 311.05,268.15 "
       id="polygon5338"
       style="fill:#ff8d00" />
    <polygon
       points="94.4,310.3 99.55,312.85 126.4,326.3 154.35,298.35 163.95,288.75 167.7,301.8 194.05,394.1 216.9,348.45 218.35,345.5 221.5,344.45 266.35,329.5 296.9,268.45 297.5,267.2 298.35,266.35 330.35,234.35 334.4,230.3 339.55,232.85 365.25,245.7 393.35,203.55 398.75,195.45 405.65,202.35 428.05,224.75 456.3,125.8 459.5,114.65 468.8,121.6 480,130.05 480,149.95 468.5,141.35 439.7,242.2 435.95,255.25 426.35,245.65 401.25,220.55 374.65,260.45 370.75,266.3 364.45,263.15 337.6,249.7 310.5,276.8 279.15,339.55 277.65,342.5 274.5,343.55 229.65,358.5 199.15,419.55 189.95,437.9 184.3,418.2 156.05,319.25 133.65,341.65 129.6,345.7 124.45,343.1 97.6,329.7 69.65,357.65 66.2,361.1 61.5,359.55 32,349.75 32,332.95 61.8,342.85 90.35,314.35 "
       id="polygon5340"
       style="fill:#28b5f5" />
    <polygon
       points="218.35,345.5 221.5,344.45 266.35,329.5 296.9,268.45 297.5,267.2 298.35,266.35 330.35,234.35 334.4,230.3 339.55,232.85 365.25,245.7 393.35,203.55 398.75,195.45 405.65,202.35 428.05,224.75 456.3,125.8 459.5,114.65 468.8,121.6 480,130.05 480,149.95 468.5,141.35 439.7,242.2 435.95,255.25 426.35,245.65 401.25,220.55 374.65,260.45 370.75,266.3 364.45,263.15 337.6,249.7 310.5,276.8 279.15,339.55 277.65,342.5 274.5,343.55 229.65,358.5 199.15,419.55 189.95,437.9 184.3,418.2 164.2,347.8 177.15,334.85 194.05,394.1 216.9,348.45 "
       id="polygon5342"
       style="fill:#0299e3" />
  </g>
  <path
     style="fill:#f98b00"
     inkscape:connector-curvature="0"
     d="m 374.12242,271.68298 c 1.72506,-0.77906 3.22754,-1.94765 4.50742,-3.56142 l 24.48475,-30.49464 c 1.16859,-1.44683 2.72671,-2.28154 4.61872,-2.39283 7.95754,-0.38953 15.46991,0.946 22.25886,3.95095 6.78895,3.00494 12.91014,7.62366 18.02968,13.74485 1.16859,1.50247 1.61377,3.17188 1.33553,5.00824 l -5.8986,38.67478 c -0.33388,2.00329 -0.16694,3.95095 0.44518,5.73165 2.22589,2.33719 4.28483,4.78566 6.23248,7.28978 1.72506,0.89036 3.61707,1.33553 5.62037,1.33553 l 39.11995,0.1113 c 1.83636,0 3.45012,0.72341 4.73001,2.11459 5.28648,6.00989 8.90354,12.7432 10.79555,19.86604 1.94765,7.17848 2.11459,14.80214 0.50082,22.64839 -0.38953,1.892 -1.44682,3.28318 -3.06059,4.17354 l -33.88912,19.4765 c -1.78071,1.0573 -3.17189,2.39283 -4.22919,3.95095 -0.44517,3.22754 -1.05729,6.34378 -1.83635,9.46002 0.38953,1.83636 1.22423,3.61706 2.50412,5.23083 l 24.26216,30.60594 c 1.11294,1.44683 1.61377,3.17189 1.27989,5.00824 -1.39118,7.9019 -4.39613,14.91344 -8.79226,20.86769 -4.39612,5.95425 -10.29472,10.8512 -17.41756,14.46826 -1.66941,0.89036 -3.45012,0.89036 -5.17518,0.22259 l -36.3376,-14.35697 c -1.892,-0.72341 -3.83965,-1.00165 -5.73166,-0.8347 -2.72671,1.61376 -5.62036,3.11624 -8.51401,4.50742 -1.22424,1.44682 -2.05895,3.17188 -2.55977,5.17518 l -8.79225,38.06266 c -0.44518,1.78071 -1.44683,3.22753 -3.11624,4.11789 -7.01154,3.83965 -14.35697,5.8986 -21.81369,6.12119 -7.40107,0.27823 -14.85779,-1.22424 -22.14757,-4.56307 -1.72506,-0.77906 -2.838,-2.11459 -3.39448,-3.8953 l -11.46331,-37.39489 c -0.55647,-1.94765 -1.55812,-3.61707 -2.83801,-4.9526 -3.06059,-1.16859 -6.00989,-2.44848 -8.84789,-3.8953 -1.89201,-0.0557 -3.78401,0.38953 -5.62037,1.22424 l -35.2803,16.86108 c -1.66941,0.77907 -3.39447,0.89036 -5.17518,0.16695 -7.34543,-3.11624 -13.57791,-7.56802 -18.36357,-13.24403 -4.8413,-5.62036 -8.29142,-12.40931 -10.23907,-20.19992 -0.44518,-1.83635 -0.1113,-3.56142 0.946,-5.06389 l 22.03627,-32.27535 c 1.16859,-1.66942 1.83636,-3.45013 2.1146,-5.34213 -1.00165,-3.06059 -1.78071,-6.17683 -2.50413,-9.34872 -1.11294,-1.50247 -2.61541,-2.72671 -4.45177,-3.61707 l -35.169,-17.08367 c -1.66942,-0.77907 -2.83801,-2.1146 -3.33883,-3.89531 -2.17024,-7.73495 -2.50413,-15.35861 -1.11295,-22.64839 1.39118,-7.28978 4.56307,-14.24567 9.40437,-20.58945 1.16859,-1.50247 2.72671,-2.28153 4.56307,-2.44847 l 39.00866,-2.83801 c 2.0033,-0.16694 3.8953,-0.72341 5.50907,-1.72506 1.78071,-2.67107 3.67271,-5.23083 5.67601,-7.67931 0.50082,-1.83636 0.50082,-3.83965 0.0557,-5.7873 l -8.56967,-38.17396 c -0.38953,-1.78071 -0.11129,-3.50577 1.00165,-5.06389 4.67436,-6.51072 10.40602,-11.51896 16.97239,-14.96908 6.56636,-3.45013 13.96743,-5.34213 21.98062,-5.50907 1.89201,0 3.50578,0.72341 4.73001,2.05894 l 26.5437,28.71394 c 1.39118,1.50247 3.00494,2.55977 4.78565,3.22753 3.22754,-0.27823 6.39943,-0.38953 9.62696,-0.33388 z m -1.39118,62.32482 c -19.64344,0 -35.61418,15.97073 -35.61418,35.61418 0,19.64345 15.97074,35.61418 35.61418,35.61418 19.64345,0 35.61419,-15.97073 35.61419,-35.61418 0,-19.64345 -15.97074,-35.61418 -35.61419,-35.61418 z"
     id="path6702" />
  <path
     style="fill:#f37c00"
     inkscape:connector-curvature="0"
     d="m 443.29184,299.06138 c 0.0557,1.11295 0.27824,2.22589 0.61212,3.28318 2.22589,2.33719 4.28483,4.78566 6.23248,7.28978 1.72506,0.89036 3.61707,1.33553 5.62037,1.33553 l 39.11995,0.1113 c 1.83636,0 3.45012,0.72341 4.73001,2.11459 5.28648,6.00989 8.90354,12.7432 10.79555,19.86604 1.94765,7.17848 2.11459,14.80214 0.50082,22.64839 -0.38953,1.892 -1.44682,3.28318 -3.06059,4.17354 l -33.88912,19.4765 c -1.78071,1.0573 -3.17189,2.39283 -4.22919,3.95095 -0.44517,3.22754 -1.05729,6.34378 -1.83635,9.46002 0.38953,1.83636 1.22423,3.61706 2.50412,5.23083 l 24.26216,30.60594 c 1.11294,1.44683 1.61377,3.17189 1.27989,5.00824 -1.39118,7.9019 -4.39613,14.91344 -8.79226,20.86769 -4.39612,5.95425 -10.29472,10.8512 -17.41756,14.46826 -1.66941,0.89036 -3.45012,0.89036 -5.17518,0.22259 l -36.3376,-14.35697 c -1.892,-0.72341 -3.83965,-1.00165 -5.73166,-0.8347 -2.72671,1.61376 -5.62036,3.11624 -8.51401,4.50742 -1.22424,1.44682 -2.05895,3.17188 -2.55977,5.17518 l -8.79225,38.06266 c -0.44518,1.78071 -1.44683,3.22753 -3.11624,4.11789 -7.01154,3.83965 -14.35697,5.8986 -21.81369,6.12119 -7.40107,0.27823 -14.85779,-1.22424 -22.14757,-4.56307 -1.72506,-0.77906 -2.838,-2.11459 -3.39448,-3.8953 l -11.46331,-37.39489 c -0.55647,-1.94765 -1.55812,-3.61707 -2.83801,-4.9526 -3.06059,-1.16859 -6.00989,-2.44848 -8.84789,-3.8953 -1.89201,-0.0557 -3.78401,0.38953 -5.62037,1.22424 l -35.2803,16.86108 c -1.66941,0.77907 -3.39447,0.89036 -5.17518,0.16695 -3.72836,-1.61377 -7.17849,-3.50577 -10.29473,-5.78731 l 74.90108,-74.90108 c 6.45507,6.39943 15.35862,10.40602 25.20816,10.40602 19.64345,0 35.61419,-15.97073 35.61419,-35.61418 0,-9.84955 -4.0066,-18.75309 -10.40602,-25.20816 z"
     id="path6704" />
  <path
     style="fill:#ffb54c"
     inkscape:connector-curvature="0"
     d="m 372.73124,280.58652 c 49.19209,0 89.03546,39.84337 89.03546,89.03546 0,49.19209 -39.84337,89.03546 -89.03546,89.03546 -49.19209,0 -89.03545,-39.84337 -89.03545,-89.03546 0,-49.19209 39.84336,-89.03546 89.03545,-89.03546 z m 0,35.61419 c -29.49299,0 -53.42127,23.92828 -53.42127,53.42127 0,29.493 23.92828,53.42127 53.42127,53.42127 29.493,0 53.42128,-23.92827 53.42128,-53.42127 0,-29.49299 -23.92828,-53.42127 -53.42128,-53.42127 z"
     id="path6706" />
  <path
     style="fill:#ffa526"
     inkscape:connector-curvature="0"
     d="m 435.66818,306.68504 c 16.13768,16.08203 26.09852,38.3409 26.09852,62.93694 0,49.19209 -39.84337,89.03546 -89.03546,89.03546 -24.59604,0 -46.85491,-9.96084 -62.93693,-26.09852 l 25.15251,-25.15252 c 9.68261,9.68261 23.03793,15.63685 37.78442,15.63685 29.493,0 53.42128,-23.92827 53.42128,-53.42127 0,-14.7465 -5.95425,-28.10181 -15.63685,-37.78442 z"
     id="path6708" />
</svg>
