<?xml version="1.0" encoding="UTF-8" standalone="no"?>
<svg
   xmlns:dc="http://purl.org/dc/elements/1.1/"
   xmlns:cc="http://creativecommons.org/ns#"
   xmlns:rdf="http://www.w3.org/1999/02/22-rdf-syntax-ns#"
   xmlns:svg="http://www.w3.org/2000/svg"
   xmlns="http://www.w3.org/2000/svg"
   xmlns:sodipodi="http://sodipodi.sourceforge.net/DTD/sodipodi-0.dtd"
   xmlns:inkscape="http://www.inkscape.org/namespaces/inkscape"
   x="0"
   y="0"
   width="512"
   height="512"
   version="1.1"
   viewBox="0 0 512 512"
   id="svg4136"
   inkscape:version="0.91 r13725"
   sodipodi:docname="document_new.svg">
  <metadata
     id="metadata4154">
    <rdf:RDF>
      <cc:Work
         rdf:about="">
        <dc:format>image/svg+xml</dc:format>
        <dc:type
           rdf:resource="http://purl.org/dc/dcmitype/StillImage" />
        <dc:title>document empty icon</dc:title>
      </cc:Work>
    </rdf:RDF>
  </metadata>
  <defs
     id="defs4152" />
  <sodipodi:namedview
     pagecolor="#ffffff"
     bordercolor="#666666"
     borderopacity="1"
     objecttolerance="10"
     gridtolerance="10"
     guidetolerance="10"
     inkscape:pageopacity="0"
     inkscape:pageshadow="2"
     inkscape:window-width="1920"
     inkscape:window-height="1017"
     id="namedview4150"
     showgrid="false"
     inkscape:zoom="1.6601563"
     inkscape:cx="256"
     inkscape:cy="288.71011"
     inkscape:window-x="1912"
     inkscape:window-y="-8"
     inkscape:window-maximized="1"
     inkscape:current-layer="svg4136" />
  <title
     id="title4138">document empty icon</title>
  <desc
     id="desc4140">document empty icon from the IconExperience.com G-Collection. Copyright by INCORS GmbH (www.incors.com).</desc>
  <g
     id="g4142">
    <path
       d="M288,0l-216,0c-4.4,0 -8,3.6 -8,8l0,496c0,4.4 3.6,8 8,8l368,0c4.4,0 8,-3.6 8,-8l0,-344c0,-8.85 -3.6,-16.85 -9.4,-22.65l-127.95,-127.95c-5.8,-5.8 -13.8,-9.4 -22.65,-9.4z"
       fill="#dff3fd"
       id="path4144" />
    <path
       d="M66.1,509.35c1.45,1.65 3.55,2.65 5.9,2.65l368,0c4.4,0 8,-3.6 8,-8l0,-344c0,-8.85 -3.6,-16.85 -9.4,-22.65c-5.8,-5.75 -13.8,-9.35 -22.6,-9.35l-48,0z"
       fill="#b1e3fb"
       id="path4146" />
    <path
       d="M438.6,137.35c-5.8,-5.75 -13.8,-9.35 -22.6,-9.35l-88,0c-4.4,0 -8,-3.6 -8,-8l0,-88c0,-8.5 -3.4,-16.6 -9.4,-22.6z"
       fill="#28b5f5"
       id="path4148" />
  </g>
  <g
     id="g4162"
     transform="matrix(0.58333333,0,0,0.58333333,-9.3333333,-9.3333317)">
    <polygon
       id="polygon4164"
       points="425.7,86.3 416.45,132.9 463.85,136 442.85,178.6 487.8,193.9 456.5,229.6 496,256 456.5,282.4 487.8,318.1 442.85,333.4 463.85,376 416.45,379.1 425.7,425.7 379.1,416.45 376,463.85 333.4,442.85 318.1,487.8 282.4,456.5 256,496 229.6,456.5 193.9,487.8 178.6,442.85 136,463.85 132.9,416.45 86.3,425.7 95.55,379.1 48.15,376 69.15,333.4 24.2,318.1 55.5,282.4 16,256 55.5,229.6 24.2,193.9 69.15,178.6 48.15,136 95.55,132.9 86.3,86.3 132.9,95.55 136,48.15 178.6,69.15 193.9,24.2 229.6,55.5 256,16 282.4,55.5 318.1,24.2 333.4,69.15 376,48.15 379.1,95.55 "
       style="fill:#ff8d00" />
    <polygon
       id="polygon4166"
       points="496,256 456.5,282.4 487.8,318.1 442.85,333.4 463.85,376 416.45,379.1 425.7,425.7 379.1,416.45 376,463.85 333.4,442.85 318.1,487.8 282.4,456.5 256,496 229.6,456.5 193.9,487.8 178.6,442.85 136,463.85 132.9,416.45 86.3,425.7 425.7,86.3 416.45,132.9 463.85,136 442.85,178.6 487.8,193.9 456.5,229.6 "
       style="fill:#ff6e00" />
    <path
       id="path4168"
       d="m 256,44.8 -13.1,19.55 c -5.4,8.1 -16.55,9.55 -23.85,3.15 l -17.7,-15.5 -7.6,22.3 c -3.15,9.2 -13.5,13.5 -22.2,9.2 L 150.4,73.1 148.85,96.6 c -0.65,9.7 -9.55,16.55 -19.1,14.65 l -23.1,-4.6 4.6,23.1 c 1.9,9.55 -4.95,18.45 -14.65,19.1 l -23.5,1.55 10.4,21.15 c 4.3,8.7 0,19.05 -9.2,22.2 l -22.3,7.6 15.5,17.7 c 6.4,7.3 4.95,18.45 -3.15,23.85 L 44.8,256 64.35,269.1 c 8.1,5.4 9.55,16.55 3.15,23.85 l -15.5,17.7 22.3,7.6 c 9.2,3.15 13.5,13.5 9.2,22.2 l -10.4,21.15 23.5,1.55 c 9.7,0.65 16.55,9.55 14.65,19.1 l -4.6,23.1 23.1,-4.6 c 9.55,-1.9 18.45,4.95 19.1,14.65 l 1.55,23.5 21.15,-10.4 c 8.7,-4.3 19.05,0 22.2,9.2 l 7.6,22.3 17.7,-15.5 c 7.3,-6.4 18.45,-4.95 23.85,3.15 l 13.1,19.55 13.1,-19.55 c 5.4,-8.1 16.55,-9.55 23.85,-3.15 l 17.7,15.5 7.6,-22.3 c 3.15,-9.2 13.5,-13.5 22.2,-9.2 l 21.15,10.4 1.55,-23.5 c 0.65,-9.7 9.55,-16.55 19.1,-14.65 l 23.1,4.6 -4.6,-23.1 c -1.9,-9.55 4.95,-18.45 14.65,-19.1 l 23.5,-1.55 -10.4,-21.15 c -4.3,-8.7 0,-19.05 9.2,-22.2 l 22.3,-7.6 -15.5,-17.7 c -6.4,-7.3 -4.95,-18.45 3.15,-23.85 L 467.2,256 447.65,242.9 c -8.1,-5.4 -9.55,-16.55 -3.15,-23.85 l 15.5,-17.7 -22.3,-7.6 c -9.2,-3.15 -13.5,-13.5 -9.2,-22.2 l 10.4,-21.15 -23.5,-1.55 c -9.7,-0.65 -16.55,-9.55 -14.65,-19.1 l 4.6,-23.1 -23.1,4.6 c -9.55,1.9 -18.45,-4.95 -19.1,-14.65 L 361.6,73.1 340.45,83.5 c -8.7,4.3 -19.05,0 -22.2,-9.2 l -7.6,-22.3 -17.7,15.5 c -7.3,6.4 -18.45,4.95 -23.85,-3.15 z"
       inkscape:connector-curvature="0"
       style="fill:#ffb100" />
    <path
       id="path4170"
       d="m 106.65,405.35 23.1,-4.6 c 9.55,-1.9 18.45,4.95 19.1,14.65 l 1.55,23.5 21.15,-10.4 c 8.7,-4.3 19.05,0 22.2,9.2 l 7.6,22.3 17.7,-15.5 c 7.3,-6.4 18.45,-4.95 23.85,3.15 l 13.1,19.55 13.1,-19.55 c 5.4,-8.1 16.55,-9.55 23.85,-3.15 l 17.7,15.5 7.6,-22.3 c 3.15,-9.2 13.5,-13.5 22.2,-9.2 l 21.15,10.4 1.55,-23.5 c 0.65,-9.7 9.55,-16.55 19.1,-14.65 l 23.1,4.6 -4.6,-23.1 c -1.9,-9.55 4.95,-18.45 14.65,-19.1 l 23.5,-1.55 -10.4,-21.15 c -4.3,-8.7 0,-19.05 9.2,-22.2 l 22.3,-7.6 -15.5,-17.7 c -6.4,-7.3 -4.95,-18.45 3.15,-23.85 L 467.2,256 447.65,242.9 c -8.1,-5.4 -9.55,-16.55 -3.15,-23.85 l 15.5,-17.7 -22.3,-7.6 c -9.2,-3.15 -13.5,-13.5 -9.2,-22.2 l 10.4,-21.15 -23.5,-1.55 c -9.7,-0.65 -16.55,-9.55 -14.65,-19.1 l 4.6,-23.1 z"
       inkscape:connector-curvature="0"
       style="fill:#ff9f00" />
  </g>
</svg>
