<svg x="0" y="0" width="512" height="512" version="1.1"
    xmlns="http://www.w3.org/2000/svg"
    xmlns:xlink="http://www.w3.org/1999/xlink" viewBox="0 0 512 512">
    <title>thermometer icon</title>
    <desc>thermometer icon from the IconExperience.com G-Collection. Copyright by INCORS GmbH (www.incors.com).</desc>
    <g>
        <path d="M160,0l192,0c8.8,0 16,7.2 16,16l0,480c0,8.8 -7.2,16 -16,16l-192,0c-8.8,0 -16,-7.2 -16,-16l0,-480c0,-8.8 7.2,-16 16,-16z" fill="#afbdc3"/>
        <path d="M256,0l96,0c8.8,0 16,7.2 16,16l0,480c0,8.8 -7.2,16 -16,16l-96,0z" fill="#8fa3ad"/>
        <path d="M176,80l160,0l0,16l-160,0z M176,128l160,0l0,16l-160,0z M176,176l160,0l0,16l-160,0z M176,224l160,0l0,16l-160,0z M176,272l160,0l0,16l-160,0z M176,320l160,0l0,16l-160,0z" fill="#546e7a"/>
        <path d="M256,80l80,0l0,16l-80,0z M256,128l80,0l0,16l-80,0z M256,176l80,0l0,16l-80,0z M256,224l80,0l0,16l-80,0z M256,272l80,0l0,16l-80,0z M256,320l80,0l0,16l-80,0z" fill="#445a64"/>
        <path d="M256,480c35.35,0 64,-28.65 64,-64c0,-23.7 -12.85,-44.35 -32,-55.45l0,-296.55c0,-17.65 -14.35,-32 -32,-32c-17.65,0 -32,14.35 -32,32l0,296.55c-19.15,11.1 -32,31.75 -32,55.45c0,35.35 28.65,64 64,64z" fill="#dff3fd"/>
        <path d="M256,480c35.35,0 64,-28.65 64,-64c0,-23.7 -12.85,-44.35 -32,-55.45l0,-296.55c0,-17.65 -14.35,-32 -32,-32z" fill="#b1e3fb"/>
        <path d="M272,379.35c14.15,6.15 24,20.25 24,36.65c0,22.1 -17.9,40 -40,40c-22.1,0 -40,-17.9 -40,-40c0,-16.4 9.85,-30.5 24,-36.65l0,-251.35l32,0z" fill="#d74214"/>
        <path d="M272,379.35c14.15,6.15 24,20.25 24,36.65c0,22.1 -17.9,40 -40,40l0,-328l16,0z" fill="#bd360c"/>
    </g>
</svg>