<?xml version="1.0" encoding="UTF-8" standalone="no"?>
<!-- Created with Inkscape (http://www.inkscape.org/) -->

<svg
   xmlns:dc="http://purl.org/dc/elements/1.1/"
   xmlns:cc="http://creativecommons.org/ns#"
   xmlns:rdf="http://www.w3.org/1999/02/22-rdf-syntax-ns#"
   xmlns:svg="http://www.w3.org/2000/svg"
   xmlns="http://www.w3.org/2000/svg"
   xmlns:sodipodi="http://sodipodi.sourceforge.net/DTD/sodipodi-0.dtd"
   xmlns:inkscape="http://www.inkscape.org/namespaces/inkscape"
   width="512"
   height="512"
   viewBox="0 0 511.99999 511.99999"
   id="svg2"
   version="1.1"
   inkscape:version="0.91 r13725"
   sodipodi:docname="deviceicon_analog_out2.svg">
  <defs
     id="defs4">
    <clipPath
       clipPathUnits="userSpaceOnUse"
       id="clipPath4160">
      <path
         d="m 0,0 841.89,0 0,595.276 L 0,595.276 0,0 Z"
         id="path4162"
         inkscape:connector-curvature="0" />
    </clipPath>
    <clipPath
       clipPathUnits="userSpaceOnUse"
       id="clipPath4174">
      <path
         d="m 0,0 841.89,0 0,595.276 L 0,595.276 0,0 Z"
         id="path4176"
         inkscape:connector-curvature="0" />
    </clipPath>
    <clipPath
       clipPathUnits="userSpaceOnUse"
       id="clipPath4188">
      <path
         d="m 0,0 841.89,0 0,595.276 L 0,595.276 0,0 Z"
         id="path4190"
         inkscape:connector-curvature="0" />
    </clipPath>
    <clipPath
       clipPathUnits="userSpaceOnUse"
       id="clipPath4202">
      <path
         d="m 0,0 841.89,0 0,595.276 L 0,595.276 0,0 Z"
         id="path4204"
         inkscape:connector-curvature="0" />
    </clipPath>
    <clipPath
       clipPathUnits="userSpaceOnUse"
       id="clipPath4216">
      <path
         d="m 0,0 841.89,0 0,595.276 L 0,595.276 0,0 Z"
         id="path4218"
         inkscape:connector-curvature="0" />
    </clipPath>
    <clipPath
       clipPathUnits="userSpaceOnUse"
       id="clipPath4234">
      <path
         d="m 0,0 841.89,0 0,595.276 L 0,595.276 0,0 Z"
         id="path4236"
         inkscape:connector-curvature="0" />
    </clipPath>
    <clipPath
       clipPathUnits="userSpaceOnUse"
       id="clipPath4541">
      <path
         d="m 0,0 841.89,0 0,595.276 L 0,595.276 0,0 Z"
         id="path4543"
         inkscape:connector-curvature="0" />
    </clipPath>
    <clipPath
       clipPathUnits="userSpaceOnUse"
       id="clipPath4555">
      <path
         d="m 0,0 841.89,0 0,595.276 L 0,595.276 0,0 Z"
         id="path4557"
         inkscape:connector-curvature="0" />
    </clipPath>
    <clipPath
       clipPathUnits="userSpaceOnUse"
       id="clipPath4569">
      <path
         d="m 0,0 841.89,0 0,595.276 L 0,595.276 0,0 Z"
         id="path4571"
         inkscape:connector-curvature="0" />
    </clipPath>
    <clipPath
       clipPathUnits="userSpaceOnUse"
       id="clipPath4583">
      <path
         d="m 0,0 841.89,0 0,595.276 L 0,595.276 0,0 Z"
         id="path4585"
         inkscape:connector-curvature="0" />
    </clipPath>
    <clipPath
       clipPathUnits="userSpaceOnUse"
       id="clipPath4597">
      <path
         d="m 0,0 841.89,0 0,595.276 L 0,595.276 0,0 Z"
         id="path4599"
         inkscape:connector-curvature="0" />
    </clipPath>
    <clipPath
       clipPathUnits="userSpaceOnUse"
       id="clipPath4615">
      <path
         d="m 0,0 841.89,0 0,595.276 L 0,595.276 0,0 Z"
         id="path4617"
         inkscape:connector-curvature="0" />
    </clipPath>
    <clipPath
       clipPathUnits="userSpaceOnUse"
       id="clipPath4160-8">
      <path
         d="m 0,0 841.89,0 0,595.276 L 0,595.276 0,0 Z"
         id="path4162-1"
         inkscape:connector-curvature="0" />
    </clipPath>
    <clipPath
       clipPathUnits="userSpaceOnUse"
       id="clipPath4174-2">
      <path
         d="m 0,0 841.89,0 0,595.276 L 0,595.276 0,0 Z"
         id="path4176-6"
         inkscape:connector-curvature="0" />
    </clipPath>
    <clipPath
       clipPathUnits="userSpaceOnUse"
       id="clipPath4188-9">
      <path
         d="m 0,0 841.89,0 0,595.276 L 0,595.276 0,0 Z"
         id="path4190-7"
         inkscape:connector-curvature="0" />
    </clipPath>
    <clipPath
       clipPathUnits="userSpaceOnUse"
       id="clipPath4202-6">
      <path
         d="m 0,0 841.89,0 0,595.276 L 0,595.276 0,0 Z"
         id="path4204-2"
         inkscape:connector-curvature="0" />
    </clipPath>
    <clipPath
       clipPathUnits="userSpaceOnUse"
       id="clipPath4216-6">
      <path
         d="m 0,0 841.89,0 0,595.276 L 0,595.276 0,0 Z"
         id="path4218-6"
         inkscape:connector-curvature="0" />
    </clipPath>
    <clipPath
       clipPathUnits="userSpaceOnUse"
       id="clipPath4234-5">
      <path
         d="m 0,0 841.89,0 0,595.276 L 0,595.276 0,0 Z"
         id="path4236-9"
         inkscape:connector-curvature="0" />
    </clipPath>
    <clipPath
       clipPathUnits="userSpaceOnUse"
       id="clipPath4541-1">
      <path
         d="m 0,0 841.89,0 0,595.276 L 0,595.276 0,0 Z"
         id="path4543-3"
         inkscape:connector-curvature="0" />
    </clipPath>
    <clipPath
       clipPathUnits="userSpaceOnUse"
       id="clipPath4555-0">
      <path
         d="m 0,0 841.89,0 0,595.276 L 0,595.276 0,0 Z"
         id="path4557-0"
         inkscape:connector-curvature="0" />
    </clipPath>
    <clipPath
       clipPathUnits="userSpaceOnUse"
       id="clipPath4569-4">
      <path
         d="m 0,0 841.89,0 0,595.276 L 0,595.276 0,0 Z"
         id="path4571-0"
         inkscape:connector-curvature="0" />
    </clipPath>
    <clipPath
       clipPathUnits="userSpaceOnUse"
       id="clipPath4583-5">
      <path
         d="m 0,0 841.89,0 0,595.276 L 0,595.276 0,0 Z"
         id="path4585-7"
         inkscape:connector-curvature="0" />
    </clipPath>
    <clipPath
       clipPathUnits="userSpaceOnUse"
       id="clipPath4597-6">
      <path
         d="m 0,0 841.89,0 0,595.276 L 0,595.276 0,0 Z"
         id="path4599-2"
         inkscape:connector-curvature="0" />
    </clipPath>
    <clipPath
       clipPathUnits="userSpaceOnUse"
       id="clipPath4615-2">
      <path
         d="m 0,0 841.89,0 0,595.276 L 0,595.276 0,0 Z"
         id="path4617-0"
         inkscape:connector-curvature="0" />
    </clipPath>
    <clipPath
       clipPathUnits="userSpaceOnUse"
       id="clipPath4160-2">
      <path
         d="m 0,0 841.89,0 0,595.276 L 0,595.276 0,0 Z"
         id="path4162-9"
         inkscape:connector-curvature="0" />
    </clipPath>
    <clipPath
       clipPathUnits="userSpaceOnUse"
       id="clipPath4174-7">
      <path
         d="m 0,0 841.89,0 0,595.276 L 0,595.276 0,0 Z"
         id="path4176-8"
         inkscape:connector-curvature="0" />
    </clipPath>
    <clipPath
       clipPathUnits="userSpaceOnUse"
       id="clipPath4188-4">
      <path
         d="m 0,0 841.89,0 0,595.276 L 0,595.276 0,0 Z"
         id="path4190-0"
         inkscape:connector-curvature="0" />
    </clipPath>
    <clipPath
       clipPathUnits="userSpaceOnUse"
       id="clipPath4202-9">
      <path
         d="m 0,0 841.89,0 0,595.276 L 0,595.276 0,0 Z"
         id="path4204-6"
         inkscape:connector-curvature="0" />
    </clipPath>
    <clipPath
       clipPathUnits="userSpaceOnUse"
       id="clipPath4216-9">
      <path
         d="m 0,0 841.89,0 0,595.276 L 0,595.276 0,0 Z"
         id="path4218-0"
         inkscape:connector-curvature="0" />
    </clipPath>
    <clipPath
       clipPathUnits="userSpaceOnUse"
       id="clipPath4234-3">
      <path
         d="m 0,0 841.89,0 0,595.276 L 0,595.276 0,0 Z"
         id="path4236-3"
         inkscape:connector-curvature="0" />
    </clipPath>
    <clipPath
       clipPathUnits="userSpaceOnUse"
       id="clipPath4541-4">
      <path
         d="m 0,0 841.89,0 0,595.276 L 0,595.276 0,0 Z"
         id="path4543-4"
         inkscape:connector-curvature="0" />
    </clipPath>
    <clipPath
       clipPathUnits="userSpaceOnUse"
       id="clipPath4555-3">
      <path
         d="m 0,0 841.89,0 0,595.276 L 0,595.276 0,0 Z"
         id="path4557-8"
         inkscape:connector-curvature="0" />
    </clipPath>
    <clipPath
       clipPathUnits="userSpaceOnUse"
       id="clipPath4569-7">
      <path
         d="m 0,0 841.89,0 0,595.276 L 0,595.276 0,0 Z"
         id="path4571-04"
         inkscape:connector-curvature="0" />
    </clipPath>
    <clipPath
       clipPathUnits="userSpaceOnUse"
       id="clipPath4583-9">
      <path
         d="m 0,0 841.89,0 0,595.276 L 0,595.276 0,0 Z"
         id="path4585-3"
         inkscape:connector-curvature="0" />
    </clipPath>
    <clipPath
       clipPathUnits="userSpaceOnUse"
       id="clipPath4597-1">
      <path
         d="m 0,0 841.89,0 0,595.276 L 0,595.276 0,0 Z"
         id="path4599-9"
         inkscape:connector-curvature="0" />
    </clipPath>
    <clipPath
       clipPathUnits="userSpaceOnUse"
       id="clipPath4615-0">
      <path
         d="m 0,0 841.89,0 0,595.276 L 0,595.276 0,0 Z"
         id="path4617-4"
         inkscape:connector-curvature="0" />
    </clipPath>
    <clipPath
       clipPathUnits="userSpaceOnUse"
       id="clipPath4160-7">
      <path
         d="m 0,0 841.89,0 0,595.276 L 0,595.276 0,0 Z"
         id="path4162-18"
         inkscape:connector-curvature="0" />
    </clipPath>
    <clipPath
       clipPathUnits="userSpaceOnUse"
       id="clipPath4174-0">
      <path
         d="m 0,0 841.89,0 0,595.276 L 0,595.276 0,0 Z"
         id="path4176-0"
         inkscape:connector-curvature="0" />
    </clipPath>
    <clipPath
       clipPathUnits="userSpaceOnUse"
       id="clipPath4188-6">
      <path
         d="m 0,0 841.89,0 0,595.276 L 0,595.276 0,0 Z"
         id="path4190-00"
         inkscape:connector-curvature="0" />
    </clipPath>
    <clipPath
       clipPathUnits="userSpaceOnUse"
       id="clipPath4202-94">
      <path
         d="m 0,0 841.89,0 0,595.276 L 0,595.276 0,0 Z"
         id="path4204-0"
         inkscape:connector-curvature="0" />
    </clipPath>
    <clipPath
       clipPathUnits="userSpaceOnUse"
       id="clipPath4216-2">
      <path
         d="m 0,0 841.89,0 0,595.276 L 0,595.276 0,0 Z"
         id="path4218-9"
         inkscape:connector-curvature="0" />
    </clipPath>
    <clipPath
       clipPathUnits="userSpaceOnUse"
       id="clipPath4234-55">
      <path
         d="m 0,0 841.89,0 0,595.276 L 0,595.276 0,0 Z"
         id="path4236-0"
         inkscape:connector-curvature="0" />
    </clipPath>
    <clipPath
       clipPathUnits="userSpaceOnUse"
       id="clipPath4541-6">
      <path
         d="m 0,0 841.89,0 0,595.276 L 0,595.276 0,0 Z"
         id="path4543-8"
         inkscape:connector-curvature="0" />
    </clipPath>
    <clipPath
       clipPathUnits="userSpaceOnUse"
       id="clipPath4555-4">
      <path
         d="m 0,0 841.89,0 0,595.276 L 0,595.276 0,0 Z"
         id="path4557-1"
         inkscape:connector-curvature="0" />
    </clipPath>
    <clipPath
       clipPathUnits="userSpaceOnUse"
       id="clipPath4569-72">
      <path
         d="m 0,0 841.89,0 0,595.276 L 0,595.276 0,0 Z"
         id="path4571-5"
         inkscape:connector-curvature="0" />
    </clipPath>
    <clipPath
       clipPathUnits="userSpaceOnUse"
       id="clipPath4583-0">
      <path
         d="m 0,0 841.89,0 0,595.276 L 0,595.276 0,0 Z"
         id="path4585-38"
         inkscape:connector-curvature="0" />
    </clipPath>
    <clipPath
       clipPathUnits="userSpaceOnUse"
       id="clipPath4597-4">
      <path
         d="m 0,0 841.89,0 0,595.276 L 0,595.276 0,0 Z"
         id="path4599-1"
         inkscape:connector-curvature="0" />
    </clipPath>
    <clipPath
       clipPathUnits="userSpaceOnUse"
       id="clipPath4615-8">
      <path
         d="m 0,0 841.89,0 0,595.276 L 0,595.276 0,0 Z"
         id="path4617-5"
         inkscape:connector-curvature="0" />
    </clipPath>
    <clipPath
       id="clipPath8750"
       clipPathUnits="userSpaceOnUse">
      <path
         inkscape:connector-curvature="0"
         id="path8752"
         d="m 0,0 841.89,0 0,595.276 L 0,595.276 0,0 Z" />
    </clipPath>
    <clipPath
       id="clipPath8764"
       clipPathUnits="userSpaceOnUse">
      <path
         inkscape:connector-curvature="0"
         id="path8766"
         d="m 0,0 841.89,0 0,595.276 L 0,595.276 0,0 Z" />
    </clipPath>
    <clipPath
       id="clipPath8778"
       clipPathUnits="userSpaceOnUse">
      <path
         inkscape:connector-curvature="0"
         id="path8780"
         d="m 0,0 841.89,0 0,595.276 L 0,595.276 0,0 Z" />
    </clipPath>
    <clipPath
       id="clipPath8792"
       clipPathUnits="userSpaceOnUse">
      <path
         inkscape:connector-curvature="0"
         id="path8794"
         d="m 0,0 841.89,0 0,595.276 L 0,595.276 0,0 Z" />
    </clipPath>
    <clipPath
       id="clipPath8806"
       clipPathUnits="userSpaceOnUse">
      <path
         inkscape:connector-curvature="0"
         id="path8808"
         d="m 0,0 841.89,0 0,595.276 L 0,595.276 0,0 Z" />
    </clipPath>
    <clipPath
       id="clipPath8824"
       clipPathUnits="userSpaceOnUse">
      <path
         inkscape:connector-curvature="0"
         id="path8826"
         d="m 0,0 841.89,0 0,595.276 L 0,595.276 0,0 Z" />
    </clipPath>
  </defs>
  <sodipodi:namedview
     id="base"
     pagecolor="#333333"
     bordercolor="#666666"
     borderopacity="1.0"
     inkscape:pageopacity="0"
     inkscape:pageshadow="2"
     inkscape:zoom="0.45014485"
     inkscape:cx="107.46801"
     inkscape:cy="306.5696"
     inkscape:document-units="px"
     inkscape:current-layer="layer1"
     showgrid="false"
     units="px"
     inkscape:window-width="1920"
     inkscape:window-height="1017"
     inkscape:window-x="-8"
     inkscape:window-y="-8"
     inkscape:window-maximized="1"
     showguides="true"
     inkscape:guide-bbox="true">
    <sodipodi:guide
       position="253.25181,562.04129"
       orientation="1,0"
       id="guide4255" />
    <sodipodi:guide
       position="256,256"
       orientation="0,1"
       id="guide4257"
       inkscape:label=""
       inkscape:color="rgb(0,0,255)" />
  </sodipodi:namedview>
  <metadata
     id="metadata7">
    <rdf:RDF>
      <cc:Work
         rdf:about="">
        <dc:format>image/svg+xml</dc:format>
        <dc:type
           rdf:resource="http://purl.org/dc/dcmitype/StillImage" />
        <dc:title />
      </cc:Work>
    </rdf:RDF>
  </metadata>
  <g
     inkscape:label="Ebene 1"
     inkscape:groupmode="layer"
     id="layer1"
     transform="translate(0,-540.36219)">
    <rect
       style="opacity:1;fill:#912895;fill-opacity:1;stroke:none;stroke-width:13.59599972;stroke-linecap:round;stroke-linejoin:miter;stroke-miterlimit:4;stroke-dasharray:none;stroke-opacity:1"
       id="rect4762"
       width="512"
       height="512"
       x="0"
       y="540.36218" />
    <g
       id="g4288"
       transform="matrix(1.0280431,0,0,1.0280431,-7.3707393,-65.529088)">
      <path
         inkscape:connector-curvature="0"
         id="path9045"
         d="m 258.59766,622.91492 c -5.05207,0.11619 -10.07983,0.29008 -15.12696,0.45704 0.7099,10.34807 1.61638,20.75739 2.46094,31.12695 6.61491,0.24029 13.07641,0.92427 19.69922,0.43164 1.8152,-10.50635 2.81353,-21.16024 2.87109,-31.82422 -3.29541,-0.24459 -6.60256,-0.19721 -9.90429,-0.19141 z m -66.39063,8.84375 c -7.55305,2.37827 -15.15585,4.75546 -22.26367,8.29493 3.09169,10.40142 8.01496,20.07802 13.02148,29.62304 6.42337,-1.79197 12.68287,-4.20508 18.58399,-7.31836 -2.34204,-10.25699 -4.97825,-21.49062 -9.3418,-30.59961 z m 126.32031,1.41211 c -2.73113,9.89963 -6.47966,19.69388 -7.64453,29.87305 5.61818,3.06708 11.86358,4.66194 17.97266,6.41992 5.3301,-9.29148 10.76029,-19.18507 13.07031,-29.55273 -7.45089,-3.26968 -15.19921,-5.95526 -22.97656,-8.14649 l -0.28735,0.95783 -0.13453,0.44842 z m -194.77929,33.52149 c -6.05882,4.60899 -13.41119,9.61251 -17.42578,15.39844 6.85058,8.1888 14.57319,15.58769 22.34765,22.88476 5.46611,-4.07329 10.25057,-8.47968 14.74024,-13.58203 -5.80645,-8.761 -11.71393,-17.54617 -19.00391,-25.16406 l -0.6582,0.46289 z m 261.60547,2.44922 c -6.19134,7.113 -12.22584,14.49952 -16.80664,22.76172 4.57602,4.80388 9.84889,8.93516 15.07226,12.94336 7.89711,-7.34034 15.54571,-14.85868 22.28711,-23.30469 -5.55423,-5.59999 -11.6619,-10.73624 -18.07227,-15.20117 -0.82682,0.93359 -1.65364,1.86718 -2.48046,2.80078 z m 50.86132,53.73437 c -7.95241,5.31724 -15.86412,10.73048 -23.24609,16.82813 3.01247,5.97092 6.34424,11.79005 10.13281,17.30468 9.85894,-4.38755 19.54172,-8.96193 28.79492,-14.39453 -3.91281,-7.40951 -7.64136,-15.01649 -12.94726,-21.56054 -0.91146,0.60742 -1.82292,1.21484 -2.73438,1.82226 z M 72.935547,721.30164 c -5.07094,6.61428 -9.637132,14.53241 -12.65625,21.78516 9.147732,5.29966 18.867572,9.50032 28.503906,13.81055 3.762534,-5.46312 7.560234,-10.97023 10.263672,-17.05469 -8.374618,-6.5243 -16.821505,-13.64782 -26.111328,-18.54102 z m 394.875003,70.45508 c -9.88037,1.86085 -19.65317,4.29713 -29.24805,7.30078 0.84112,6.69311 1.22454,13.5471 3.43164,19.99219 10.58918,-0.85481 21.64388,-1.7916 32.08203,-2.95703 -1.58714,-8.27295 -1.48469,-16.71012 -4.70703,-24.62305 l -0.98345,0.18116 -0.57514,0.10595 z M 42.265625,792.3036 c -2.301019,7.84552 -3.624748,15.71263 -3.822266,23.93554 10.596429,0.68462 21.105227,1.87101 31.654297,2.49219 1.628485,-6.43229 3.009958,-12.96134 3.464844,-19.59375 C 63.321065,796.2762 52.780686,792.8835 42.265625,792.3036 Z m 12.59375,72.83398 c -5.502128,0.53446 -11.228276,0.59058 -16.558594,1.44531 0.749395,8.50214 1.967213,16.87483 3.703125,25.15821 10.562374,-1.91634 21.341649,-4.02185 31.257813,-8.03516 -0.244712,-6.62356 -1.734833,-13.10658 -2.824219,-19.62109 -5.192708,0.35091 -10.385417,0.70182 -15.578125,1.05273 z m -16.558594,1.44531 c -0.01326,-0.003 0.01171,0.0417 0,0 z m 401.583989,7.58399 c -0.0809,3.51351 -2.21978,8.01148 -0.92774,10.74609 10.22953,2.79098 20.03112,6.84595 30.58789,7.9961 1.91607,-8.65044 4.30846,-18.16701 3.85742,-26.375 -10.5998,-1.03139 -21.24151,-1.50926 -31.86718,-2.18555 -0.55013,3.27278 -1.10026,6.54557 -1.65039,9.81836 z M 88.115234,926.33875 c -9.601295,4.32686 -19.140943,8.36676 -28.207031,13.65821 3.891087,7.66936 7.784053,15.33827 12.679688,22.19531 8.782863,-5.97012 17.864306,-11.73074 25.880859,-18.6543 -2.409839,-6.21509 -5.944431,-11.89801 -9.125,-17.73047 l -0.917857,0.39691 -0.310659,0.13434 z m 332.863286,2.59766 c -2.25586,5.46478 -7.11088,10.59399 -8.41797,15.78125 9.27064,5.10285 16.94844,12.70003 26.55078,17.20312 4.58962,-6.63834 10.12601,-14.03058 12.61328,-21.05859 -9.4753,-5.4578 -19.31919,-10.34708 -29.65234,-13.96484 -0.36459,0.67968 -0.72917,1.35937 -1.09375,2.03906 z"
         style="fill:#ffffff;fill-opacity:1" />
      <g
         transform="translate(1156.959,117.5652)"
         id="g4275">
        <path
           style="color:#000000;font-style:normal;font-variant:normal;font-weight:normal;font-stretch:normal;font-size:medium;line-height:normal;font-family:sans-serif;text-indent:0;text-align:start;text-decoration:none;text-decoration-line:none;text-decoration-style:solid;text-decoration-color:#000000;letter-spacing:normal;word-spacing:normal;text-transform:none;direction:ltr;block-progression:tb;writing-mode:lr-tb;baseline-shift:baseline;text-anchor:start;white-space:normal;clip-rule:nonzero;display:inline;overflow:visible;visibility:visible;opacity:1;isolation:auto;mix-blend-mode:normal;color-interpolation:sRGB;color-interpolation-filters:linearRGB;solid-color:#000000;solid-opacity:1;fill:#ffffff;fill-opacity:1;fill-rule:nonzero;stroke:none;stroke-width:30;stroke-linecap:round;stroke-linejoin:miter;stroke-miterlimit:4;stroke-dasharray:none;stroke-dashoffset:0;stroke-opacity:1;color-rendering:auto;image-rendering:auto;shape-rendering:auto;text-rendering:auto;enable-background:accumulate"
           d="m -900.95898,575.79908 c -81.75567,0 -148.33182,66.57611 -148.33182,148.33178 0,81.75567 66.57615,148.33178 148.33182,148.33178 81.75566,0 148.33178,-66.57611 148.33178,-148.33178 0,-81.75567 -66.57612,-148.33178 -148.33178,-148.33178 z m 0,27.98369 c 66.63216,0 120.34809,53.71593 120.34809,120.34809 0,66.63216 -53.71593,120.34809 -120.34809,120.34809 -66.63216,0 -120.34812,-53.71593 -120.34812,-120.34809 0,-66.63216 53.71596,-120.34809 120.34812,-120.34809 z"
           id="path4255"
           inkscape:connector-curvature="0" />
        <path
           style="color:#000000;font-style:normal;font-variant:normal;font-weight:normal;font-stretch:normal;font-size:medium;line-height:normal;font-family:sans-serif;text-indent:0;text-align:start;text-decoration:none;text-decoration-line:none;text-decoration-style:solid;text-decoration-color:#000000;letter-spacing:normal;word-spacing:normal;text-transform:none;direction:ltr;block-progression:tb;writing-mode:lr-tb;baseline-shift:baseline;text-anchor:start;white-space:normal;clip-rule:nonzero;display:inline;overflow:visible;visibility:visible;opacity:1;isolation:auto;mix-blend-mode:normal;color-interpolation:sRGB;color-interpolation-filters:linearRGB;solid-color:#000000;solid-opacity:1;fill:#ffffff;fill-opacity:1;fill-rule:evenodd;stroke:none;stroke-width:40;stroke-linecap:butt;stroke-linejoin:miter;stroke-miterlimit:4;stroke-dasharray:none;stroke-dashoffset:0;stroke-opacity:1;color-rendering:auto;image-rendering:auto;shape-rendering:auto;text-rendering:auto;enable-background:accumulate"
           d="m -819.05859,608.23047 -96.18946,102.19336 29.12696,27.41601 96.18945,-102.19531 -29.12695,-27.41406 z"
           id="path4265"
           inkscape:connector-curvature="0" />
      </g>
    </g>
  </g>
</svg>
