<?xml version="1.0" encoding="UTF-8" standalone="no"?>
<svg
   xmlns:dc="http://purl.org/dc/elements/1.1/"
   xmlns:cc="http://creativecommons.org/ns#"
   xmlns:rdf="http://www.w3.org/1999/02/22-rdf-syntax-ns#"
   xmlns:svg="http://www.w3.org/2000/svg"
   xmlns="http://www.w3.org/2000/svg"
   xmlns:sodipodi="http://sodipodi.sourceforge.net/DTD/sodipodi-0.dtd"
   xmlns:inkscape="http://www.inkscape.org/namespaces/inkscape"
   x="0"
   y="0"
   width="512"
   height="512"
   version="1.1"
   viewBox="0 0 512 512"
   id="svg10962"
   inkscape:version="0.91 r13725"
   sodipodi:docname="fit_to_screen.svg">
  <metadata
     id="metadata10980">
    <rdf:RDF>
      <cc:Work
         rdf:about="">
        <dc:format>image/svg+xml</dc:format>
        <dc:type
           rdf:resource="http://purl.org/dc/dcmitype/StillImage" />
      </cc:Work>
    </rdf:RDF>
  </metadata>
  <defs
     id="defs10978" />
  <sodipodi:namedview
     pagecolor="#ffffff"
     bordercolor="#666666"
     borderopacity="1"
     objecttolerance="10"
     gridtolerance="10"
     guidetolerance="10"
     inkscape:pageopacity="0"
     inkscape:pageshadow="2"
     inkscape:window-width="1920"
     inkscape:window-height="1017"
     id="namedview10976"
     showgrid="false"
     inkscape:zoom="0.86"
     inkscape:cx="256"
     inkscape:cy="256"
     inkscape:window-x="1912"
     inkscape:window-y="-8"
     inkscape:window-maximized="1"
     inkscape:current-layer="svg10962" />
  <title
     id="title10964">fit to size icon</title>
  <desc
     id="desc10966">fit to size icon from the IconExperience.com G-Collection. Copyright by INCORS GmbH (www.incors.com).</desc>
  <path
     style="fill:#788f9b"
     inkscape:connector-curvature="0"
     id="path10970"
     d="m 32,0 32,0 0,32 384,0 0,-32 32,0 0,32 32,0 0,32 -32,0 0,384 32,0 0,32 -32,0 0,32 -32,0 0,-32 -384,0 0,32 -32,0 0,-32 -32,0 0,-32 32,0 0,-384 -32,0 0,-32 32,0 z m 416,448 0,-384 -384,0 0,384 z" />
  <path
     style="fill:#546e7a"
     inkscape:connector-curvature="0"
     id="path10972"
     d="m 0,64 0,-16 32,0 0,16 z m 0,416 0,-16 32,0 0,16 z m 48,-16 400,0 0,16 -384,0 0,32 -16,0 z m 464,0 0,16 -32,0 0,32 -16,0 0,-48 z M 464,0 l 16,0 0,32 -16,0 z m 16,64 0,384 -16,0 0,-400 48,0 0,16 z M 48,0 64,0 64,32 48,32 Z m 16,64 0,384 -16,0 0,-400 400,0 0,16 z" />
  <path
     style="fill:#f9bf2c;fill-opacity:1"
     d="m 254.36952,67.974987 c -17.97088,35.941773 -35.94177,71.883543 -53.91265,107.825313 37.02876,0 74.0575,0 111.08626,0 C 293.02876,138.77154 274.51437,101.74278 256,64.714026 c -0.54349,1.086987 -1.08699,2.173974 -1.63048,3.260961 z M 173.16234,201.77584 C 137.0129,219.85057 100.86346,237.92528 64.714026,256 c 37.028754,18.51437 74.057514,37.02876 111.086274,55.54313 0,-37.02876 0,-74.0575 0,-111.08626 -0.87932,0.43965 -1.75865,0.87931 -2.63796,1.31897 z m 163.03736,1.63049 c 0,36.0456 0,72.0912 0,108.1368 C 373.22846,293.02876 410.25722,274.51437 447.28597,256 410.25722,237.48563 373.22846,218.97124 336.1997,200.45687 c 0,0.98314 0,1.9663 0,2.94946 z M 201.77584,338.83766 c 18.07473,36.14944 36.14944,72.29888 54.22416,108.44831 18.51437,-37.02875 37.02876,-74.05751 55.54313,-111.08627 -37.02876,0 -74.0575,0 -111.08626,0 0.43965,0.87932 0.87931,1.75865 1.31897,2.63796 z"
     id="path10974"
     inkscape:connector-curvature="0" />
</svg>
