<svg x="0" y="0" width="512" height="512" version="1.1"
    xmlns="http://www.w3.org/2000/svg"
    xmlns:xlink="http://www.w3.org/1999/xlink" viewBox="0 0 512 512">
    <title>information icon</title>
    <desc>information icon from the IconExperience.com G-Collection. Copyright by INCORS GmbH (www.incors.com).</desc>
    <g>
        <path d="M256,16c132.55,0 240,107.45 240,240c0,132.55 -107.45,240 -240,240c-132.55,0 -240,-107.45 -240,-240c0,-132.55 107.45,-240 240,-240z" fill="#28b5f5"/>
        <path d="M86.3,425.7l339.4,-339.4c43.45,43.4 70.3,103.45 70.3,169.7c0,132.55 -107.45,240 -240,240c-66.25,0 -126.25,-26.85 -169.7,-70.3z" fill="#0299e3"/>
        <path d="M290.8,411.2l-68.75,0l0,-220l68.75,0z M217.95,134.35c0,-9.8 3.55,-17.85 10.55,-24.2c7.1,-6.25 16.25,-9.35 27.5,-9.35c11.25,0 20.4,3.1 27.45,9.35c7.05,6.35 10.6,14.4 10.6,24.2c0,9.75 -3.55,17.85 -10.6,24.15c-7.05,6.25 -16.2,9.35 -27.45,9.35c-11.25,0 -20.4,-3.1 -27.5,-9.35c-7,-6.3 -10.55,-14.4 -10.55,-24.15z" fill="#f9f9f9"/>
        <polygon points="290.8,411.2 222.05,411.2 222.05,289.95 290.8,221.2" fill="#ebedef"/>
    </g>
</svg>