<?xml version="1.0" encoding="UTF-8"?>
<svg width="512" height="512" version="1.1" viewBox="0 0 512 512" xmlns="http://www.w3.org/2000/svg">
 <title>folder document2 icon</title>
 <desc>folder document2 icon from the IconExperience.com G-Collection. Copyright by INCORS GmbH (www.incors.com).</desc>
 <path d="m186.35 45.8 14.05 20.4c6.15 8.9 15.45 13.8 26.3 13.8h261.3c4.4 0 8 3.6 8 8v352c0 4.4-3.6 8-8 8h-464c-4.4 0-8-3.6-8-8v-400c0-4.4 3.6-8 8-8h136c10.85 0 20.2 4.9 26.35 13.8z" fill="#ffb100"/>
 <path d="m165.55 144h-141.55c-4.4 0-8 3.6-8 8v288c0 4.4 3.6 8 8 8h464c4.4 0 8-3.6 8-8v-320c0-4.4-3.6-8-8-8h-265.05c-9.35 0-17.4 3.55-23.7 10.5l-10 11c-6.3 6.95-14.35 10.5-23.7 10.5z" fill="#ffd34e"/>
 <path d="m18.7 446c1.4 1.25 3.25 2 5.3 2h464c4.4 0 8-3.6 8-8v-320c0-2.4-1.05-4.5-2.7-6z" fill="#ffc928"/>
 <g stroke-width="1.3333">
  <path d="m392 128h-162c-3.3 0-6 2.7-6 6v372c0 3.3 2.7 6 6 6h276c3.3 0 6-2.7 6-6v-258c0-6.6375-2.7-12.638-7.05-16.988l-95.962-95.962c-4.35-4.35-10.35-7.05-16.988-7.05z" fill="#f1f8fb"/>
  <path d="m225.58 510.01c1.0875 1.2375 2.6625 1.9875 4.425 1.9875h276c3.3 0 6-2.7 6-6v-258c0-6.6375-2.7-12.638-7.05-16.988-4.35-4.3125-10.35-7.0125-16.95-7.0125h-36z" fill="#d4e8f1"/>
  <path d="m504.95 231.01c-4.35-4.3125-10.35-7.0125-16.95-7.0125h-66c-3.3 0-6-2.7-6-6v-66c0-6.375-2.55-12.45-7.05-16.95z" fill="#77b8d7"/>
  <path d="m421.55 353.22 25.425 25.462-93.338 93.338-50.888-50.925 25.462-25.462 25.425 25.462zm0-119.02 25.425 25.425-93.338 93.338-50.888-50.888 25.462-25.462 25.425 25.462z" fill="#4ec1f5"/>
  <path d="m434.26 246.91 12.712 12.712-93.338 93.338-50.888-50.888 12.712-12.75 38.175 38.212zm0 119.02 12.712 12.75-93.338 93.338-50.888-50.925 12.712-12.712 38.175 38.175z" fill="#0299e3"/>
 </g>
</svg>
