<?xml version="1.0" encoding="UTF-8"?>
<svg id="mdi-code-array" width="512" height="512" version="1.1" viewBox="0 0 512 512" xml:space="preserve" xmlns="http://www.w3.org/2000/svg"><g><path d="m59.889 3a56.889 56.889 0 0 0-56.889 56.889v398.22c0 31.289 25.316 56.889 56.889 56.889h398.22a56.889 56.889 0 0 0 56.889-56.889v-398.22a56.889 56.889 0 0 0-56.889-56.889z" fill="#cf0f7c"/><path d="m59.889 3a56.889 56.889 0 0 0-56.889 56.889v398.22c0 14.642 5.5921 27.994 14.727 38.104l476.92-479.84a56.889 56.889 0 0 0-36.531-13.373h-398.22z" fill="#ef1090"/><path d="m254.28 77.492-149.56 0.24686-2.1642 2.1642-2.1661 2.1642v96.827l2.1642 2.166c2.1177 2.1194 2.6544 2.1693 25.714 2.4463 14.733 0.17698 24.528-0.0881 26.156-0.70717 4.5156-1.7168 5.3604-5.5936 5.3604-24.563v-16.97l2.4537-2.3034 2.4519-2.3034h57.03l2.2941 2.6653 2.2923 2.6672v227.86l-2.2904 2.6653-2.2923 2.6672-14.576 0.3044c-20.51 0.42865-18.854-2.1327-18.854 29.139 0 25.963 0.0891 26.564 4.2764 28.855 1.3185 0.72119 20.616 1.0472 63.007 1.0672 64.646 0.0306 65.433-0.0192 67.072-4.2894 0.32467-0.8461 0.59023-12.548 0.59023-26.004 0-30.84 1.6396-28.339-18.852-28.768l-14.578-0.3044-2.2904-2.6672-2.2923-2.6653v-227.86l2.2941-2.6672 2.2941-2.6653h57.03l4.9038 4.6068v16.97c0 18.824 0.86211 22.853 5.2434 24.519 1.3879 0.5277 12.28 0.94475 24.692 0.94475 12.411 0 23.305-0.41705 24.693-0.94475 5.0833-1.9327 5.2416-3.5207 5.2416-52.273 0-48.794-0.15582-50.339-5.2657-52.282-1.6473-0.62629-53.778-0.86904-152.07-0.70717z" fill="#fff"/></g></svg>
