<?xml version="1.0" encoding="UTF-8"?>
<svg width="135.47mm" height="135.47mm" version="1.1" viewBox="0 0 479.99 479.99" xml:space="preserve" xmlns="http://www.w3.org/2000/svg"><g transform="matrix(.99996 0 0 .99996 -15.999 -15.999)"><path d="m256 16c132.55 0 240 107.45 240 240s-107.45 240-240 240-240-107.45-240-240 107.45-240 240-240z" fill="#d74214" stroke-width="1.4063"/><path d="m425.7 86.3c93.75 93.7 93.75 245.7 0 339.4-93.7 93.75-245.7 93.75-339.4 0z" fill="#bd360c" stroke-width="1.4063"/><g transform="matrix(1.3356,0,0,1.3356,794.93,-108.57)" stroke-width=".702"><path d="m-381.28 314.28h-43.7l-6.9-159.3h57.45zm-52.2 49.65c0-7.9 2.85-14.35 8.6-19.45 5.65-5.05 12.85-7.6 21.35-7.6s15.6 2.55 21.35 7.6c5.7 5.1 8.6 11.55 8.6 19.45 0 7.85-2.9 14.4-8.6 19.45-5.75 5.1-12.85 7.6-21.35 7.6s-15.7-2.5-21.35-7.6c-5.75-5.05-8.6-11.6-8.6-19.45z" fill="#fff" stroke-width=".702"/></g></g></svg>
