<?xml version="1.0" encoding="UTF-8" standalone="no"?>
<svg
   xmlns:dc="http://purl.org/dc/elements/1.1/"
   xmlns:cc="http://creativecommons.org/ns#"
   xmlns:rdf="http://www.w3.org/1999/02/22-rdf-syntax-ns#"
   xmlns:svg="http://www.w3.org/2000/svg"
   xmlns="http://www.w3.org/2000/svg"
   xmlns:sodipodi="http://sodipodi.sourceforge.net/DTD/sodipodi-0.dtd"
   xmlns:inkscape="http://www.inkscape.org/namespaces/inkscape"
   x="0"
   y="0"
   width="512"
   height="512"
   version="1.1"
   viewBox="0 0 512 512"
   id="svg4136"
   inkscape:version="0.91 r13725"
   sodipodi:docname="videocamera_run.svg">
  <metadata
     id="metadata4172">
    <rdf:RDF>
      <cc:Work
         rdf:about="">
        <dc:format>image/svg+xml</dc:format>
        <dc:type
           rdf:resource="http://purl.org/dc/dcmitype/StillImage" />
      </cc:Work>
    </rdf:RDF>
  </metadata>
  <defs
     id="defs4170" />
  <sodipodi:namedview
     pagecolor="#ffffff"
     bordercolor="#666666"
     borderopacity="1"
     objecttolerance="10"
     gridtolerance="10"
     guidetolerance="10"
     inkscape:pageopacity="0"
     inkscape:pageshadow="2"
     inkscape:window-width="1920"
     inkscape:window-height="1017"
     id="namedview4168"
     showgrid="false"
     inkscape:zoom="1.03"
     inkscape:cx="43.864078"
     inkscape:cy="191.41414"
     inkscape:window-x="1912"
     inkscape:window-y="-8"
     inkscape:window-maximized="1"
     inkscape:current-layer="svg4136" />
  <title
     id="title4138">video camera icon</title>
  <desc
     id="desc4140">video camera icon from the IconExperience.com G-Collection. Copyright by INCORS GmbH (www.incors.com).</desc>
  <g
     id="g4142"
     transform="translate(-16,-48)">
    <path
       d="m 32,208 192,0 c 0,66.55 0,162.9 0,224 0,8.8 -7.2,16 -16,16 l -160,0 c -8.8,0 -16,-7.2 -16,-16 z"
       id="path4144"
       inkscape:connector-curvature="0"
       style="fill:#afbdc3" />
    <path
       d="m 128,208 96,0 c 0,66.55 0,162.9 0,224 0,8.8 -7.2,16 -16,16 l -80,0 z"
       id="path4146"
       inkscape:connector-curvature="0"
       style="fill:#8fa3ad" />
    <path
       d="m 64,208 128,0 0,256 c 0,8.8 -7.2,16 -16,16 l -96,0 c -8.8,0 -16,-7.2 -16,-16 z"
       id="path4148"
       inkscape:connector-curvature="0"
       style="fill:#546e7a" />
    <path
       d="m 128,208 64,0 0,256 c 0,8.8 -7.2,16 -16,16 l -48,0 z"
       id="path4150"
       inkscape:connector-curvature="0"
       style="fill:#445a64" />
    <path
       d="m 128,48 c 61.85,0 112,50.15 112,112 0,61.85 -50.15,112 -112,112 C 66.15,272 16,221.85 16,160 16,98.15 66.15,48 128,48 Z"
       id="path4152"
       inkscape:connector-curvature="0"
       style="fill:#546e7a" />
    <path
       d="m 207.2,80.8 c 20.25,20.25 32.8,48.25 32.8,79.2 0,61.85 -50.15,112 -112,112 -30.95,0 -58.95,-12.55 -79.2,-32.8 z"
       id="path4154"
       inkscape:connector-curvature="0"
       style="fill:#445a64" />
    <path
       d="m 128,80 c 44.2,0 80,35.8 80,80 0,44.2 -35.8,80 -80,80 -44.2,0 -80,-35.8 -80,-80 0,-44.2 35.8,-80 80,-80 z"
       id="path4156"
       inkscape:connector-curvature="0"
       style="fill:#0299e3" />
    <path
       d="M 184.55,103.45 C 199.05,117.9 208,137.9 208,160 c 0,44.2 -35.8,80 -80,80 -22.1,0 -42.1,-8.95 -56.55,-23.45 z"
       id="path4158"
       inkscape:connector-curvature="0"
       style="fill:#0287cf" />
    <path
       d="m 128,96 c 35.35,0 64,28.65 64,64 0,35.35 -28.65,64 -64,64 -35.35,0 -64,-28.65 -64,-64 0,-35.35 28.65,-64 64,-64 z"
       id="path4160"
       inkscape:connector-curvature="0"
       style="fill:#4ec1f5" />
    <path
       d="m 173.25,114.75 c 11.6,11.6 18.75,27.6 18.75,45.25 0,35.35 -28.65,64 -64,64 -17.65,0 -33.65,-7.15 -45.25,-18.75 z"
       id="path4162"
       inkscape:connector-curvature="0"
       style="fill:#28b5f5" />
    <path
       d="m 496,240 -240,0 c -8.8,0 -16,7.2 -16,16 l 0,16 -16,0 c -8.8,0 -16,7.2 -16,16 l 0,112 c 0,8.8 7.2,16 16,16 l 16,0 0,16 c 0,8.8 7.2,16 16,16 l 240,0 c 8.8,0 16,-7.2 16,-16 l 0,-176 c 0,-8.8 -7.2,-16 -16,-16 z"
       id="path4164"
       inkscape:connector-curvature="0"
       style="fill:#546e7a" />
    <path
       d="m 245.35,443.9 c 2.8,2.55 6.55,4.1 10.65,4.1 l 240,0 c 8.8,0 16,-7.2 16,-16 l 0,-176 c 0,-4.75 -2.05,-9 -5.35,-11.9 z"
       id="path4166"
       inkscape:connector-curvature="0"
       style="fill:#445a64" />
  </g>
  <path
     id="path4249-2"
     d="m 309.38854,262.97833 193.99477,114.1984 c 2.7412,1.64472 4.38592,4.38592 4.38592,7.59313 0,3.2072 -1.61731,5.9758 -4.38592,7.59311 L 309.38854,506.58883 c -2.76861,1.64467 -5.97581,1.61725 -8.77184,0 -2.796,-1.61733 -4.38594,-4.38595 -4.38594,-7.59313 l 0,-114.22584 0,-114.19839 c 0,-3.23464 1.58994,-6.00325 4.38594,-7.59314 2.79603,-1.61729 6.00323,-1.67214 8.77184,0 z"
     inkscape:connector-curvature="0"
     style="fill:#78e918;fill-opacity:1;stroke:#489d00;stroke-width:8.46153545;stroke-miterlimit:4;stroke-dasharray:none;stroke-opacity:1" />
</svg>
