<svg x="0" y="0" width="512" height="512" version="1.1"
    xmlns="http://www.w3.org/2000/svg"
    xmlns:xlink="http://www.w3.org/1999/xlink" viewBox="0 0 512 512">
    <title>hand count zero icon</title>
    <desc>hand count zero icon from the IconExperience.com G-Collection. Copyright by INCORS GmbH (www.incors.com).</desc>
    <g>
        <path d="M352,448l0,-42.65c0,-14.45 4.15,-26.85 12.8,-38.4l22.4,-29.9c8.65,-11.55 12.8,-23.95 12.8,-38.4l0,-112.65c0,-24.2 -17.65,-44.35 -41.65,-47.55l-144,-19.2c-14.2,-1.9 -27.2,2 -37.95,11.45c-10.8,9.45 -16.4,21.8 -16.4,36.1l0,35.55c-9,2.65 -17.1,7.6 -23.6,14.05c-10.1,10.15 -16.4,24.15 -16.4,39.6l0,25.55c0,11.85 1.9,23.25 5.8,34.35c3.8,10.85 9.5,20.9 17.15,30.45l45.5,56.9l13.75,41.25z" fill="#f5b673"/>
        <path d="M288,416l64,0l0,-10.65c0,-14.45 4.15,-26.85 12.8,-38.4l22.4,-29.9c8.65,-11.55 12.8,-23.95 12.8,-38.4l0,-112.65c0,-24.2 -17.65,-44.35 -41.65,-47.55l-22.35,-3l0,163.2c0,14.45 -4.15,26.85 -12.8,38.4l-22.4,29.9c-8.65,11.55 -12.8,23.95 -12.8,38.4l0,10.65z" fill="#f5a557"/>
        <path d="M176,416l0,64l192,0l0,-64c0,-8.8 -7.2,-16 -16,-16l-160,0c-8.8,0 -16,7.2 -16,16z" fill="#ebedef"/>
        <path d="M272,480l96,0l0,-64c0,-8.8 -6.15,-16 -13.7,-16l-82.3,0z" fill="#cdd7db"/>
        <path d="M160,448l0,64l208,0l0,-64c0,-8.8 -7.2,-16 -16,-16l-176,0c-8.8,0 -16,7.2 -16,16z" fill="#546e7a"/>
        <path d="M272,512l112,0l0,-64c0,-8.8 -6.15,-16 -13.7,-16l-98.3,0z" fill="#445a64"/>
    </g>
</svg>