<svg x="0" y="0" width="512" height="512" version="1.1"
    xmlns="http://www.w3.org/2000/svg"
    xmlns:xlink="http://www.w3.org/1999/xlink" viewBox="0 0 512 512">
    <title>view 1 1 icon</title>
    <desc>view 1 1 icon from the IconExperience.com G-Collection. Copyright by INCORS GmbH (www.incors.com).</desc>
    <g>
        <path d="M144.4,333.4l62.7,-62.65c-19.55,-26.5 -31.1,-59.3 -31.1,-94.75c0,-88.35 71.65,-160 160,-160c88.35,0 160,71.65 160,160c0,88.35 -71.65,160 -160,160c-35.6,0 -68.45,-11.6 -95,-31.25l-62.65,62.6z" fill="#788f9b"/>
        <path d="M241,304.75l-62.65,62.6l-16.95,-16.95l61.35,-61.35c5.65,5.65 11.75,10.9 18.25,15.7z" fill="#546e7a"/>
        <path d="M18.35,437.1l139.7,-139.75c3.1,-3.1 8.2,-3.1 11.3,0l45.3,45.3c3.1,3.1 3.1,8.2 0,11.3l-139.75,139.7c-3.1,3.15 -8.2,3.15 -11.3,0l-22.65,-22.6l-22.6,-22.65c-3.15,-3.1 -3.15,-8.2 0,-11.3z" fill="#ffa526"/>
        <path d="M192,320l22.65,22.65c3.1,3.1 3.1,8.2 0,11.3l-139.75,139.7c-3.1,3.15 -8.2,3.15 -11.3,0l-22.65,-22.6z" fill="#f98b00"/>
        <path d="M336,48c70.7,0 128,57.3 128,128c0,70.7 -57.3,128 -128,128c-70.7,0 -128,-57.3 -128,-128c0,-70.7 57.3,-128 128,-128z" fill="#ffffff"/>
        <path d="M426.5,85.45c23.15,23.2 37.5,55.2 37.5,90.55c0,70.7 -57.3,128 -128,128c-35.35,0 -67.35,-14.35 -90.55,-37.5z" fill="#ebedef"/>
        <path d="M288,240l-28.45,0l0,-90.3l-27.95,8.25l0,-21.9l53.8,-18.6l2.6,0z M332,212.4c4.5,0 8.2,1.35 11.2,4c2.95,2.7 4.45,6.05 4.45,10.25c0,4.15 -1.5,7.55 -4.45,10.2c-3,2.7 -6.7,4 -11.2,4c-4.55,0 -8.3,-1.35 -11.25,-4.05c-2.95,-2.7 -4.4,-6.05 -4.4,-10.15c0,-4.1 1.45,-7.5 4.4,-10.2c2.95,-2.65 6.7,-4.05 11.25,-4.05z M332,145.2c4.5,0 8.2,1.3 11.2,4c2.95,2.65 4.45,6.05 4.45,10.2c0,4.15 -1.5,7.55 -4.45,10.25c-3,2.65 -6.7,4 -11.2,4c-4.55,0 -8.3,-1.4 -11.25,-4.05c-2.95,-2.7 -4.4,-6.1 -4.4,-10.2c0,-4.1 1.45,-7.45 4.4,-10.15c2.95,-2.7 6.7,-4.05 11.25,-4.05z M416,240l-28.45,0l0,-90.3l-27.95,8.25l0,-21.9l53.8,-18.6l2.6,0z" fill="#546e7a"/>
        <path d="M288,240l-16.05,0l16.05,-16.05z M340.25,171.7l5.95,-5.95c-0.7,1.45 -1.75,2.75 -3,3.9c-0.9,0.8 -1.9,1.5 -2.95,2.05z M359.6,152.35l24.95,-24.9l28.85,-10l2.6,0l0,122.55l-28.45,0l0,-90.3l-27.95,8.25z M332,212.4c4.5,0 8.2,1.35 11.2,4c2.95,2.7 4.45,6.05 4.45,10.25c0,4.15 -1.5,7.55 -4.45,10.2c-3,2.7 -6.7,4 -11.2,4c-4.55,0 -8.3,-1.35 -11.25,-4.05c-2.95,-2.7 -4.4,-6.05 -4.4,-10.15c0,-4.1 1.45,-7.5 4.4,-10.2c2.95,-2.65 6.7,-4.05 11.25,-4.05z" fill="#445a64"/>
    </g>
</svg>