<?xml version="1.0" encoding="UTF-8" standalone="no"?>
<svg
   xmlns:dc="http://purl.org/dc/elements/1.1/"
   xmlns:cc="http://creativecommons.org/ns#"
   xmlns:rdf="http://www.w3.org/1999/02/22-rdf-syntax-ns#"
   xmlns:svg="http://www.w3.org/2000/svg"
   xmlns="http://www.w3.org/2000/svg"
   xmlns:sodipodi="http://sodipodi.sourceforge.net/DTD/sodipodi-0.dtd"
   xmlns:inkscape="http://www.inkscape.org/namespaces/inkscape"
   x="0"
   y="0"
   width="512"
   height="512"
   version="1.1"
   viewBox="0 0 512 512"
   id="svg4136"
   inkscape:version="0.92.0 r15299"
   sodipodi:docname="monitor_all_nodes.svg">
  <metadata
     id="metadata4154">
    <rdf:RDF>
      <cc:Work
         rdf:about="">
        <dc:format>image/svg+xml</dc:format>
        <dc:type
           rdf:resource="http://purl.org/dc/dcmitype/StillImage" />
        <dc:title>elements hierarchy icon</dc:title>
      </cc:Work>
    </rdf:RDF>
  </metadata>
  <defs
     id="defs4152" />
  <sodipodi:namedview
     pagecolor="#ffffff"
     bordercolor="#666666"
     borderopacity="1"
     objecttolerance="10"
     gridtolerance="10"
     guidetolerance="10"
     inkscape:pageopacity="0"
     inkscape:pageshadow="2"
     inkscape:window-width="1920"
     inkscape:window-height="1017"
     id="namedview4150"
     showgrid="false"
     inkscape:zoom="0.84"
     inkscape:cx="100.11182"
     inkscape:cy="438.68502"
     inkscape:window-x="1912"
     inkscape:window-y="-8"
     inkscape:window-maximized="1"
     inkscape:current-layer="svg4136" />
  <title
     id="title4138">elements hierarchy icon</title>
  <desc
     id="desc4140">elements hierarchy icon from the IconExperience.com G-Collection. Copyright by INCORS GmbH (www.incors.com).</desc>
  <g
     transform="translate(216.77419,506.45161)"
     id="g4593">
    <path
       style="fill:#678796;fill-opacity:1"
       inkscape:connector-curvature="0"
       id="path4500"
       d="m 199.22581,-170.45161 v -64 h -144 v 64 h -32 v -64 h -144 v 64 h -32 v -80 c 0,-8.85 7.15,-16 16,-16 h 160 v -80 h 32 v 80 h 160 c 8.85,0 16,7.15 16,16 v 80 z" />
    <path
       style="fill:#e55000;fill-opacity:1"
       inkscape:connector-curvature="0"
       id="path4502"
       d="m 151.22581,-186.45161 h 128 c 8.8,0 16,7.2 16,16 v 95.999999 c 0,8.8 -7.2,16 -16,16 h -128 c -8.8,0 -16,-7.2 -16,-16 v -95.999999 c 0,-8.8 7.2,-16 16,-16 z m -176,0 h 128 c 8.8,0 16,7.2 16,16 v 95.999999 c 0,8.8 -7.2,16 -16,16 h -128 c -8.8,0 -16,-7.2 -16,-16 v -95.999999 c 0,-8.8 7.2,-16 16,-16 z m -176,0 h 128 c 8.8,0 16,7.2 16,16 v 95.999999 c 0,8.8 -7.2,16 -16,16 h -128 c -8.8,0 -16,-7.2 -16,-16 v -95.999999 c 0,-8.8 7.2,-16 16,-16 z m 176,-256 h 128 c 8.8,0 16,7.2 16,16 v 96 c 0,8.8 -7.2,16 -16,16 h -128 c -8.8,0 -16,-7.2 -16,-16 v -96 c 0,-8.8 7.2,-16 16,-16 z" />
    <path
       style="fill:#d74214;fill-opacity:1"
       inkscape:connector-curvature="0"
       id="path4504"
       d="m 113.97581,-438.25161 c 3.25,2.9 5.25,7.15 5.25,11.8 v 96 c 0,8.8 -7.2,16 -16,16 h -128 c -4.15,0 -7.9,-1.6 -10.75,-4.2 z m 176,256 c 3.25,2.9 5.25,7.15 5.25,11.8 v 95.999999 c 0,8.8 -7.2,16 -16,16 h -128 c -4.15,0 -7.9,-1.6 -10.75,-4.2 z m -176,0 c 3.25,2.9 5.25,7.15 5.25,11.8 v 95.999999 c 0,8.8 -7.2,16 -16,16 h -128 c -4.15,0 -7.9,-1.6 -10.75,-4.2 z m -176,0 c 3.25,2.9 5.25,7.15 5.25,11.8 v 95.999999 c 0,8.8 -7.2,16 -16,16 h -128 c -4.15,0 -7.9,-1.6 -10.75,-4.2 z" />
  </g>
</svg>
