<?xml version="1.0" encoding="UTF-8" standalone="no"?>
<svg
   xmlns:dc="http://purl.org/dc/elements/1.1/"
   xmlns:cc="http://creativecommons.org/ns#"
   xmlns:rdf="http://www.w3.org/1999/02/22-rdf-syntax-ns#"
   xmlns:svg="http://www.w3.org/2000/svg"
   xmlns="http://www.w3.org/2000/svg"
   xmlns:sodipodi="http://sodipodi.sourceforge.net/DTD/sodipodi-0.dtd"
   xmlns:inkscape="http://www.inkscape.org/namespaces/inkscape"
   x="0"
   y="0"
   width="512"
   height="512"
   version="1.1"
   viewBox="0 0 512 512"
   id="svg32"
   sodipodi:docname="objdic_read.svg"
   inkscape:version="0.92.4 (5da689c313, 2019-01-14)">
  <metadata
     id="metadata38">
    <rdf:RDF>
      <cc:Work
         rdf:about="">
        <dc:format>image/svg+xml</dc:format>
        <dc:type
           rdf:resource="http://purl.org/dc/dcmitype/StillImage" />
        <dc:title>spreadsheet row icon</dc:title>
      </cc:Work>
    </rdf:RDF>
  </metadata>
  <defs
     id="defs36" />
  <sodipodi:namedview
     pagecolor="#ffffff"
     bordercolor="#666666"
     borderopacity="1"
     objecttolerance="10"
     gridtolerance="10"
     guidetolerance="10"
     inkscape:pageopacity="0"
     inkscape:pageshadow="2"
     inkscape:window-width="1301"
     inkscape:window-height="822"
     id="namedview34"
     showgrid="false"
     inkscape:zoom="0.4609375"
     inkscape:cx="-175.72881"
     inkscape:cy="429.55932"
     inkscape:window-x="617"
     inkscape:window-y="58"
     inkscape:window-maximized="0"
     inkscape:current-layer="svg32" />
  <title
     id="title2">spreadsheet row icon</title>
  <desc
     id="desc4">spreadsheet row icon from the IconExperience.com G-Collection. Copyright by INCORS GmbH (www.incors.com).</desc>
  <g
     id="g30"
     transform="translate(-32,-32)">
    <polygon
       points="464,432 144,432 144,128 464,128 "
       id="polygon6"
       style="fill:#ffffff" />
    <polygon
       points="464,432 144,432 144,344 376.6,128 464,128 "
       id="polygon8"
       style="fill:#dff3fd" />
    <polygon
       points="128,432 48,432 48,128 128,128 "
       id="polygon10"
       style="fill:#b1e3fb" />
    <polygon
       points="128,432 49.25,432 118.15,368 128,368 "
       id="polygon12"
       style="fill:#7fd3f9" />
    <path
       d="m 464,128 h 16 V 448 H 32 V 128 h 16 v 64 h 80 v -64 h 16 v 64 h 96 v -64 h 16 v 64 h 96 v -64 h 16 v 64 h 96 z M 48,432 h 80 V 368 H 48 Z m 0,-80 h 80 V 288 H 48 Z m 0,-80 h 80 V 208 H 48 Z m 416,160 v -64 h -96 v 64 z m -112,0 v -64 h -96 v 64 z m -112,0 v -64 h -96 v 64 z m 224,-80 v -64 h -96 v 64 z m -112,0 v -64 h -96 v 64 z m -112,0 v -64 h -96 v 64 z m 224,-80 v -64 h -96 v 64 z m -112,0 v -64 h -96 v 64 z m -112,0 v -64 h -96 v 64 z"
       id="path14"
       inkscape:connector-curvature="0"
       style="fill:#4ec1f5" />
    <path
       d="m 464,128 h 16 V 448 H 32 L 49.25,432 H 128 v -64 h -9.85 L 144,344 v 8 h 96 v -64 h -35.7 l 17.25,-16 H 240 V 254.85 L 256,240 v 32 h 96 V 208 H 290.45 L 307.7,192 H 352 V 150.85 L 368,136 v 56 h 96 z m 0,304 v -64 h -96 v 64 z m -112,0 v -64 h -96 v 64 z m -112,0 v -64 h -96 v 64 z m 224,-80 v -64 h -96 v 64 z m -112,0 v -64 h -96 v 64 z m 112,-80 v -64 h -96 v 64 z"
       id="path16"
       inkscape:connector-curvature="0"
       style="fill:#28b5f5" />
    <path
       d="m 48,32 h 416 c 8.8,0 16,7.2 16,16 v 80 H 32 V 48 c 0,-8.8 7.2,-16 16,-16 z"
       id="path18"
       inkscape:connector-curvature="0"
       style="fill:#0299e3" />
    <path
       d="m 475.15,36.5 c 3,2.95 4.85,7 4.85,11.5 v 80 H 376.6 Z"
       id="path20"
       inkscape:connector-curvature="0"
       style="fill:#0287cf" />
    <polygon
       points="480,288 32,288 32,192 480,192 "
       id="polygon22"
       style="fill:#ff9f00" />
    <polygon
       points="480,288 204.3,288 307.7,192 480,192 "
       id="polygon24"
       style="fill:#ff8d00" />
    <path
       d="m 48,208 h 80 v 64 H 48 Z m 320,0 h 96 v 64 h -96 z m -112,0 h 96 v 64 h -96 z m -112,0 h 96 v 64 h -96 z"
       id="path26"
       inkscape:connector-curvature="0"
       style="fill:#ffc928" />
    <path
       d="M 221.55,272 240,254.85 V 272 Z M 256,240 290.45,208 H 352 v 64 h -96 z m 112,-32 h 96 v 64 h -96 z"
       id="path28"
       inkscape:connector-curvature="0"
       style="fill:#ffb100" />
  </g>
  <g
     id="g4611"
     transform="matrix(1.0606343,0,0,1.0606343,581.32538,429.17592)"
     style="stroke-width:0.94283205">
    <polygon
       transform="translate(-545.34969,-433.8983)"
       id="polygon4559"
       points="385.25,390.15 317.55,322.45 290.45,349.55 358.15,417.25 "
       style="fill:#788f9b;stroke-width:0.94283205" />
    <polygon
       transform="translate(-545.34969,-433.8983)"
       id="polygon4561"
       points="304,336 290.45,349.55 358.15,417.25 371.7,403.7 "
       style="fill:#546e7a;stroke-width:0.94283205" />
    <path
       id="path4563"
       d="m -67.04969,34.9017 -102.5,-102.45 c -2.25,-2.3 -6,-2.3 -8.25,0 l -33.2,33.2 c -2.3,2.25 -2.3,6 0,8.25 l 102.45,102.5 c 2.3,2.25 6,2.25 8.3,0 l 16.6,-16.6 16.6,-16.6 c 2.25,-2.3 2.25,-6 0,-8.3 z"
       inkscape:connector-curvature="0"
       style="fill:#ffa526;stroke-width:0.94283205" />
    <path
       id="path4565"
       d="m -194.39969,-50.9483 -16.6,16.6 c -2.3,2.25 -2.3,6 0,8.25 l 102.45,102.5 c 2.3,2.25 6,2.25 8.3,0 l 16.6,-16.6 z"
       inkscape:connector-curvature="0"
       style="fill:#f98b00;stroke-width:0.94283205" />
    <path
       id="path4567"
       d="m -295.49969,-273.8983 c 67.3,0 121.85,54.55 121.85,121.85 0,67.3 -54.55,121.85 -121.85,121.85 -67.3,0 -121.85,-54.55 -121.85,-121.85 0,-67.3 54.55,-121.85 121.85,-121.85 z"
       inkscape:connector-curvature="0"
       style="fill:#788f9b;stroke-width:0.94283205" />
    <path
       id="path4569"
       d="m -295.49969,-241.8983 c 49.6,0 89.85,40.2 89.85,89.85 0,49.6 -40.25,89.85 -89.85,89.85 -49.6,0 -89.85,-40.25 -89.85,-89.85 0,-49.65 40.25,-89.85 89.85,-89.85 z"
       inkscape:connector-curvature="0"
       style="fill:#ffffff;stroke-width:0.94283205" />
    <path
       id="path4571"
       d="m -241.99969,-224.2483 c 22.05,16.4 36.35,42.6 36.35,72.2 0,49.6 -40.25,89.85 -89.85,89.85 -22.1,0 -42.35,-8 -58,-21.2 z"
       inkscape:connector-curvature="0"
       style="fill:#ebedef;stroke-width:0.94283205" />
  </g>
</svg>
