<?xml version="1.0" encoding="UTF-8" standalone="no"?>
<svg
   xmlns:dc="http://purl.org/dc/elements/1.1/"
   xmlns:cc="http://creativecommons.org/ns#"
   xmlns:rdf="http://www.w3.org/1999/02/22-rdf-syntax-ns#"
   xmlns:svg="http://www.w3.org/2000/svg"
   xmlns="http://www.w3.org/2000/svg"
   xmlns:sodipodi="http://sodipodi.sourceforge.net/DTD/sodipodi-0.dtd"
   xmlns:inkscape="http://www.inkscape.org/namespaces/inkscape"
   x="0"
   y="0"
   width="512"
   height="512"
   version="1.1"
   viewBox="0 0 512 512"
   id="svg4136"
   inkscape:version="0.91 r13725"
   sodipodi:docname="window_sidebar.svg">
  <metadata
     id="metadata4172">
    <rdf:RDF>
      <cc:Work
         rdf:about="">
        <dc:format>image/svg+xml</dc:format>
        <dc:type
           rdf:resource="http://purl.org/dc/dcmitype/StillImage" />
        <dc:title>window sidebar icon</dc:title>
      </cc:Work>
    </rdf:RDF>
  </metadata>
  <defs
     id="defs4170" />
  <sodipodi:namedview
     pagecolor="#ffffff"
     bordercolor="#666666"
     borderopacity="1"
     objecttolerance="10"
     gridtolerance="10"
     guidetolerance="10"
     inkscape:pageopacity="0"
     inkscape:pageshadow="2"
     inkscape:window-width="1920"
     inkscape:window-height="1017"
     id="namedview4168"
     showgrid="false"
     inkscape:zoom="1.6601563"
     inkscape:cx="256"
     inkscape:cy="256"
     inkscape:window-x="1912"
     inkscape:window-y="-8"
     inkscape:window-maximized="1"
     inkscape:current-layer="svg4136" />
  <title
     id="title4138">window sidebar icon</title>
  <desc
     id="desc4140">window sidebar icon from the IconExperience.com G-Collection. Copyright by INCORS GmbH (www.incors.com).</desc>
  <g
     id="g4202">
    <path
       d="m 0,80 0,384 512,0 0,-384 c 0,-8.8 -7.2,-16 -16,-16 L 16,64 C 7.2,64 0,71.2 0,80 Z"
       id="path4144"
       inkscape:connector-curvature="0"
       style="fill:#28b5f5" />
    <polygon
       transform="matrix(-1,0,0,1,512,0)"
       points="512,128 512,464 0,464 0,128 "
       id="polygon4148"
       style="fill:#dff3fd" />
    <path
       d="m 428.08471,81.204706 c -8.85,0 -16,7.15 -16,16 0,8.850004 7.15,16.000004 16,16.000004 8.85,0 16,-7.15 16,-16.000004 0,-8.85 -7.15,-16 -16,-16 z m 48,0 c -8.85,0 -16,7.15 -16,16 0,8.850004 7.15,16.000004 16,16.000004 8.85,0 16,-7.15 16,-16.000004 0,-8.85 -7.15,-16 -16,-16 z"
       id="path4152"
       inkscape:connector-curvature="0"
       style="fill:#dff3fd" />
    <polygon
       transform="matrix(-1,0,0,1,512,0)"
       points="368,112 368,464 352,464 352,112 "
       id="polygon4156"
       style="fill:#28b5f5" />
    <polygon
       transform="matrix(-1,0,0,1,512,0)"
       points="512,128 512,464 368,464 368,128 "
       id="polygon4158"
       style="fill:#cdd7db" />
    <path
       d="m 72,144 c -30.95,0 -56,25.05 -56,56 0,30.95 25.05,56 56,56 30.95,0 56,-25.05 56,-56 0,-30.95 -25.05,-56 -56,-56 z"
       id="path4164"
       inkscape:connector-curvature="0"
       style="fill:#ebedef" />
    <path
       d="m 128,288 -112,0 0,32 112,0 z m 0,48 -112,0 0,32 112,0 z m 0,48.65 -112,0 0,32 112,0 z"
       id="path4166"
       inkscape:connector-curvature="0"
       style="fill:#8fa3ad" />
  </g>
</svg>
