<?xml version="1.0" encoding="UTF-8" standalone="no"?>
<!-- Created with Inkscape (http://www.inkscape.org/) -->

<svg
   xmlns:dc="http://purl.org/dc/elements/1.1/"
   xmlns:cc="http://creativecommons.org/ns#"
   xmlns:rdf="http://www.w3.org/1999/02/22-rdf-syntax-ns#"
   xmlns:svg="http://www.w3.org/2000/svg"
   xmlns="http://www.w3.org/2000/svg"
   xmlns:sodipodi="http://sodipodi.sourceforge.net/DTD/sodipodi-0.dtd"
   xmlns:inkscape="http://www.inkscape.org/namespaces/inkscape"
   width="144.49777mm"
   height="144.49777mm"
   viewBox="0 0 511.99998 511.99998"
   id="svg2"
   version="1.1"
   inkscape:version="0.91 r13725"
   sodipodi:docname="counting_loop.svg">
  <defs
     id="defs4" />
  <sodipodi:namedview
     id="base"
     pagecolor="#ffffff"
     bordercolor="#666666"
     borderopacity="1.0"
     inkscape:pageopacity="0.0"
     inkscape:pageshadow="2"
     inkscape:zoom="0.76508705"
     inkscape:cx="488.02197"
     inkscape:cy="249.14896"
     inkscape:document-units="px"
     inkscape:current-layer="layer1"
     showgrid="false"
     fit-margin-top="0"
     fit-margin-left="0"
     fit-margin-right="0"
     fit-margin-bottom="0"
     inkscape:window-width="1920"
     inkscape:window-height="1017"
     inkscape:window-x="1912"
     inkscape:window-y="-8"
     inkscape:window-maximized="1"
     showguides="true"
     inkscape:guide-bbox="true">
    <sodipodi:guide
       position="578.02199,245.05495"
       orientation="0,1"
       id="guide4828" />
  </sodipodi:namedview>
  <metadata
     id="metadata7">
    <rdf:RDF>
      <cc:Work
         rdf:about="">
        <dc:format>image/svg+xml</dc:format>
        <dc:type
           rdf:resource="http://purl.org/dc/dcmitype/StillImage" />
        <dc:title></dc:title>
      </cc:Work>
    </rdf:RDF>
  </metadata>
  <g
     inkscape:label="Ebene 1"
     inkscape:groupmode="layer"
     id="layer1"
     transform="translate(-6.3054154,23.342229)">
    <g
       id="g4852"
       transform="matrix(1.066838,0,0,1.066838,-21.331493,-5.6750237)">
      <path
         id="path4792"
         transform="translate(6.3054154,-23.342229)"
         d="m 308.14648,41.140625 0,171.312495 61.18555,-61.18359 c 30.40032,30.40032 45.61802,70.24521 45.65625,110.12891 -0.0382,39.8837 -15.25788,79.73054 -45.6582,110.13086 -30.40033,30.40032 -70.24521,45.61997 -110.12891,45.6582 -39.8837,-0.0382 -79.72858,-15.25788 -110.1289,-45.6582 -28.9907,-28.9907 -44.16582,-66.57223 -45.54493,-104.58399 l -69.253902,0 c 1.399507,55.69047 23.325817,111.0055 65.851562,153.53125 43.93707,43.93707 101.52586,65.88364 159.07617,65.92188 57.5503,-0.0382 115.13714,-21.9848 159.07422,-65.92188 43.93707,-43.93707 65.88753,-101.52782 65.92578,-159.07812 -0.0382,-57.55031 -21.98676,-115.13715 -65.92383,-159.07422 l 61.1836,-61.183595 -171.31446,0 z"
         style="fill:#66b96a;fill-opacity:1"
         inkscape:connector-curvature="0" />
      <path
         id="path4794"
         transform="translate(6.3054154,-23.342229)"
         d="m 308.14648,41.140625 0,171.312495 61.18555,-61.18359 c 30.40032,30.40032 45.61802,70.24521 45.65625,110.12891 -0.0382,39.8837 -15.25788,79.73054 -45.6582,110.13086 -30.40033,30.40032 -70.24521,45.61997 -110.12891,45.6582 -39.8837,-0.0382 -79.72858,-15.25788 -110.1289,-45.6582 -28.9907,-28.9907 -44.16582,-66.57223 -45.54493,-104.58399 l -34.591793,0 c 1.357291,46.85198 19.906105,93.29847 55.664063,129.05664 74.33739,74.33739 194.86572,74.3374 269.20312,0 74.3374,-74.3374 74.33784,-194.86769 0,-269.20507 L 308.14648,41.140625 Z"
         style="fill:#429f46;fill-opacity:1"
         inkscape:connector-curvature="0" />
    </g>
    <g
       id="g4918">
      <path
         id="path4864"
         d="m 146.74674,-23.061496 c 69.03646,0 125,55.963542 125,124.999996 0,69.03646 -55.96354,125 -125,125 -69.036453,0 -124.999995,-55.96354 -124.999995,-125 0,-69.036454 55.963542,-124.999996 124.999995,-124.999996 z"
         inkscape:connector-curvature="0"
         style="fill:#546e7a;fill-opacity:1" />
      <path
         id="path4866"
         d="m 235.13216,13.553087 c 22.63021,22.630209 36.61458,53.880208 36.61458,88.385413 0,69.03646 -55.96354,125 -125,125 -34.5052,0 -65.755203,-13.98437 -88.385412,-36.61458 z"
         inkscape:connector-curvature="0"
         style="fill:#445a64;fill-opacity:1" />
      <polygon
         transform="matrix(0.52083333,0,0,0.52083333,13.413412,-31.394829)"
         id="polygon4868"
         points="224,288 112,288 112,224 224,224 224,112 288,112 288,224 400,224 400,288 288,288 288,400 224,400 "
         style="fill:#ffffff" />
      <polygon
         transform="matrix(0.52083333,0,0,0.52083333,13.413412,-31.394829)"
         id="polygon4870"
         points="288,288 288,400 224,400 224,288 288,224 400,224 400,288 "
         style="fill:#ebedef" />
    </g>
  </g>
</svg>
