<svg x="0" y="0" width="512" height="512" version="1.1"
    xmlns="http://www.w3.org/2000/svg"
    xmlns:xlink="http://www.w3.org/1999/xlink" viewBox="0 0 512 512">
    <title>alarmclock icon</title>
    <desc>alarmclock icon from the IconExperience.com G-Collection. Copyright by INCORS GmbH (www.incors.com).</desc>
    <g>
        <path d="M68.7,123.3c-6.25,-6.25 -6.25,-16.35 0,-22.6c6.25,-6.25 16.35,-6.25 22.6,0l164.7,164.65l148.7,-148.65c6.25,-6.25 16.35,-6.25 22.6,0c6.25,6.25 6.25,16.35 0,22.6l-160,160c-6.25,6.25 -16.35,6.25 -22.6,0z M424.9,428.1c10.95,13.75 8.7,33.8 -5,44.75c-13.75,11 -33.8,8.75 -44.8,-5l-63.95,-80c-11,-13.7 -8.75,-33.75 5,-44.75c13.7,-10.95 33.75,-8.7 44.75,5z M136.9,467.85c-11,13.75 -31.05,16 -44.75,5c-13.75,-10.95 -16,-31 -5,-44.75l64,-80c10.95,-13.7 31,-15.95 44.75,-5c13.7,11 15.95,31.05 5,44.75z" fill="#445a64"/>
        <path d="M272,80l0,32l-32,0l0,-32l-16,0l0,-16c0,-8.8 7.2,-16 16,-16l32,0c8.8,0 16,7.2 16,16l0,16z" fill="#8fa3ad"/>
        <path d="M392,48c57.45,0 104,46.55 104,104c0,32.95 -15.35,62.35 -39.25,81.4c-19.25,-71 -75.15,-126.9 -146.15,-146.15c19.05,-23.9 48.45,-39.25 81.4,-39.25z M120,48c32.95,0 62.35,15.35 81.4,39.25c-71,19.25 -126.9,75.15 -146.15,146.15c-23.9,-19.05 -39.25,-48.45 -39.25,-81.4c0,-57.45 46.55,-104 104,-104z" fill="#8fa3ad"/>
        <path d="M465.55,78.45c18.8,18.85 30.45,44.85 30.45,73.55c0,32.95 -15.35,62.35 -39.25,81.4c-9.65,-35.5 -28.4,-67.2 -53.65,-92.5z" fill="#788f9b"/>
        <path d="M256,96c106.05,0 192,85.95 192,192c0,106.05 -85.95,192 -192,192c-106.05,0 -192,-85.95 -192,-192c0,-106.05 85.95,-192 192,-192z" fill="#546e7a"/>
        <path d="M391.75,152.25c34.75,34.75 56.25,82.75 56.25,135.75c0,106.05 -85.95,192 -192,192c-53,0 -101,-21.5 -135.75,-56.25z" fill="#445a64"/>
        <path d="M256,125.55c89.75,0 162.45,72.75 162.45,162.45c0,89.75 -72.7,162.45 -162.45,162.45c-89.7,0 -162.45,-72.7 -162.45,-162.45c0,-89.7 72.75,-162.45 162.45,-162.45z" fill="#cdd7db"/>
        <path d="M370.9,173.1c29.4,29.4 47.55,70.05 47.55,114.9c0,89.75 -72.7,162.45 -162.45,162.45c-44.85,0 -85.5,-18.15 -114.9,-47.55z" fill="#afbdc3"/>
        <path d="M256,144c79.55,0 144,64.45 144,144c0,79.55 -64.45,144 -144,144c-79.55,0 -144,-64.45 -144,-144c0,-79.55 64.45,-144 144,-144z" fill="#ebedef"/>
        <path d="M357.8,186.2c26.1,26.05 42.2,62.05 42.2,101.8c0,79.55 -64.45,144 -144,144c-39.75,0 -75.75,-16.1 -101.8,-42.2z" fill="#cdd7db"/>
        <path d="M263.65,259.45l49.6,-49.6c2.75,-2.7 7.1,-2.9 10,-0.35c4.05,3.45 7.8,7.2 11.25,11.25c2.55,2.9 2.35,7.3 -0.35,10l-49.6,49.6c0.65,2.45 1,5 1,7.65c0,16.3 -13.25,29.55 -29.55,29.55c-16.3,0 -29.55,-13.25 -29.55,-29.55c0,-2.65 0.35,-5.2 1,-7.65l-80.95,-81c-2.8,-2.75 -2.9,-7.2 -0.3,-10.15c3.5,-3.85 7.15,-7.5 11,-11c2.95,-2.6 7.4,-2.5 10.15,0.3l81,80.95c2.45,-0.65 5,-1 7.65,-1c2.65,0 5.2,0.35 7.65,1z" fill="#ff8d00"/>
        <path d="M334.15,230.75l-49.6,49.6c0.65,2.45 1,5 1,7.65c0,16.3 -13.25,29.55 -29.55,29.55c-8.15,0 -15.55,-3.3 -20.9,-8.65l5.15,-5.15l88.85,-88.85c1.9,1.85 3.7,3.8 5.4,5.85c2.55,2.9 2.35,7.3 -0.35,10z" fill="#ff6e00"/>
        <path d="M256,273.25c8.15,0 14.75,6.6 14.75,14.75c0,8.15 -6.6,14.75 -14.75,14.75c-8.15,0 -14.75,-6.6 -14.75,-14.75c0,-8.15 6.6,-14.75 14.75,-14.75z" fill="#f9f9f9"/>
        <path d="M266.45,277.55c2.65,2.7 4.3,6.35 4.3,10.45c0,8.15 -6.6,14.75 -14.75,14.75c-4.1,0 -7.75,-1.65 -10.45,-4.3z" fill="#ebedef"/>
    </g>
</svg>