<svg x="0" y="0" width="512" height="512" version="1.1"
    xmlns="http://www.w3.org/2000/svg"
    xmlns:xlink="http://www.w3.org/1999/xlink" viewBox="0 0 512 512">
    <title>beaker icon</title>
    <desc>beaker icon from the IconExperience.com G-Collection. Copyright by INCORS GmbH (www.incors.com).</desc>
    <g>
        <path d="M322.65,206.5c55.1,25.3 93.35,80.9 93.35,145.5c0,88.35 -71.65,160 -160,160c-88.35,0 -160,-71.65 -160,-160c0,-64.6 38.25,-120.2 93.35,-145.5c11.65,-5.35 18.65,-16.3 18.65,-29.05l0,-129.45c0,-5.85 -2.9,-15.2 -8,-18.15c-4.75,-2.75 -8,-7.95 -8,-13.85c0,-8.8 7.2,-16 16,-16l96,0c8.8,0 16,7.2 16,16c0,5.9 -3.25,11.1 -8,13.85c-5.1,2.95 -8,12.3 -8,18.15l0,129.45c0,12.75 7,23.7 18.65,29.05z" fill="#cdd7db"/>
        <path d="M322.65,206.5c55.1,25.3 93.35,80.9 93.35,145.5c0,88.35 -71.65,160 -160,160l0,-512l48,0c8.8,0 16,7.2 16,16c0,5.9 -3.25,11.1 -8,13.85c-5.1,2.95 -8,12.3 -8,18.15l0,129.45c0,12.75 7,23.7 18.65,29.05z" fill="#afbdc3"/>
        <path d="M304,16l0,0l-96,0l0,0c0,0 0,0 0.05,0c10.4,6.05 15.95,20.35 15.95,32l0,129.45c0,19.05 -10.65,35.65 -28,43.6c-51.1,23.45 -84,74.5 -84,130.95c0,79.55 64.45,144 144,144c79.55,0 144,-64.45 144,-144c0,-56.45 -32.9,-107.5 -84,-130.95c-17.35,-7.95 -28,-24.55 -28,-43.6l0,-129.45c0,-11.65 5.55,-25.95 15.95,-32c0.05,0 0.05,0 0.05,0z" fill="#ebedef"/>
        <path d="M304,16l0,0l-48,0l0,480c79.55,0 144,-64.45 144,-144c0,-56.45 -32.9,-107.5 -84,-130.95c-17.35,-7.95 -28,-24.55 -28,-43.6l0,-129.45c0,-11.65 5.55,-25.95 15.95,-32c0.05,0 0.05,0 0.05,0z" fill="#cdd7db"/>
        <path d="M396.4,320c2.35,10.3 3.6,21 3.6,32c0,79.55 -64.45,144 -144,144c-79.55,0 -144,-64.45 -144,-144c0,-11 1.25,-21.7 3.6,-32z" fill="#85d435"/>
        <path d="M396.4,320c2.35,10.3 3.6,21 3.6,32c0,79.55 -64.45,144 -144,144l0,-176z" fill="#68ba1c"/>
        <path d="M240,448c-8.85,0 -16,7.15 -16,16c0,8.85 7.15,16 16,16c8.85,0 16,-7.15 16,-16c0,-8.85 -7.15,-16 -16,-16z M240,336c-17.65,0 -32,14.35 -32,32c0,17.65 14.35,32 32,32c17.65,0 32,-14.35 32,-32c0,-17.65 -14.35,-32 -32,-32z" fill="#d3feaa"/>
        <path d="M280,400c-13.25,0 -24,10.75 -24,24c0,13.25 10.75,24 24,24c13.25,0 24,-10.75 24,-24c0,-13.25 -10.75,-24 -24,-24z M256,395.7c9.55,-5.5 16,-15.85 16,-27.7c0,-11.85 -6.45,-22.2 -16,-27.7z" fill="#c5f48d"/>
    </g>
</svg>