<svg x="0" y="0" width="512" height="512" version="1.1"
    xmlns="http://www.w3.org/2000/svg"
    xmlns:xlink="http://www.w3.org/1999/xlink" viewBox="0 0 512 512">
    <title>copy icon</title>
    <desc>copy icon from the IconExperience.com G-Collection. Copyright by INCORS GmbH (www.incors.com).</desc>
    <g>
        <path d="M336,159.5l0,248c0,4.4 -3.6,8 -8,8l-304,0c-4.4,0 -8,-3.6 -8,-8l0,-400c0,-4.4 3.6,-8 8,-8l24,0l128,0c8.8,0 16.85,3.6 22.65,9.4l127.95,127.95c5.8,5.8 9.4,13.85 9.4,22.65z" fill="#ebedef"/>
        <path d="M336,159.5l0,248c0,4.4 -3.6,8 -8,8l-304,0c-2.35,0 -4.5,-1 -5.95,-2.65l254.15,-330.4l54.4,54.4c5.8,5.8 9.4,13.85 9.4,22.65z" fill="#cdd7db"/>
        <path d="M198.65,8.9c5.75,5.8 9.35,13.8 9.35,22.6l0,88c0,4.4 3.6,8 8,8l88,0c8.5,0 16.6,3.4 22.6,9.4z" fill="#afbdc3"/>
        <path d="M64,64l112,0l0,16l-112,0z M64,352l224,0l0,16l-224,0z M64,304l224,0l0,16l-224,0z M64,256l224,0l0,16l-224,0z M64,208l224,0l0,16l-224,0z M64,160l224,0l0,16l-224,0z M64,112l112,0l0,16l-112,0z" fill="#afbdc3"/>
        <path d="M64,353.6l1.25,-1.6l222.75,0l0,16l-224,0z M89.85,320l12.3,-16l185.85,0l0,16z M126.75,272l12.35,-16l148.9,0l0,16z M163.7,224l12.3,-16l112,0l0,16z M200.6,176l12.3,-16l75.1,0l0,16z" fill="#8fa3ad"/>
        <path d="M496,256l0,248c0,4.4 -3.6,8 -8,8l-304,0c-4.4,0 -8,-3.6 -8,-8l0,-400c0,-4.4 3.6,-8 8,-8l24,0l128,0c8.8,0 16.85,3.6 22.65,9.4l127.95,127.95c5.8,5.8 9.4,13.8 9.4,22.65z" fill="#dff3fd"/>
        <path d="M496,256l0,248c0,4.4 -3.6,8 -8,8l-304,0c-2.35,0 -4.5,-1.05 -5.95,-2.65l254.15,-330.4l54.4,54.4c5.8,5.8 9.4,13.8 9.4,22.65z" fill="#b1e3fb"/>
        <path d="M358.65,105.4c5.75,5.8 9.35,13.8 9.35,22.6l0,88c0,4.4 3.6,8 8,8l88,0c8.5,0 16.6,3.4 22.6,9.4z" fill="#28b5f5"/>
        <path d="M224,160l112,0l0,16l-112,0z M224,448l224,0l0,16l-224,0z M224,400l224,0l0,16l-224,0z M224,352l224,0l0,16l-224,0z M224,304l224,0l0,16l-224,0z M224,256l224,0l0,16l-224,0z M224,208l112,0l0,16l-112,0z" fill="#788f9b"/>
        <path d="M224,449.6l1.25,-1.6l222.75,0l0,16l-224,0z M249.85,416l12.3,-16l185.85,0l0,16z M286.75,368l12.35,-16l148.9,0l0,16z M323.7,320l12.3,-16l112,0l0,16z M360.6,272l12.3,-16l75.1,0l0,16z" fill="#546e7a"/>
    </g>
</svg>