<svg x="0" y="0" width="512" height="512" version="1.1"
    xmlns="http://www.w3.org/2000/svg"
    xmlns:xlink="http://www.w3.org/1999/xlink" viewBox="0 0 512 512">
    <title>pieces icon</title>
    <desc>pieces icon from the IconExperience.com G-Collection. Copyright by INCORS GmbH (www.incors.com).</desc>
    <g>
        <path d="M224,32c0,122.05 0,73.55 0,208l-79.5,0c-6.55,0 -10.5,7.85 -6.65,13.15c3.85,5.3 6.15,11.8 6.15,18.85c0,17.65 -14.35,32 -32,32c-17.65,0 -32,-14.35 -32,-32c0,-7.1 2.3,-13.65 6.2,-18.95c3.9,-5.25 0,-13.05 -6.6,-13.05l-79.6,0l0,-192c0,-8.8 7.2,-16 16,-16z" fill="#28b5f5"/>
        <path d="M0,240l224,-208l0,208l-79.5,0c-6.55,0 -10.5,7.85 -6.65,13.15c3.85,5.3 6.15,11.8 6.15,18.85c0,17.65 -14.35,32 -32,32c-17.65,0 -32,-14.35 -32,-32c0,-7.1 2.3,-13.65 6.2,-18.95c3.9,-5.25 0,-13.05 -6.6,-13.05z" fill="#0299e3"/>
        <path d="M448,160.5l0,79.5l-224,0l0,-79.5c0,-6.6 -7.85,-10.55 -13.15,-6.65c-5.3,3.85 -11.8,6.15 -18.85,6.15c-17.65,0 -32,-14.35 -32,-32c0,-17.65 14.35,-32 32,-32c7.1,0 13.65,2.3 18.95,6.2c5.25,3.9 13.05,0 13.05,-6.6l0,-63.6l224,0l0,63.6c0,6.6 7.8,10.5 13.05,6.6c5.3,-3.9 11.85,-6.2 18.95,-6.2c17.65,0 32,14.35 32,32c0,17.65 -14.35,32 -32,32c-7.05,0 -13.55,-2.3 -18.85,-6.15c-5.3,-3.9 -13.15,0.05 -13.15,6.65z" fill="#cdd7db"/>
        <path d="M448,160.5l0,79.5l-224,0l224,-208l0,63.6c0,6.6 7.8,10.5 13.05,6.6c5.3,-3.9 11.85,-6.2 18.95,-6.2c17.65,0 32,14.35 32,32c0,17.65 -14.35,32 -32,32c-7.05,0 -13.55,-2.3 -18.85,-6.15c-5.3,-3.9 -13.15,0.05 -13.15,6.65z" fill="#afbdc3"/>
        <path d="M368.5,240l79.5,0l0,63.65c0,6.55 7.8,10.45 13.05,6.55c5.3,-3.9 11.85,-6.2 18.95,-6.2c17.65,0 32,14.35 32,32c0,17.65 -14.35,32 -32,32c-7.05,0 -13.55,-2.3 -18.85,-6.15c-5.3,-3.85 -13.15,0.05 -13.15,6.65l0,79.5l-79.5,0c-6.6,0 -10.5,7.85 -6.65,13.15c3.85,5.3 6.15,11.8 6.15,18.85c0,17.65 -14.35,32 -32,32c-17.65,0 -32,-14.35 -32,-32c0,-7.1 2.3,-13.65 6.2,-18.95c3.9,-5.25 0,-13.05 -6.6,-13.05l-79.6,0l0,-79.5c0,-6.6 -7.85,-10.55 -13.15,-6.65c-5.3,3.85 -11.8,6.15 -18.85,6.15c-17.65,0 -32,-14.35 -32,-32c0,-17.65 14.35,-32 32,-32c7.1,0 13.65,2.3 18.95,6.2c5.25,3.9 13.05,0 13.05,-6.6l0,-63.6l79.6,0c6.6,0 10.5,-7.8 6.6,-13.05c-3.9,-5.3 -6.2,-11.85 -6.2,-18.95c0,-17.65 14.35,-32 32,-32c17.65,0 32,14.35 32,32c0,7.05 -2.3,13.55 -6.15,18.85c-3.85,5.3 0.05,13.15 6.65,13.15z" fill="#ffb100"/>
        <path d="M448,240l0,63.65c0,6.55 7.8,10.45 13.05,6.55c5.3,-3.9 11.85,-6.2 18.95,-6.2c17.65,0 32,14.35 32,32c0,17.65 -14.35,32 -32,32c-7.05,0 -13.55,-2.3 -18.85,-6.15c-5.3,-3.85 -13.15,0.05 -13.15,6.65l0,79.5l-79.5,0c-6.6,0 -10.5,7.85 -6.65,13.15c3.85,5.3 6.15,11.8 6.15,18.85c0,17.65 -14.35,32 -32,32c-17.65,0 -32,-14.35 -32,-32c0,-7.1 2.3,-13.65 6.2,-18.95c3.9,-5.25 0,-13.05 -6.6,-13.05l-79.6,0z" fill="#ff9f00"/>
    </g>
</svg>