<?xml version="1.0" encoding="UTF-8" standalone="no"?>
<svg
   xmlns:dc="http://purl.org/dc/elements/1.1/"
   xmlns:cc="http://creativecommons.org/ns#"
   xmlns:rdf="http://www.w3.org/1999/02/22-rdf-syntax-ns#"
   xmlns:svg="http://www.w3.org/2000/svg"
   xmlns="http://www.w3.org/2000/svg"
   xmlns:sodipodi="http://sodipodi.sourceforge.net/DTD/sodipodi-0.dtd"
   xmlns:inkscape="http://www.inkscape.org/namespaces/inkscape"
   xml:space="preserve"
   width="512"
   height="512"
   viewBox="0 0 5120 5120"
   version="1.1"
   id="svg835"
   sodipodi:docname="add_perspective.svg"
   style="clip-rule:evenodd;fill-rule:nonzero;image-rendering:optimizeQuality;shape-rendering:geometricPrecision;text-rendering:geometricPrecision"
   inkscape:version="0.92.3 (2405546, 2018-03-11)"><metadata
   id="metadata841"><rdf:RDF><cc:Work
       rdf:about=""><dc:format>image/svg+xml</dc:format><dc:type
         rdf:resource="http://purl.org/dc/dcmitype/StillImage" /><dc:title>window_split_hor icon</dc:title></cc:Work></rdf:RDF></metadata><defs
   id="defs839"><clipPath
     id="clipPath4160"
     clipPathUnits="userSpaceOnUse"><path
       inkscape:connector-curvature="0"
       id="path4162"
       d="M 0,0 H 841.89 V 595.276 H 0 Z" /></clipPath><clipPath
     id="clipPath4174"
     clipPathUnits="userSpaceOnUse"><path
       inkscape:connector-curvature="0"
       id="path4176"
       d="M 0,0 H 841.89 V 595.276 H 0 Z" /></clipPath><clipPath
     id="clipPath4188"
     clipPathUnits="userSpaceOnUse"><path
       inkscape:connector-curvature="0"
       id="path4190"
       d="M 0,0 H 841.89 V 595.276 H 0 Z" /></clipPath><clipPath
     id="clipPath4202"
     clipPathUnits="userSpaceOnUse"><path
       inkscape:connector-curvature="0"
       id="path4204"
       d="M 0,0 H 841.89 V 595.276 H 0 Z" /></clipPath><clipPath
     id="clipPath4216"
     clipPathUnits="userSpaceOnUse"><path
       inkscape:connector-curvature="0"
       id="path4218"
       d="M 0,0 H 841.89 V 595.276 H 0 Z" /></clipPath><clipPath
     id="clipPath4234"
     clipPathUnits="userSpaceOnUse"><path
       inkscape:connector-curvature="0"
       id="path4236"
       d="M 0,0 H 841.89 V 595.276 H 0 Z" /></clipPath><clipPath
     id="clipPath4541"
     clipPathUnits="userSpaceOnUse"><path
       inkscape:connector-curvature="0"
       id="path4543"
       d="M 0,0 H 841.89 V 595.276 H 0 Z" /></clipPath><clipPath
     id="clipPath4555"
     clipPathUnits="userSpaceOnUse"><path
       inkscape:connector-curvature="0"
       id="path4557"
       d="M 0,0 H 841.89 V 595.276 H 0 Z" /></clipPath><clipPath
     id="clipPath4569"
     clipPathUnits="userSpaceOnUse"><path
       inkscape:connector-curvature="0"
       id="path4571"
       d="M 0,0 H 841.89 V 595.276 H 0 Z" /></clipPath><clipPath
     id="clipPath4583"
     clipPathUnits="userSpaceOnUse"><path
       inkscape:connector-curvature="0"
       id="path4585"
       d="M 0,0 H 841.89 V 595.276 H 0 Z" /></clipPath><clipPath
     id="clipPath4597"
     clipPathUnits="userSpaceOnUse"><path
       inkscape:connector-curvature="0"
       id="path4599"
       d="M 0,0 H 841.89 V 595.276 H 0 Z" /></clipPath><clipPath
     id="clipPath4615"
     clipPathUnits="userSpaceOnUse"><path
       inkscape:connector-curvature="0"
       id="path4617"
       d="M 0,0 H 841.89 V 595.276 H 0 Z" /></clipPath><clipPath
     id="clipPath4160-4"
     clipPathUnits="userSpaceOnUse"><path
       inkscape:connector-curvature="0"
       id="path4162-8"
       d="M 0,0 H 841.89 V 595.276 H 0 Z" /></clipPath><clipPath
     id="clipPath4174-7"
     clipPathUnits="userSpaceOnUse"><path
       inkscape:connector-curvature="0"
       id="path4176-3"
       d="M 0,0 H 841.89 V 595.276 H 0 Z" /></clipPath><clipPath
     id="clipPath4188-9"
     clipPathUnits="userSpaceOnUse"><path
       inkscape:connector-curvature="0"
       id="path4190-3"
       d="M 0,0 H 841.89 V 595.276 H 0 Z" /></clipPath><clipPath
     id="clipPath4202-4"
     clipPathUnits="userSpaceOnUse"><path
       inkscape:connector-curvature="0"
       id="path4204-9"
       d="M 0,0 H 841.89 V 595.276 H 0 Z" /></clipPath><clipPath
     id="clipPath4216-0"
     clipPathUnits="userSpaceOnUse"><path
       inkscape:connector-curvature="0"
       id="path4218-6"
       d="M 0,0 H 841.89 V 595.276 H 0 Z" /></clipPath><clipPath
     id="clipPath4234-6"
     clipPathUnits="userSpaceOnUse"><path
       inkscape:connector-curvature="0"
       id="path4236-8"
       d="M 0,0 H 841.89 V 595.276 H 0 Z" /></clipPath><clipPath
     id="clipPath4541-6"
     clipPathUnits="userSpaceOnUse"><path
       inkscape:connector-curvature="0"
       id="path4543-6"
       d="M 0,0 H 841.89 V 595.276 H 0 Z" /></clipPath><clipPath
     id="clipPath4555-9"
     clipPathUnits="userSpaceOnUse"><path
       inkscape:connector-curvature="0"
       id="path4557-6"
       d="M 0,0 H 841.89 V 595.276 H 0 Z" /></clipPath><clipPath
     id="clipPath4569-6"
     clipPathUnits="userSpaceOnUse"><path
       inkscape:connector-curvature="0"
       id="path4571-3"
       d="M 0,0 H 841.89 V 595.276 H 0 Z" /></clipPath><clipPath
     id="clipPath4583-4"
     clipPathUnits="userSpaceOnUse"><path
       inkscape:connector-curvature="0"
       id="path4585-6"
       d="M 0,0 H 841.89 V 595.276 H 0 Z" /></clipPath><clipPath
     id="clipPath4597-3"
     clipPathUnits="userSpaceOnUse"><path
       inkscape:connector-curvature="0"
       id="path4599-8"
       d="M 0,0 H 841.89 V 595.276 H 0 Z" /></clipPath><clipPath
     id="clipPath4615-8"
     clipPathUnits="userSpaceOnUse"><path
       inkscape:connector-curvature="0"
       id="path4617-5"
       d="M 0,0 H 841.89 V 595.276 H 0 Z" /></clipPath><clipPath
     id="clipPath4160-0"
     clipPathUnits="userSpaceOnUse"><path
       inkscape:connector-curvature="0"
       id="path4162-4"
       d="M 0,0 H 841.89 V 595.276 H 0 Z" /></clipPath><clipPath
     id="clipPath4174-8"
     clipPathUnits="userSpaceOnUse"><path
       inkscape:connector-curvature="0"
       id="path4176-0"
       d="M 0,0 H 841.89 V 595.276 H 0 Z" /></clipPath><clipPath
     id="clipPath4188-94"
     clipPathUnits="userSpaceOnUse"><path
       inkscape:connector-curvature="0"
       id="path4190-8"
       d="M 0,0 H 841.89 V 595.276 H 0 Z" /></clipPath><clipPath
     id="clipPath4202-9"
     clipPathUnits="userSpaceOnUse"><path
       inkscape:connector-curvature="0"
       id="path4204-95"
       d="M 0,0 H 841.89 V 595.276 H 0 Z" /></clipPath><clipPath
     id="clipPath4216-1"
     clipPathUnits="userSpaceOnUse"><path
       inkscape:connector-curvature="0"
       id="path4218-9"
       d="M 0,0 H 841.89 V 595.276 H 0 Z" /></clipPath><clipPath
     id="clipPath4234-1"
     clipPathUnits="userSpaceOnUse"><path
       inkscape:connector-curvature="0"
       id="path4236-4"
       d="M 0,0 H 841.89 V 595.276 H 0 Z" /></clipPath><clipPath
     id="clipPath4541-1"
     clipPathUnits="userSpaceOnUse"><path
       inkscape:connector-curvature="0"
       id="path4543-4"
       d="M 0,0 H 841.89 V 595.276 H 0 Z" /></clipPath><clipPath
     id="clipPath4555-93"
     clipPathUnits="userSpaceOnUse"><path
       inkscape:connector-curvature="0"
       id="path4557-0"
       d="M 0,0 H 841.89 V 595.276 H 0 Z" /></clipPath><clipPath
     id="clipPath4569-2"
     clipPathUnits="userSpaceOnUse"><path
       inkscape:connector-curvature="0"
       id="path4571-35"
       d="M 0,0 H 841.89 V 595.276 H 0 Z" /></clipPath><clipPath
     id="clipPath4583-2"
     clipPathUnits="userSpaceOnUse"><path
       inkscape:connector-curvature="0"
       id="path4585-7"
       d="M 0,0 H 841.89 V 595.276 H 0 Z" /></clipPath><clipPath
     id="clipPath4597-9"
     clipPathUnits="userSpaceOnUse"><path
       inkscape:connector-curvature="0"
       id="path4599-4"
       d="M 0,0 H 841.89 V 595.276 H 0 Z" /></clipPath><clipPath
     id="clipPath4615-4"
     clipPathUnits="userSpaceOnUse"><path
       inkscape:connector-curvature="0"
       id="path4617-0"
       d="M 0,0 H 841.89 V 595.276 H 0 Z" /></clipPath></defs><sodipodi:namedview
   pagecolor="#ffffff"
   bordercolor="#666666"
   borderopacity="1"
   objecttolerance="10"
   gridtolerance="10"
   guidetolerance="10"
   inkscape:pageopacity="0"
   inkscape:pageshadow="2"
   inkscape:window-width="1920"
   inkscape:window-height="1017"
   id="namedview837"
   showgrid="false"
   fit-margin-top="0"
   fit-margin-left="0"
   fit-margin-right="0"
   fit-margin-bottom="0"
   inkscape:zoom="0.65186406"
   inkscape:cx="380.82184"
   inkscape:cy="239.04208"
   inkscape:window-x="1912"
   inkscape:window-y="-8"
   inkscape:window-maximized="1"
   inkscape:current-layer="svg835" />
	<title
   id="title829">window_split_hor icon</title>
	<desc
   id="desc831">window_split_hor icon from the IconExperience.com O-Collection. Copyright by INCORS GmbH (www.incors.com).</desc>
	
	
<g
   id="g1050"
   transform="translate(0,685)"><g
     transform="matrix(9.375,0,0,9.375,0,-600)"
     id="g1164"><path
       style="fill:#28b5f5"
       inkscape:connector-curvature="0"
       d="M 512,80 V 464 H 0 V 80 C 0,71.2 7.2,64 16,64 h 480 c 8.8,0 16,7.2 16,16 z"
       id="path1148" /><path
       style="fill:#0299e3"
       inkscape:connector-curvature="0"
       d="M 512,80 V 464 H 0 L 506.7,68.15 c 3.25,2.9 5.3,7.15 5.3,11.85 z"
       id="path1150" /><polygon
       style="fill:#dff3fd"
       points="512,464 0,464 0,128 512,128 "
       id="polygon1152" /><polygon
       style="fill:#b1e3fb"
       points="512,464 0,464 430.1,128 512,128 "
       id="polygon1154" /><path
       style="fill:#dff3fd"
       inkscape:connector-curvature="0"
       d="m 464,80 c 8.85,0 16,7.15 16,16 0,8.85 -7.15,16 -16,16 -8.85,0 -16,-7.15 -16,-16 0,-8.85 7.15,-16 16,-16 z m -48,0 c 8.85,0 16,7.15 16,16 0,8.85 -7.15,16 -16,16 -8.85,0 -16,-7.15 -16,-16 0,-8.85 7.15,-16 16,-16 z"
       id="path1156" /><path
       style="fill:#b1e3fb"
       inkscape:connector-curvature="0"
       d="m 478.8,89.95 c 0.8,1.85 1.2,3.9 1.2,6.05 0,8.85 -7.15,16 -16,16 -3.55,0 -6.8,-1.15 -9.45,-3.1 z"
       id="path1158" /><polygon
       style="fill:#28b5f5"
       points="264,464 248,464 248,112 264,112 "
       id="polygon1160" /><polygon
       style="fill:#0299e3"
       points="248,464 248,270.25 264,257.75 264,464 "
       id="polygon1162" /></g><polygon
     transform="matrix(-8.0641558,0,0,9.375,4126.5391,-1033.5938)"
     id="polygon1201"
     points="204.8,304 225.3,288 512,288 512,304 "
     style="fill:#28b5f5;fill-opacity:1" /></g><g
   id="g4218"
   transform="matrix(5.8333333,0,0,5.8333333,2226.6667,2226.6667)"><path
     id="path4220"
     d="M 256,16 C 388.55,16 496,123.45 496,256 496,388.55 388.55,496 256,496 123.45,496 16,388.55 16,256 16,123.45 123.45,16 256,16 Z"
     inkscape:connector-curvature="0"
     style="fill:#68ba1c" /><path
     id="path4222"
     d="M 425.7,86.3 C 469.15,129.75 496,189.75 496,256 496,388.55 388.55,496 256,496 189.75,496 129.75,469.15 86.3,425.7 Z"
     inkscape:connector-curvature="0"
     style="fill:#53a616" /><polygon
     id="polygon4224"
     points="288,112 288,224 400,224 400,288 288,288 288,400 224,400 224,288 112,288 112,224 224,224 224,112 "
     style="fill:#ffffff" /><polygon
     id="polygon4226"
     points="400,224 400,288 288,288 288,400 224,400 224,288 288,224 "
     style="fill:#ebedef" /></g></svg>