<?xml version="1.0" encoding="UTF-8" standalone="no"?>
<svg
   xmlns:dc="http://purl.org/dc/elements/1.1/"
   xmlns:cc="http://creativecommons.org/ns#"
   xmlns:rdf="http://www.w3.org/1999/02/22-rdf-syntax-ns#"
   xmlns:svg="http://www.w3.org/2000/svg"
   xmlns="http://www.w3.org/2000/svg"
   xmlns:sodipodi="http://sodipodi.sourceforge.net/DTD/sodipodi-0.dtd"
   xmlns:inkscape="http://www.inkscape.org/namespaces/inkscape"
   x="0"
   y="0"
   width="512"
   height="512"
   version="1.1"
   viewBox="0 0 512 512"
   id="svg6020"
   inkscape:version="0.91 r13725"
   sodipodi:docname="start_acquisition.svg">
  <metadata
     id="metadata6048">
    <rdf:RDF>
      <cc:Work
         rdf:about="">
        <dc:format>image/svg+xml</dc:format>
        <dc:type
           rdf:resource="http://purl.org/dc/dcmitype/StillImage" />
      </cc:Work>
    </rdf:RDF>
  </metadata>
  <defs
     id="defs6046" />
  <sodipodi:namedview
     pagecolor="#ffffff"
     bordercolor="#666666"
     borderopacity="1"
     objecttolerance="10"
     gridtolerance="10"
     guidetolerance="10"
     inkscape:pageopacity="0"
     inkscape:pageshadow="2"
     inkscape:window-width="1920"
     inkscape:window-height="1017"
     id="namedview6044"
     showgrid="false"
     inkscape:zoom="1.03"
     inkscape:cx="80.23301"
     inkscape:cy="256"
     inkscape:window-x="1912"
     inkscape:window-y="-8"
     inkscape:window-maximized="1"
     inkscape:current-layer="svg6020" />
  <title
     id="title6022">chart line icon</title>
  <desc
     id="desc6024">chart line icon from the IconExperience.com G-Collection. Copyright by INCORS GmbH (www.incors.com).</desc>
  <g
     id="g6682"
     transform="translate(-31.578125,-32)">
    <path
       d="m 64,32 384,0 c 17.65,0 32,14.35 32,32 l 0,384 c 0,17.65 -14.35,32 -32,32 L 64,480 C 46.35,480 32,465.65 32,448 L 32,64 C 32,46.35 46.35,32 64,32 Z"
       id="path6028"
       inkscape:connector-curvature="0"
       style="fill:#546e7a" />
    <path
       d="m 470.6,41.4 c 5.8,5.8 9.4,13.8 9.4,22.6 l 0,384 c 0,17.65 -14.35,32 -32,32 l -384,0 c -8.8,0 -16.8,-3.6 -22.6,-9.4 z"
       id="path6030"
       inkscape:connector-curvature="0"
       style="fill:#445a64" />
    <path
       d="m 112,480 0,-80 -80,0 0,-16 80,0 0,-80 -80,0 0,-16 80,0 0,-80 -80,0 0,-16 80,0 0,-80 -80,0 0,-16 80,0 0,-64 16,0 0,64 80,0 0,-64 16,0 0,64 80,0 0,-64 16,0 0,64 80,0 0,-64 16,0 0,64 64,0 0,16 -64,0 0,80 64,0 0,16 -64,0 0,80 64,0 0,16 -64,0 0,80 64,0 0,16 -64,0 0,80 -16,0 0,-80 -80,0 0,80 -16,0 0,-80 -80,0 0,80 -16,0 0,-80 -80,0 0,80 z m 16,-368 0,80 80,0 0,-80 z m 0,96 0,80 80,0 0,-80 z m 0,96 0,80 80,0 0,-80 z m 272,-192 -80,0 0,80 80,0 z m -96,0 -80,0 0,80 80,0 z m -80,272 80,0 0,-80 -80,0 z m 96,0 80,0 0,-80 -80,0 z m -96,-96 80,0 0,-80 -80,0 z m 96,0 80,0 0,-80 -80,0 z"
       id="path6032"
       inkscape:connector-curvature="0"
       style="fill:#445a64" />
    <path
       d="m 112,480 0,-80 16,-16 80,0 0,-80 16,-16 80,0 0,-80 16,-16 80,0 0,-80 16,-16 64,0 0,16 -64,0 0,80 64,0 0,16 -64,0 0,80 64,0 0,16 -64,0 0,80 64,0 0,16 -64,0 0,80 -16,0 0,-80 -80,0 0,80 -16,0 0,-80 -80,0 0,80 -16,0 0,-80 -80,0 0,80 z m 112,-96 80,0 0,-80 -80,0 z m 96,0 80,0 0,-80 -80,0 z m 0,-96 80,0 0,-80 -80,0 z"
       id="path6034"
       inkscape:connector-curvature="0"
       style="fill:#36464e" />
    <path
       style="color:#000000;font-style:normal;font-variant:normal;font-weight:normal;font-stretch:normal;font-size:medium;line-height:normal;font-family:sans-serif;text-indent:0;text-align:start;text-decoration:none;text-decoration-line:none;text-decoration-style:solid;text-decoration-color:#000000;letter-spacing:normal;word-spacing:normal;text-transform:none;direction:ltr;block-progression:tb;writing-mode:lr-tb;baseline-shift:baseline;text-anchor:start;white-space:normal;clip-rule:nonzero;display:inline;overflow:visible;visibility:visible;opacity:1;isolation:auto;mix-blend-mode:normal;color-interpolation:sRGB;color-interpolation-filters:linearRGB;solid-color:#000000;solid-opacity:1;fill:#ff8d00;fill-opacity:1;fill-rule:evenodd;stroke:none;stroke-width:20;stroke-linecap:round;stroke-linejoin:round;stroke-miterlimit:4;stroke-dasharray:none;stroke-dashoffset:0;stroke-opacity:1;color-rendering:auto;image-rendering:auto;shape-rendering:auto;text-rendering:auto;enable-background:accumulate"
       d="m 165.30664,91.472656 a 10.001,10.001 0 0 0 -10.21484,8.09961 l -45.5586,237.248044 -77.955075,38.85157 0,20.76562 a 10.001,10.001 0 0 0 5.337891,-1.08008 l 85.964844,-42.8418 a 10.001,10.001 0 0 0 5.36133,-7.06445 L 163.06445,164.10352 186.57617,342.875 a 10.001,10.001 0 0 0 8.56445,8.60547 l 65.78907,8.9668 a 10.001,10.001 0 0 0 11.01367,-7.33594 l 11.99805,-45.07422 9.78125,46.55078 a 10.001,10.001 0 0 0 8.80859,7.89649 l 71.05273,6.97265 a 10.001,10.001 0 0 0 0.75391,0.0469 l 42.57422,0.94726 49.80469,23.96875 a 10.001,10.001 0 0 0 1.88867,0.68555 l 7.89453,1.99219 a 10.001,10.001 0 0 0 3.32422,0.3125 l 0,-20.09961 -5.3457,-1.34961 -50.84375,-24.46875 a 10.001,10.001 0 0 0 -4.11329,-0.98828 l -44.35937,-0.98633 -63.375,-6.2207 -16.91211,-80.49805 a 10.001,10.001 0 0 0 -19.45117,-0.51563 l -20.53711,77.15625 -49.47656,-6.74414 -30.58399,-232.54101 a 10.001,10.001 0 0 0 -9.51953,-8.681644 z"
       id="path6667"
       inkscape:connector-curvature="0" />
    <path
       id="path6619"
       d="m 165.30664,91.472656 a 10.001,10.001 0 0 0 -10.21484,8.09961 l -45.5586,237.248044 -77.955075,38.85157 0,20.76562 a 10.001,10.001 0 0 0 5.337891,-1.08008 l 85.964844,-42.8418 a 10.001,10.001 0 0 0 5.36133,-7.06445 L 163.06445,164.10352 184.54688,327.45312 202.375,309.625 174.82617,100.1543 a 10.001,10.001 0 0 0 -9.51953,-8.681644 z"
       style="color:#000000;font-style:normal;font-variant:normal;font-weight:normal;font-stretch:normal;font-size:medium;line-height:normal;font-family:sans-serif;text-indent:0;text-align:start;text-decoration:none;text-decoration-line:none;text-decoration-style:solid;text-decoration-color:#000000;letter-spacing:normal;word-spacing:normal;text-transform:none;direction:ltr;block-progression:tb;writing-mode:lr-tb;baseline-shift:baseline;text-anchor:start;white-space:normal;clip-rule:nonzero;display:inline;overflow:visible;visibility:visible;opacity:1;isolation:auto;mix-blend-mode:normal;color-interpolation:sRGB;color-interpolation-filters:linearRGB;solid-color:#000000;solid-opacity:1;fill:#ff9f00;fill-opacity:1;fill-rule:evenodd;stroke:none;stroke-width:20;stroke-linecap:round;stroke-linejoin:round;stroke-miterlimit:4;stroke-dasharray:none;stroke-dashoffset:0;stroke-opacity:1;color-rendering:auto;image-rendering:auto;shape-rendering:auto;text-rendering:auto;enable-background:accumulate"
       inkscape:connector-curvature="0" />
  </g>
  <path
     id="path4249"
     d="m 281.75971,229.02077 220.44856,129.77094 c 3.115,1.869 4.98404,4.984 4.98404,8.62855 0,3.64455 -1.83789,6.7907 -4.98404,8.62855 L 281.75971,505.85093 c -3.14615,1.86894 -6.79077,1.83779 -9.96808,0 -3.17721,-1.83788 -4.98394,-4.98404 -4.98394,-8.62856 l 0,-129.80211 0,-129.77093 c 0,-3.67571 1.80673,-6.82186 4.98394,-8.62856 3.17731,-1.83785 6.82193,-1.90015 9.96808,0 z"
     inkscape:connector-curvature="0"
     style="fill:#78e918;fill-opacity:1;stroke:#489d00;stroke-width:9.61538506;stroke-miterlimit:4;stroke-dasharray:none;stroke-opacity:1" />
</svg>
