<svg x="0" y="0" width="512" height="512" version="1.1"
    xmlns="http://www.w3.org/2000/svg"
    xmlns:xlink="http://www.w3.org/1999/xlink" viewBox="0 0 512 512">
    <title>water tap icon</title>
    <desc>water tap icon from the IconExperience.com G-Collection. Copyright by INCORS GmbH (www.incors.com).</desc>
    <g>
        <path d="M353.75,382.2c8.8,22.4 30.25,46.6 30.25,65.8c0,17.65 -14.35,32 -32,32c-17.65,0 -32,-14.35 -32,-32c0,-19.2 21.25,-43.4 30.05,-65.8c0.6,-1.5 3.1,-1.5 3.7,0z" fill="#28b5f5"/>
        <path d="M353.75,382.2c8.8,22.4 30.25,46.6 30.25,65.8c0,17.65 -14.35,32 -32,32l0,-98.9c0.75,0 1.45,0.4 1.75,1.1z" fill="#0299e3"/>
        <path d="M224,91.7l0,52.3l-32,0l0,-52.3c-5.15,-2.95 -9.4,-7.35 -12.25,-12.6l-75.75,8.9c-13.15,1.55 -24,-10.75 -24,-24c0,-13.25 10.85,-25.55 24,-24l75.75,8.9c5.4,-10.05 16.05,-16.9 28.25,-16.9c12.2,0 22.85,6.85 28.25,16.9l75.75,-8.9c13.15,-1.55 24,10.75 24,24c0,13.25 -10.85,25.55 -24,24l-75.8,-8.9c-2.8,5.25 -7.05,9.65 -12.2,12.6z" fill="#ffc928"/>
        <path d="M224,91.7l0,52.3l-16,0l0,-48c-12.2,0 -22.85,-6.85 -28.25,-16.9l-75.75,8.9c-13.15,1.55 -24,-10.75 -24,-24l256,0c0,13.25 -10.85,25.55 -24,24l-75.8,-8.9c-2.8,5.25 -7.05,9.65 -12.2,12.6z" fill="#ffb100"/>
        <path d="M16,160l128,0c8.8,0 16,-7.2 16,-16l0,-8c0,-4.4 3.6,-8 8,-8l80,0c4.4,0 8,3.6 8,8l0,8c0,8.8 7.2,16 16,16l48,0c61.7,0 112,50.3 112,112l0,64c8.8,0 16,7.2 16,16l0,16c0,8.8 -7.2,16 -16,16l-96,0c-8.8,0 -16,-7.2 -16,-16l0,-16c0,-8.8 7.2,-16 16,-16l0,-32c0,-8.8 -7.2,-16 -16,-16l-36.95,0c-4.5,0 -8.4,1.65 -11.55,4.9c-34.45,35.9 -92.55,35.9 -127,0c-3.15,-3.25 -7.05,-4.9 -11.55,-4.9l-116.95,0z" fill="#afbdc3"/>
        <path d="M336,304c0,-8.8 -7.2,-16 -16,-16l-36.95,0c-4.5,0 -8.4,1.65 -11.55,4.9c-34.45,35.9 -92.55,35.9 -127,0c-3.15,-3.25 -7.05,-4.9 -11.55,-4.9l-116.95,0l0,-64c38.15,0 76.3,0 114.5,0c4.9,0 9.5,0.85 13.75,2.45c38.55,17.95 88.95,17.95 127.5,0c4.25,-1.6 8.85,-2.45 13.75,-2.45c11.5,0 23,0 34.5,0c35.25,0 64,28.75 64,64l0,72l64,0l0,8c0,8.8 -7.2,16 -16,16l-96,0c-8.8,0 -16,-7.2 -16,-16l0,-16c0,-8.8 7.2,-16 16,-16z M208,128l40,0c4.4,0 8,3.6 8,8l0,8c0,8.8 7.2,16 16,16l0,0c-24.45,0 -45.7,13.7 -56.45,33.85c-0.9,1.65 -2.7,2.45 -4.5,2c-1.85,-0.45 -3.05,-2 -3.05,-3.85z" fill="#8fa3ad"/>
        <path d="M0,112l32,0c8.8,0 16,7.2 16,16l0,192c0,8.8 -7.2,16 -16,16l-32,0z" fill="#788f9b"/>
        <path d="M48,224l0,96c0,8.8 -7.2,16 -16,16l-32,0l0,-112z" fill="#546e7a"/>
    </g>
</svg>