<?xml version="1.0" encoding="UTF-8" standalone="no"?>
<!-- Created with Inkscape (http://www.inkscape.org/) -->

<svg
   xmlns:dc="http://purl.org/dc/elements/1.1/"
   xmlns:cc="http://creativecommons.org/ns#"
   xmlns:rdf="http://www.w3.org/1999/02/22-rdf-syntax-ns#"
   xmlns:svg="http://www.w3.org/2000/svg"
   xmlns="http://www.w3.org/2000/svg"
   xmlns:sodipodi="http://sodipodi.sourceforge.net/DTD/sodipodi-0.dtd"
   xmlns:inkscape="http://www.inkscape.org/namespaces/inkscape"
   width="512"
   height="512"
   viewBox="0 0 512.00001 512.00001"
   id="svg2"
   version="1.1"
   inkscape:version="0.91 r13725"
   sodipodi:docname="text_code_line_pause.svg">
  <defs
     id="defs4" />
  <sodipodi:namedview
     id="base"
     pagecolor="#ffffff"
     bordercolor="#666666"
     borderopacity="1.0"
     inkscape:pageopacity="0.0"
     inkscape:pageshadow="2"
     inkscape:zoom="1.1196396"
     inkscape:cx="113.45123"
     inkscape:cy="256.96028"
     inkscape:document-units="px"
     inkscape:current-layer="layer1"
     showgrid="false"
     units="px"
     inkscape:window-width="1920"
     inkscape:window-height="1017"
     inkscape:window-x="1912"
     inkscape:window-y="-8"
     inkscape:window-maximized="1" />
  <metadata
     id="metadata7">
    <rdf:RDF>
      <cc:Work
         rdf:about="">
        <dc:format>image/svg+xml</dc:format>
        <dc:type
           rdf:resource="http://purl.org/dc/dcmitype/StillImage" />
        <dc:title />
      </cc:Work>
    </rdf:RDF>
  </metadata>
  <g
     inkscape:label="Ebene 1"
     inkscape:groupmode="layer"
     id="layer1"
     transform="translate(0,-540.36216)">
    <polygon
       style="fill:#dff3fd"
       points="448,512 64,512 64,0 448,0 "
       id="polygon4192"
       transform="matrix(1.0416666,0,0,0.78125,-66.666671,540.36216)" />
    <path
       style="fill:#445a64"
       d="m 35.937504,570.04966 0,25.60096 112.253286,0 0,-25.60096 -112.253286,0 z m 48.108554,51.20192 0,25.60096 176.398022,0 0,-25.60096 -176.398022,0 z m 64.144732,51.20192 0,25.60096 192.43421,0 0,-25.60096 -192.43421,0 z m 0,51.20192 0,25.60097 112.25329,0 0,-25.60097 -112.25329,0 z m -64.144732,51.20193 0,25.60096 144.325652,0 0,-25.60096 -144.325652,0 z m 0,51.20192 0,25.60097 112.253292,0 0,-25.60097 -112.253292,0 z m 0,51.20193 0,25.60099 192.434212,0 0,-25.60099 -192.434212,0 z"
       id="path4200"
       inkscape:connector-curvature="0" />
    <g
       id="g4389">
      <path
         id="path4374"
         d="m 273.36364,772.36216 68.18182,0 c 6.25,0 11.36363,4.5 11.36363,10 l 0,260.00004 c 0,5.5 -5.11363,10 -11.36363,10 l -68.18182,0 c -6.25,0 -11.36364,-4.5 -11.36364,-10 l 0,-260.00004 c 0,-5.5 5.11364,-10 11.36364,-10 z m 159.09091,0 68.18181,0 c 6.25,0 11.36364,4.5 11.36364,10 l 0,260.00004 c 0,5.5 -5.11364,10 -11.36364,10 l -68.18181,0 c -6.25,0 -11.36364,-4.5 -11.36364,-10 l 0,-260.00004 c 0,-5.5 5.11364,-10 11.36364,-10 z"
         inkscape:connector-curvature="0"
         style="fill:#0299e3;fill-opacity:1;stroke:#000000;stroke-opacity:1;stroke-width:0;stroke-miterlimit:4;stroke-dasharray:none" />
      <path
         id="path4376"
         d="m 352.90909,912.36216 0,130.00004 c 0,5.5 -5.11363,10 -11.36363,10 l -68.18182,0 c -6.25,0 -11.36364,-4.5 -11.36364,-10 l 0,-130.00004 z m 68.18182,0 90.90909,0 0,130.00004 c 0,5.5 -5.11364,10 -11.36364,10 l -68.18181,0 c -6.25,0 -11.36364,-4.5 -11.36364,-10 z"
         inkscape:connector-curvature="0"
         style="fill:#027cb8;fill-opacity:1" />
    </g>
  </g>
</svg>
