<svg x="0" y="0" width="512" height="512" version="1.1"
    xmlns="http://www.w3.org/2000/svg"
    xmlns:xlink="http://www.w3.org/1999/xlink" viewBox="0 0 512 512">
    <title>link broken icon</title>
    <desc>link broken icon from the IconExperience.com G-Collection. Copyright by INCORS GmbH (www.incors.com).</desc>
    <g>
        <path d="M412,230.25l-60.45,14c-58.2,13.5 -116.7,-22.95 -130.2,-81.2l0,0c-13.5,-58.25 22.95,-116.75 81.2,-130.25l60.4,-14c58.25,-13.5 116.75,23 130.25,81.2l0,0.05c13.5,58.2 -23,116.7 -81.2,130.2z M397.95,169.85c24.9,-5.75 40.6,-30.95 34.85,-55.8c-5.8,-24.9 -30.95,-40.6 -55.85,-34.85l-60.4,14.05c-24.9,5.75 -40.6,30.9 -34.8,55.8c5.75,24.9 30.9,40.55 55.8,34.8z M24.05,346.4l23.5,-57.4c22.65,-55.35 86.25,-82 141.55,-59.35l0,0c55.35,22.65 82,86.25 59.35,141.55l-23.5,57.4c-22.65,55.3 -86.25,81.95 -141.55,59.35l0,0c-55.3,-22.65 -81.95,-86.25 -59.35,-141.55z M81.45,369.85c-9.65,23.65 1.8,51 25.45,60.7c23.65,9.65 51,-1.8 60.65,-25.45l23.5,-57.4c9.7,-23.65 -1.8,-51 -25.45,-60.65c-23.6,-9.7 -50.95,1.8 -60.65,25.4z" fill="#788f9b"/>
        <path d="M221.35,163.05l60.4,-14l0,0c5.75,24.9 30.9,40.55 55.8,34.8l60.4,-14c24.9,-5.75 40.6,-30.95 34.85,-55.8l60.4,-14l0,0c13.5,58.2 -23,116.7 -81.2,130.2l-60.45,14c-58.2,13.5 -116.7,-22.95 -130.2,-81.2z M189.1,229.65l0,0c55.35,22.65 82,86.25 59.35,141.55l-23.5,57.4c-22.65,55.3 -86.25,81.95 -141.55,59.35l0,0l23.5,-57.4l0,0c23.65,9.65 51,-1.8 60.65,-25.45l23.5,-57.4c9.7,-23.65 -1.8,-51 -25.45,-60.65z" fill="#546e7a"/>
        <path d="M203.85,135.25l101.1,-23.4c16.65,-3.85 33.35,6.55 37.2,23.2l0,0c3.85,16.65 -6.55,33.35 -23.2,37.2l-110.35,25.6l-10.85,-17.75l16.95,-27.15z M125.2,304l42.9,-104.85l20.7,1.4l12.35,29.5l20.75,1.4l-39.35,96.05c-6.45,15.8 -24.6,23.4 -40.4,16.95l0,0c-15.85,-6.5 -23.45,-24.65 -16.95,-40.45z" fill="#afbdc3"/>
        <path d="M206.2,166.55l135.95,-31.5c3.85,16.65 -6.55,33.35 -23.2,37.2l-110.35,25.6l-10.85,-17.75z M142.15,344.45l52.85,-129.15l6.15,14.75l20.75,1.4l-39.35,96.05c-6.45,15.8 -24.6,23.4 -40.4,16.95z" fill="#8fa3ad"/>
        <path d="M173.6,48l4.8,0c3.55,0 6.65,1.4 9,4.05c2.35,2.7 3.35,5.9 2.9,9.45l-6.35,51c-0.5,4 -3.9,7 -7.95,7c-4.05,0 -7.45,-3 -7.95,-7l-6.35,-51c-0.45,-3.55 0.55,-6.75 2.9,-9.45c2.35,-2.65 5.45,-4.05 9,-4.05z M95.1,82.5l3.4,-3.4c2.55,-2.5 5.7,-3.7 9.25,-3.5c3.55,0.25 6.5,1.8 8.7,4.6l31.55,40.6c2.5,3.2 2.25,7.7 -0.65,10.55c-2.85,2.9 -7.35,3.15 -10.55,0.65l-40.6,-31.55c-2.8,-2.2 -4.35,-5.15 -4.6,-8.7c-0.2,-3.55 1,-6.7 3.5,-9.25z M64,162.4l0,-4.8c0,-3.55 1.4,-6.65 4.05,-9c2.7,-2.35 5.9,-3.35 9.45,-2.9l51,6.35c4,0.5 7,3.9 7,7.95c0,4.05 -3,7.45 -7,7.95l-51,6.35c-3.55,0.45 -6.75,-0.55 -9.45,-2.9c-2.65,-2.35 -4.05,-5.45 -4.05,-9z" fill="#f37c00"/>
    </g>
</svg>