<svg x="0" y="0" width="512" height="512" version="1.1"
    xmlns="http://www.w3.org/2000/svg"
    xmlns:xlink="http://www.w3.org/1999/xlink" viewBox="0 0 512 512">
    <title>camera icon</title>
    <desc>camera icon from the IconExperience.com G-Collection. Copyright by INCORS GmbH (www.incors.com).</desc>
    <g>
        <path d="M64,160l0,-24c0,-4.4 3.6,-8 8,-8l64,0c4.4,0 8,3.6 8,8l0,24z" fill="#788f9b"/>
        <path d="M392.05,84.1l23.95,59.9l-32,16l-160,0l-32,-16l23.95,-59.9c4.95,-12.4 16.35,-20.1 29.7,-20.1l116.7,0c13.35,0 24.75,7.7 29.7,20.1z" fill="#546e7a"/>
        <path d="M32,144l448,0c17.65,0 32,14.35 32,32l0,272c0,17.65 -14.35,32 -32,32l-448,0c-17.65,0 -32,-14.35 -32,-32l0,-272c0,-17.65 14.35,-32 32,-32z" fill="#546e7a"/>
        <polygon points="240,96 368,96 368,128 240,128" fill="#ffffff"/>
        <polygon points="368,96 368,128 240,128" fill="#ebedef"/>
        <path d="M456,176c13.25,0 24,10.75 24,24c0,13.25 -10.75,24 -24,24c-13.25,0 -24,-10.75 -24,-24c0,-13.25 10.75,-24 24,-24z" fill="#cdd7db"/>
        <path d="M472.95,183.05c9.4,9.35 9.4,24.55 0,33.9c-9.35,9.4 -24.55,9.4 -33.9,0z" fill="#afbdc3"/>
        <path d="M304,160c-88.35,0 -160,71.65 -160,160c0,88.35 71.65,160 160,160c88.35,0 160,-71.65 160,-160c0,-88.35 -71.65,-160 -160,-160z" fill="#8fa3ad"/>
        <path d="M190.85,433.15c28.95,28.95 68.95,46.85 113.15,46.85c88.35,0 160,-71.65 160,-160c0,-44.2 -17.9,-84.2 -46.85,-113.15z" fill="#788f9b"/>
        <path d="M304,176c-79.55,0 -144,64.45 -144,144c0,79.55 64.45,144 144,144c79.55,0 144,-64.45 144,-144c0,-79.55 -64.45,-144 -144,-144z" fill="#445a64"/>
        <path d="M202.2,421.8c26.05,26.1 62.05,42.2 101.8,42.2c79.55,0 144,-64.45 144,-144c0,-39.75 -16.1,-75.75 -42.2,-101.8z" fill="#36464e"/>
        <path d="M304,208c61.85,0 112,50.15 112,112c0,61.85 -50.15,112 -112,112c-61.85,0 -112,-50.15 -112,-112c0,-61.85 50.15,-112 112,-112z" fill="#0299e3"/>
        <path d="M383.2,240.8c20.25,20.25 32.8,48.25 32.8,79.2c0,61.85 -50.15,112 -112,112c-30.95,0 -58.95,-12.55 -79.2,-32.8z" fill="#0287cf"/>
        <path d="M304,224c53,0 96,43 96,96c0,53 -43,96 -96,96c-53,0 -96,-43 -96,-96c0,-53 43,-96 96,-96z" fill="#4ec1f5"/>
        <path d="M371.9,252.1c17.35,17.4 28.1,41.4 28.1,67.9c0,53 -43,96 -96,96c-26.5,0 -50.5,-10.75 -67.9,-28.1z" fill="#28b5f5"/>
        <path d="M0,208l64,0c35.25,0 64,28.75 64,64l0,208l-96,0c-17.6,0 -32,-14.35 -32,-32z" fill="#445a64"/>
    </g>
</svg>