<svg x="0" y="0" width="512" height="512" version="1.1"
    xmlns="http://www.w3.org/2000/svg"
    xmlns:xlink="http://www.w3.org/1999/xlink" viewBox="0 0 512 512">
    <title>clipboard checks icon</title>
    <desc>clipboard checks icon from the IconExperience.com G-Collection. Copyright by INCORS GmbH (www.incors.com).</desc>
    <g>
        <path d="M80,64l352,0c8.8,0 16,7.2 16,16l0,416c0,8.8 -7.2,16 -16,16l-352,0c-8.8,0 -16,-7.2 -16,-16l0,-416c0,-8.8 7.2,-16 16,-16z" fill="#ff8d00"/>
        <path d="M443.65,69.05c2.7,2.9 4.35,6.75 4.35,10.95l0,416c0,8.8 -7.2,16 -16,16l-352,0c-4.6,0 -8.75,-1.95 -11.65,-5.05z" fill="#ff6e00"/>
        <polygon points="96,96 416,96 416,480 96,480" fill="#ffffff"/>
        <polygon points="416,101.35 416,480 96,480 96,474.65 379.45,144 128,144 128,80 384,80 384,138.65" fill="#ebedef"/>
        <path d="M327.4,300.3l33.9,33.95l-124.45,124.45l-67.85,-67.9l33.95,-33.95l33.9,33.95z M327.4,141.6l33.9,33.9l-124.45,124.45l-67.85,-67.85l33.95,-33.95l33.9,33.95z" fill="#66b96a"/>
        <path d="M344.35,158.55l16.95,16.95l-124.45,124.45l-67.85,-67.85l16.95,-17l50.9,50.95z M344.35,317.25l16.95,17l-124.45,124.45l-67.85,-67.9l16.95,-16.95l50.9,50.9z" fill="#429f46"/>
        <path d="M256,0c28.45,0 53.95,12.35 71.55,32l40.45,0c8.8,0 16,7.2 16,16l0,80l-256,0l0,-80c0,-8.8 7.2,-16 16,-16l40.45,0c17.6,-19.65 43.1,-32 71.55,-32z M256,16c8.85,0 16,7.15 16,16c0,8.85 -7.15,16 -16,16c-8.85,0 -16,-7.15 -16,-16c0,-8.85 7.15,-16 16,-16z" fill="#788f9b"/>
        <polygon points="128,80 384,80 384,128 128,128" fill="#546e7a"/>
    </g>
</svg>