<?xml version="1.0" encoding="UTF-8" standalone="no"?>
<svg
   xmlns:dc="http://purl.org/dc/elements/1.1/"
   xmlns:cc="http://creativecommons.org/ns#"
   xmlns:rdf="http://www.w3.org/1999/02/22-rdf-syntax-ns#"
   xmlns:svg="http://www.w3.org/2000/svg"
   xmlns="http://www.w3.org/2000/svg"
   xmlns:sodipodi="http://sodipodi.sourceforge.net/DTD/sodipodi-0.dtd"
   xmlns:inkscape="http://www.inkscape.org/namespaces/inkscape"
   version="1.1"
   width="512"
   height="512"
   viewBox="0 0 512 512"
   enable-background="new 0 0 24.00 24.00"
   xml:space="preserve"
   id="svg4"
   sodipodi:docname="collapse-all2.svg"
   inkscape:version="0.92.4 (5da689c313, 2019-01-14)"><metadata
   id="metadata10"><rdf:RDF><cc:Work
       rdf:about=""><dc:format>image/svg+xml</dc:format><dc:type
         rdf:resource="http://purl.org/dc/dcmitype/StillImage" /><dc:title></dc:title></cc:Work></rdf:RDF></metadata><defs
   id="defs8" /><sodipodi:namedview
   pagecolor="#333333"
   bordercolor="#666666"
   borderopacity="1"
   objecttolerance="10"
   gridtolerance="10"
   guidetolerance="10"
   inkscape:pageopacity="0"
   inkscape:pageshadow="2"
   inkscape:window-width="1617"
   inkscape:window-height="844"
   id="namedview6"
   showgrid="false"
   fit-margin-top="0"
   fit-margin-left="0"
   fit-margin-right="0"
   fit-margin-bottom="0"
   inkscape:zoom="0.5"
   inkscape:cx="108.51469"
   inkscape:cy="257.35629"
   inkscape:window-x="2179"
   inkscape:window-y="23"
   inkscape:window-maximized="0"
   inkscape:current-layer="svg4" />
	
<path
   id="path915"
   d="m 307.2,51.2 h -256 v 256 H 0 V 51.2 C 0,23.04 23.04,0 51.2,0 h 256 z m 102.4,51.2 h -256 c -28.16,0 -51.2,23.04 -51.2,51.2 v 256 h 51.2 v -256 h 256 z M 512,256 v 204.8 c 0,28.16 -23.04,51.2 -51.2,51.2 H 256 c -28.16,0 -51.2,-23.04 -51.2,-51.2 V 256 c 0,-28.16 23.04,-51.2 51.2,-51.2 h 204.8 c 28.16,0 51.2,23.04 51.2,51.2 z m -51.2,76.8 H 256 V 384 h 204.8 z"
   inkscape:connector-curvature="0"
   style="fill:#f3501e;fill-opacity:1;stroke-width:1.33333015;stroke-linejoin:miter" /></svg>