<svg x="0" y="0" width="512" height="512" version="1.1"
    xmlns="http://www.w3.org/2000/svg"
    xmlns:xlink="http://www.w3.org/1999/xlink" viewBox="0 0 512 512">
    <title>folder icon</title>
    <desc>folder icon from the IconExperience.com G-Collection. Copyright by INCORS GmbH (www.incors.com).</desc>
    <g>
        <path d="M186.35,77.8l14.05,20.4c6.15,8.9 15.45,13.8 26.3,13.8l261.3,0c4.4,0 8,3.6 8,8l0,352c0,4.4 -3.6,8 -8,8l-464,0c-4.4,0 -8,-3.6 -8,-8l0,-400c0,-4.4 3.6,-8 8,-8l136,0c10.85,0 20.2,4.9 26.35,13.8z" fill="#ffb100"/>
        <path d="M165.55,176l-141.55,0c-4.4,0 -8,3.6 -8,8l0,288c0,4.4 3.6,8 8,8l464,0c4.4,0 8,-3.6 8,-8l0,-320c0,-4.4 -3.6,-8 -8,-8l-265.05,0c-9.35,0 -17.4,3.55 -23.7,10.5l-10,11.05c-6.3,6.9 -14.35,10.45 -23.7,10.45z" fill="#ffd34e"/>
        <path d="M18.7,478c1.4,1.25 3.25,2 5.3,2l464,0c4.4,0 8,-3.6 8,-8l0,-320c0,-2.35 -1.05,-4.5 -2.7,-6z" fill="#ffc928"/>
    </g>
</svg>