<?xml version="1.0" encoding="UTF-8" standalone="no"?>
<svg
   width="144.5mm"
   height="144.5mm"
   version="1.1"
   viewBox="0 0 512 512"
   xml:space="preserve"
   id="svg14"
   sodipodi:docname="interrupt_sequence3.svg"
   inkscape:version="1.2.1 (9c6d41e410, 2022-07-14)"
   xmlns:inkscape="http://www.inkscape.org/namespaces/inkscape"
   xmlns:sodipodi="http://sodipodi.sourceforge.net/DTD/sodipodi-0.dtd"
   xmlns="http://www.w3.org/2000/svg"
   xmlns:svg="http://www.w3.org/2000/svg"><defs
     id="defs18" /><sodipodi:namedview
     id="namedview16"
     pagecolor="#ffffff"
     bordercolor="#666666"
     borderopacity="1.0"
     inkscape:showpageshadow="2"
     inkscape:pageopacity="0.0"
     inkscape:pagecheckerboard="0"
     inkscape:deskcolor="#d1d1d1"
     inkscape:document-units="mm"
     showgrid="false"
     inkscape:zoom="0.15277829"
     inkscape:cx="29.454447"
     inkscape:cy="307.63533"
     inkscape:window-width="1920"
     inkscape:window-height="1009"
     inkscape:window-x="-8"
     inkscape:window-y="-8"
     inkscape:window-maximized="1"
     inkscape:current-layer="svg14" /><style
     id="style2" /><path
     d="M 0,0 H 326.29682 V 53.124184 H 0 Z m 0,132.81046 h 326.29682 v 53.12418 H 0 Z M 0,265.62092 H 217.53954 V 318.7451 H 0 Z"
     fill="#8b8b8b"
     id="path4"
     style="stroke-width:1" /><g
     transform="matrix(1.0714,0,0,1.0714,-36.557863,-615.4985)"
     id="g10"><path
       d="m 273.36,772.36 h 68.182 c 6.25,0 11.364,4.5 11.364,10 v 260 c 0,5.5 -5.1136,10 -11.364,10 H 273.36 c -6.25,0 -11.364,-4.5 -11.364,-10 v -260 c 0,-5.5 5.1136,-10 11.364,-10 z m 159.09,0 h 68.182 c 6.25,0 11.364,4.5 11.364,10 v 260 c 0,5.5 -5.1136,10 -11.364,10 H 432.45 c -6.25,0 -11.364,-4.5 -11.364,-10 v -260 c 0,-5.5 5.1136,-10 11.364,-10 z"
       fill="#0299e3"
       stroke-width="0"
       id="path6" /><path
       d="m 352.91,912.36 v 130 c 0,5.5 -5.1136,10 -11.364,10 h -68.182 c -6.25,0 -11.364,-4.5 -11.364,-10 v -130 z m 68.182,0 h 90.909 v 130 c 0,5.5 -5.1136,10 -11.364,10 h -68.182 c -6.25,0 -11.364,-4.5 -11.364,-10 z"
       fill="#027cb8"
       stroke-width="0.875"
       id="path8" /></g></svg>
