<?xml version="1.0" encoding="UTF-8"?>
<svg width="512" height="512" version="1.1" viewBox="0 0 512 512" xml:space="preserve" xmlns="http://www.w3.org/2000/svg"><title>code php icon</title><desc>code php icon from the IconExperience.com G-Collection. Copyright by INCORS GmbH (www.incors.com).</desc><g transform="matrix(0 1 -.52157 0 343.96 382.98)" stroke-width="1.3846"><g transform="matrix(1.3441,0,0,1.3441,-421.6,-184.33)" stroke-width="1.5479"><path d="m313.66 137.14v380.91h96v-380.91z" fill="#4ec1f5"/><path d="m361.66 137.14v380.91h48v-380.91z" fill="#0299e3"/></g></g><g transform="translate(-4e-7 -33.279)" stroke-width=".7263"><polygon transform="matrix(0,1.3768,-1.3768,0,707.61,-164.98)" points="368 256 288 256 288 512 224 512 224 256 144 256 256 144" fill="#85d435"/><polygon transform="matrix(0,1.3768,-1.3768,0,707.61,-164.98)" points="288 512 288 256 368 256 256 144 256 512" fill="#68ba1c"/></g></svg>
