<?xml version="1.0" encoding="UTF-8"?>
<svg width="512" height="512" version="1.1" viewBox="0 0 512 512" xmlns="http://www.w3.org/2000/svg">
 <title>history2 icon</title>
 <desc>history2 icon from the IconExperience.com G-Collection. Copyright by INCORS GmbH (www.incors.com).</desc>
 <g transform="translate(0,-32)">
  <polygon points="512 32 512 400 176 400 176 32" fill="#8fa3ad"/>
  <polygon points="512 400 176 400 512 32" fill="#788f9b"/>
  <path d="m192 80h64v64h-64zm0 240h64v64h-64zm80 0h64v64h-64zm80 0h64v64h-64zm80 0h64v64h-64zm-240-80h64v64h-64zm80 0h64v64h-64zm80 0h64v64h-64zm80 0h64v64h-64zm-240-80h64v64h-64zm80 0h64v64h-64zm80 0h64v64h-64zm80 0h64v64h-64zm-160-80h64v64h-64zm80 0h64v64h-64zm80 0h64v64h-64z" fill="#fff"/>
  <path d="m192 382.5 57.05-62.5h6.95v64h-64zm80-87.65 50.1-54.85h13.9v64h-64zm80-87.6 43.15-47.25h20.85v64h-64zm57.75-63.25 6.25-6.85v6.85zm22.25-24.4 36.15-39.6h27.85v64h-64zm-160 200.4h64v64h-64zm80 0h64v64h-64zm80 0h64v64h-64zm-80-80h64v64h-64zm80 0h64v64h-64zm0-80h64v64h-64z" fill="#ebedef"/>
  <polygon points="16 288 0 272 0 208 16 192 0 176 0 112 16 96 272 96 288 112 288 176 272 192 288 208 288 272 272 288 288 304 288 368 272 384 288 400 288 464 272 480 16 480 0 464 0 400 16 384 0 368 0 304" fill="#4ec1f5"/>
  <polygon points="16 384 0 368 144 368 144 288 16 288 0 272 144 272 144 192 16 192 0 176 144 176 144 96 272 96 288 112 288 176 272 192 288 208 288 272 272 288 288 304 288 368 272 384 288 400 288 464 272 480 16 480 0 464 144 464 144 384" fill="#0299e3"/>
 </g>
 <g transform="translate(-332.18 334)">
  <path d="m706.3-62.317c1.7251-0.77906 3.2275-1.9476 4.5074-3.5614l24.485-30.495c1.1686-1.4468 2.7267-2.2815 4.6187-2.3928 7.9575-0.38953 15.47 0.946 22.259 3.951 6.789 3.0049 12.91 7.6237 18.03 13.745 1.1686 1.5025 1.6138 3.1719 1.3355 5.0082l-5.8986 38.675c-0.33388 2.0033-0.16694 3.951 0.44518 5.7316 2.2259 2.3372 4.2848 4.7857 6.2325 7.2898 1.7251 0.89036 3.6171 1.3355 5.6204 1.3355l39.12 0.1113c1.8364 0 3.4501 0.72341 4.73 2.1146 5.2865 6.0099 8.9035 12.743 10.796 19.866 1.9476 7.1785 2.1146 14.802 0.50082 22.648-0.38953 1.892-1.4468 3.2832-3.0606 4.1735l-33.889 19.476c-1.7807 1.0573-3.1719 2.3928-4.2292 3.951-0.44517 3.2275-1.0573 6.3438-1.8364 9.46 0.38953 1.8364 1.2242 3.6171 2.5041 5.2308l24.262 30.606c1.1129 1.4468 1.6138 3.1719 1.2799 5.0082-1.3912 7.9019-4.3961 14.913-8.7923 20.868-4.3961 5.9542-10.295 10.851-17.418 14.468-1.6694 0.89036-3.4501 0.89036-5.1752 0.22259l-36.338-14.357c-1.892-0.72341-3.8396-1.0016-5.7317-0.8347-2.7267 1.6138-5.6204 3.1162-8.514 4.5074-1.2242 1.4468-2.059 3.1719-2.5598 5.1752l-8.7922 38.063c-0.44518 1.7807-1.4468 3.2275-3.1162 4.1179-7.0115 3.8396-14.357 5.8986-21.814 6.1212-7.4011 0.27823-14.858-1.2242-22.148-4.5631-1.7251-0.77906-2.838-2.1146-3.3945-3.8953l-11.463-37.395c-0.55647-1.9476-1.5581-3.6171-2.838-4.9526-3.0606-1.1686-6.0099-2.4485-8.8479-3.8953-1.892-0.0557-3.784 0.38953-5.6204 1.2242l-35.28 16.861c-1.6694 0.77907-3.3945 0.89036-5.1752 0.16695-7.3454-3.1162-13.578-7.568-18.364-13.244-4.8413-5.6204-8.2914-12.409-10.239-20.2-0.44518-1.8364-0.1113-3.5614 0.946-5.0639l22.036-32.275c1.1686-1.6694 1.8364-3.4501 2.1146-5.3421-1.0016-3.0606-1.7807-6.1768-2.5041-9.3487-1.1129-1.5025-2.6154-2.7267-4.4518-3.6171l-35.169-17.084c-1.6694-0.77907-2.838-2.1146-3.3388-3.8953-2.1702-7.735-2.5041-15.359-1.113-22.648s4.5631-14.246 9.4044-20.589c1.1686-1.5025 2.7267-2.2815 4.5631-2.4485l39.009-2.838c2.0033-0.16694 3.8953-0.72341 5.5091-1.7251 1.7807-2.6711 3.6727-5.2308 5.676-7.6793 0.50082-1.8364 0.50082-3.8396 0.0557-5.7873l-8.5697-38.174c-0.38953-1.7807-0.11129-3.5058 1.0016-5.0639 4.6744-6.5107 10.406-11.519 16.972-14.969 6.5664-3.4501 13.967-5.3421 21.981-5.5091 1.892 0 3.5058 0.72341 4.73 2.0589l26.544 28.714c1.3912 1.5025 3.0049 2.5598 4.7856 3.2275 3.2275-0.27823 6.3994-0.38953 9.627-0.33388zm-1.3912 62.325c-19.643 0-35.614 15.971-35.614 35.614s15.971 35.614 35.614 35.614 35.614-15.971 35.614-35.614-15.971-35.614-35.614-35.614z" fill="#f98b00"/>
  <path d="m775.47-34.939c0.0557 1.113 0.27824 2.2259 0.61212 3.2832 2.2259 2.3372 4.2848 4.7857 6.2325 7.2898 1.7251 0.89036 3.6171 1.3355 5.6204 1.3355l39.12 0.1113c1.8364 0 3.4501 0.72341 4.73 2.1146 5.2865 6.0099 8.9035 12.743 10.796 19.866 1.9476 7.1785 2.1146 14.802 0.50082 22.648-0.38953 1.892-1.4468 3.2832-3.0606 4.1735l-33.889 19.476c-1.7807 1.0573-3.1719 2.3928-4.2292 3.951-0.44517 3.2275-1.0573 6.3438-1.8364 9.46 0.38953 1.8364 1.2242 3.6171 2.5041 5.2308l24.262 30.606c1.1129 1.4468 1.6138 3.1719 1.2799 5.0082-1.3912 7.9019-4.3961 14.913-8.7923 20.868-4.3961 5.9542-10.295 10.851-17.418 14.468-1.6694 0.89036-3.4501 0.89036-5.1752 0.22259l-36.338-14.357c-1.892-0.72341-3.8396-1.0016-5.7317-0.8347-2.7267 1.6138-5.6204 3.1162-8.514 4.5074-1.2242 1.4468-2.059 3.1719-2.5598 5.1752l-8.7922 38.063c-0.44518 1.7807-1.4468 3.2275-3.1162 4.1179-7.0115 3.8396-14.357 5.8986-21.814 6.1212-7.4011 0.27823-14.858-1.2242-22.148-4.5631-1.7251-0.77906-2.838-2.1146-3.3945-3.8953l-11.463-37.395c-0.55647-1.9476-1.5581-3.6171-2.838-4.9526-3.0606-1.1686-6.0099-2.4485-8.8479-3.8953-1.892-0.0557-3.784 0.38953-5.6204 1.2242l-35.28 16.861c-1.6694 0.77907-3.3945 0.89036-5.1752 0.16695-3.7284-1.6138-7.1785-3.5058-10.295-5.7873l74.901-74.901c6.4551 6.3994 15.359 10.406 25.208 10.406 19.643 0 35.614-15.971 35.614-35.614 0-9.8496-4.0066-18.753-10.406-25.208z" fill="#f37c00"/>
  <path d="m704.91-53.413c49.192 0 89.035 39.843 89.035 89.035s-39.843 89.035-89.035 89.035-89.035-39.843-89.035-89.035 39.843-89.035 89.035-89.035zm0 35.614c-29.493 0-53.421 23.928-53.421 53.421s23.928 53.421 53.421 53.421 53.421-23.928 53.421-53.421-23.928-53.421-53.421-53.421z" fill="#ffb54c"/>
  <path d="m767.85-27.315c16.138 16.082 26.099 38.341 26.099 62.937 0 49.192-39.843 89.035-89.035 89.035-24.596 0-46.855-9.9608-62.937-26.099l25.153-25.153c9.6826 9.6826 23.038 15.637 37.784 15.637 29.493 0 53.421-23.928 53.421-53.421 0-14.746-5.9542-28.102-15.637-37.784z" fill="#ffa526"/>
 </g>
</svg>
