<?xml version="1.0" encoding="UTF-8"?>
<svg width="512" height="512" version="1.1" viewBox="0 0 512 512" xmlns="http://www.w3.org/2000/svg">
 <title>history2 icon</title>
 <desc>history2 icon from the IconExperience.com G-Collection. Copyright by INCORS GmbH (www.incors.com).</desc>
 <g transform="translate(0,-32)">
  <polygon points="512 32 512 400 176 400 176 32" fill="#8fa3ad"/>
  <polygon points="512 400 176 400 512 32" fill="#788f9b"/>
  <path d="m192 80h64v64h-64zm0 240h64v64h-64zm80 0h64v64h-64zm80 0h64v64h-64zm80 0h64v64h-64zm-240-80h64v64h-64zm80 0h64v64h-64zm80 0h64v64h-64zm80 0h64v64h-64zm-240-80h64v64h-64zm80 0h64v64h-64zm80 0h64v64h-64zm80 0h64v64h-64zm-160-80h64v64h-64zm80 0h64v64h-64zm80 0h64v64h-64z" fill="#fff"/>
  <path d="m192 382.5 57.05-62.5h6.95v64h-64zm80-87.65 50.1-54.85h13.9v64h-64zm80-87.6 43.15-47.25h20.85v64h-64zm57.75-63.25 6.25-6.85v6.85zm22.25-24.4 36.15-39.6h27.85v64h-64zm-160 200.4h64v64h-64zm80 0h64v64h-64zm80 0h64v64h-64zm-80-80h64v64h-64zm80 0h64v64h-64zm0-80h64v64h-64z" fill="#ebedef"/>
  <polygon points="16 288 0 272 0 208 16 192 0 176 0 112 16 96 272 96 288 112 288 176 272 192 288 208 288 272 272 288 288 304 288 368 272 384 288 400 288 464 272 480 16 480 0 464 0 400 16 384 0 368 0 304" fill="#4ec1f5"/>
  <polygon points="16 384 0 368 144 368 144 288 16 288 0 272 144 272 144 192 16 192 0 176 144 176 144 96 272 96 288 112 288 176 272 192 288 208 288 272 272 288 288 304 288 368 272 384 288 400 288 464 272 480 16 480 0 464 144 464 144 384" fill="#0299e3"/>
 </g>
 <path d="m502.04 387.5a114.54 114.54 0 0 1-114.54 114.54 114.54 114.54 0 0 1-114.54-114.54 114.54 114.54 0 0 1 114.54-114.54 114.54 114.54 0 0 1 114.54 114.54z" color="#000000" fill="#fff" stroke-miterlimit="10" stroke-width="8" style="-inkscape-stroke:none"/>
 <path d="m387.5 263c-68.641 0-124.5 55.859-124.5 124.5 0 68.641 55.859 124.5 124.5 124.5 68.641 0 124.5-55.859 124.5-124.5 0-68.641-55.859-124.5-124.5-124.5zm0 19.92c57.876 0 104.58 46.704 104.58 104.58 0 57.876-46.704 104.58-104.58 104.58-57.876 0-104.58-46.704-104.58-104.58 0-57.876 46.704-104.58 104.58-104.58z" color="#000000" fill="#394a53" stroke-miterlimit="10" style="-inkscape-stroke:none"/>
 <circle cx="387.5" cy="387.5" r="65.009" fill="#f30c0c" stroke-width=".80435"/>
</svg>
