<?xml version="1.0" encoding="UTF-8" standalone="no"?>
<svg
   xmlns:dc="http://purl.org/dc/elements/1.1/"
   xmlns:cc="http://creativecommons.org/ns#"
   xmlns:rdf="http://www.w3.org/1999/02/22-rdf-syntax-ns#"
   xmlns:svg="http://www.w3.org/2000/svg"
   xmlns="http://www.w3.org/2000/svg"
   xmlns:sodipodi="http://sodipodi.sourceforge.net/DTD/sodipodi-0.dtd"
   xmlns:inkscape="http://www.inkscape.org/namespaces/inkscape"
   x="0"
   y="0"
   width="512"
   height="512"
   version="1.1"
   viewBox="0 0 512 512"
   id="svg4180"
   inkscape:version="0.92.3 (2405546, 2018-03-11)"
   sodipodi:docname="plot_export2.svg">
  <metadata
     id="metadata4198">
    <rdf:RDF>
      <cc:Work
         rdf:about="">
        <dc:format>image/svg+xml</dc:format>
        <dc:type
           rdf:resource="http://purl.org/dc/dcmitype/StillImage" />
        <dc:title>document empty icon</dc:title>
      </cc:Work>
    </rdf:RDF>
  </metadata>
  <defs
     id="defs4196" />
  <sodipodi:namedview
     pagecolor="#ffffff"
     bordercolor="#666666"
     borderopacity="1"
     objecttolerance="10"
     gridtolerance="10"
     guidetolerance="10"
     inkscape:pageopacity="0"
     inkscape:pageshadow="2"
     inkscape:window-width="1920"
     inkscape:window-height="1017"
     id="namedview4194"
     showgrid="false"
     inkscape:zoom="0.4609375"
     inkscape:cx="-432.68124"
     inkscape:cy="256"
     inkscape:window-x="1912"
     inkscape:window-y="-8"
     inkscape:window-maximized="1"
     inkscape:current-layer="svg4180" />
  <title
     id="title4182">document empty icon</title>
  <desc
     id="desc4184">document empty icon from the IconExperience.com G-Collection. Copyright by INCORS GmbH (www.incors.com).</desc>
  <g
     id="g899"
     transform="matrix(0.94791667,0,0,0.94791667,-60.666667,0)"
     style="stroke-width:1.05494511">
    <g
       id="g4186"
       style="stroke-width:1.05494511">
      <path
         id="path4188"
         d="M 288,0 H 72 c -4.4,0 -8,3.6 -8,8 v 496 c 0,4.4 3.6,8 8,8 h 368 c 4.4,0 8,-3.6 8,-8 V 160 c 0,-8.85 -3.6,-16.85 -9.4,-22.65 L 310.65,9.4 C 304.85,3.6 296.85,0 288,0 Z"
         inkscape:connector-curvature="0"
         style="fill:#dff3fd;stroke-width:1.05494511" />
      <path
         id="path4190"
         d="M 66.1,509.35 C 67.55,511 69.65,512 72,512 h 368 c 4.4,0 8,-3.6 8,-8 V 160 c 0,-8.85 -3.6,-16.85 -9.4,-22.65 C 432.8,131.6 424.8,128 416,128 h -48 z"
         inkscape:connector-curvature="0"
         style="fill:#b1e3fb;stroke-width:1.05494511" />
      <path
         id="path4192"
         d="M 438.6,137.35 C 432.8,131.6 424.8,128 416,128 h -88 c -4.4,0 -8,-3.6 -8,-8 V 32 c 0,-8.5 -3.4,-16.6 -9.4,-22.6 z"
         inkscape:connector-curvature="0"
         style="fill:#28b5f5;stroke-width:1.05494511" />
    </g>
    <path
       d="m 114.24693,154.03393 h 277.53996 c 12.75673,0 23.12834,10.37161 23.12834,23.12832 v 277.53997 c 0,12.75672 -10.37161,23.12833 -23.12834,23.12833 H 114.24693 c -12.75671,0 -23.128324,-10.37161 -23.128324,-23.12833 V 177.16225 c 0,-12.75671 10.371614,-23.12832 23.128324,-23.12832 z"
       id="path5328"
       inkscape:connector-curvature="0"
       style="fill:#ffffff;fill-opacity:0.55972697;stroke-width:1.05494511" />
    <path
       inkscape:connector-curvature="0"
       id="polygon5336"
       d="m 237.40696,177.51172 c -13.58468,20.93873 -26.99083,42.64444 -40.68874,63.10351 -11.55291,-6.14519 -24.53284,-10.56167 -32.70687,-21.77231 -10.67835,-11.1091 -21.35668,-22.2182 -32.03503,-33.3273 -13.60283,9.47347 -27.23503,18.90114 -40.857714,28.34376 0,10.59309 0,21.18619 0,31.77929 12.562154,-8.70819 25.125894,-17.41389 37.688664,-26.12109 10.99855,10.54627 20.39053,23.24862 32.58248,32.26248 14.75143,7.6695 29.4905,15.28203 44.18225,23.05392 9.42815,-14.71167 18.85656,-29.42316 28.28481,-44.13476 9.38881,23.98241 18.16697,48.31413 27.99569,72.05273 14.10062,14.54925 28.09458,29.20654 42.15498,43.79688 17.12853,-5.89724 34.24325,-11.83666 51.36173,-17.76563 12.8243,21.44514 29.29137,40.76848 36.8828,65.07915 6.09837,16.54463 12.2589,33.10705 20.12236,48.85249 2.17064,-21.44081 1.29154,-43.06784 1.07763,-64.54687 -5.97896,-20.35979 -20.04202,-36.34781 -30.57147,-54.16406 -5.6896,-8.87258 -11.36906,-17.75199 -17.0411,-26.63672 -18.27563,6.37547 -36.57355,12.68137 -54.86306,19.01367 -9.45384,-10.4501 -20.32936,-19.75451 -28.80179,-31.01815 -14.24764,-37.00423 -28.49258,-74.00958 -42.74191,-111.0131 -0.67524,1.05404 -1.35047,2.10807 -2.02571,3.16211 z"
       style="fill:#ff9f00;stroke-width:1.05494511" />
    <path
       inkscape:connector-curvature="0"
       id="polygon5340"
       d="m 410.7423,233.6534 c -8.50152,10.06975 -19.73796,17.88194 -26.53701,29.36866 -10.8224,22.34977 -21.64481,44.69954 -32.4672,67.04931 -17.84484,6.14629 -35.68918,12.29415 -53.53434,18.43946 -7.74151,16.11655 -15.56491,32.19112 -23.35372,48.28125 -10.87122,-39.34993 -21.7208,-78.70581 -32.64717,-118.03907 -14.84535,15.34559 -29.69455,30.6872 -44.5414,46.03125 -11.89112,-6.15482 -23.77046,-12.33254 -35.69019,-18.42773 -12.20677,12.59954 -24.41387,25.19873 -36.62577,37.79297 -12.01904,-4.12539 -24.03737,-8.25298 -36.056867,-12.37696 0,9.26303 0,18.52605 0,27.78907 14.350607,4.92708 28.697157,9.86626 43.057687,14.76172 11.57667,-11.96289 23.15335,-23.92579 34.73003,-35.88868 11.89689,6.13826 23.80443,12.25306 35.67319,18.44922 8.93814,-9.24089 17.88038,-18.47753 26.8201,-27.71679 12.89829,46.68511 25.77725,93.37397 38.73132,140.04101 16.0446,-33.03814 32.01494,-66.11462 48.00398,-99.18164 17.83547,-6.14218 35.66992,-12.28748 53.506,-18.42773 12.78368,-25.64942 24.53703,-51.90226 37.81652,-77.25 6.08078,-3.90583 7.66384,-11.76779 6.41869,-18.5918 0,-8.50586 0,-17.01172 0,-25.51758 -1.10129,1.13802 -2.20256,2.27604 -3.30385,3.41406 z"
       style="fill:#28b5f5;stroke-width:1.05494511" />
  </g>
  <polygon
     style="fill:#67d600;fill-opacity:1;stroke:none;stroke-opacity:1;stroke-width:1.88976378;stroke-miterlimit:4;stroke-dasharray:none"
     points="256,0 128,128 208,128 208,240 304,240 304,128 384,128 "
     id="polygon857"
     transform="rotate(90,191.99999,320)" />
</svg>
