<?xml version="1.0" encoding="UTF-8" standalone="no"?>
<!-- Created with Inkscape (http://www.inkscape.org/) -->

<svg
   xmlns:dc="http://purl.org/dc/elements/1.1/"
   xmlns:cc="http://creativecommons.org/ns#"
   xmlns:rdf="http://www.w3.org/1999/02/22-rdf-syntax-ns#"
   xmlns:svg="http://www.w3.org/2000/svg"
   xmlns="http://www.w3.org/2000/svg"
   xmlns:sodipodi="http://sodipodi.sourceforge.net/DTD/sodipodi-0.dtd"
   xmlns:inkscape="http://www.inkscape.org/namespaces/inkscape"
   width="144.49777mm"
   height="144.49777mm"
   viewBox="0 0 511.99998 511.99998"
   id="svg5048"
   version="1.1"
   inkscape:version="0.91 r13725"
   sodipodi:docname="text_code_colored_new.svg">
  <defs
     id="defs5050" />
  <sodipodi:namedview
     id="base"
     pagecolor="#ffffff"
     bordercolor="#666666"
     borderopacity="1.0"
     inkscape:pageopacity="0.0"
     inkscape:pageshadow="2"
     inkscape:zoom="0.40727392"
     inkscape:cx="340.68476"
     inkscape:cy="219.7088"
     inkscape:document-units="px"
     inkscape:current-layer="layer1"
     showgrid="false"
     fit-margin-top="0"
     fit-margin-left="0"
     fit-margin-right="0"
     fit-margin-bottom="0"
     inkscape:window-width="1920"
     inkscape:window-height="1017"
     inkscape:window-x="1912"
     inkscape:window-y="-8"
     inkscape:window-maximized="1" />
  <metadata
     id="metadata5053">
    <rdf:RDF>
      <cc:Work
         rdf:about="">
        <dc:format>image/svg+xml</dc:format>
        <dc:type
           rdf:resource="http://purl.org/dc/dcmitype/StillImage" />
        <dc:title />
      </cc:Work>
    </rdf:RDF>
  </metadata>
  <g
     inkscape:label="Ebene 1"
     inkscape:groupmode="layer"
     id="layer1"
     transform="translate(387.99343,-121.26205)">
    <polygon
       style="fill:#dff3fd"
       points="64,512 64,0 448,0 448,512 "
       id="polygon4192"
       transform="matrix(1.0416666,0,0,0.78125,-342.6601,233.26203)" />
    <polygon
       style="fill:#ffc928"
       points="448,224 448,272 64,272 64,224 "
       id="polygon4196"
       transform="matrix(1.0416667,0,0,1.0904948,-342.6601,106.17868)" />
    <path
       style="fill:#445a64"
       d="m -240.05593,262.94953 0,25.60096 112.25329,0 0,-25.60096 -112.25329,0 z m 48.10855,51.20192 0,25.60096 176.398028,0 0,-25.60096 -176.398028,0 z m 64.14474,51.20192 0,25.60096 192.43421,0 0,-25.60096 -192.43421,0 z m 0,51.20192 0,25.60097 112.253288,0 0,-25.60097 -112.253288,0 z m -64.14474,51.20193 0,25.60096 144.325661,0 0,-25.60096 -144.325661,0 z m 0,51.20192 0,25.60097 112.253294,0 0,-25.60097 -112.253294,0 z m 0,51.20193 0,25.60099 192.43421563,0 0,-25.60099 -192.43421563,0 z"
       id="path4200"
       inkscape:connector-curvature="0" />
    <g
       id="g4988"
       transform="matrix(0.6,0,0,0.6,-397.59343,111.66203)">
      <polygon
         id="polygon4990"
         points="487.8,193.9 456.5,229.6 496,256 456.5,282.4 487.8,318.1 442.85,333.4 463.85,376 416.45,379.1 425.7,425.7 379.1,416.45 376,463.85 333.4,442.85 318.1,487.8 282.4,456.5 256,496 229.6,456.5 193.9,487.8 178.6,442.85 136,463.85 132.9,416.45 86.3,425.7 95.55,379.1 48.15,376 69.15,333.4 24.2,318.1 55.5,282.4 16,256 55.5,229.6 24.2,193.9 69.15,178.6 48.15,136 95.55,132.9 86.3,86.3 132.9,95.55 136,48.15 178.6,69.15 193.9,24.2 229.6,55.5 256,16 282.4,55.5 318.1,24.2 333.4,69.15 376,48.15 379.1,95.55 425.7,86.3 416.45,132.9 463.85,136 442.85,178.6 "
         style="fill:#ff8d00" />
      <polygon
         id="polygon4992"
         points="463.85,376 416.45,379.1 425.7,425.7 379.1,416.45 376,463.85 333.4,442.85 318.1,487.8 282.4,456.5 256,496 229.6,456.5 193.9,487.8 178.6,442.85 136,463.85 132.9,416.45 86.3,425.7 425.7,86.3 416.45,132.9 463.85,136 442.85,178.6 487.8,193.9 456.5,229.6 496,256 456.5,282.4 487.8,318.1 442.85,333.4 "
         style="fill:#ff6e00" />
      <path
         id="path4994"
         d="m 256,44.8 -13.1,19.55 c -5.4,8.1 -16.55,9.55 -23.85,3.15 l -17.7,-15.5 -7.6,22.3 c -3.15,9.2 -13.5,13.5 -22.2,9.2 L 150.4,73.1 148.85,96.6 c -0.65,9.7 -9.55,16.55 -19.1,14.65 l -23.1,-4.6 4.6,23.1 c 1.9,9.55 -4.95,18.45 -14.65,19.1 l -23.5,1.55 10.4,21.15 c 4.3,8.7 0,19.05 -9.2,22.2 l -22.3,7.6 15.5,17.7 c 6.4,7.3 4.95,18.45 -3.15,23.85 L 44.8,256 64.35,269.1 c 8.1,5.4 9.55,16.55 3.15,23.85 l -15.5,17.7 22.3,7.6 c 9.2,3.15 13.5,13.5 9.2,22.2 l -10.4,21.15 23.5,1.55 c 9.7,0.65 16.55,9.55 14.65,19.1 l -4.6,23.1 23.1,-4.6 c 9.55,-1.9 18.45,4.95 19.1,14.65 l 1.55,23.5 21.15,-10.4 c 8.7,-4.3 19.05,0 22.2,9.2 l 7.6,22.3 17.7,-15.5 c 7.3,-6.4 18.45,-4.95 23.85,3.15 l 13.1,19.55 13.1,-19.55 c 5.4,-8.1 16.55,-9.55 23.85,-3.15 l 17.7,15.5 7.6,-22.3 c 3.15,-9.2 13.5,-13.5 22.2,-9.2 l 21.15,10.4 1.55,-23.5 c 0.65,-9.7 9.55,-16.55 19.1,-14.65 l 23.1,4.6 -4.6,-23.1 c -1.9,-9.55 4.95,-18.45 14.65,-19.1 l 23.5,-1.55 -10.4,-21.15 c -4.3,-8.7 0,-19.05 9.2,-22.2 l 22.3,-7.6 -15.5,-17.7 c -6.4,-7.3 -4.95,-18.45 3.15,-23.85 L 467.2,256 447.65,242.9 c -8.1,-5.4 -9.55,-16.55 -3.15,-23.85 l 15.5,-17.7 -22.3,-7.6 c -9.2,-3.15 -13.5,-13.5 -9.2,-22.2 l 10.4,-21.15 -23.5,-1.55 c -9.7,-0.65 -16.55,-9.55 -14.65,-19.1 l 4.6,-23.1 -23.1,4.6 c -9.55,1.9 -18.45,-4.95 -19.1,-14.65 L 361.6,73.1 340.45,83.5 c -8.7,4.3 -19.05,0 -22.2,-9.2 l -7.6,-22.3 -17.7,15.5 c -7.3,6.4 -18.45,4.95 -23.85,-3.15 z"
         inkscape:connector-curvature="0"
         style="fill:#ffb100" />
      <path
         id="path4996"
         d="m 106.65,405.35 23.1,-4.6 c 9.55,-1.9 18.45,4.95 19.1,14.65 l 1.55,23.5 21.15,-10.4 c 8.7,-4.3 19.05,0 22.2,9.2 l 7.6,22.3 17.7,-15.5 c 7.3,-6.4 18.45,-4.95 23.85,3.15 l 13.1,19.55 13.1,-19.55 c 5.4,-8.1 16.55,-9.55 23.85,-3.15 l 17.7,15.5 7.6,-22.3 c 3.15,-9.2 13.5,-13.5 22.2,-9.2 l 21.15,10.4 1.55,-23.5 c 0.65,-9.7 9.55,-16.55 19.1,-14.65 l 23.1,4.6 -4.6,-23.1 c -1.9,-9.55 4.95,-18.45 14.65,-19.1 l 23.5,-1.55 -10.4,-21.15 c -4.3,-8.7 0,-19.05 9.2,-22.2 l 22.3,-7.6 -15.5,-17.7 c -6.4,-7.3 -4.95,-18.45 3.15,-23.85 L 467.2,256 447.65,242.9 c -8.1,-5.4 -9.55,-16.55 -3.15,-23.85 l 15.5,-17.7 -22.3,-7.6 c -9.2,-3.15 -13.5,-13.5 -9.2,-22.2 l 10.4,-21.15 -23.5,-1.55 c -9.7,-0.65 -16.55,-9.55 -14.65,-19.1 l 4.6,-23.1 z"
         inkscape:connector-curvature="0"
         style="fill:#ff9f00" />
    </g>
  </g>
</svg>
