<svg x="0" y="0" width="512" height="512" version="1.1"
    xmlns="http://www.w3.org/2000/svg"
    xmlns:xlink="http://www.w3.org/1999/xlink" viewBox="0 0 512 512">
    <title>clock icon</title>
    <desc>clock icon from the IconExperience.com G-Collection. Copyright by INCORS GmbH (www.incors.com).</desc>
    <g>
        <path d="M256,16c-132.55,0 -240,107.45 -240,240c0,132.55 107.45,240 240,240c132.55,0 240,-107.45 240,-240c0,-132.55 -107.45,-240 -240,-240z" fill="#788f9b"/>
        <path d="M86.3,425.7c93.7,93.75 245.7,93.75 339.4,0c93.75,-93.7 93.75,-245.7 0,-339.4z" fill="#546e7a"/>
        <path d="M256,64c106.05,0 192,85.95 192,192c0,106.05 -85.95,192 -192,192c-106.05,0 -192,-85.95 -192,-192c0,-106.05 85.95,-192 192,-192z" fill="#cdd7db"/>
        <path d="M256,80c97.2,0 176,78.8 176,176c0,97.2 -78.8,176 -176,176c-97.2,0 -176,-78.8 -176,-176c0,-97.2 78.8,-176 176,-176z" fill="#ebedef"/>
        <path d="M391.75,120.25c34.75,34.75 56.25,82.75 56.25,135.75c0,106.05 -85.95,192 -192,192c-53,0 -101,-21.5 -135.75,-56.25z" fill="#afbdc3"/>
        <path d="M380.45,131.55c31.85,31.85 51.55,75.85 51.55,124.45c0,97.2 -78.8,176 -176,176c-48.6,0 -92.6,-19.7 -124.45,-51.55z" fill="#cdd7db"/>
        <path d="M259.5,224.2l66.8,-66.75c2.9,-2.95 7.5,-3.15 10.7,-0.55c6.6,5.4 12.7,11.5 18.1,18.1c2.6,3.2 2.4,7.8 -0.55,10.7l-66.75,66.8c0.15,1.15 0.2,2.3 0.2,3.5c0,17.65 -14.35,32 -32,32c-17.65,0 -32,-14.35 -32,-32c0,-1.2 0.05,-2.35 0.2,-3.5l-100.85,-100.85c-2.95,-2.95 -3.1,-7.7 -0.35,-10.9c5.5,-6.35 11.4,-12.25 17.75,-17.75c3.2,-2.75 7.95,-2.6 10.9,0.35l100.85,100.85c1.15,-0.15 2.3,-0.2 3.5,-0.2c1.2,0 2.35,0.05 3.5,0.2z" fill="#f98b00"/>
        <path d="M241.85,270.15l36.8,-36.8l67.85,-67.85c3,3 5.9,6.2 8.6,9.5c2.6,3.2 2.4,7.8 -0.55,10.7l-66.75,66.75c0.15,1.2 0.2,2.35 0.2,3.55c0,17.65 -14.35,32 -32,32c-8.85,0 -16.85,-3.6 -22.65,-9.35z" fill="#f37c00"/>
        <path d="M256,240c8.85,0 16,7.15 16,16c0,8.85 -7.15,16 -16,16c-8.85,0 -16,-7.15 -16,-16c0,-8.85 7.15,-16 16,-16z" fill="#f9f9f9"/>
        <path d="M267.3,244.7c2.9,2.9 4.7,6.9 4.7,11.3c0,8.85 -7.15,16 -16,16c-4.4,0 -8.4,-1.8 -11.3,-4.7z" fill="#ebedef"/>
    </g>
</svg>