<?xml version="1.0" encoding="UTF-8" standalone="no"?>
<svg
   xmlns:dc="http://purl.org/dc/elements/1.1/"
   xmlns:cc="http://creativecommons.org/ns#"
   xmlns:rdf="http://www.w3.org/1999/02/22-rdf-syntax-ns#"
   xmlns:svg="http://www.w3.org/2000/svg"
   xmlns="http://www.w3.org/2000/svg"
   xmlns:sodipodi="http://sodipodi.sourceforge.net/DTD/sodipodi-0.dtd"
   xmlns:inkscape="http://www.inkscape.org/namespaces/inkscape"
   x="0"
   y="0"
   width="512"
   height="512"
   version="1.1"
   viewBox="0 0 512 512"
   id="svg4136"
   inkscape:version="0.91 r13725"
   sodipodi:docname="node_store.svg">
  <metadata
     id="metadata4154">
    <rdf:RDF>
      <cc:Work
         rdf:about="">
        <dc:format>image/svg+xml</dc:format>
        <dc:type
           rdf:resource="http://purl.org/dc/dcmitype/StillImage" />
        <dc:title>elements hierarchy icon</dc:title>
      </cc:Work>
    </rdf:RDF>
  </metadata>
  <defs
     id="defs4152" />
  <sodipodi:namedview
     pagecolor="#ffffff"
     bordercolor="#666666"
     borderopacity="1"
     objecttolerance="10"
     gridtolerance="10"
     guidetolerance="10"
     inkscape:pageopacity="0"
     inkscape:pageshadow="2"
     inkscape:window-width="1920"
     inkscape:window-height="1017"
     id="namedview4150"
     showgrid="false"
     inkscape:zoom="0.26390158"
     inkscape:cx="124.38588"
     inkscape:cy="351.49118"
     inkscape:window-x="1912"
     inkscape:window-y="-8"
     inkscape:window-maximized="1"
     inkscape:current-layer="svg4136" />
  <title
     id="title4138">elements hierarchy icon</title>
  <desc
     id="desc4140">elements hierarchy icon from the IconExperience.com G-Collection. Copyright by INCORS GmbH (www.incors.com).</desc>
  <g
     id="g7533"
     transform="translate(-48,0)">
    <path
       id="path7535"
       d="m 102.65,416 41.35,0 0,64 -41.35,0 c -4.45,0 -8.2,-1.55 -11.35,-4.7 l -6.6,-6.6 C 81.55,465.55 77.8,464 73.35,464 l -25.35,0 0,-32 25.35,0 c 4.45,0 8.2,-1.55 11.35,-4.7 l 6.6,-6.6 c 3.15,-3.15 6.9,-4.7 11.35,-4.7 z m 0,-96 41.35,0 0,64 -41.35,0 c -4.45,0 -8.2,-1.55 -11.35,-4.7 l -6.6,-6.6 C 81.55,369.55 77.8,368 73.35,368 l -25.35,0 0,-32 25.35,0 c 4.45,0 8.2,-1.55 11.35,-4.7 l 6.6,-6.6 c 3.15,-3.15 6.9,-4.7 11.35,-4.7 z m 0,-96 41.35,0 0,64 -41.35,0 c -4.45,0 -8.2,-1.55 -11.35,-4.7 l -6.6,-6.6 C 81.55,273.55 77.8,272 73.35,272 l -25.35,0 0,-32 25.35,0 c 4.45,0 8.2,-1.55 11.35,-4.7 l 6.6,-6.6 c 3.15,-3.15 6.9,-4.7 11.35,-4.7 z m 0,-96 41.35,0 0,64 -41.35,0 c -4.45,0 -8.2,-1.55 -11.35,-4.7 l -6.6,-6.6 C 81.55,177.55 77.8,176 73.35,176 l -25.35,0 0,-32 25.35,0 c 4.45,0 8.2,-1.55 11.35,-4.7 l 6.6,-6.6 c 3.15,-3.15 6.9,-4.7 11.35,-4.7 z m 0,-96 41.35,0 0,64 -41.35,0 C 98.2,96 94.45,94.45 91.3,91.3 L 84.7,84.7 C 81.55,81.55 77.8,80 73.35,80 L 48,80 48,48 73.35,48 c 4.45,0 8.2,-1.55 11.35,-4.7 l 6.6,-6.6 C 94.45,33.55 98.2,32 102.65,32 Z"
       inkscape:connector-curvature="0"
       style="fill:#cdd7db" />
    <path
       id="path7537"
       d="m 409.35,416 -41.35,0 0,64 41.35,0 c 4.45,0 8.2,-1.55 11.35,-4.7 l 6.6,-6.6 c 3.15,-3.15 6.9,-4.7 11.35,-4.7 l 25.35,0 0,-32 -25.35,0 c -4.45,0 -8.2,-1.55 -11.35,-4.7 l -6.6,-6.6 c -3.15,-3.15 -6.9,-4.7 -11.35,-4.7 z m 0,-96 -41.35,0 0,64 41.35,0 c 4.45,0 8.2,-1.55 11.35,-4.7 l 6.6,-6.6 c 3.15,-3.15 6.9,-4.7 11.35,-4.7 l 25.35,0 0,-32 -25.35,0 c -4.45,0 -8.2,-1.55 -11.35,-4.7 l -6.6,-6.6 c -3.15,-3.15 -6.9,-4.7 -11.35,-4.7 z m 0,-96 -41.35,0 0,64 41.35,0 c 4.45,0 8.2,-1.55 11.35,-4.7 l 6.6,-6.6 c 3.15,-3.15 6.9,-4.7 11.35,-4.7 l 25.35,0 0,-32 -25.35,0 c -4.45,0 -8.2,-1.55 -11.35,-4.7 l -6.6,-6.6 c -3.15,-3.15 -6.9,-4.7 -11.35,-4.7 z m 0,-96 -41.35,0 0,64 41.35,0 c 4.45,0 8.2,-1.55 11.35,-4.7 l 6.6,-6.6 c 3.15,-3.15 6.9,-4.7 11.35,-4.7 l 25.35,0 0,-32 -25.35,0 c -4.45,0 -8.2,-1.55 -11.35,-4.7 l -6.6,-6.6 c -3.15,-3.15 -6.9,-4.7 -11.35,-4.7 z m 0,-96 -41.35,0 0,64 41.35,0 c 4.45,0 8.2,-1.55 11.35,-4.7 l 6.6,-6.6 c 3.15,-3.15 6.9,-4.7 11.35,-4.7 l 25.35,0 0,-32 -25.35,0 c -4.45,0 -8.2,-1.55 -11.35,-4.7 l -6.6,-6.6 C 417.55,33.55 413.8,32 409.35,32 Z"
       inkscape:connector-curvature="0"
       style="fill:#afbdc3" />
    <path
       id="path7539"
       d="m 144,0 224,0 c 8.8,0 16,7.2 16,16 l 0,480 c 0,8.8 -7.2,16 -16,16 l -224,0 c -8.8,0 -16,-7.2 -16,-16 l 0,-480 c 0,-8.8 7.2,-16 16,-16 z"
       inkscape:connector-curvature="0"
       style="fill:#546e7a" />
    <path
       id="path7541"
       d="m 380.8,6.4 c 2,2.7 3.2,6 3.2,9.6 l 0,480 c 0,8.8 -7.2,16 -16,16 l -224,0 c -5.2,0 -9.85,-2.5 -12.8,-6.4 z"
       inkscape:connector-curvature="0"
       style="fill:#445a64" />
    <path
       id="path7543"
       d="m 256,464 c 26.5,0 48,21.5 48,48 l -96,0 c 0,-26.5 21.5,-48 48,-48 z"
       inkscape:connector-curvature="0"
       style="fill:#36464e" />
  </g>
  <g
     id="g7802"
     transform="translate(1753.6129,-607.56955)">
    <polygon
       transform="translate(-1753.6129,607.55294)"
       id="polygon7739"
       points="234.6,462.35 186.95,437.05 161.65,389.4 373.55,177.5 446.5,250.45 "
       style="fill:#ffc928" />
    <polygon
       transform="translate(-1753.6129,607.55294)"
       id="polygon7741"
       points="186.95,437.05 410,214 446.5,250.45 234.6,462.35 "
       style="fill:#ffb100" />
    <polygon
       transform="translate(-1753.6129,607.55294)"
       id="polygon7743"
       points="135.9,488.1 127.05,464.25 161.65,389.4 234.6,462.35 159.75,496.95 "
       style="fill:#ffdfb1" />
    <polygon
       transform="translate(-1753.6129,607.55294)"
       id="polygon7745"
       points="198.15,425.85 234.6,462.35 159.75,496.95 135.9,488.1 "
       style="fill:#ffcb7f" />
    <path
       id="path7747"
       d="m -1626.5629,1071.8029 32.7,32.7 -30.5,14.15 c -4.55,2.1 -9.65,0.4 -13.2,-3.15 -3.55,-3.55 -5.25,-8.65 -3.15,-13.2 z"
       inkscape:connector-curvature="0"
       style="fill:#788f9b" />
    <path
       id="path7749"
       d="m -1637.5629,1115.5029 27.35,-27.35 16.35,16.35 -30.5,14.15 c -4.55,2.1 -9.65,0.4 -13.2,-3.15 z"
       inkscape:connector-curvature="0"
       style="fill:#546e7a" />
    <path
       id="path7751"
       d="m -1300.1129,723.30294 54.75,54.75 c 5,5 5,13.2 0,18.25 l -45.6,45.6 -73,-73 45.6,-45.6 c 5.05,-5 13.25,-5 18.25,0 z"
       inkscape:connector-curvature="0"
       style="fill:#ff7042" />
    <path
       id="path7753"
       d="m -1272.7629,750.70294 27.4,27.35 c 5,5 5,13.2 0,18.25 l -45.6,45.6 -36.5,-36.5 z"
       inkscape:connector-curvature="0"
       style="fill:#f3501e" />
    <polygon
       transform="translate(-1753.6129,607.55294)"
       id="polygon7755"
       points="371.4,179.6 389.65,161.35 462.65,234.35 444.4,252.6 "
       style="fill:#ebedef" />
    <polygon
       transform="translate(-1753.6129,607.55294)"
       id="polygon7757"
       points="407.9,216.1 426.15,197.85 462.65,234.35 444.4,252.6 "
       style="fill:#cdd7db" />
  </g>
</svg>
