<?xml version="1.0" encoding="UTF-8" standalone="no"?>
<!-- Created with Inkscape (http://www.inkscape.org/) -->

<svg
   xmlns:dc="http://purl.org/dc/elements/1.1/"
   xmlns:cc="http://creativecommons.org/ns#"
   xmlns:rdf="http://www.w3.org/1999/02/22-rdf-syntax-ns#"
   xmlns:svg="http://www.w3.org/2000/svg"
   xmlns="http://www.w3.org/2000/svg"
   xmlns:sodipodi="http://sodipodi.sourceforge.net/DTD/sodipodi-0.dtd"
   xmlns:inkscape="http://www.inkscape.org/namespaces/inkscape"
   width="512"
   height="512"
   viewBox="0 0 511.99999 511.99999"
   id="svg2"
   version="1.1"
   inkscape:version="0.91 r13725"
   sodipodi:docname="deviceicon_pressure2.svg">
  <defs
     id="defs4">
    <clipPath
       clipPathUnits="userSpaceOnUse"
       id="clipPath4160">
      <path
         d="m 0,0 841.89,0 0,595.276 L 0,595.276 0,0 Z"
         id="path4162"
         inkscape:connector-curvature="0" />
    </clipPath>
    <clipPath
       clipPathUnits="userSpaceOnUse"
       id="clipPath4174">
      <path
         d="m 0,0 841.89,0 0,595.276 L 0,595.276 0,0 Z"
         id="path4176"
         inkscape:connector-curvature="0" />
    </clipPath>
    <clipPath
       clipPathUnits="userSpaceOnUse"
       id="clipPath4188">
      <path
         d="m 0,0 841.89,0 0,595.276 L 0,595.276 0,0 Z"
         id="path4190"
         inkscape:connector-curvature="0" />
    </clipPath>
    <clipPath
       clipPathUnits="userSpaceOnUse"
       id="clipPath4202">
      <path
         d="m 0,0 841.89,0 0,595.276 L 0,595.276 0,0 Z"
         id="path4204"
         inkscape:connector-curvature="0" />
    </clipPath>
    <clipPath
       clipPathUnits="userSpaceOnUse"
       id="clipPath4216">
      <path
         d="m 0,0 841.89,0 0,595.276 L 0,595.276 0,0 Z"
         id="path4218"
         inkscape:connector-curvature="0" />
    </clipPath>
    <clipPath
       clipPathUnits="userSpaceOnUse"
       id="clipPath4234">
      <path
         d="m 0,0 841.89,0 0,595.276 L 0,595.276 0,0 Z"
         id="path4236"
         inkscape:connector-curvature="0" />
    </clipPath>
    <clipPath
       clipPathUnits="userSpaceOnUse"
       id="clipPath4541">
      <path
         d="m 0,0 841.89,0 0,595.276 L 0,595.276 0,0 Z"
         id="path4543"
         inkscape:connector-curvature="0" />
    </clipPath>
    <clipPath
       clipPathUnits="userSpaceOnUse"
       id="clipPath4555">
      <path
         d="m 0,0 841.89,0 0,595.276 L 0,595.276 0,0 Z"
         id="path4557"
         inkscape:connector-curvature="0" />
    </clipPath>
    <clipPath
       clipPathUnits="userSpaceOnUse"
       id="clipPath4569">
      <path
         d="m 0,0 841.89,0 0,595.276 L 0,595.276 0,0 Z"
         id="path4571"
         inkscape:connector-curvature="0" />
    </clipPath>
    <clipPath
       clipPathUnits="userSpaceOnUse"
       id="clipPath4583">
      <path
         d="m 0,0 841.89,0 0,595.276 L 0,595.276 0,0 Z"
         id="path4585"
         inkscape:connector-curvature="0" />
    </clipPath>
    <clipPath
       clipPathUnits="userSpaceOnUse"
       id="clipPath4597">
      <path
         d="m 0,0 841.89,0 0,595.276 L 0,595.276 0,0 Z"
         id="path4599"
         inkscape:connector-curvature="0" />
    </clipPath>
    <clipPath
       clipPathUnits="userSpaceOnUse"
       id="clipPath4615">
      <path
         d="m 0,0 841.89,0 0,595.276 L 0,595.276 0,0 Z"
         id="path4617"
         inkscape:connector-curvature="0" />
    </clipPath>
    <clipPath
       clipPathUnits="userSpaceOnUse"
       id="clipPath4160-8">
      <path
         d="m 0,0 841.89,0 0,595.276 L 0,595.276 0,0 Z"
         id="path4162-1"
         inkscape:connector-curvature="0" />
    </clipPath>
    <clipPath
       clipPathUnits="userSpaceOnUse"
       id="clipPath4174-2">
      <path
         d="m 0,0 841.89,0 0,595.276 L 0,595.276 0,0 Z"
         id="path4176-6"
         inkscape:connector-curvature="0" />
    </clipPath>
    <clipPath
       clipPathUnits="userSpaceOnUse"
       id="clipPath4188-9">
      <path
         d="m 0,0 841.89,0 0,595.276 L 0,595.276 0,0 Z"
         id="path4190-7"
         inkscape:connector-curvature="0" />
    </clipPath>
    <clipPath
       clipPathUnits="userSpaceOnUse"
       id="clipPath4202-6">
      <path
         d="m 0,0 841.89,0 0,595.276 L 0,595.276 0,0 Z"
         id="path4204-2"
         inkscape:connector-curvature="0" />
    </clipPath>
    <clipPath
       clipPathUnits="userSpaceOnUse"
       id="clipPath4216-6">
      <path
         d="m 0,0 841.89,0 0,595.276 L 0,595.276 0,0 Z"
         id="path4218-6"
         inkscape:connector-curvature="0" />
    </clipPath>
    <clipPath
       clipPathUnits="userSpaceOnUse"
       id="clipPath4234-5">
      <path
         d="m 0,0 841.89,0 0,595.276 L 0,595.276 0,0 Z"
         id="path4236-9"
         inkscape:connector-curvature="0" />
    </clipPath>
    <clipPath
       clipPathUnits="userSpaceOnUse"
       id="clipPath4541-1">
      <path
         d="m 0,0 841.89,0 0,595.276 L 0,595.276 0,0 Z"
         id="path4543-3"
         inkscape:connector-curvature="0" />
    </clipPath>
    <clipPath
       clipPathUnits="userSpaceOnUse"
       id="clipPath4555-0">
      <path
         d="m 0,0 841.89,0 0,595.276 L 0,595.276 0,0 Z"
         id="path4557-0"
         inkscape:connector-curvature="0" />
    </clipPath>
    <clipPath
       clipPathUnits="userSpaceOnUse"
       id="clipPath4569-4">
      <path
         d="m 0,0 841.89,0 0,595.276 L 0,595.276 0,0 Z"
         id="path4571-0"
         inkscape:connector-curvature="0" />
    </clipPath>
    <clipPath
       clipPathUnits="userSpaceOnUse"
       id="clipPath4583-5">
      <path
         d="m 0,0 841.89,0 0,595.276 L 0,595.276 0,0 Z"
         id="path4585-7"
         inkscape:connector-curvature="0" />
    </clipPath>
    <clipPath
       clipPathUnits="userSpaceOnUse"
       id="clipPath4597-6">
      <path
         d="m 0,0 841.89,0 0,595.276 L 0,595.276 0,0 Z"
         id="path4599-2"
         inkscape:connector-curvature="0" />
    </clipPath>
    <clipPath
       clipPathUnits="userSpaceOnUse"
       id="clipPath4615-2">
      <path
         d="m 0,0 841.89,0 0,595.276 L 0,595.276 0,0 Z"
         id="path4617-0"
         inkscape:connector-curvature="0" />
    </clipPath>
    <clipPath
       clipPathUnits="userSpaceOnUse"
       id="clipPath4160-2">
      <path
         d="m 0,0 841.89,0 0,595.276 L 0,595.276 0,0 Z"
         id="path4162-9"
         inkscape:connector-curvature="0" />
    </clipPath>
    <clipPath
       clipPathUnits="userSpaceOnUse"
       id="clipPath4174-7">
      <path
         d="m 0,0 841.89,0 0,595.276 L 0,595.276 0,0 Z"
         id="path4176-8"
         inkscape:connector-curvature="0" />
    </clipPath>
    <clipPath
       clipPathUnits="userSpaceOnUse"
       id="clipPath4188-4">
      <path
         d="m 0,0 841.89,0 0,595.276 L 0,595.276 0,0 Z"
         id="path4190-0"
         inkscape:connector-curvature="0" />
    </clipPath>
    <clipPath
       clipPathUnits="userSpaceOnUse"
       id="clipPath4202-9">
      <path
         d="m 0,0 841.89,0 0,595.276 L 0,595.276 0,0 Z"
         id="path4204-6"
         inkscape:connector-curvature="0" />
    </clipPath>
    <clipPath
       clipPathUnits="userSpaceOnUse"
       id="clipPath4216-9">
      <path
         d="m 0,0 841.89,0 0,595.276 L 0,595.276 0,0 Z"
         id="path4218-0"
         inkscape:connector-curvature="0" />
    </clipPath>
    <clipPath
       clipPathUnits="userSpaceOnUse"
       id="clipPath4234-3">
      <path
         d="m 0,0 841.89,0 0,595.276 L 0,595.276 0,0 Z"
         id="path4236-3"
         inkscape:connector-curvature="0" />
    </clipPath>
    <clipPath
       clipPathUnits="userSpaceOnUse"
       id="clipPath4541-4">
      <path
         d="m 0,0 841.89,0 0,595.276 L 0,595.276 0,0 Z"
         id="path4543-4"
         inkscape:connector-curvature="0" />
    </clipPath>
    <clipPath
       clipPathUnits="userSpaceOnUse"
       id="clipPath4555-3">
      <path
         d="m 0,0 841.89,0 0,595.276 L 0,595.276 0,0 Z"
         id="path4557-8"
         inkscape:connector-curvature="0" />
    </clipPath>
    <clipPath
       clipPathUnits="userSpaceOnUse"
       id="clipPath4569-7">
      <path
         d="m 0,0 841.89,0 0,595.276 L 0,595.276 0,0 Z"
         id="path4571-04"
         inkscape:connector-curvature="0" />
    </clipPath>
    <clipPath
       clipPathUnits="userSpaceOnUse"
       id="clipPath4583-9">
      <path
         d="m 0,0 841.89,0 0,595.276 L 0,595.276 0,0 Z"
         id="path4585-3"
         inkscape:connector-curvature="0" />
    </clipPath>
    <clipPath
       clipPathUnits="userSpaceOnUse"
       id="clipPath4597-1">
      <path
         d="m 0,0 841.89,0 0,595.276 L 0,595.276 0,0 Z"
         id="path4599-9"
         inkscape:connector-curvature="0" />
    </clipPath>
    <clipPath
       clipPathUnits="userSpaceOnUse"
       id="clipPath4615-0">
      <path
         d="m 0,0 841.89,0 0,595.276 L 0,595.276 0,0 Z"
         id="path4617-4"
         inkscape:connector-curvature="0" />
    </clipPath>
    <clipPath
       clipPathUnits="userSpaceOnUse"
       id="clipPath4160-7">
      <path
         d="m 0,0 841.89,0 0,595.276 L 0,595.276 0,0 Z"
         id="path4162-18"
         inkscape:connector-curvature="0" />
    </clipPath>
    <clipPath
       clipPathUnits="userSpaceOnUse"
       id="clipPath4174-0">
      <path
         d="m 0,0 841.89,0 0,595.276 L 0,595.276 0,0 Z"
         id="path4176-0"
         inkscape:connector-curvature="0" />
    </clipPath>
    <clipPath
       clipPathUnits="userSpaceOnUse"
       id="clipPath4188-6">
      <path
         d="m 0,0 841.89,0 0,595.276 L 0,595.276 0,0 Z"
         id="path4190-00"
         inkscape:connector-curvature="0" />
    </clipPath>
    <clipPath
       clipPathUnits="userSpaceOnUse"
       id="clipPath4202-94">
      <path
         d="m 0,0 841.89,0 0,595.276 L 0,595.276 0,0 Z"
         id="path4204-0"
         inkscape:connector-curvature="0" />
    </clipPath>
    <clipPath
       clipPathUnits="userSpaceOnUse"
       id="clipPath4216-2">
      <path
         d="m 0,0 841.89,0 0,595.276 L 0,595.276 0,0 Z"
         id="path4218-9"
         inkscape:connector-curvature="0" />
    </clipPath>
    <clipPath
       clipPathUnits="userSpaceOnUse"
       id="clipPath4234-55">
      <path
         d="m 0,0 841.89,0 0,595.276 L 0,595.276 0,0 Z"
         id="path4236-0"
         inkscape:connector-curvature="0" />
    </clipPath>
    <clipPath
       clipPathUnits="userSpaceOnUse"
       id="clipPath4541-6">
      <path
         d="m 0,0 841.89,0 0,595.276 L 0,595.276 0,0 Z"
         id="path4543-8"
         inkscape:connector-curvature="0" />
    </clipPath>
    <clipPath
       clipPathUnits="userSpaceOnUse"
       id="clipPath4555-4">
      <path
         d="m 0,0 841.89,0 0,595.276 L 0,595.276 0,0 Z"
         id="path4557-1"
         inkscape:connector-curvature="0" />
    </clipPath>
    <clipPath
       clipPathUnits="userSpaceOnUse"
       id="clipPath4569-72">
      <path
         d="m 0,0 841.89,0 0,595.276 L 0,595.276 0,0 Z"
         id="path4571-5"
         inkscape:connector-curvature="0" />
    </clipPath>
    <clipPath
       clipPathUnits="userSpaceOnUse"
       id="clipPath4583-0">
      <path
         d="m 0,0 841.89,0 0,595.276 L 0,595.276 0,0 Z"
         id="path4585-38"
         inkscape:connector-curvature="0" />
    </clipPath>
    <clipPath
       clipPathUnits="userSpaceOnUse"
       id="clipPath4597-4">
      <path
         d="m 0,0 841.89,0 0,595.276 L 0,595.276 0,0 Z"
         id="path4599-1"
         inkscape:connector-curvature="0" />
    </clipPath>
    <clipPath
       clipPathUnits="userSpaceOnUse"
       id="clipPath4615-8">
      <path
         d="m 0,0 841.89,0 0,595.276 L 0,595.276 0,0 Z"
         id="path4617-5"
         inkscape:connector-curvature="0" />
    </clipPath>
    <clipPath
       id="clipPath8750"
       clipPathUnits="userSpaceOnUse">
      <path
         inkscape:connector-curvature="0"
         id="path8752"
         d="m 0,0 841.89,0 0,595.276 L 0,595.276 0,0 Z" />
    </clipPath>
    <clipPath
       id="clipPath8764"
       clipPathUnits="userSpaceOnUse">
      <path
         inkscape:connector-curvature="0"
         id="path8766"
         d="m 0,0 841.89,0 0,595.276 L 0,595.276 0,0 Z" />
    </clipPath>
    <clipPath
       id="clipPath8778"
       clipPathUnits="userSpaceOnUse">
      <path
         inkscape:connector-curvature="0"
         id="path8780"
         d="m 0,0 841.89,0 0,595.276 L 0,595.276 0,0 Z" />
    </clipPath>
    <clipPath
       id="clipPath8792"
       clipPathUnits="userSpaceOnUse">
      <path
         inkscape:connector-curvature="0"
         id="path8794"
         d="m 0,0 841.89,0 0,595.276 L 0,595.276 0,0 Z" />
    </clipPath>
    <clipPath
       id="clipPath8806"
       clipPathUnits="userSpaceOnUse">
      <path
         inkscape:connector-curvature="0"
         id="path8808"
         d="m 0,0 841.89,0 0,595.276 L 0,595.276 0,0 Z" />
    </clipPath>
    <clipPath
       id="clipPath8824"
       clipPathUnits="userSpaceOnUse">
      <path
         inkscape:connector-curvature="0"
         id="path8826"
         d="m 0,0 841.89,0 0,595.276 L 0,595.276 0,0 Z" />
    </clipPath>
    <clipPath
       clipPathUnits="userSpaceOnUse"
       id="clipPath4160-9">
      <path
         d="m 0,0 841.89,0 0,595.276 L 0,595.276 0,0 Z"
         id="path4162-99"
         inkscape:connector-curvature="0" />
    </clipPath>
    <clipPath
       clipPathUnits="userSpaceOnUse"
       id="clipPath4174-1">
      <path
         d="m 0,0 841.89,0 0,595.276 L 0,595.276 0,0 Z"
         id="path4176-1"
         inkscape:connector-curvature="0" />
    </clipPath>
    <clipPath
       clipPathUnits="userSpaceOnUse"
       id="clipPath4188-7">
      <path
         d="m 0,0 841.89,0 0,595.276 L 0,595.276 0,0 Z"
         id="path4190-3"
         inkscape:connector-curvature="0" />
    </clipPath>
    <clipPath
       clipPathUnits="userSpaceOnUse"
       id="clipPath4202-2">
      <path
         d="m 0,0 841.89,0 0,595.276 L 0,595.276 0,0 Z"
         id="path4204-9"
         inkscape:connector-curvature="0" />
    </clipPath>
    <clipPath
       clipPathUnits="userSpaceOnUse"
       id="clipPath4216-3">
      <path
         d="m 0,0 841.89,0 0,595.276 L 0,595.276 0,0 Z"
         id="path4218-4"
         inkscape:connector-curvature="0" />
    </clipPath>
    <clipPath
       clipPathUnits="userSpaceOnUse"
       id="clipPath4234-53">
      <path
         d="m 0,0 841.89,0 0,595.276 L 0,595.276 0,0 Z"
         id="path4236-39"
         inkscape:connector-curvature="0" />
    </clipPath>
  </defs>
  <sodipodi:namedview
     id="base"
     pagecolor="#333333"
     bordercolor="#666666"
     borderopacity="1.0"
     inkscape:pageopacity="0"
     inkscape:pageshadow="2"
     inkscape:zoom="0.73"
     inkscape:cx="112.60153"
     inkscape:cy="131.16889"
     inkscape:document-units="px"
     inkscape:current-layer="layer1"
     showgrid="false"
     units="px"
     inkscape:window-width="1920"
     inkscape:window-height="1017"
     inkscape:window-x="1912"
     inkscape:window-y="-8"
     inkscape:window-maximized="1" />
  <metadata
     id="metadata7">
    <rdf:RDF>
      <cc:Work
         rdf:about="">
        <dc:format>image/svg+xml</dc:format>
        <dc:type
           rdf:resource="http://purl.org/dc/dcmitype/StillImage" />
        <dc:title></dc:title>
      </cc:Work>
    </rdf:RDF>
  </metadata>
  <g
     inkscape:label="Ebene 1"
     inkscape:groupmode="layer"
     id="layer1"
     transform="translate(0,-540.36219)">
    <rect
       style="opacity:1;fill:#643ea7;fill-opacity:1;stroke:none;stroke-width:13.59599972;stroke-linecap:round;stroke-linejoin:miter;stroke-miterlimit:4;stroke-dasharray:none;stroke-opacity:1"
       id="rect4762"
       width="512"
       height="512"
       x="0"
       y="540.36218" />
    <path
       inkscape:connector-curvature="0"
       id="path20121"
       style="fill:#ffffff;fill-opacity:1;fill-rule:evenodd;stroke:none"
       d="M 87.826753,949.48449 C 51.335344,903.26727 30.482322,844.18081 32.086227,785.07589 33.443143,735.07965 51.332019,685.02067 89.209106,650.14324 125.96425,616.30152 174.31995,603.6527 223.98161,612.88561 c 46.9432,8.72613 86.65974,34.48382 117.52961,69.27023 19.17927,24.64816 34.06436,52.23128 43.64907,82.00145 8.86881,27.54376 13.0978,56.47995 11.92677,85.34358 -2.09727,51.78225 -21.85468,103.02613 -63.0965,137.17161 -38.48154,31.86312 -88.57496,41.65372 -137.43462,29.98012 -42.86183,-10.2413 -80.03925,-35.05942 -108.729187,-67.16811 z M 219.79076,651.88501 c -32.35702,-5.28068 -63.5873,0.90288 -89.93506,18.30838 -18.95417,25.97173 -28.17921,57.9954 -29.04739,89.98709 -1.197968,44.09312 13.02866,88.33017 38.68672,124.55946 24.54153,34.66095 60.11518,62.45691 102.57354,72.60116 35.15421,8.39952 71.09443,3.08374 100.53864,-16.28693 -30.69889,42.14489 -82.66816,60.29113 -133.69767,48.09911 C 160.95399,977.69642 124.19553,943.96305 96.475632,904.81471 70.819051,868.58541 56.593525,824.34837 57.789892,780.25647 58.88933,739.74408 73.384857,699.18002 104.0771,670.91913 c 29.7836,-27.42197 68.96603,-37.67215 109.20781,-30.18963 42.11149,7.82817 78.51544,33.87001 104.09969,66.75719 4.6386,5.11463 9.00166,10.45314 13.06336,15.96387 13.66978,18.54455 24.27668,39.32168 31.29054,61.10255 8.32513,25.85978 11.6414,53.45151 8.85037,80.50201 -4.41965,20.97511 -13.36841,38.77681 -27.40845,54.90422 l -9.37191,-9.71756 c 22.16465,-25.11196 29.62134,-56.84774 27.35309,-89.67096 -2.50319,-36.22314 -16.89256,-72.09078 -39.26141,-100.60506 -20.07475,-25.58794 -48.48694,-47.35281 -81.08629,-53.24855 -18.94924,-3.42698 -38.06332,-1.12551 -54.91652,8.48257 -15.92574,9.08039 -27.65569,23.42425 -35.15015,40.00806 -8.96033,19.82875 -11.66784,42.15455 -10.17786,63.72631 2.61588,37.85174 17.64033,72.69473 40.70663,102.46861 l -9.43588,7.47268 c -37.8723,-49.30371 -59.31736,-120.65891 -32.25677,-180.54123 8.46732,-18.73644 21.77042,-34.8762 39.75529,-45.13131 12.62053,-7.19468 26.37396,-10.81233 40.45212,-11.31789 z m 36.91443,127.52394 41.59486,-50.40216 6.48493,0.22756 12.90344,16.44728 -48.33933,49.18439 c 0.54739,1.81805 0.89919,3.69637 1.03081,5.58945 0.73804,10.68808 -7.68672,21.41922 -19.10547,19.35393 -1.74424,-0.31489 -3.41222,-0.90655 -4.97687,-1.70857 l -55.3286,54.62254 c -7.66211,7.56494 -13.70791,6.43082 -6.03719,-3.32242 l 50.21396,-63.84191 c -1.09722,-2.6176 -1.78605,-5.40986 -1.98164,-8.23779 -0.73805,-10.69055 7.68425,-21.41923 19.10424,-19.35394 1.54496,0.27922 3.02966,0.77371 4.43686,1.44164 z m 65.3094,-205.7786 c 51.1316,9.50476 95.0439,42.06475 124.97892,82.678 13.82845,18.75736 24.96552,39.47913 33.00649,61.22433 l -82.33235,36.91321 C 366.36235,669.39139 284.63273,598.6992 190.0378,600.16545 l 50.41692,-18.93572 c 24.68015,-8.96353 54.07392,-12.71032 81.55987,-7.59938" />
  </g>
</svg>
