<svg x="0" y="0" width="512" height="512" version="1.1"
    xmlns="http://www.w3.org/2000/svg"
    xmlns:xlink="http://www.w3.org/1999/xlink" viewBox="0 0 512 512">
    <title>garbage full icon</title>
    <desc>garbage full icon from the IconExperience.com G-Collection. Copyright by INCORS GmbH (www.incors.com).</desc>
    <g fill="none" stroke="none" stroke-width="1" stroke-linecap="butt" stroke-linejoin="miter" stroke-miterlimit="4" stroke-dasharray="" stroke-dashoffset="0" font-family="serif" font-weight="400" font-size="16" text-anchor="start" mix-blend-mode="normal">
        <path d="M80,64l352,0c8.8,0 16,7.2 16,16l0,32c0,8.8 -7.2,16 -16,16l-3.7,0l-42.75,369.7c-0.95,8.15 -7.7,14.3 -15.95,14.3l-227.2,0c-8.25,0 -15,-6.15 -15.95,-14.3l-42.75,-369.7l-3.7,0c-8.8,0 -16,-7.2 -16,-16l0,-32c0,-8.8 7.2,-16 16,-16z" fill="#788f9b"/>
        <path d="M256,512l0,-384l-172.3,0l0,0l-3.7,0c-8.8,0 -16,-7.2 -16,-16l192,0l0,-48l176,0c8.8,0 16,7.2 16,16l0,32c0,8.8 -7.2,16 -16,16l-3.7,0l-42.75,369.7c-0.95,8.15 -7.7,14.3 -15.95,14.3z" fill="#546e7a"/>
        <path d="M142.4,496l227.2,0c0,-0.05 0.05,-0.1 0.05,-0.15l42.55,-367.85l-312.4,0l42.55,367.85c0,0.05 0.05,0.1 0.05,0.15z" fill="#ebedef"/>
        <path d="M256,496l113.6,0c0,-0.05 0.05,-0.1 0.05,-0.15l42.55,-367.85l-312.4,0l1.85,16l154.35,0z" fill="#cdd7db"/>
        <path d="M235.85,194.15c51.8,-11.15 102.9,21.9 114,73.7l-31.25,6.75c-7.45,-34.55 -41.5,-56.6 -76,-49.2l3.35,15.65l-38,-24.55l24.55,-38z M362.6,322.4l-15.25,-4.9c-16.3,50.45 -70.4,78.15 -120.85,61.85l9.85,-30.45c33.6,10.85 69.7,-7.6 80.55,-41.25l-15.2,-4.9l40.25,-20.6z M172.9,363.1l11.9,-10.75c-35.55,-39.3 -32.45,-100.05 6.85,-135.55l21.45,23.7c-26.2,23.7 -28.25,64.2 -4.6,90.4l11.9,-10.7l-2.3,45.2z" fill="#85d435"/>
        <path d="M256,192c45.15,-0.05 84.35,31.6 93.85,75.85l-31.25,6.75c-6.35,-29.55 -32.5,-50.65 -62.6,-50.6z M362.6,322.4l-15.25,-4.9c-12.8,39.7 -49.8,66.55 -91.35,66.55l0,-32.05c27.7,0.05 52.35,-17.85 60.9,-44.35l-15.2,-4.9l40.25,-20.6z" fill="#68ba1c"/>
    </g>
</svg>