<?xml version="1.0" encoding="UTF-8"?>
<svg id="mdi-code-array" width="512" height="512" version="1.1" viewBox="0 0 512 512" xml:space="preserve" xmlns="http://www.w3.org/2000/svg"><g><path d="m59.889 3a56.889 56.889 0 0 0-56.889 56.889v398.22c0 31.289 25.316 56.889 56.889 56.889h398.22a56.889 56.889 0 0 0 56.889-56.889v-398.22a56.889 56.889 0 0 0-56.889-56.889z" fill="#cf0f7c"/><path d="m59.889 3a56.889 56.889 0 0 0-56.889 56.889v398.22c0 14.642 5.5921 27.994 14.727 38.104l476.92-479.84a56.889 56.889 0 0 0-36.531-13.373h-398.22z" fill="#ef1090"/><path d="m204.75 68.068-11.639 85.424h-73.784v51.254h66.789l-13.988 102.51h-69.886v51.254h62.892l-11.637 85.424h51.254l11.637-85.424h51.254l-11.637 85.424h51.254l11.637-85.424h73.786v-51.254h-66.792l13.988-102.51h69.889v-51.254h-62.894l11.639-85.424h-51.254l-11.639 85.424h-51.254l11.639-85.424zm32.62 136.68h51.254l-13.988 102.51h-51.254z" fill="#fff"/></g></svg>
