<svg x="0" y="0" width="512" height="512" version="1.1"
    xmlns="http://www.w3.org/2000/svg"
    xmlns:xlink="http://www.w3.org/1999/xlink" viewBox="0 0 512 512">
    <title>sign warning icon</title>
    <desc>sign warning icon from the IconExperience.com G-Collection. Copyright by INCORS GmbH (www.incors.com).</desc>
    <g>
        <path d="M270.5,41l119.6,207.1l119.6,207.15c3.05,5.35 3.05,11.45 0,16.75c-3.1,5.35 -8.35,8.4 -14.5,8.4l-239.2,0l-239.15,0c-6.2,0 -11.45,-3.05 -14.55,-8.4c-3.05,-5.3 -3.05,-11.4 0,-16.75l119.6,-207.15l119.6,-207.1c3.05,-5.35 8.35,-8.4 14.5,-8.4c6.15,0 11.45,3.05 14.5,8.4z" fill="#fbd734"/>
        <path d="M270.5,41l119.6,207.1l119.6,207.15c3.05,5.35 3.05,11.45 0,16.75c-3.1,5.35 -8.35,8.4 -14.5,8.4l-239.2,0l0,-447.8c6.15,0 11.45,3.05 14.5,8.4z" fill="#f9bf2c"/>
        <path d="M278.25,355.3l-43.7,0l-6.9,-159.3l57.45,0z M226.05,404.95c0,-7.9 2.85,-14.35 8.6,-19.45c5.65,-5.05 12.85,-7.6 21.35,-7.6c8.5,0 15.6,2.55 21.35,7.6c5.7,5.1 8.6,11.55 8.6,19.45c0,7.85 -2.9,14.4 -8.6,19.45c-5.75,5.1 -12.85,7.6 -21.35,7.6c-8.5,0 -15.7,-2.5 -21.35,-7.6c-5.75,-5.05 -8.6,-11.6 -8.6,-19.45z" fill="#445a64"/>
        <path d="M278.25,355.3l-22.25,0l0,-159.3l29.1,0z M256,432l0,-54.1c8.5,0 15.6,2.55 21.35,7.6c5.7,5.1 8.6,11.55 8.6,19.45c0,7.85 -2.9,14.4 -8.6,19.45c-5.75,5.1 -12.85,7.6 -21.35,7.6z" fill="#36464e"/>
    </g>
</svg>