<?xml version="1.0" encoding="UTF-8" standalone="no"?>
<svg
   xmlns:dc="http://purl.org/dc/elements/1.1/"
   xmlns:cc="http://creativecommons.org/ns#"
   xmlns:rdf="http://www.w3.org/1999/02/22-rdf-syntax-ns#"
   xmlns:svg="http://www.w3.org/2000/svg"
   xmlns="http://www.w3.org/2000/svg"
   xmlns:sodipodi="http://sodipodi.sourceforge.net/DTD/sodipodi-0.dtd"
   xmlns:inkscape="http://www.inkscape.org/namespaces/inkscape"
   x="0"
   y="0"
   width="512"
   height="512"
   version="1.1"
   viewBox="0 0 512 512"
   id="svg4240"
   inkscape:version="0.91 r13725"
   sodipodi:docname="movie_stop.svg">
  <metadata
     id="metadata4274">
    <rdf:RDF>
      <cc:Work
         rdf:about="">
        <dc:format>image/svg+xml</dc:format>
        <dc:type
           rdf:resource="http://purl.org/dc/dcmitype/StillImage" />
        <dc:title>movie icon</dc:title>
      </cc:Work>
    </rdf:RDF>
  </metadata>
  <defs
     id="defs4272" />
  <sodipodi:namedview
     pagecolor="#ffffff"
     bordercolor="#666666"
     borderopacity="1"
     objecttolerance="10"
     gridtolerance="10"
     guidetolerance="10"
     inkscape:pageopacity="0"
     inkscape:pageshadow="2"
     inkscape:window-width="1920"
     inkscape:window-height="1017"
     id="namedview4270"
     showgrid="false"
     inkscape:zoom="0.4609375"
     inkscape:cx="256"
     inkscape:cy="256"
     inkscape:window-x="1912"
     inkscape:window-y="-8"
     inkscape:window-maximized="1"
     inkscape:current-layer="svg4240" />
  <title
     id="title4242">movie icon</title>
  <desc
     id="desc4244">movie icon from the IconExperience.com G-Collection. Copyright by INCORS GmbH (www.incors.com).</desc>
  <path
     style="fill:#788f9b"
     inkscape:connector-curvature="0"
     id="path4254"
     d="M 208,416 C 93.1,416 0,322.85 0,208 0,93.1 93.1,0 208,0 322.9,0 416,93.1 416,208 416,322.85 322.9,416 208,416 Z" />
  <path
     style="fill:#546e7a"
     inkscape:connector-curvature="0"
     id="path4256"
     d="M 208,416 C 150.55,416 98.55,392.7 60.9,355.1 L 355.1,60.9 C 392.7,98.55 416,150.55 416,208 416,322.85 322.9,416 208,416 Z" />
  <path
     style="fill:#afbdc3"
     inkscape:connector-curvature="0"
     id="path4258"
     d="M 208,400 C 101.95,400 16,314.05 16,208 16,101.95 101.95,16 208,16 c 106.05,0 192,85.95 192,192 0,106.05 -85.95,192 -192,192 z" />
  <path
     style="fill:#8fa3ad"
     inkscape:connector-curvature="0"
     id="path4260"
     d="M 208,400 C 155,400 107,378.5 72.25,343.75 L 343.75,72.25 C 378.5,107 400,155 400,208 400,314.05 314.05,400 208,400 Z" />
  <path
     style="fill:#445a64"
     inkscape:connector-curvature="0"
     id="path4262"
     d="m 160,208 c 0,-8.85 7.15,-16 16,-16 8.85,0 16,7.15 16,16 0,8.85 -7.15,16 -16,16 -8.85,0 -16,-7.15 -16,-16 z m 48,-48 c 8.85,0 16,7.15 16,16 0,8.85 -7.15,16 -16,16 -8.85,0 -16,-7.15 -16,-16 0,-8.85 7.15,-16 16,-16 z" />
  <path
     style="fill:#36464e"
     inkscape:connector-curvature="0"
     id="path4264"
     d="m 256,208 c 0,8.85 -7.15,16 -16,16 -8.85,0 -16,-7.15 -16,-16 0,-8.85 7.15,-16 16,-16 8.85,0 16,7.15 16,16 z m -48,48 c -8.85,0 -16,-7.15 -16,-16 0,-8.85 7.15,-16 16,-16 8.85,0 16,7.15 16,16 0,8.85 -7.15,16 -16,16 z" />
  <path
     style="fill:#546e7a"
     inkscape:connector-curvature="0"
     id="path4266"
     d="m 254.3,38.15 c 41.9,11.4 77.6,37.9 100.85,73.3 4.25,6.45 5.15,13.85 2.6,21.15 -2.55,7.3 -7.85,12.45 -15.2,14.85 L 283.6,166.6 c -3.45,1.15 -7.1,-0.1 -9.15,-3.15 -10.4,-15.55 -26.15,-27.2 -44.65,-32.45 -3.45,-1 -5.8,-4.05 -5.8,-7.7 l 0,-61.95 c 0,-7.75 3.3,-14.4 9.45,-19.1 6.1,-4.7 13.4,-6.1 20.85,-4.1 z m 39.15,158.9 58.95,-19.15 c 7.4,-2.4 14.7,-1.3 21.1,3.1 6.35,4.35 9.95,10.85 10.3,18.6 2.05,42.8 -11.6,85 -38.55,118.55 -4.8,6.05 -11.55,9.15 -19.3,8.95 -7.7,-0.15 -14.25,-3.6 -18.8,-9.85 L 270.7,267.1 c -2.15,-2.95 -2.05,-6.8 0.2,-9.65 11.75,-14.95 17.75,-33.5 17.05,-52.5 -0.15,-3.6 2.05,-6.75 5.5,-7.9 z m -48.6,88.85 36.4,50.15 c 4.55,6.25 5.8,13.55 3.55,21 -2.2,7.4 -7.25,12.85 -14.5,15.55 -40,15.05 -84.6,15.05 -124.6,0 -7.25,-2.7 -12.3,-8.15 -14.5,-15.55 -2.25,-7.4 -1,-14.75 3.55,-21 l 36.4,-50.15 c 2.15,-2.9 5.85,-4.05 9.25,-2.8 17.7,6.5 37.5,6.5 55.2,0 3.4,-1.25 7.1,-0.15 9.25,2.8 z m -99.55,-18.8 -36.45,50.15 c -4.55,6.25 -11.1,9.7 -18.8,9.85 -7.75,0.2 -14.5,-2.95 -19.3,-8.95 C 43.8,284.6 30.15,242.4 32.2,199.6 c 0.35,-7.75 3.95,-14.25 10.3,-18.6 6.4,-4.4 13.7,-5.5 21.1,-3.1 l 58.95,19.15 c 3.45,1.15 5.65,4.3 5.5,7.9 -0.7,19 5.3,37.55 17.05,52.5 2.25,2.85 2.35,6.7 0.2,9.65 z M 132.4,166.6 73.45,147.45 C 66.1,145.05 60.8,139.9 58.25,132.6 55.7,125.3 56.6,117.9 60.85,111.45 84.1,76.05 119.8,49.55 161.7,38.15 c 7.45,-2 14.75,-0.6 20.85,4.1 6.15,4.7 9.45,11.35 9.45,19.1 l 0,61.95 c 0,3.65 -2.35,6.7 -5.8,7.7 -18.5,5.25 -34.25,16.9 -44.65,32.45 -2.05,3.05 -5.7,4.3 -9.15,3.15 z" />
  <path
     style="fill:#445a64"
     inkscape:connector-curvature="0"
     id="path4268"
     d="m 332.45,83.55 c 8.5,8.5 16.1,17.85 22.7,27.9 4.25,6.45 5.15,13.85 2.6,21.15 -2.55,7.3 -7.85,12.45 -15.2,14.85 L 283.6,166.6 c -3.45,1.15 -7.1,-0.1 -9.15,-3.15 -2.9,-4.3 -6.2,-8.35 -9.9,-12 z M 88.9,327.1 l 46.8,-46.8 -26.85,36.95 c -4.55,6.25 -11.1,9.7 -18.8,9.85 -0.4,0 -0.8,0 -1.15,0 z M 293.45,197.05 352.4,177.9 c 7.4,-2.4 14.7,-1.3 21.1,3.1 6.35,4.35 9.95,10.85 10.3,18.6 2.05,42.8 -11.6,85 -38.55,118.55 -4.8,6.05 -11.55,9.15 -19.3,8.95 -7.7,-0.15 -14.25,-3.6 -18.8,-9.85 L 270.7,267.1 c -2.15,-2.95 -2.05,-6.8 0.2,-9.65 11.75,-14.95 17.75,-33.5 17.05,-52.5 -0.15,-3.6 2.05,-6.75 5.5,-7.9 z m -48.6,88.85 36.4,50.15 c 4.55,6.25 5.8,13.55 3.55,21 -2.2,7.4 -7.25,12.85 -14.5,15.55 -40,15.05 -84.6,15.05 -124.6,0 -7.25,-2.7 -12.3,-8.15 -14.5,-15.55 -2.25,-7.4 -1,-14.75 3.55,-21 l 36.4,-50.15 c 2.15,-2.9 5.85,-4.05 9.25,-2.8 17.7,6.5 37.5,6.5 55.2,0 3.4,-1.25 7.1,-0.15 9.25,2.8 z" />
  <path
     id="path4324"
     d="m 293.42858,276.99999 197.14285,0 c 9.06138,0 16.42857,7.36719 16.42857,16.42857 l 0,197.14286 C 507,499.63281 499.63281,507 490.57143,507 l -197.14285,0 C 284.36719,507 277,499.63281 277,490.57142 l 0,-197.14286 c 0,-9.06138 7.36719,-16.42857 16.42858,-16.42857 z"
     inkscape:connector-curvature="0"
     style="fill:#f30c0c;fill-opacity:1;stroke:#b80000;stroke-width:10;stroke-miterlimit:4;stroke-dasharray:none;stroke-opacity:1" />
</svg>
