<?xml version="1.0" encoding="UTF-8" standalone="no"?>
<svg
   xmlns:dc="http://purl.org/dc/elements/1.1/"
   xmlns:cc="http://creativecommons.org/ns#"
   xmlns:rdf="http://www.w3.org/1999/02/22-rdf-syntax-ns#"
   xmlns:svg="http://www.w3.org/2000/svg"
   xmlns="http://www.w3.org/2000/svg"
   xmlns:sodipodi="http://sodipodi.sourceforge.net/DTD/sodipodi-0.dtd"
   xmlns:inkscape="http://www.inkscape.org/namespaces/inkscape"
   x="0"
   y="0"
   width="512"
   height="512"
   version="1.1"
   viewBox="0 0 512 512"
   id="svg867"
   sodipodi:docname="csv_export.svg"
   inkscape:version="0.92.3 (2405546, 2018-03-11)">
  <metadata
     id="metadata873">
    <rdf:RDF>
      <cc:Work
         rdf:about="">
        <dc:format>image/svg+xml</dc:format>
        <dc:type
           rdf:resource="http://purl.org/dc/dcmitype/StillImage" />
        <dc:title>spreadsheet icon</dc:title>
      </cc:Work>
    </rdf:RDF>
  </metadata>
  <defs
     id="defs871" />
  <sodipodi:namedview
     pagecolor="#ffffff"
     bordercolor="#666666"
     borderopacity="1"
     objecttolerance="10"
     gridtolerance="10"
     guidetolerance="10"
     inkscape:pageopacity="0"
     inkscape:pageshadow="2"
     inkscape:window-width="1920"
     inkscape:window-height="1017"
     id="namedview869"
     showgrid="false"
     inkscape:zoom="1.6933594"
     inkscape:cx="256"
     inkscape:cy="256"
     inkscape:window-x="1912"
     inkscape:window-y="-8"
     inkscape:window-maximized="1"
     inkscape:current-layer="svg867" />
  <title
     id="title845">spreadsheet icon</title>
  <desc
     id="desc847">spreadsheet icon from the IconExperience.com G-Collection. Copyright by INCORS GmbH (www.incors.com).</desc>
  <g
     id="g865"
     transform="translate(-32,-32)">
    <polygon
       points="464,432 144,432 144,128 464,128 "
       id="polygon849"
       style="fill:#ffffff" />
    <polygon
       points="464,432 144,432 144,344 376.6,128 464,128 "
       id="polygon851"
       style="fill:#dff3fd" />
    <polygon
       points="128,432 48,432 48,128 128,128 "
       id="polygon853"
       style="fill:#b1e3fb" />
    <polygon
       points="128,432 49.25,432 118.15,368 128,368 "
       id="polygon855"
       style="fill:#7fd3f9" />
    <path
       d="m 464,128 h 16 V 448 H 32 V 128 h 16 v 64 h 80 v -64 h 16 v 64 h 96 v -64 h 16 v 64 h 96 v -64 h 16 v 64 h 96 z M 48,432 h 80 V 368 H 48 Z m 0,-80 h 80 V 288 H 48 Z m 0,-80 h 80 V 208 H 48 Z m 416,160 v -64 h -96 v 64 z m -112,0 v -64 h -96 v 64 z m -112,0 v -64 h -96 v 64 z m 224,-80 v -64 h -96 v 64 z m -112,0 v -64 h -96 v 64 z m -112,0 v -64 h -96 v 64 z m 224,-80 v -64 h -96 v 64 z m -112,0 v -64 h -96 v 64 z m -112,0 v -64 h -96 v 64 z"
       id="path857"
       inkscape:connector-curvature="0"
       style="fill:#4ec1f5" />
    <path
       d="m 464,128 h 16 V 448 H 32 L 49.25,432 H 128 v -64 h -9.85 L 144,344 v 8 h 96 v -64 h -35.7 l 17.25,-16 H 240 V 254.85 L 256,240 v 32 h 96 V 208 H 290.45 L 307.7,192 H 352 V 150.85 L 368,136 v 56 h 96 z m 0,304 v -64 h -96 v 64 z m -112,0 v -64 h -96 v 64 z m -112,0 v -64 h -96 v 64 z m 224,-80 v -64 h -96 v 64 z m -112,0 v -64 h -96 v 64 z m 112,-80 v -64 h -96 v 64 z"
       id="path859"
       inkscape:connector-curvature="0"
       style="fill:#28b5f5" />
    <path
       d="m 48,32 h 416 c 8.8,0 16,7.2 16,16 v 80 H 32 V 48 c 0,-8.8 7.2,-16 16,-16 z"
       id="path861"
       inkscape:connector-curvature="0"
       style="fill:#0299e3" />
    <path
       d="m 475.15,36.5 c 3,2.95 4.85,7 4.85,11.5 v 80 H 376.6 Z"
       id="path863"
       inkscape:connector-curvature="0"
       style="fill:#0287cf" />
  </g>
  <polygon
     style="fill:#67d600;fill-opacity:1;stroke:none;stroke-width:1.88976383;stroke-miterlimit:4;stroke-dasharray:none;stroke-opacity:1"
     points="256,0 128,128 208,128 208,240 304,240 304,128 384,128 "
     id="polygon857"
     transform="rotate(90,191.99999,320)" />
</svg>
