<?xml version="1.0" encoding="UTF-8" standalone="no"?>
<svg
   xmlns:dc="http://purl.org/dc/elements/1.1/"
   xmlns:cc="http://creativecommons.org/ns#"
   xmlns:rdf="http://www.w3.org/1999/02/22-rdf-syntax-ns#"
   xmlns:svg="http://www.w3.org/2000/svg"
   xmlns="http://www.w3.org/2000/svg"
   xmlns:sodipodi="http://sodipodi.sourceforge.net/DTD/sodipodi-0.dtd"
   xmlns:inkscape="http://www.inkscape.org/namespaces/inkscape"
   width="144.49777mm"
   height="144.49777mm"
   viewBox="0 0 511.99998 511.99998"
   id="svg5048"
   version="1.1"
   inkscape:version="1.0 (4035a4fb49, 2020-05-01)"
   sodipodi:docname="break_sequence.svg">
  <style
     id="style836"></style>
  <defs
     id="defs5050" />
  <sodipodi:namedview
     id="base"
     pagecolor="#ffffff"
     bordercolor="#666666"
     borderopacity="1.0"
     inkscape:pageopacity="0.0"
     inkscape:pageshadow="2"
     inkscape:zoom="1.050338"
     inkscape:cx="39.845931"
     inkscape:cy="238.75029"
     inkscape:document-units="px"
     inkscape:current-layer="layer1"
     showgrid="false"
     fit-margin-top="0"
     fit-margin-left="0"
     fit-margin-right="0"
     fit-margin-bottom="0"
     inkscape:window-width="1920"
     inkscape:window-height="1017"
     inkscape:window-x="1912"
     inkscape:window-y="-8"
     inkscape:window-maximized="1"
     inkscape:document-rotation="0" />
  <metadata
     id="metadata5053">
    <rdf:RDF>
      <cc:Work
         rdf:about="">
        <dc:format>image/svg+xml</dc:format>
        <dc:type
           rdf:resource="http://purl.org/dc/dcmitype/StillImage" />
        <dc:title />
      </cc:Work>
    </rdf:RDF>
  </metadata>
  <g
     inkscape:label="Ebene 1"
     inkscape:groupmode="layer"
     id="layer1"
     transform="translate(387.99343,-121.26205)">
    <path
       style="fill:#0299e3;stroke-width:1"
       inkscape:connector-curvature="0"
       d="m 124.00656,633.26203 h -261.41411 v -42.55988 h 261.41411 z m 0,-106.39971 h -261.41411 v -42.55988 h 261.41411 z m 0,-106.39968 H -50.269563 V 377.90276 H 124.00656 Z"
       id="path4632" />
    <path
       transform="matrix(0.93750002,0,0,0.93750002,-387.99343,121.26205)"
       d="M 302.47266 0 L 302.47266 85.050781 L 151.23633 85.050781 C 67.899018 85.050781 0 153.78152 0 238.14062 C 0 322.49974 67.899018 391.23047 151.23633 391.23047 L 159.94922 391.23047 L 159.94922 323.19141 L 151.23633 323.19141 C 105.02534 323.19141 67.216797 284.91819 67.216797 238.14062 C 67.216797 191.36306 105.02534 153.08984 151.23633 153.08984 L 302.47266 153.08984 L 302.47266 238.14062 L 420.09961 119.07031 L 302.47266 0 z "
       style="fill:#85d435;fill-opacity:1;stroke-width:0.999996"
       id="path846" />
    <path
       transform="matrix(0.93750002,0,0,0.93750002,-387.99343,121.26205)"
       d="M 151.23633 119.07031 C 86.435913 119.07031 33.607422 172.54571 33.607422 238.14062 C 33.607422 303.73554 86.435913 357.21094 151.23633 357.21094 L 159.94922 357.21094 L 159.94922 323.19141 L 151.23633 323.19141 C 105.02534 323.19141 67.216797 284.91819 67.216797 238.14062 C 67.216797 191.36306 105.02534 153.08984 151.23633 153.08984 L 302.47266 153.08984 L 302.47266 238.14062 L 420.09961 119.07031 L 151.23633 119.07031 z "
       style="fill:#68ba1c;fill-opacity:1;stroke-width:0.999996"
       id="path848" />
  </g>
</svg>
