<?xml version="1.0" encoding="UTF-8"?>
<svg width="512" height="512" version="1.1" viewBox="0 0 512 512" xmlns="http://www.w3.org/2000/svg">
 <g transform="translate(0 -540.36)">
  <rect y="540.36" width="512" height="512" fill="#912895"/>
  <g transform="matrix(.044643 0 0 .044643 27.429 567.79)" clip-rule="evenodd" fill="#fff" image-rendering="optimizeQuality" shape-rendering="geometricPrecision" stroke-width="4.48">
   <path d="m3520 3200h3200c176 0 320 144 320 320v3200c0 176-144 320-320 320h-507c-89 0-164-31-227-94l-132-132c-63-63-138-94-227-94h-1014c-89 0-164 31-227 94l-132 132c-63 63-138 94-227 94h-507c-176 0-320-144-320-320v-3200c0-176 144-320 320-320z"/>
   <path d="m960 6400h960v640h-960c-176 0-320-144-320-320s144-320 320-320zm5440 2880v-960h640v960c0 176-144 320-320 320s-320-144-320-320zm-3201 0v-960h640v960c0 176-143 320-320 320-176 0-320-144-320-320zm1601 0v-960h640v960c0 176-144 320-320 320s-320-144-320-320zm3520-2880h960c176 0 320 144 320 320s-144 320-320 320h-960zm0-3201h960c176 0 320 144 320 320 0 177-144 320-320 320h-960zm0 1601h960c176 0 320 144 320 320s-144 320-320 320h-960zm-1919-2880v-960c0-176 143-320 320-320 176 0 320 144 320 320v960zm-3201 0v-960c0-176 144-320 320-320s320 144 320 320v960zm1601 0v-960c0-176 143-320 320-320 176 0 320 144 320 320v960zm-3841 1279h960v640h-960c-176 0-320-143-320-320 0-176 144-320 320-320zm0 1601h960v640h-960c-176 0-320-144-320-320s144-320 320-320z"/>
   <path d="m1600 1280h1280v640c0 176 144 320 320 320h640c176 0 320-144 320-320v-640h321v640c0 176 143 320 320 320h640c176 0 320-144 320-320v-640h320v640c0 176 143 320 320 320h640c176 0 320-144 320-320v-640h1279c176 0 320 144 320 320v1279h-640c-176 0-320 144-320 320v640c0 177 144 320 320 320h640v321h-640c-176 0-320 144-320 320v640c0 176 144 320 320 320h640v320h-640c-176 0-320 144-320 320v640c0 176 144 320 320 320h640v1280c0 176-144 320-320 320h-1280v-640c0-176-144-320-320-320h-640c-176 0-320 144-320 320v640h-320v-640c0-176-144-320-320-320h-640c-176 0-320 144-320 320v640h-321v-640c0-176-143-320-320-320h-640c-176 0-320 144-320 320v640h-1279c-176 0-320-144-320-320v-1280h640c176 0 320-144 320-320v-640c0-176-144-320-320-320h-640v-320h640c176 0 320-144 320-320v-640c0-176-144-320-320-320h-640v-321h640c176 0 320-143 320-320v-640c0-176-144-320-320-320h-640v-1279c0-176 144-320 320-320zm1920 1600c-353 0-640 287-640 640v3200c0 353 287 640 640 640h3200c353 0 640-287 640-640v-3200c0-353-287-640-640-640z"/>
  </g>
 </g>
</svg>
