<?xml version="1.0" encoding="UTF-8" standalone="no"?>
<svg
   xmlns:dc="http://purl.org/dc/elements/1.1/"
   xmlns:cc="http://creativecommons.org/ns#"
   xmlns:rdf="http://www.w3.org/1999/02/22-rdf-syntax-ns#"
   xmlns:svg="http://www.w3.org/2000/svg"
   xmlns="http://www.w3.org/2000/svg"
   xmlns:sodipodi="http://sodipodi.sourceforge.net/DTD/sodipodi-0.dtd"
   xmlns:inkscape="http://www.inkscape.org/namespaces/inkscape"
   x="0"
   y="0"
   width="512"
   height="512"
   version="1.1"
   viewBox="0 0 512 512"
   id="svg4136"
   inkscape:version="0.91 r13725"
   sodipodi:docname="clock_start.svg">
  <metadata
     id="metadata4182">
    <rdf:RDF>
      <cc:Work
         rdf:about="">
        <dc:format>image/svg+xml</dc:format>
        <dc:type
           rdf:resource="http://purl.org/dc/dcmitype/StillImage" />
        <dc:title>stopwatch2 icon</dc:title>
      </cc:Work>
    </rdf:RDF>
  </metadata>
  <defs
     id="defs4180" />
  <sodipodi:namedview
     pagecolor="#ffffff"
     bordercolor="#666666"
     borderopacity="1"
     objecttolerance="10"
     gridtolerance="10"
     guidetolerance="10"
     inkscape:pageopacity="0"
     inkscape:pageshadow="2"
     inkscape:window-width="1920"
     inkscape:window-height="1017"
     id="namedview4178"
     showgrid="false"
     inkscape:zoom="0.110803"
     inkscape:cx="256"
     inkscape:cy="279.62168"
     inkscape:window-x="1912"
     inkscape:window-y="-8"
     inkscape:window-maximized="1"
     inkscape:current-layer="svg4136" />
  <title
     id="title4138">stopwatch2 icon</title>
  <desc
     id="desc4140">stopwatch2 icon from the IconExperience.com G-Collection. Copyright by INCORS GmbH (www.incors.com).</desc>
  <g
     id="g4333"
     transform="matrix(0.93330903,0,0,0.93330903,-14.932944,-14.932944)">
    <path
       id="path4335"
       d="M 256,16 C 123.45,16 16,123.45 16,256 16,388.55 123.45,496 256,496 388.55,496 496,388.55 496,256 496,123.45 388.55,16 256,16 Z"
       inkscape:connector-curvature="0"
       style="fill:#788f9b" />
    <path
       id="path4337"
       d="m 86.3,425.7 c 93.7,93.75 245.7,93.75 339.4,0 93.75,-93.7 93.75,-245.7 0,-339.4 z"
       inkscape:connector-curvature="0"
       style="fill:#546e7a" />
    <path
       id="path4339"
       d="m 256,64 c 106.05,0 192,85.95 192,192 0,106.05 -85.95,192 -192,192 C 149.95,448 64,362.05 64,256 64,149.95 149.95,64 256,64 Z"
       inkscape:connector-curvature="0"
       style="fill:#cdd7db" />
    <path
       id="path4341"
       d="m 256,80 c 97.2,0 176,78.8 176,176 0,97.2 -78.8,176 -176,176 C 158.8,432 80,353.2 80,256 80,158.8 158.8,80 256,80 Z"
       inkscape:connector-curvature="0"
       style="fill:#ebedef" />
    <path
       id="path4343"
       d="M 391.75,120.25 C 426.5,155 448,203 448,256 448,362.05 362.05,448 256,448 203,448 155,426.5 120.25,391.75 Z"
       inkscape:connector-curvature="0"
       style="fill:#afbdc3" />
    <path
       id="path4345"
       d="M 380.45,131.55 C 412.3,163.4 432,207.4 432,256 c 0,97.2 -78.8,176 -176,176 -48.6,0 -92.6,-19.7 -124.45,-51.55 z"
       inkscape:connector-curvature="0"
       style="fill:#cdd7db" />
    <path
       id="path4347"
       d="m 259.5,224.2 66.8,-66.75 c 2.9,-2.95 7.5,-3.15 10.7,-0.55 6.6,5.4 12.7,11.5 18.1,18.1 2.6,3.2 2.4,7.8 -0.55,10.7 l -66.75,66.8 c 0.15,1.15 0.2,2.3 0.2,3.5 0,17.65 -14.35,32 -32,32 -17.65,0 -32,-14.35 -32,-32 0,-1.2 0.05,-2.35 0.2,-3.5 L 123.35,151.65 c -2.95,-2.95 -3.1,-7.7 -0.35,-10.9 5.5,-6.35 11.4,-12.25 17.75,-17.75 3.2,-2.75 7.95,-2.6 10.9,0.35 L 252.5,224.2 c 1.15,-0.15 2.3,-0.2 3.5,-0.2 1.2,0 2.35,0.05 3.5,0.2 z"
       inkscape:connector-curvature="0"
       style="fill:#f98b00" />
    <path
       id="path4349"
       d="m 241.85,270.15 36.8,-36.8 67.85,-67.85 c 3,3 5.9,6.2 8.6,9.5 2.6,3.2 2.4,7.8 -0.55,10.7 l -66.75,66.75 c 0.15,1.2 0.2,2.35 0.2,3.55 0,17.65 -14.35,32 -32,32 -8.85,0 -16.85,-3.6 -22.65,-9.35 z"
       inkscape:connector-curvature="0"
       style="fill:#f37c00" />
    <path
       id="path4351"
       d="m 256,240 c 8.85,0 16,7.15 16,16 0,8.85 -7.15,16 -16,16 -8.85,0 -16,-7.15 -16,-16 0,-8.85 7.15,-16 16,-16 z"
       inkscape:connector-curvature="0"
       style="fill:#f9f9f9" />
    <path
       id="path4353"
       d="m 267.3,244.7 c 2.9,2.9 4.7,6.9 4.7,11.3 0,8.85 -7.15,16 -16,16 -4.4,0 -8.4,-1.8 -11.3,-4.7 z"
       inkscape:connector-curvature="0"
       style="fill:#ebedef" />
  </g>
  <path
     id="path4249"
     d="m 281.75971,229.02079 220.4486,129.77093 c 3.115,1.869 4.984,4.984 4.984,8.62854 0,3.64455 -1.8378,6.79071 -4.984,8.62855 l -220.4486,129.80212 c -3.1461,1.86894 -6.7907,1.83779 -9.968,0 -3.1773,-1.83789 -4.984,-4.98404 -4.984,-8.62856 l 0,-129.80211 0,-129.77087 c 0,-3.6757 1.8067,-6.8219 4.984,-8.6286 3.1773,-1.8378 6.8219,-1.9001 9.968,0 z"
     inkscape:connector-curvature="0"
     style="fill:#78e918;fill-opacity:1;stroke:#489d00;stroke-width:9.6153841;stroke-miterlimit:4;stroke-dasharray:none;stroke-opacity:1" />
</svg>
