<?xml version="1.0" encoding="UTF-8" standalone="no"?>
<svg
   xmlns:dc="http://purl.org/dc/elements/1.1/"
   xmlns:cc="http://creativecommons.org/ns#"
   xmlns:rdf="http://www.w3.org/1999/02/22-rdf-syntax-ns#"
   xmlns:svg="http://www.w3.org/2000/svg"
   xmlns="http://www.w3.org/2000/svg"
   xmlns:sodipodi="http://sodipodi.sourceforge.net/DTD/sodipodi-0.dtd"
   xmlns:inkscape="http://www.inkscape.org/namespaces/inkscape"
   x="0"
   y="0"
   width="512"
   height="512"
   version="1.1"
   viewBox="0 0 512 512"
   id="svg4501"
   sodipodi:docname="node_eds.svg"
   inkscape:version="0.92.0 r15299">
  <metadata
     id="metadata4507">
    <rdf:RDF>
      <cc:Work
         rdf:about="">
        <dc:format>image/svg+xml</dc:format>
        <dc:type
           rdf:resource="http://purl.org/dc/dcmitype/StillImage" />
        <dc:title>cpu icon</dc:title>
      </cc:Work>
    </rdf:RDF>
  </metadata>
  <defs
     id="defs4505" />
  <sodipodi:namedview
     pagecolor="#ffffff"
     bordercolor="#666666"
     borderopacity="1"
     objecttolerance="10"
     gridtolerance="10"
     guidetolerance="10"
     inkscape:pageopacity="0"
     inkscape:pageshadow="2"
     inkscape:window-width="1920"
     inkscape:window-height="1017"
     id="namedview4503"
     showgrid="false"
     inkscape:zoom="0.32009755"
     inkscape:cx="256"
     inkscape:cy="67.026528"
     inkscape:window-x="1912"
     inkscape:window-y="-8"
     inkscape:window-maximized="1"
     inkscape:current-layer="svg4501" />
  <title
     id="title4485">cpu icon</title>
  <desc
     id="desc4487">cpu icon from the IconExperience.com G-Collection. Copyright by INCORS GmbH (www.incors.com).</desc>
  <g
     id="g4499">
    <path
       d="M102.65,416l41.35,0l0,64l-41.35,0c-4.45,0 -8.2,-1.55 -11.35,-4.7l-6.6,-6.6c-3.15,-3.15 -6.9,-4.7 -11.35,-4.7l-25.35,0l0,-32l25.35,0c4.45,0 8.2,-1.55 11.35,-4.7l6.6,-6.6c3.15,-3.15 6.9,-4.7 11.35,-4.7z M102.65,320l41.35,0l0,64l-41.35,0c-4.45,0 -8.2,-1.55 -11.35,-4.7l-6.6,-6.6c-3.15,-3.15 -6.9,-4.7 -11.35,-4.7l-25.35,0l0,-32l25.35,0c4.45,0 8.2,-1.55 11.35,-4.7l6.6,-6.6c3.15,-3.15 6.9,-4.7 11.35,-4.7z M102.65,224l41.35,0l0,64l-41.35,0c-4.45,0 -8.2,-1.55 -11.35,-4.7l-6.6,-6.6c-3.15,-3.15 -6.9,-4.7 -11.35,-4.7l-25.35,0l0,-32l25.35,0c4.45,0 8.2,-1.55 11.35,-4.7l6.6,-6.6c3.15,-3.15 6.9,-4.7 11.35,-4.7z M102.65,128l41.35,0l0,64l-41.35,0c-4.45,0 -8.2,-1.55 -11.35,-4.7l-6.6,-6.6c-3.15,-3.15 -6.9,-4.7 -11.35,-4.7l-25.35,0l0,-32l25.35,0c4.45,0 8.2,-1.55 11.35,-4.7l6.6,-6.6c3.15,-3.15 6.9,-4.7 11.35,-4.7z M102.65,32l41.35,0l0,64l-41.35,0c-4.45,0 -8.2,-1.55 -11.35,-4.7l-6.6,-6.6c-3.15,-3.15 -6.9,-4.7 -11.35,-4.7l-25.35,0l0,-32l25.35,0c4.45,0 8.2,-1.55 11.35,-4.7l6.6,-6.6c3.15,-3.15 6.9,-4.7 11.35,-4.7z"
       fill="#cdd7db"
       id="path4489" />
    <path
       d="M409.35,416l-41.35,0l0,64l41.35,0c4.45,0 8.2,-1.55 11.35,-4.7l6.6,-6.6c3.15,-3.15 6.9,-4.7 11.35,-4.7l25.35,0l0,-32l-25.35,0c-4.45,0 -8.2,-1.55 -11.35,-4.7l-6.6,-6.6c-3.15,-3.15 -6.9,-4.7 -11.35,-4.7z M409.35,320l-41.35,0l0,64l41.35,0c4.45,0 8.2,-1.55 11.35,-4.7l6.6,-6.6c3.15,-3.15 6.9,-4.7 11.35,-4.7l25.35,0l0,-32l-25.35,0c-4.45,0 -8.2,-1.55 -11.35,-4.7l-6.6,-6.6c-3.15,-3.15 -6.9,-4.7 -11.35,-4.7z M409.35,224l-41.35,0l0,64l41.35,0c4.45,0 8.2,-1.55 11.35,-4.7l6.6,-6.6c3.15,-3.15 6.9,-4.7 11.35,-4.7l25.35,0l0,-32l-25.35,0c-4.45,0 -8.2,-1.55 -11.35,-4.7l-6.6,-6.6c-3.15,-3.15 -6.9,-4.7 -11.35,-4.7z M409.35,128l-41.35,0l0,64l41.35,0c4.45,0 8.2,-1.55 11.35,-4.7l6.6,-6.6c3.15,-3.15 6.9,-4.7 11.35,-4.7l25.35,0l0,-32l-25.35,0c-4.45,0 -8.2,-1.55 -11.35,-4.7l-6.6,-6.6c-3.15,-3.15 -6.9,-4.7 -11.35,-4.7z M409.35,32l-41.35,0l0,64l41.35,0c4.45,0 8.2,-1.55 11.35,-4.7l6.6,-6.6c3.15,-3.15 6.9,-4.7 11.35,-4.7l25.35,0l0,-32l-25.35,0c-4.45,0 -8.2,-1.55 -11.35,-4.7l-6.6,-6.6c-3.15,-3.15 -6.9,-4.7 -11.35,-4.7z"
       fill="#afbdc3"
       id="path4491" />
    <path
       d="M144,0l224,0c8.8,0 16,7.2 16,16l0,480c0,8.8 -7.2,16 -16,16l-224,0c-8.8,0 -16,-7.2 -16,-16l0,-480c0,-8.8 7.2,-16 16,-16z"
       fill="#546e7a"
       id="path4493" />
    <path
       d="M380.8,6.4c2,2.7 3.2,6 3.2,9.6l0,480c0,8.8 -7.2,16 -16,16l-224,0c-5.2,0 -9.85,-2.5 -12.8,-6.4z"
       fill="#445a64"
       id="path4495" />
    <path
       d="M256,464c26.5,0 48,21.5 48,48l-96,0c0,-26.5 21.5,-48 48,-48z"
       fill="#36464e"
       id="path4497" />
  </g>
  <g
     id="g4607"
     transform="matrix(0.8043879,0,0,0.76595453,147.67416,119.83128)">
    <path
       d="m 452.92307,196.92309 v 305.23076 c 0,5.41538 -4.43077,9.84615 -9.84615,9.84615 H 68.923083 c -5.415385,0 -9.846154,-4.43077 -9.846154,-9.84615 V 9.8461668 c 0,-5.4153845 4.430769,-9.8461536 9.846154,-9.8461536 H 98.461544 256 c 10.83077,0 20.73846,4.4307691 27.87692,11.5692308 L 441.35384,169.04616 c 7.13846,7.13846 11.56923,16.98462 11.56923,27.87693 z"
       id="path7832"
       inkscape:connector-curvature="0"
       style="fill:#dff3fd" />
    <path
       d="m 452.92307,196.92309 v 305.23076 c 0,5.41538 -4.43077,9.84615 -9.84615,9.84615 H 68.923083 c -2.892308,0 -5.538462,-1.29231 -7.323077,-3.26154 L 374.4,102.09232 l 66.95384,66.95384 c 7.13846,7.13846 11.56923,16.98462 11.56923,27.87693 z"
       id="path7834"
       inkscape:connector-curvature="0"
       style="fill:#b1e3fb" />
    <path
       d="m 283.87692,11.569244 c 7.07693,7.138461 11.5077,16.984615 11.5077,27.815384 V 147.69232 c 0,5.41538 4.43076,9.84615 9.84615,9.84615 h 108.30769 c 10.46154,0 20.43077,4.18462 27.81538,11.56923 z"
       id="path7836"
       inkscape:connector-curvature="0"
       style="fill:#28b5f5" />
    <g
       transform="scale(0.84632612,1.1815776)"
       style="font-style:normal;font-weight:normal;font-size:196.96940613px;line-height:125%;font-family:sans-serif;letter-spacing:0px;word-spacing:0px;fill:#41555e;fill-opacity:1;stroke:none;stroke-width:1px;stroke-linecap:butt;stroke-linejoin:miter;stroke-opacity:1"
       id="g8466">
      <path
         d="m 98.148444,190.28167 h 99.927346 v 27.98735 h -62.89941 v 26.73706 h 59.14853 v 27.98735 h -59.14853 v 32.89236 h 65.0153 v 27.98735 H 98.148444 Z"
         style="font-style:normal;font-variant:normal;font-weight:bold;font-stretch:normal;font-family:sans-serif;-inkscape-font-specification:'sans-serif Bold';fill:#41555e;fill-opacity:1"
         id="path8468"
         inkscape:connector-curvature="0" />
      <path
         d="m 269.82343,218.26902 v 87.61677 h 13.27236 q 22.69764,0 34.62352,-11.25265 12.02206,-11.25265 12.02206,-32.7 0,-21.35118 -11.92588,-32.50765 -11.92588,-11.15647 -34.7197,-11.15647 z m -37.02794,-27.98735 h 39.04765 q 32.7,0 48.66529,4.71265 16.06147,4.61647 27.50647,15.77294 10.09853,9.71382 15.00353,22.40912 4.905,12.69529 4.905,28.75676 0,16.25382 -4.905,29.04529 -4.905,12.6953 -15.00353,22.40912 -11.54117,11.15647 -27.69882,15.86912 -16.15765,4.61647 -48.47294,4.61647 h -39.04765 z"
         style="font-style:normal;font-variant:normal;font-weight:bold;font-stretch:normal;font-family:sans-serif;-inkscape-font-specification:'sans-serif Bold';fill:#41555e;fill-opacity:1"
         id="path8470"
         inkscape:connector-curvature="0" />
      <path
         d="m 496.22283,194.80197 v 30.39176 q -11.82971,-5.28971 -23.08235,-7.98265 -11.25265,-2.69294 -21.255,-2.69294 -13.27236,0 -19.62,3.65471 -6.34765,3.6547 -6.34765,11.34882 0,5.77059 4.23176,9.04059 4.32795,3.17382 15.58059,5.48206 l 15.77294,3.17382 q 23.94794,4.80882 34.04647,14.61882 10.09853,9.81 10.09853,27.89118 0,23.75559 -14.13794,35.39294 -14.04176,11.54118 -42.99088,11.54118 -13.65706,0 -27.41029,-2.59677 -13.75324,-2.59676 -27.50647,-7.69412 v -31.25735 q 13.75323,7.30941 26.5447,11.0603 12.88765,3.6547 24.81353,3.6547 12.11824,0 18.56206,-4.03941 6.44382,-4.03941 6.44382,-11.54118 0,-6.73235 -4.42412,-10.38705 -4.32794,-3.65471 -17.40794,-6.54 l -14.33029,-3.17383 q -21.54353,-4.61647 -31.54588,-14.715 -9.90618,-10.09853 -9.90618,-27.21794 0,-21.44735 13.84941,-32.98853 13.84942,-11.54117 39.81706,-11.54117 11.82971,0 24.33265,1.82735 12.50294,1.73118 25.87147,5.28971 z"
         style="font-style:normal;font-variant:normal;font-weight:bold;font-stretch:normal;font-family:sans-serif;-inkscape-font-specification:'sans-serif Bold';fill:#41555e;fill-opacity:1"
         id="path8472"
         inkscape:connector-curvature="0" />
    </g>
    <path
       id="path8460"
       d="m 83.066406,224.83203 v 169.66406 h 66.410154 l 19.95117,-25.93554 v -7.13282 H 114.40234 V 322.5625 h 50.06055 v -33.06836 h -50.06055 v -31.5918 h 53.23438 v -33.07031 z m 113.955074,0 V 332.6875 l 31.3379,-40.74023 v -34.04493 h 11.23242 c 4.93906,0 9.42065,0.65512 13.45508,1.95118 L 274.56836,231.875 c -1.08476,-0.53078 -2.18956,-1.02321 -3.31445,-1.47461 -9.0079,-3.71224 -22.73564,-5.56836 -41.18555,-5.56836 z"
       style="font-style:normal;font-variant:normal;font-weight:bold;font-stretch:normal;font-size:medium;line-height:125%;font-family:sans-serif;-inkscape-font-specification:'sans-serif Bold';letter-spacing:0px;word-spacing:0px;fill:#546e7a;fill-opacity:1;stroke:none;stroke-width:1px;stroke-linecap:butt;stroke-linejoin:miter;stroke-opacity:1"
       inkscape:connector-curvature="0" />
  </g>
</svg>
