<svg x="0" y="0" width="512" height="512" version="1.1"
    xmlns="http://www.w3.org/2000/svg"
    xmlns:xlink="http://www.w3.org/1999/xlink" viewBox="0 0 512 512">
    <title>message icon</title>
    <desc>message icon from the IconExperience.com G-Collection. Copyright by INCORS GmbH (www.incors.com).</desc>
    <g>
        <path d="M296.05,512c7.95,-32 7.95,-80 -19.65,-104.45c-9.05,2.65 -18.6,4.75 -28.5,6.15c-109.9,15.6 -226.35,-46.65 -245.1,-158.55c-19.05,-113.85 59.9,-232.7 197.1,-252.2c140.65,-19.95 285,62.2 308.4,201.8c25.05,149.65 -80.1,271.9 -212.25,307.25z" fill="#ffb100"/>
        <path d="M296.05,512c7.95,-32 7.95,-80 -19.65,-104.45c-9.05,2.65 -18.6,4.75 -28.5,6.15c-61.9,8.8 -125.9,-7.15 -173.35,-42.7l362.85,-296.85c36.25,33.85 62.1,78.15 70.9,130.6c25.05,149.65 -80.1,271.9 -212.25,307.25z" fill="#ff9f00"/>
        <path d="M144,176l224,0l0,16l-224,0z M144,128l224,0l0,16l-224,0z M144,272l224,0l0,16l-224,0z M144,224l224,0l0,16l-224,0z" fill="#ffffff"/>
        <path d="M312.9,176l55.1,0l0,16l-74.65,0z M176,288l19.55,-16l172.45,0l0,16z M234.65,240l19.55,-16l113.8,0l0,16z M352,144l16,-13.1l0,13.1z" fill="#ebedef"/>
    </g>
</svg>