<svg x="0" y="0" width="512" height="512" version="1.1"
    xmlns="http://www.w3.org/2000/svg"
    xmlns:xlink="http://www.w3.org/1999/xlink" viewBox="0 0 512 512">
    <title>document checks icon</title>
    <desc>document checks icon from the IconExperience.com G-Collection. Copyright by INCORS GmbH (www.incors.com).</desc>
    <g>
        <path d="M288,0l-216,0c-4.4,0 -8,3.6 -8,8l0,496c0,4.4 3.6,8 8,8l368,0c4.4,0 8,-3.6 8,-8l0,-344c0,-8.85 -3.6,-16.85 -9.4,-22.65l-127.95,-127.95c-5.8,-5.8 -13.8,-9.4 -22.65,-9.4z" fill="#dff3fd"/>
        <path d="M66.1,509.35c1.45,1.65 3.55,2.65 5.9,2.65l368,0c4.4,0 8,-3.6 8,-8l0,-344c0,-8.85 -3.6,-16.85 -9.4,-22.65c-5.8,-5.75 -13.8,-9.35 -22.6,-9.35l-48,0z" fill="#b1e3fb"/>
        <path d="M438.6,137.35c-5.8,-5.75 -13.8,-9.35 -22.6,-9.35l-88,0c-4.4,0 -8,-3.6 -8,-8l0,-88c0,-8.5 -3.4,-16.6 -9.4,-22.6z" fill="#28b5f5"/>
        <path d="M327.4,300.3l33.9,33.95l-124.45,124.45l-67.85,-67.9l33.95,-33.95l33.9,33.95z M327.4,141.6l33.9,33.9l-124.45,124.45l-67.85,-67.85l33.95,-33.95l33.9,33.95z" fill="#66b96a"/>
        <path d="M344.35,158.55l16.95,16.95l-124.45,124.45l-67.85,-67.85l16.95,-17l50.9,50.95z M344.35,317.25l16.95,17l-124.45,124.45l-67.85,-67.9l16.95,-16.95l50.9,50.9z" fill="#429f46"/>
    </g>
</svg>