<svg x="0" y="0" width="512" height="512" version="1.1"
    xmlns="http://www.w3.org/2000/svg"
    xmlns:xlink="http://www.w3.org/1999/xlink" viewBox="0 0 512 512">
    <title>funnel icon</title>
    <desc>funnel icon from the IconExperience.com G-Collection. Copyright by INCORS GmbH (www.incors.com).</desc>
    <g>
        <path d="M40,32l432,0c4.4,0 8,3.6 8,8l0,32c0,4.4 -3.6,8 -8,8l-8,0l-156.7,214.25c-2.15,2.95 -3.3,6.05 -3.3,9.75l0,119.45c0,5.5 -2.55,10.25 -7.1,13.3l-76.45,50.95c-2.55,1.7 -5.55,1.85 -8.25,0.4c-2.65,-1.4 -4.2,-4 -4.2,-7.05l0,-177.05c0,-3.7 -1.15,-6.8 -3.3,-9.75l-156.7,-214.25l-8,0c-4.4,0 -8,-3.6 -8,-8l0,-32c0,-4.4 3.6,-8 8,-8z" fill="#788f9b"/>
        <path d="M512,160c0,35.25 -28.75,64 -64,64l-89.3,0l-51.4,70.25c-2.15,2.95 -3.3,6.05 -3.3,9.75l0,119.45c0,5.5 -2.55,10.25 -7.1,13.3l-40.9,27.25l0,-368l-195.7,0l-12.3,-16l208,0l0,-48l216,0c4.4,0 8,3.6 8,8l0,32c0,4.4 -3.6,8 -8,8l-8,0l-11.8,16.15c33.3,2.15 59.8,30 59.8,63.85z M428.9,128l-46.8,64l65.9,0c17.6,0 32,-14.4 32,-32c0,-17.6 -14.4,-32 -32,-32z" fill="#546e7a"/>
    </g>
</svg>