<?xml version="1.0" encoding="UTF-8"?>
<svg width="512" height="512" version="1.1" viewBox="0 0 512 512" xml:space="preserve" xmlns="http://www.w3.org/2000/svg"><title>recycle icon</title><desc>recycle icon from the IconExperience.com G-Collection. Copyright by INCORS GmbH (www.incors.com).</desc><g transform="matrix(.87956 0 0 .87956 -3.1938e-7 -27.134)" stroke-width="1.1369"><path d="m0.8733 479.93c-0.5155-0.83408-0.90742-13.762-0.87095-28.728 0.18726-76.84 19.203-146.47 55.133-201.87 41.401-63.842 108.93-109.58 190.99-129.35 15.908-3.8336 39.368-7.9746 45.181-7.975l3.4666-2.1e-4 0.0255-30.666c0.014-16.866 0.46212-32.549 0.99583-34.85 1.741-7.5066 8.2589-13.723 15.897-15.161 9.6541-1.8179 9.5118-1.9061 106.18 65.788 57.478 40.25 91.303 64.59 92.582 66.621 2.6663 4.2346 1.838 9.6571-2.0548 13.451-2.903 2.8294-169.61 119.76-179.93 126.21-4.5772 2.8589-6.2024 3.272-12.874 3.272-9.0239 0-13.812-2.5728-17.83-9.5814-2.3933-4.1741-2.4652-5.1181-2.7809-36.522l-0.32417-32.238-4.4757 0.48713c-2.4616 0.26792-9.5156 1.0011-15.675 1.6293-23.08 2.3537-52.624 9.4864-77.865 18.799-24.286 8.9601-56.516 27.226-77.268 43.793-9.8644 7.8746-29.814 27.414-38.995 38.194-9.4962 11.149-29.192 39.305-38.584 55.159-15.926 26.881-29.802 61.62-35.155 88.01-1.2776 6.299-2.9693 8.8902-3.1336 4.7999-0.06538-1.6276-0.17838-1.6025-0.88263 0.19585-0.66025 1.686-0.97875 1.7857-1.7449 0.54597z" fill="#85d435"/><path d="m299.39 169.22c-253.42 39.956-275.65 194.58-296.82 310.27 0.020964-0.0519 0.033015-0.0345 0.054687-0.0898 0.70425-1.7984 0.81743-1.8249 0.88281-0.19727 0.1643 4.0903 1.8572 1.5002 3.1348-4.7988 5.353-26.39 19.228-61.129 35.154-88.01 9.392-15.854 29.088-44.011 38.584-55.16 9.181-10.78 29.13-30.319 38.994-38.193 20.752-16.567 52.984-34.833 77.27-43.793 25.241-9.3126 54.783-16.445 77.863-18.799 6.1594-0.6282 13.214-1.361 15.676-1.6289l4.4766-0.48828 0.32422 32.238c0.31569 31.404 0.38599 32.347 2.7793 36.521 4.018 7.0086 8.8062 9.582 17.83 9.582 6.6716 0 8.2978-0.41259 12.875-3.2715 10.32-6.45 177.03-123.38 179.93-126.21 1.8226-1.7763 2.9049-3.9199 3.3398-6.1211z" fill="#68ba1c"/></g><style/><path d="m512 512h-278.84v-45.398h278.84zm0-113.5h-278.84v-45.398h278.84zm0-113.5h-185.9v-45.398h185.9z" fill="#0299e3" stroke-width="1.0667"/><style/></svg>
