<?xml version="1.0" encoding="UTF-8" standalone="no"?>
<svg
   x="0"
   y="0"
   width="512"
   height="512"
   version="1.1"
   viewBox="0 0 512 512"
   id="svg24"
   sodipodi:docname="scroll_lock.svg"
   inkscape:version="1.2.1 (9c6d41e410, 2022-07-14)"
   xmlns:inkscape="http://www.inkscape.org/namespaces/inkscape"
   xmlns:sodipodi="http://sodipodi.sourceforge.net/DTD/sodipodi-0.dtd"
   xmlns="http://www.w3.org/2000/svg"
   xmlns:svg="http://www.w3.org/2000/svg"
   xmlns:rdf="http://www.w3.org/1999/02/22-rdf-syntax-ns#"
   xmlns:cc="http://creativecommons.org/ns#"
   xmlns:dc="http://purl.org/dc/elements/1.1/">
  <defs
     id="defs28" />
  <sodipodi:namedview
     id="namedview26"
     pagecolor="#ffffff"
     bordercolor="#666666"
     borderopacity="1.0"
     inkscape:showpageshadow="2"
     inkscape:pageopacity="0.0"
     inkscape:pagecheckerboard="0"
     inkscape:deskcolor="#d1d1d1"
     showgrid="false"
     inkscape:zoom="0.16296602"
     inkscape:cx="156.47434"
     inkscape:cy="374.31117"
     inkscape:window-width="1920"
     inkscape:window-height="1009"
     inkscape:window-x="1912"
     inkscape:window-y="-8"
     inkscape:window-maximized="1"
     inkscape:current-layer="svg24" />
  <title
     id="title2">scroll bar vertical icon</title>
  <desc
     id="desc4">scroll bar vertical icon from the IconExperience.com G-Collection. Copyright by INCORS GmbH (www.incors.com).</desc>
  <g
     id="g22"
     transform="translate(192)">
    <path
       d="M 192,504 V 432 8 c 0,-4.4 3.6,-8 8,-8 h 112 c 4.4,0 8,3.6 8,8 v 496 c 0,4.4 -3.6,8 -8,8 H 200 c -4.4,0 -8,-3.6 -8,-8 z"
       fill="#ebedef"
       id="path6" />
    <path
       d="M 256,512 V 0 h 56 c 4.4,0 8,3.6 8,8 v 424 72 c 0,4.4 -3.6,8 -8,8 z"
       fill="#cdd7db"
       id="path8" />
    <path
       d="m 192,504 v -72 -32 c 0,8.8 7.2,16 16,16 h 96 c 8.8,0 16,-7.2 16,-16 v 104 c 0,4.4 -3.6,8 -8,8 H 200 c -4.4,0 -8,-3.6 -8,-8 z m 0,-392 V 8 c 0,-4.4 3.6,-8 8,-8 h 112 c 4.4,0 8,3.6 8,8 v 104 c 0,-8.8 -7.2,-16 -16,-16 h -96 c -8.8,0 -16,7.2 -16,16 z"
       fill="#cdd7db"
       id="path10" />
    <path
       d="m 256,512 v -96 h 48 c 8.8,0 16,-7.2 16,-16 v 32 72 c 0,4.4 -3.6,8 -8,8 z M 256,96 V 0 h 56 c 4.4,0 8,3.6 8,8 v 104 c 0,-8.8 -7.2,-16 -16,-16 z"
       fill="#afbdc3"
       id="path12" />
    <path
       d="M 192,400 V 224 c 0,-8.8 7.2,-16 16,-16 h 96 c 8.8,0 16,7.2 16,16 v 176 c 0,8.8 -7.2,16 -16,16 h -96 c -8.8,0 -16,-7.2 -16,-16 z"
       fill="#0299e3"
       id="path14" />
    <path
       d="M 256,416 V 208 h 48 c 8.8,0 16,7.2 16,16 v 176 c 0,8.8 -7.2,16 -16,16 z"
       fill="#0287cf"
       id="path16" />
    <path
       d="m 208,80 h 96 L 256,16 Z m 0,352 h 96 l -48,64 z"
       fill="#546e7a"
       id="path18" />
    <path
       d="m 256,432 h 48 l -48,64 z m 0,-352 h 48 L 256,16 Z"
       fill="#445a64"
       id="path20" />
  </g>
  <g
     id="g217"
     transform="matrix(0.83333333,0,0,0.83333333,-53.333333,85.333335)"
     style="stroke-width:1.2">
    <path
       d="M 160,273.8 H 96 V 160 C 96,71.65 167.65,0 256,0 344.35,0 416,71.65 416,160 V 273.8 H 352 V 160 c 0,-53 -43,-96 -96,-96 -53.05,0 -96,42.95 -96,96 z"
       fill="#788f9b"
       id="path207"
       style="stroke-width:1.35529" />
    <path
       d="M 160,273.8 H 128 V 160 C 128,89.3 185.3,32 256,32 326.7,32 384,89.3 384,160 V 273.8 H 352 V 160 c 0,-53 -43,-96 -96,-96 -53.05,0 -96,42.95 -96,96 z"
       fill="#546e7a"
       id="path209"
       style="stroke-width:1.35529" />
    <path
       d="m 80,240 h 352 c 8.8,0 16,7.2 16,16 v 240 c 0,8.8 -7.2,16 -16,16 H 80 c -8.8,0 -16,-7.2 -16,-16 V 256 c 0,-8.8 7.2,-16 16,-16 z"
       fill="#ffed58"
       id="path211"
       style="stroke-width:1.35529" />
    <path
       d="m 256,240 h 176 c 8.8,0 16,7.2 16,16 v 240 c 0,8.8 -7.2,16 -16,16 H 256 Z"
       fill="#fbd734"
       id="path213"
       style="stroke-width:1.35529" />
    <path
       d="m 256,304 c 22.1,0 40,21.9 40,40 0,15.6 -5.45,24 -14,30.6 -2.6,2 -3.7,5.2 -2.85,8.4 l 14.8,54.85 C 295.1,442.2 296,446 296,450.5 V 464 h -80 v -13.5 c 0,-4.5 0.9,-8.3 2.05,-12.65 L 232.85,383 c 0.85,-3.2 -0.25,-6.4 -2.85,-8.4 -8.55,-6.6 -14,-15 -14,-30.6 0,-18.1 17.9,-40 40,-40 z"
       fill="#36464e"
       id="path215"
       style="stroke-width:1.35529" />
  </g>
  <metadata
     id="metadata555">
    <rdf:RDF>
      <cc:Work
         rdf:about="">
        <dc:title>scroll bar vertical icon</dc:title>
      </cc:Work>
    </rdf:RDF>
  </metadata>
</svg>
