<svg x="0" y="0" width="512" height="512" version="1.1"
    xmlns="http://www.w3.org/2000/svg"
    xmlns:xlink="http://www.w3.org/1999/xlink" viewBox="0 0 512 512">
    <title>text field icon</title>
    <desc>text field icon from the IconExperience.com G-Collection. Copyright by INCORS GmbH (www.incors.com).</desc>
    <g>
        <path d="M8,176l496,0c4.4,0 8,3.6 8,8l0,144c0,4.4 -3.6,8 -8,8l-496,0c-4.4,0 -8,-3.6 -8,-8l0,-144c0,-4.4 3.6,-8 8,-8z" fill="#ebedef"/>
        <path d="M0,256l512,0l0,72c0,4.4 -3.6,8 -8,8l-496,0c-4.4,0 -8,-3.6 -8,-8z" fill="#cdd7db"/>
        <path d="M92.3,285.2l-30.85,0l-5.4,17.5l-24.05,0l34.25,-93.4l21.15,0l34.5,93.4l-24.15,0z M66.8,267.9l20.1,0l-10.05,-32.45z M133.3,302.7l0,-93.4l33.55,0c12,0 21.15,2.2 27.45,6.6c6.25,4.45 9.35,10.85 9.35,19.2c0,4.85 -1.1,9 -3.3,12.4c-2.25,3.45 -5.5,5.95 -9.8,7.6c4.85,1.25 8.6,3.65 11.2,7.15c2.6,3.5 3.9,7.8 3.9,12.8c0,9.15 -2.9,16.05 -8.7,20.65c-5.8,4.55 -14.35,6.9 -25.7,7z M155.8,263.15l0,22.2l14.75,0c4.1,0 7.2,-0.9 9.4,-2.75c2.2,-1.85 3.25,-4.45 3.25,-7.8c0,-7.75 -3.85,-11.6 -11.6,-11.65z M155.8,248.2l11.75,0c4.95,-0.05 8.45,-0.95 10.55,-2.7c2.1,-1.75 3.15,-4.35 3.15,-7.75c0,-3.95 -1.15,-6.75 -3.45,-8.5c-2.25,-1.75 -5.9,-2.6 -10.95,-2.6l-11.05,0z M298.2,271.1c-0.35,6.5 -2.1,12.25 -5.3,17.25c-3.2,4.95 -7.7,8.8 -13.5,11.55c-5.8,2.7 -12.4,4.1 -19.85,4.1c-12.25,0 -21.9,-4 -28.95,-12c-7.1,-8 -10.6,-19.3 -10.6,-33.85l0,-4.6c0,-9.15 1.6,-17.2 4.8,-24.05c3.15,-6.85 7.75,-12.15 13.75,-15.9c5.95,-3.75 12.9,-5.6 20.75,-5.6c11.35,0 20.45,3 27.3,8.95c6.9,5.95 10.8,14.2 11.75,24.65l-22.45,0c-0.15,-5.7 -1.6,-9.8 -4.25,-12.3c-2.7,-2.45 -6.85,-3.7 -12.35,-3.7c-5.6,0 -9.7,2.1 -12.3,6.3c-2.6,4.2 -4,10.9 -4.1,20.1l0,6.6c0,9.95 1.25,17.1 3.75,21.4c2.5,4.25 6.8,6.4 12.9,6.4c5.2,0 9.15,-1.2 11.9,-3.65c2.7,-2.45 4.15,-6.35 4.35,-11.65z" fill="#0287cf"/>
        <path d="M92.3,285.2l-30.85,0l-5.4,17.5l-24.05,0l17.15,-46.7l21.35,0l-3.7,11.9l20.1,0l-3.7,-11.9l21.45,0l17.25,46.7l-24.15,0z M133.3,256l60.05,0c3.5,1.4 6.3,3.45 8.4,6.25c2.6,3.5 3.9,7.8 3.9,12.8c0,9.15 -2.9,16.05 -8.7,20.65c-5.8,4.55 -14.35,6.9 -25.7,7l-37.95,0z M220,256l22.9,0l0,2.6c0,9.95 1.25,17.1 3.75,21.4c2.5,4.25 6.8,6.4 12.9,6.4c5.2,0 9.15,-1.2 11.9,-3.65c2.7,-2.45 4.15,-6.35 4.35,-11.65l22.4,0c-0.35,6.5 -2.1,12.25 -5.3,17.25c-3.2,4.95 -7.7,8.8 -13.5,11.55c-5.8,2.7 -12.4,4.1 -19.85,4.1c-12.25,0 -21.9,-4 -28.95,-12c-7.1,-8 -10.6,-19.3 -10.6,-33.85z M155.8,263.15l0,22.2l14.75,0c4.1,0 7.2,-0.9 9.4,-2.75c2.2,-1.85 3.25,-4.45 3.25,-7.8c0,-7.75 -3.85,-11.6 -11.6,-11.65z" fill="#0276bb"/>
        <path d="M304,144l32,0c2.9,0 5.65,0.8 8,2.15c2.35,-1.35 5.1,-2.15 8,-2.15l32,0l0,16l-32,0l0,192l32,0l0,16l-32,0c-2.9,0 -5.65,-0.8 -8,-2.15c-2.35,1.35 -5.1,2.15 -8,2.15l-32,0l0,-16l32,0l0,-192l-32,0z" fill="#546e7a"/>
        <path d="M352,256l0,96l32,0l0,16l-32,0c-2.9,0 -5.65,-0.8 -8,-2.15c-2.35,1.35 -5.1,2.15 -8,2.15l-32,0l0,-16l32,0l0,-96z" fill="#445a64"/>
    </g>
</svg>