<svg x="0" y="0" width="512" height="512" version="1.1"
    xmlns="http://www.w3.org/2000/svg"
    xmlns:xlink="http://www.w3.org/1999/xlink" viewBox="0 0 512 512">
    <title>stopwatch icon</title>
    <desc>stopwatch icon from the IconExperience.com G-Collection. Copyright by INCORS GmbH (www.incors.com).</desc>
    <g>
        <polygon points="232,32 280,32 280,80 232,80" fill="#546e7a"/>
        <path d="M423.25,86.8l33.95,33.95c3.1,3.15 3.1,8.2 0,11.35l-39.6,39.55l-45.25,-45.25l39.6,-39.6c3.1,-3.1 8.15,-3.1 11.3,0z" fill="#546e7a"/>
        <path d="M440.2,103.8l17,16.95c3.1,3.15 3.1,8.2 0,11.35l-39.6,39.55l-22.65,-22.6z" fill="#445a64"/>
        <path d="M208,0l96,0c8.8,0 16,7.2 16,16l0,32l-128,0l0,-32c0,-8.8 7.2,-16 16,-16z" fill="#788f9b"/>
        <path d="M256,0l48,0c8.8,0 16,7.2 16,16l0,32l-64,0z" fill="#546e7a"/>
        <path d="M256,64c123.7,0 224,100.3 224,224c0,123.7 -100.3,224 -224,224c-123.7,0 -224,-100.3 -224,-224c0,-123.7 100.3,-224 224,-224z" fill="#788f9b"/>
        <path d="M414.4,129.6c40.55,40.55 65.6,96.55 65.6,158.4c0,123.7 -100.3,224 -224,224c-61.85,0 -117.85,-25.05 -158.4,-65.6z" fill="#546e7a"/>
        <path d="M256,96c106.05,0 192,85.95 192,192c0,106.05 -85.95,192 -192,192c-106.05,0 -192,-85.95 -192,-192c0,-106.05 85.95,-192 192,-192z" fill="#cdd7db"/>
        <path d="M391.75,152.25c34.75,34.75 56.25,82.75 56.25,135.75c0,106.05 -85.95,192 -192,192c-53,0 -101,-21.5 -135.75,-56.25z" fill="#afbdc3"/>
        <path d="M256,112c97.2,0 176,78.8 176,176c0,97.2 -78.8,176 -176,176c-97.2,0 -176,-78.8 -176,-176c0,-97.2 78.8,-176 176,-176z" fill="#ebedef"/>
        <path d="M380.45,163.55c31.85,31.85 51.55,75.85 51.55,124.45c0,97.2 -78.8,176 -176,176c-48.6,0 -92.6,-19.7 -124.45,-51.55z" fill="#cdd7db"/>
        <path d="M272,260.3c9.55,5.5 16,15.85 16,27.7c0,17.65 -14.35,32 -32,32c-17.65,0 -32,-14.35 -32,-32c0,-11.85 6.45,-22.2 16,-27.7l0,-140.3c0,-4.4 3.6,-8 8,-8l16,0c4.4,0 8,3.6 8,8z" fill="#ff8d00"/>
        <path d="M278.65,265.35c5.75,5.8 9.35,13.8 9.35,22.65c0,17.65 -14.35,32 -32,32c-8.85,0 -16.85,-3.6 -22.65,-9.35z" fill="#ff6e00"/>
        <path d="M256,272c8.85,0 16,7.15 16,16c0,8.85 -7.15,16 -16,16c-8.85,0 -16,-7.15 -16,-16c0,-8.85 7.15,-16 16,-16z" fill="#ffffff"/>
        <path d="M267.3,276.7c2.9,2.9 4.7,6.9 4.7,11.3c0,8.85 -7.15,16 -16,16c-4.4,0 -8.4,-1.8 -11.3,-4.7z" fill="#ebedef"/>
    </g>
</svg>