<svg x="0" y="0" width="512" height="512" version="1.1"
    xmlns="http://www.w3.org/2000/svg"
    xmlns:xlink="http://www.w3.org/1999/xlink" viewBox="0 0 512 512">
    <title>hourglass icon</title>
    <desc>hourglass icon from the IconExperience.com G-Collection. Copyright by INCORS GmbH (www.incors.com).</desc>
    <g>
        <path d="M307.45,226.55c55.95,-23.8 108.55,-76.75 108.55,-146.55l0,-48l-320,0l0,48c0,69.8 52.6,122.75 108.55,146.55c12.05,5.15 19.45,16.35 19.45,29.45c0,13.1 -7.4,24.3 -19.45,29.45c-55.95,23.8 -108.55,76.75 -108.55,146.55l0,48l320,0l0,-48c0,-69.8 -52.6,-122.75 -108.55,-146.55c-12.05,-5.15 -19.45,-16.35 -19.45,-29.45c0,-13.1 7.4,-24.3 19.45,-29.45z" fill="#dff3fd"/>
        <path d="M307.45,226.55c55.95,-23.8 108.55,-76.75 108.55,-146.55l0,-48l-160,0l-160,0l0,48l160,0l0,400l160,0l0,-48c0,-69.8 -52.6,-122.75 -108.55,-146.55c-12.05,-5.15 -19.45,-16.35 -19.45,-29.45c0,-13.1 7.4,-24.3 19.45,-29.45z" fill="#b1e3fb"/>
        <path d="M130.2,144c18.15,30.25 47.95,53.95 80.6,67.85c17.95,7.65 29.2,24.65 29.2,44.15c0,23.95 0,38.4 0,62.4c0,13.65 -11.25,25.55 -29.2,30.9c-53.15,15.85 -98.8,56.3 -98.8,98.7l0,16l288,0l0,-16c0,-42.4 -45.65,-82.85 -98.8,-98.7c-17.95,-5.35 -29.2,-17.25 -29.2,-30.9c0,-30.75 0,-33.2 0,-62.4c0,-19.5 11.25,-36.5 29.2,-44.15c32.65,-13.9 62.45,-37.6 80.6,-67.85z" fill="#f7a724"/>
        <path d="M256,464l144,0l0,-16c0,-42.4 -45.65,-82.85 -98.8,-98.7c-17.95,-5.35 -29.2,-17.25 -29.2,-30.9c0,-30.75 0,-33.2 0,-62.4c0,-19.5 11.25,-36.5 29.2,-44.15c32.65,-13.9 62.45,-37.6 80.6,-67.85l-125.8,0z" fill="#f37e16"/>
        <path d="M80,448l352,0c8.8,0 16,7.2 16,16l0,48l-384,0l0,-48c0,-8.8 7.2,-16 16,-16z M64,0l384,0l0,48c0,8.8 -7.2,16 -16,16l-352,0c-8.8,0 -16,-7.2 -16,-16z" fill="#546e7a"/>
        <path d="M256,448l176,0c8.8,0 16,7.2 16,16l0,48l-192,0z M256,64l0,-64l192,0l0,48c0,8.8 -7.2,16 -16,16z" fill="#445a64"/>
    </g>
</svg>