<?xml version="1.0" encoding="UTF-8" standalone="no"?>
<svg
   xmlns:dc="http://purl.org/dc/elements/1.1/"
   xmlns:cc="http://creativecommons.org/ns#"
   xmlns:rdf="http://www.w3.org/1999/02/22-rdf-syntax-ns#"
   xmlns:svg="http://www.w3.org/2000/svg"
   xmlns="http://www.w3.org/2000/svg"
   xmlns:sodipodi="http://sodipodi.sourceforge.net/DTD/sodipodi-0.dtd"
   xmlns:inkscape="http://www.inkscape.org/namespaces/inkscape"
   x="0"
   y="0"
   width="512"
   height="512"
   version="1.1"
   viewBox="0 0 512 512"
   id="svg4497"
   sodipodi:docname="document_export.svg"
   inkscape:version="0.92.4 (5da689c313, 2019-01-14)">
  <metadata
     id="metadata4503">
    <rdf:RDF>
      <cc:Work
         rdf:about="">
        <dc:format>image/svg+xml</dc:format>
        <dc:type
           rdf:resource="http://purl.org/dc/dcmitype/StillImage" />
        <dc:title>document empty icon</dc:title>
      </cc:Work>
    </rdf:RDF>
  </metadata>
  <defs
     id="defs4501" />
  <sodipodi:namedview
     pagecolor="#ffffff"
     bordercolor="#666666"
     borderopacity="1"
     objecttolerance="10"
     gridtolerance="10"
     guidetolerance="10"
     inkscape:pageopacity="0"
     inkscape:pageshadow="2"
     inkscape:window-width="1920"
     inkscape:window-height="1017"
     id="namedview4499"
     showgrid="false"
     inkscape:zoom="0.22596573"
     inkscape:cx="-1420.5749"
     inkscape:cy="256"
     inkscape:window-x="1912"
     inkscape:window-y="-8"
     inkscape:window-maximized="1"
     inkscape:current-layer="svg4497" />
  <title
     id="title4485">document empty icon</title>
  <desc
     id="desc4487">document empty icon from the IconExperience.com G-Collection. Copyright by INCORS GmbH (www.incors.com).</desc>
  <g
     id="g4495"
     transform="matrix(0.9942377,0,0,1,1.4751488,0)"
     style="stroke-width:1.00289369">
    <path
       d="M 288,0 H 72 c -4.4,0 -8,3.6 -8,8 v 496 c 0,4.4 3.6,8 8,8 h 368 c 4.4,0 8,-3.6 8,-8 V 160 c 0,-8.85 -3.6,-16.85 -9.4,-22.65 L 310.65,9.4 C 304.85,3.6 296.85,0 288,0 Z"
       id="path4489"
       inkscape:connector-curvature="0"
       style="fill:#dff3fd;stroke-width:1.00289369" />
    <path
       d="M 66.1,509.35 C 67.55,511 69.65,512 72,512 h 368 c 4.4,0 8,-3.6 8,-8 V 160 c 0,-8.85 -3.6,-16.85 -9.4,-22.65 C 432.8,131.6 424.8,128 416,128 h -48 z"
       id="path4491"
       inkscape:connector-curvature="0"
       style="fill:#b1e3fb;stroke-width:1.00289369" />
    <path
       d="M 438.6,137.35 C 432.8,131.6 424.8,128 416,128 h -88 c -4.4,0 -8,-3.6 -8,-8 V 32 c 0,-8.5 -3.4,-16.6 -9.4,-22.6 z"
       id="path4493"
       inkscape:connector-curvature="0"
       style="fill:#28b5f5;stroke-width:1.00289369" />
  </g>
  <path
     style="fill:#0299e3;stroke-width:0.99999994;fill-opacity:1"
     inkscape:connector-curvature="0"
     d="M 512,364.93444 C 512,446.15752 446.15752,512 364.93444,512 283.71136,512 217.86889,446.15752 217.86889,364.93444 c 0,-81.22308 65.84247,-147.06555 147.06555,-147.06555 81.22308,0 147.06556,65.84247 147.06556,147.06555 z"
     id="path874" />
  <path
     style="fill:#0299e3;stroke-width:0.99999994"
     inkscape:connector-curvature="0"
     d="M 512,364.93444 C 512,446.15752 446.15752,512 364.93444,512 324.33822,512 287.57183,495.54704 260.94684,468.92205 L 468.92205,260.94684 C 495.54704,287.57183 512,324.33822 512,364.93444 Z"
     id="path876" />
  <polygon
     style="fill:#ffffff;stroke-width:1.63192523"
     points="112,208 112,304 288,304 288,384 416,256 288,128 288,208 "
     id="polygon878"
     transform="matrix(0.61277314,0,0,0.61277314,208.06452,208.06452)" />
  <polygon
     style="fill:#ffffff;stroke-width:1.63192523;fill-opacity:1"
     points="336,176 208,304 288,304 288,384 416,256 "
     id="polygon880"
     transform="matrix(0.61277314,0,0,0.61277314,208.06452,208.06452)" />
</svg>
