<?xml version="1.0" encoding="UTF-8" standalone="no"?>
<svg
   xmlns:dc="http://purl.org/dc/elements/1.1/"
   xmlns:cc="http://creativecommons.org/ns#"
   xmlns:rdf="http://www.w3.org/1999/02/22-rdf-syntax-ns#"
   xmlns:svg="http://www.w3.org/2000/svg"
   xmlns="http://www.w3.org/2000/svg"
   xmlns:sodipodi="http://sodipodi.sourceforge.net/DTD/sodipodi-0.dtd"
   xmlns:inkscape="http://www.inkscape.org/namespaces/inkscape"
   x="0"
   y="0"
   width="512"
   height="512"
   version="1.1"
   viewBox="0 0 512 512"
   id="svg5434"
   inkscape:version="0.91 r13725"
   sodipodi:docname="deshaker.svg">
  <metadata
     id="metadata5452">
    <rdf:RDF>
      <cc:Work
         rdf:about="">
        <dc:format>image/svg+xml</dc:format>
        <dc:type
           rdf:resource="http://purl.org/dc/dcmitype/StillImage" />
        <dc:title>film icon</dc:title>
      </cc:Work>
    </rdf:RDF>
  </metadata>
  <defs
     id="defs5450" />
  <sodipodi:namedview
     pagecolor="#ffffff"
     bordercolor="#666666"
     borderopacity="1"
     objecttolerance="10"
     gridtolerance="10"
     guidetolerance="10"
     inkscape:pageopacity="0"
     inkscape:pageshadow="2"
     inkscape:window-width="1920"
     inkscape:window-height="1017"
     id="namedview5448"
     showgrid="false"
     inkscape:zoom="0.4609375"
     inkscape:cx="256"
     inkscape:cy="256"
     inkscape:window-x="1912"
     inkscape:window-y="-8"
     inkscape:window-maximized="1"
     inkscape:current-layer="svg5434" />
  <title
     id="title5436">film icon</title>
  <desc
     id="desc5438">film icon from the IconExperience.com G-Collection. Copyright by INCORS GmbH (www.incors.com).</desc>
  <g
     id="g5440"
     transform="matrix(0.6779661,0,0,0.6779661,82.440678,82.440678)">
    <path
       d="m 64,0 0,512 384,0 0,-512 z m 16,16 32,0 0,32 -32,0 z m 320,0 32,0 0,32 -32,0 z m -320,64 32,0 0,32 -32,0 z m 320,0 32,0 0,32 -32,0 z m -320,64 32,0 0,32 -32,0 z m 320,0 32,0 0,32 -32,0 z m -320,64 32,0 0,32 -32,0 z m 320,0 32,0 0,32 -32,0 z m -320,64 32,0 0,32 -32,0 z m 320,0 32,0 0,32 -32,0 z m -320,64 32,0 0,32 -32,0 z m 320,0 32,0 0,32 -32,0 z m -320,64 32,0 0,32 -32,0 z m 320,0 32,0 0,32 -32,0 z m -320,64 32,0 0,32 -32,0 z m 320,0 32,0 0,32 -32,0 z"
       id="path5442"
       inkscape:connector-curvature="0"
       style="fill:#445a64" />
    <path
       d="m 128,0 256,0 0,128 c 0,8.8 -7.2,16 -16,16 l -224,0 c -8.8,0 -16,-7.2 -16,-16 z m 16,368 224,0 c 8.8,0 16,7.2 16,16 l 0,128 -256,0 0,-128 c 0,-8.8 7.2,-16 16,-16 z m 0,-192 224,0 c 8.8,0 16,7.2 16,16 l 0,128 c 0,8.8 -7.2,16 -16,16 l -224,0 c -8.8,0 -16,-7.2 -16,-16 l 0,-128 c 0,-8.8 7.2,-16 16,-16 z"
       id="path5444"
       inkscape:connector-curvature="0"
       style="fill:#28b5f5" />
    <path
       d="m 378.15,179.65 c 3.55,2.95 5.85,7.4 5.85,12.35 l 0,128 c 0,8.8 -7.2,16 -16,16 l -224,0 c -3.85,0 -7.4,-1.35 -10.15,-3.65 z M 384,0 l 0,128 c 0,8.8 -7.2,16 -16,16 l -224,0 c -3.85,0 -7.4,-1.35 -10.15,-3.65 L 358.4,0 Z m -5.85,371.65 c 3.55,2.95 5.85,7.4 5.85,12.35 l 0,128 -230.4,0 z"
       id="path5446"
       inkscape:connector-curvature="0"
       style="fill:#0299e3" />
  </g>
  <path
     style="color:#000000;font-style:normal;font-variant:normal;font-weight:normal;font-stretch:normal;font-size:medium;line-height:normal;font-family:sans-serif;text-indent:0;text-align:start;text-decoration:none;text-decoration-line:none;text-decoration-style:solid;text-decoration-color:#000000;letter-spacing:normal;word-spacing:normal;text-transform:none;direction:ltr;block-progression:tb;writing-mode:lr-tb;baseline-shift:baseline;text-anchor:start;white-space:normal;clip-rule:nonzero;display:inline;overflow:visible;visibility:visible;opacity:1;isolation:auto;mix-blend-mode:normal;color-interpolation:sRGB;color-interpolation-filters:linearRGB;solid-color:#000000;solid-opacity:1;fill:#0299e3;fill-opacity:1;fill-rule:nonzero;stroke:none;stroke-width:32;stroke-linecap:round;stroke-linejoin:miter;stroke-miterlimit:4;stroke-dasharray:none;stroke-dashoffset:0;stroke-opacity:1;color-rendering:auto;image-rendering:auto;shape-rendering:auto;text-rendering:auto;enable-background:accumulate"
     d="M 440.31836,87.515625 A 16.0016,16.0016 0 0 0 428.3457,113.94141 c 68.65527,82.27055 69.04076,201.48331 0.91797,284.19531 a 16.0016,16.0016 0 1 0 24.70117,20.3457 C 531.73988,324.05105 531.29702,187.36488 452.91406,93.4375 a 16.0016,16.0016 0 0 0 -12.5957,-5.921875 z"
     id="path5994"
     inkscape:connector-curvature="0" />
  <path
     style="color:#000000;font-style:normal;font-variant:normal;font-weight:normal;font-stretch:normal;font-size:medium;line-height:normal;font-family:sans-serif;text-indent:0;text-align:start;text-decoration:none;text-decoration-line:none;text-decoration-style:solid;text-decoration-color:#000000;letter-spacing:normal;word-spacing:normal;text-transform:none;direction:ltr;block-progression:tb;writing-mode:lr-tb;baseline-shift:baseline;text-anchor:start;white-space:normal;clip-rule:nonzero;display:inline;overflow:visible;visibility:visible;opacity:1;isolation:auto;mix-blend-mode:normal;color-interpolation:sRGB;color-interpolation-filters:linearRGB;solid-color:#000000;solid-opacity:1;fill:#0299e3;fill-opacity:1;fill-rule:nonzero;stroke:none;stroke-width:32;stroke-linecap:round;stroke-linejoin:miter;stroke-miterlimit:4;stroke-dasharray:none;stroke-dashoffset:0;stroke-opacity:1;color-rendering:auto;image-rendering:auto;shape-rendering:auto;text-rendering:auto;enable-background:accumulate"
     d="M 410.16406,137.59766 A 16.0016,16.0016 0 0 0 396.875,162.58398 c 35.00766,53.20094 35.2213,133.40045 0.46875,186.91211 a 16.0016,16.0016 0 1 0 26.83594,17.42774 c 42.44975,-65.36375 42.22582,-156.88967 -0.57227,-221.92969 a 16.0016,16.0016 0 0 0 -13.44336,-7.39648 z"
     id="path5996"
     inkscape:connector-curvature="0" />
  <path
     style="color:#000000;font-style:normal;font-variant:normal;font-weight:normal;font-stretch:normal;font-size:medium;line-height:normal;font-family:sans-serif;text-indent:0;text-align:start;text-decoration:none;text-decoration-line:none;text-decoration-style:solid;text-decoration-color:#000000;letter-spacing:normal;word-spacing:normal;text-transform:none;direction:ltr;block-progression:tb;writing-mode:lr-tb;baseline-shift:baseline;text-anchor:start;white-space:normal;clip-rule:nonzero;display:inline;overflow:visible;visibility:visible;opacity:1;isolation:auto;mix-blend-mode:normal;color-interpolation:sRGB;color-interpolation-filters:linearRGB;solid-color:#000000;solid-opacity:1;fill:#0299e3;fill-opacity:1;fill-rule:nonzero;stroke:none;stroke-width:32;stroke-linecap:round;stroke-linejoin:miter;stroke-miterlimit:4;stroke-dasharray:none;stroke-dashoffset:0;stroke-opacity:1;color-rendering:auto;image-rendering:auto;shape-rendering:auto;text-rendering:auto;enable-background:accumulate"
     d="M 71.681641,87.515625 A 16.0016,16.0016 0 0 1 83.654297,113.94141 C 14.99903,196.21196 14.613535,315.42472 82.736328,398.13672 a 16.0016,16.0016 0 1 1 -24.701172,20.3457 C -19.739881,324.05105 -19.297019,187.36488 59.085938,93.4375 a 16.0016,16.0016 0 0 1 12.595703,-5.921875 z"
     id="path6004"
     inkscape:connector-curvature="0" />
  <path
     style="color:#000000;font-style:normal;font-variant:normal;font-weight:normal;font-stretch:normal;font-size:medium;line-height:normal;font-family:sans-serif;text-indent:0;text-align:start;text-decoration:none;text-decoration-line:none;text-decoration-style:solid;text-decoration-color:#000000;letter-spacing:normal;word-spacing:normal;text-transform:none;direction:ltr;block-progression:tb;writing-mode:lr-tb;baseline-shift:baseline;text-anchor:start;white-space:normal;clip-rule:nonzero;display:inline;overflow:visible;visibility:visible;opacity:1;isolation:auto;mix-blend-mode:normal;color-interpolation:sRGB;color-interpolation-filters:linearRGB;solid-color:#000000;solid-opacity:1;fill:#0299e3;fill-opacity:1;fill-rule:nonzero;stroke:none;stroke-width:32;stroke-linecap:round;stroke-linejoin:miter;stroke-miterlimit:4;stroke-dasharray:none;stroke-dashoffset:0;stroke-opacity:1;color-rendering:auto;image-rendering:auto;shape-rendering:auto;text-rendering:auto;enable-background:accumulate"
     d="M 101.83594,137.59766 A 16.0016,16.0016 0 0 1 115.125,162.58398 C 80.117342,215.78492 79.903696,295.98443 114.65625,349.49609 A 16.0016,16.0016 0 1 1 87.820312,366.92383 C 45.370559,301.56008 45.594485,210.03416 88.392578,144.99414 a 16.0016,16.0016 0 0 1 13.443362,-7.39648 z"
     id="path6006"
     inkscape:connector-curvature="0" />
</svg>
