<svg x="0" y="0" width="512" height="512" version="1.1"
    xmlns="http://www.w3.org/2000/svg"
    xmlns:xlink="http://www.w3.org/1999/xlink" viewBox="0 0 512 512">
    <title>film icon</title>
    <desc>film icon from the IconExperience.com G-Collection. Copyright by INCORS GmbH (www.incors.com).</desc>
    <g>
        <path d="M64,0l0,512l384,0l0,-512z M80,16l32,0l0,32l-32,0z M400,16l32,0l0,32l-32,0z M80,80l32,0l0,32l-32,0z M400,80l32,0l0,32l-32,0z M80,144l32,0l0,32l-32,0z M400,144l32,0l0,32l-32,0z M80,208l32,0l0,32l-32,0z M400,208l32,0l0,32l-32,0z M80,272l32,0l0,32l-32,0z M400,272l32,0l0,32l-32,0z M80,336l32,0l0,32l-32,0z M400,336l32,0l0,32l-32,0z M80,400l32,0l0,32l-32,0z M400,400l32,0l0,32l-32,0z M80,464l32,0l0,32l-32,0z M400,464l32,0l0,32l-32,0z" fill="#445a64"/>
        <path d="M128,0l256,0l0,128c0,8.8 -7.2,16 -16,16l-224,0c-8.8,0 -16,-7.2 -16,-16z M144,368l224,0c8.8,0 16,7.2 16,16l0,128l-256,0l0,-128c0,-8.8 7.2,-16 16,-16z M144,176l224,0c8.8,0 16,7.2 16,16l0,128c0,8.8 -7.2,16 -16,16l-224,0c-8.8,0 -16,-7.2 -16,-16l0,-128c0,-8.8 7.2,-16 16,-16z" fill="#28b5f5"/>
        <path d="M378.15,179.65c3.55,2.95 5.85,7.4 5.85,12.35l0,128c0,8.8 -7.2,16 -16,16l-224,0c-3.85,0 -7.4,-1.35 -10.15,-3.65z M384,0l0,128c0,8.8 -7.2,16 -16,16l-224,0c-3.85,0 -7.4,-1.35 -10.15,-3.65l224.55,-140.35z M378.15,371.65c3.55,2.95 5.85,7.4 5.85,12.35l0,128l-230.4,0z" fill="#0299e3"/>
    </g>
</svg>