<svg x="0" y="0" width="512" height="512" version="1.1"
    xmlns="http://www.w3.org/2000/svg"
    xmlns:xlink="http://www.w3.org/1999/xlink" viewBox="0 0 512 512">
    <title>movie icon</title>
    <desc>movie icon from the IconExperience.com G-Collection. Copyright by INCORS GmbH (www.incors.com).</desc>
    <g>
        <path d="M448,416l-240,0l0,-128l240,0z M304,400l0,-16l-16,0l0,16z M336,400l0,-16l-16,0l0,16z M368,400l0,-16l-16,0l0,16z M400,400l0,-16l-16,0l0,16z M432,400l0,-16l-16,0l0,16z M384,304l0,16l16,0l0,-16z M416,304l0,16l16,0l0,-16z" fill="#0299e3"/>
        <polygon points="448,288 336,384 336,512 448,416" fill="#0276bb"/>
        <path d="M512,512l-176,0l0,-128l176,0z M352,400l0,16l16,0l0,-16z M368,496l0,-16l-16,0l0,16z M400,496l0,-16l-16,0l0,16z M432,496l0,-16l-16,0l0,16z M464,496l0,-16l-16,0l0,16z M496,496l0,-16l-16,0l0,16z M384,400l0,16l16,0l0,-16z M416,400l0,16l16,0l0,-16z M448,400l0,16l16,0l0,-16z M480,400l0,16l16,0l0,-16z" fill="#4ec1f5"/>
        <path d="M208,416c-114.9,0 -208,-93.15 -208,-208c0,-114.9 93.1,-208 208,-208c114.9,0 208,93.1 208,208c0,114.85 -93.1,208 -208,208z" fill="#788f9b"/>
        <path d="M208,416c-57.45,0 -109.45,-23.3 -147.1,-60.9l294.2,-294.2c37.6,37.65 60.9,89.65 60.9,147.1c0,114.85 -93.1,208 -208,208z" fill="#546e7a"/>
        <path d="M208,400c-106.05,0 -192,-85.95 -192,-192c0,-106.05 85.95,-192 192,-192c106.05,0 192,85.95 192,192c0,106.05 -85.95,192 -192,192z" fill="#afbdc3"/>
        <path d="M208,400c-53,0 -101,-21.5 -135.75,-56.25l271.5,-271.5c34.75,34.75 56.25,82.75 56.25,135.75c0,106.05 -85.95,192 -192,192z" fill="#8fa3ad"/>
        <path d="M160,208c0,-8.85 7.15,-16 16,-16c8.85,0 16,7.15 16,16c0,8.85 -7.15,16 -16,16c-8.85,0 -16,-7.15 -16,-16z M208,160c8.85,0 16,7.15 16,16c0,8.85 -7.15,16 -16,16c-8.85,0 -16,-7.15 -16,-16c0,-8.85 7.15,-16 16,-16z" fill="#445a64"/>
        <path d="M256,208c0,8.85 -7.15,16 -16,16c-8.85,0 -16,-7.15 -16,-16c0,-8.85 7.15,-16 16,-16c8.85,0 16,7.15 16,16z M208,256c-8.85,0 -16,-7.15 -16,-16c0,-8.85 7.15,-16 16,-16c8.85,0 16,7.15 16,16c0,8.85 -7.15,16 -16,16z" fill="#36464e"/>
        <path d="M254.3,38.15c41.9,11.4 77.6,37.9 100.85,73.3c4.25,6.45 5.15,13.85 2.6,21.15c-2.55,7.3 -7.85,12.45 -15.2,14.85l-58.95,19.15c-3.45,1.15 -7.1,-0.1 -9.15,-3.15c-10.4,-15.55 -26.15,-27.2 -44.65,-32.45c-3.45,-1 -5.8,-4.05 -5.8,-7.7l0,-61.95c0,-7.75 3.3,-14.4 9.45,-19.1c6.1,-4.7 13.4,-6.1 20.85,-4.1z M293.45,197.05l58.95,-19.15c7.4,-2.4 14.7,-1.3 21.1,3.1c6.35,4.35 9.95,10.85 10.3,18.6c2.05,42.8 -11.6,85 -38.55,118.55c-4.8,6.05 -11.55,9.15 -19.3,8.95c-7.7,-0.15 -14.25,-3.6 -18.8,-9.85l-36.45,-50.15c-2.15,-2.95 -2.05,-6.8 0.2,-9.65c11.75,-14.95 17.75,-33.5 17.05,-52.5c-0.15,-3.6 2.05,-6.75 5.5,-7.9z M244.85,285.9l36.4,50.15c4.55,6.25 5.8,13.55 3.55,21c-2.2,7.4 -7.25,12.85 -14.5,15.55c-40,15.05 -84.6,15.05 -124.6,0c-7.25,-2.7 -12.3,-8.15 -14.5,-15.55c-2.25,-7.4 -1,-14.75 3.55,-21l36.4,-50.15c2.15,-2.9 5.85,-4.05 9.25,-2.8c17.7,6.5 37.5,6.5 55.2,0c3.4,-1.25 7.1,-0.15 9.25,2.8z M145.3,267.1l-36.45,50.15c-4.55,6.25 -11.1,9.7 -18.8,9.85c-7.75,0.2 -14.5,-2.95 -19.3,-8.95c-26.95,-33.55 -40.6,-75.75 -38.55,-118.55c0.35,-7.75 3.95,-14.25 10.3,-18.6c6.4,-4.4 13.7,-5.5 21.1,-3.1l58.95,19.15c3.45,1.15 5.65,4.3 5.5,7.9c-0.7,19 5.3,37.55 17.05,52.5c2.25,2.85 2.35,6.7 0.2,9.65z M132.4,166.6l-58.95,-19.15c-7.35,-2.4 -12.65,-7.55 -15.2,-14.85c-2.55,-7.3 -1.65,-14.7 2.6,-21.15c23.25,-35.4 58.95,-61.9 100.85,-73.3c7.45,-2 14.75,-0.6 20.85,4.1c6.15,4.7 9.45,11.35 9.45,19.1l0,61.95c0,3.65 -2.35,6.7 -5.8,7.7c-18.5,5.25 -34.25,16.9 -44.65,32.45c-2.05,3.05 -5.7,4.3 -9.15,3.15z" fill="#546e7a"/>
        <path d="M332.45,83.55c8.5,8.5 16.1,17.85 22.7,27.9c4.25,6.45 5.15,13.85 2.6,21.15c-2.55,7.3 -7.85,12.45 -15.2,14.85l-58.95,19.15c-3.45,1.15 -7.1,-0.1 -9.15,-3.15c-2.9,-4.3 -6.2,-8.35 -9.9,-12z M88.9,327.1l46.8,-46.8l-26.85,36.95c-4.55,6.25 -11.1,9.7 -18.8,9.85c-0.4,0 -0.8,0 -1.15,0z M293.45,197.05l58.95,-19.15c7.4,-2.4 14.7,-1.3 21.1,3.1c6.35,4.35 9.95,10.85 10.3,18.6c2.05,42.8 -11.6,85 -38.55,118.55c-4.8,6.05 -11.55,9.15 -19.3,8.95c-7.7,-0.15 -14.25,-3.6 -18.8,-9.85l-36.45,-50.15c-2.15,-2.95 -2.05,-6.8 0.2,-9.65c11.75,-14.95 17.75,-33.5 17.05,-52.5c-0.15,-3.6 2.05,-6.75 5.5,-7.9z M244.85,285.9l36.4,50.15c4.55,6.25 5.8,13.55 3.55,21c-2.2,7.4 -7.25,12.85 -14.5,15.55c-40,15.05 -84.6,15.05 -124.6,0c-7.25,-2.7 -12.3,-8.15 -14.5,-15.55c-2.25,-7.4 -1,-14.75 3.55,-21l36.4,-50.15c2.15,-2.9 5.85,-4.05 9.25,-2.8c17.7,6.5 37.5,6.5 55.2,0c3.4,-1.25 7.1,-0.15 9.25,2.8z" fill="#445a64"/>
    </g>
</svg>