<?xml version="1.0" encoding="UTF-8" standalone="no"?>
<svg
   xmlns:dc="http://purl.org/dc/elements/1.1/"
   xmlns:cc="http://creativecommons.org/ns#"
   xmlns:rdf="http://www.w3.org/1999/02/22-rdf-syntax-ns#"
   xmlns:svg="http://www.w3.org/2000/svg"
   xmlns="http://www.w3.org/2000/svg"
   xmlns:sodipodi="http://sodipodi.sourceforge.net/DTD/sodipodi-0.dtd"
   xmlns:inkscape="http://www.inkscape.org/namespaces/inkscape"
   x="0"
   y="0"
   width="512"
   height="512"
   version="1.1"
   viewBox="0 0 512 512"
   id="svg4136"
   inkscape:version="0.91 r13725"
   sodipodi:docname="load_script2.svg">
  <metadata
     id="metadata4160">
    <rdf:RDF>
      <cc:Work
         rdf:about="">
        <dc:format>image/svg+xml</dc:format>
        <dc:type
           rdf:resource="http://purl.org/dc/dcmitype/StillImage" />
        <dc:title>folder3 document icon</dc:title>
      </cc:Work>
    </rdf:RDF>
  </metadata>
  <defs
     id="defs4158" />
  <sodipodi:namedview
     pagecolor="#ffffff"
     bordercolor="#666666"
     borderopacity="1"
     objecttolerance="10"
     gridtolerance="10"
     guidetolerance="10"
     inkscape:pageopacity="0"
     inkscape:pageshadow="2"
     inkscape:window-width="1920"
     inkscape:window-height="1017"
     id="namedview4156"
     showgrid="false"
     inkscape:zoom="0.83972969"
     inkscape:cx="154.10441"
     inkscape:cy="209.68891"
     inkscape:window-x="1912"
     inkscape:window-y="-8"
     inkscape:window-maximized="1"
     inkscape:current-layer="svg4136" />
  <title
     id="title4138">folder3 document icon</title>
  <desc
     id="desc4140">folder3 document icon from the IconExperience.com G-Collection. Copyright by INCORS GmbH (www.incors.com).</desc>
  <path
     style="fill:#ffb100"
     inkscape:connector-curvature="0"
     id="path4144"
     d="m 434.2,202.35 -20.4,14.05 c -8.9,6.15 -13.8,15.45 -13.8,26.3 l 0,229.3 c 0,4.4 -3.6,8 -8,8 l -352,0 c -4.4,0 -8,-3.6 -8,-8 L 32,40 c 0,-4.4 3.6,-8 8,-8 l 400,0 c 4.4,0 8,3.6 8,8 l 0,136 c 0,10.85 -4.9,20.2 -13.8,26.35 z" />
  <g
     id="g4189"
     transform="matrix(0.91961699,0,0,0.91961699,583.45477,137.08024)">
    <polygon
       transform="matrix(1.0416666,0,0,0.78125,-544.36726,-27.10589)"
       id="polygon4192"
       points="448,0 448,512 64,512 64,0 "
       style="fill:#dff3fd" />
    <polygon
       transform="matrix(1.0416667,0,0,1.0904948,-544.36726,-154.18924)"
       id="polygon4196"
       points="64,272 64,224 448,224 448,272 "
       style="fill:#ffc928" />
    <path
       inkscape:connector-curvature="0"
       id="path4200"
       d="m -441.76309,2.58161 0,25.60096 112.25329,0 0,-25.60096 -112.25329,0 z m 48.10855,51.20192 0,25.60096 176.39803,0 0,-25.60096 -176.39803,0 z m 64.14474,51.20192 0,25.60096 192.43421,0 0,-25.60096 -192.43421,0 z m 0,51.20192 0,25.60097 112.25329,0 0,-25.60097 -112.25329,0 z m -64.14474,51.20193 0,25.60096 144.32566,0 0,-25.60096 -144.32566,0 z m 0,51.20192 0,25.60097 112.25329,0 0,-25.60097 -112.25329,0 z m 0,51.20193 0,25.60099 192.43422,0 0,-25.60099 -192.43422,0 z"
       style="fill:#445a64" />
  </g>
  <path
     style="fill:#ffd34e"
     inkscape:connector-curvature="0"
     id="path4152"
     d="m 246.2,170.3 0,-159.65 c 0,-4.95 -2.85,-8.55 -6.3,-8.1 L 37,29.65 c -2.8,0.35 -5,4.2 -5,8.6 0,144 0,288 0,432 0,4.35 2.2,8.35 5,8.7 76.15,10.15 152.3,20.3 228.4,30.45 3.65,0.5 6.6,-3.3 6.6,-8.3 l -0.05,-266.35 c 0,-10.7 -2.9,-19.8 -8.5,-26.9 -2.95,-3.75 -5.95,-7.45 -8.9,-11.15 -5.55,-6.9 -8.35,-15.9 -8.35,-26.4 z" />
  <path
     style="fill:#ffc928"
     inkscape:connector-curvature="0"
     id="path4154"
     d="m 246.2,170.3 0,-159.65 c 0,-2.5 -0.75,-4.65 -1.9,-6.1 L 45.35,480.1 c 73.35,9.75 146.7,19.55 220.05,29.3 3.65,0.5 6.6,-3.3 6.6,-8.3 l -0.05,-266.35 c 0,-10.7 -2.9,-19.8 -8.5,-26.9 -2.95,-3.75 -5.95,-7.45 -8.9,-11.15 -5.55,-6.9 -8.35,-15.9 -8.35,-26.4 z" />
</svg>
