<?xml version="1.0" encoding="UTF-8"?>
<svg width="144.5mm" height="144.5mm" version="1.1" viewBox="0 0 512 512" xmlns="http://www.w3.org/2000/svg">
 <style/>
 <g transform="translate(387.99 -121.26)">
  <path d="m124.01 633.26h-261.41v-42.56h261.41zm0-106.4h-261.41v-42.56h261.41zm0-106.4h-174.28v-42.56h174.28z" fill="#0299e3"/>
  <g transform="matrix(1.2377 0 0 1.2377 352 -52.517)" stroke-width=".75742">
   <path d="m-322.93 155.39 74.25 74.25-222.75 222.75-105 50.672c-5.7656 2.8125-12.422 1.5938-16.969-2.9531-4.5469-4.5469-5.7656-11.156-2.9531-16.969l50.719-105z" fill="#ffc928"/>
   <path d="m-285.81 192.51 37.125 37.125-222.75 222.75-105 50.672c-5.7656 2.8125-12.422 1.5938-16.969-2.9531z" fill="#ffb100"/>
   <path d="m-471.38 452.39-105.05 50.672c-5.7656 2.8125-12.422 1.5938-16.969-2.9531-4.5469-4.5469-5.7656-11.156-2.9531-16.969l50.719-105z" fill="#ffdfb1"/>
   <path d="m-471.38 452.39-105.05 50.672c-5.7656 2.8125-12.422 1.5938-16.969-2.9531l84.891-84.844z" fill="#ffcb7f"/>
   <path d="m-542.91 486.89-33.516 16.172c-5.7656 2.8125-12.422 1.5938-16.969-2.9531-4.5469-4.5469-5.7656-11.156-2.9531-16.969l16.172-33.469z" fill="#788f9b"/>
   <path d="m-542.91 486.89-33.516 16.172c-5.7656 2.8125-12.422 1.5938-16.969-2.9531l31.828-31.828z" fill="#546e7a"/>
   <path d="m-238.04 219-42.469 42.469-74.25-74.25 42.469-42.422c5.8125-5.8594 15.375-5.8594 21.188 0l53.063 53.016c5.8125 5.8594 5.8125 15.375 0 21.188z" fill="#ff7042"/>
   <path d="m-264.57 171.28 26.531 26.531c5.8125 5.8594 5.8125 15.375 0 21.188l-42.469 42.469-37.125-37.125z" fill="#f3501e"/>
  </g>
 </g>
</svg>
