<svg x="0" y="0" width="512" height="512" version="1.1"
    xmlns="http://www.w3.org/2000/svg"
    xmlns:xlink="http://www.w3.org/1999/xlink" viewBox="0 0 512 512">
    <title>clipboard paste icon</title>
    <desc>clipboard paste icon from the IconExperience.com G-Collection. Copyright by INCORS GmbH (www.incors.com).</desc>
    <g>
        <path d="M96,48l320,0c8.8,0 16,7.2 16,16l0,400c0,8.8 -7.2,16 -16,16l-320,0c-8.8,0 -16,-7.2 -16,-16l0,-400c0,-8.8 7.2,-16 16,-16z" fill="#ff8d00"/>
        <path d="M427.75,53.2c2.65,2.85 4.25,6.65 4.25,10.8l0,400c0,8.8 -7.2,16 -16,16l-320,0c-4.65,0 -8.85,-2 -11.75,-5.2z M144,80l224,0l0,32l-224,0z" fill="#ff6e00"/>
        <path d="M256,0c28.45,0 53.95,12.35 71.55,32l24.45,0c8.8,0 16,7.2 16,16l0,48l-224,0l0,-48c0,-8.8 7.2,-16 16,-16l24.45,0c17.6,-19.65 43.1,-32 71.55,-32z M256,16c8.85,0 16,7.15 16,16c0,8.85 -7.15,16 -16,16c-8.85,0 -16,-7.15 -16,-16c0,-8.85 7.15,-16 16,-16z" fill="#788f9b"/>
        <polygon points="144,64 368,64 368,96 144,96" fill="#546e7a"/>
        <polygon points="256,240 480,240 480,512 256,512" fill="#dff3fd"/>
        <polygon points="480,240 480,512 256,512" fill="#b1e3fb"/>
        <path d="M288,272l160,0l0,16l-160,0z M288,464l101.7,0l0,16l-101.7,0z M288,416l160,0l0,16l-160,0z M288,368l160,0l0,16l-160,0z M288,320l160,0l0,16l-160,0z" fill="#788f9b"/>
        <path d="M448,278.85l0,9.15l-7.55,0z M288,473.15l7.55,-9.15l94.15,0l0,16l-101.7,0z M321.9,432l13.15,-16l112.95,0l0,16z M361.4,384l13.2,-16l73.4,0l0,16z M400.95,336l13.15,-16l33.9,0l0,16z" fill="#546e7a"/>
    </g>
</svg>