<?xml version="1.0" encoding="UTF-8" standalone="no"?>
<svg
   xmlns:dc="http://purl.org/dc/elements/1.1/"
   xmlns:cc="http://creativecommons.org/ns#"
   xmlns:rdf="http://www.w3.org/1999/02/22-rdf-syntax-ns#"
   xmlns:svg="http://www.w3.org/2000/svg"
   xmlns="http://www.w3.org/2000/svg"
   xmlns:sodipodi="http://sodipodi.sourceforge.net/DTD/sodipodi-0.dtd"
   xmlns:inkscape="http://www.inkscape.org/namespaces/inkscape"
   x="0"
   y="0"
   width="512"
   height="512"
   version="1.1"
   viewBox="0 0 512 512"
   id="svg4136"
   inkscape:version="0.91 r13725"
   sodipodi:docname="network_preoperational.svg">
  <metadata
     id="metadata4154">
    <rdf:RDF>
      <cc:Work
         rdf:about="">
        <dc:format>image/svg+xml</dc:format>
        <dc:type
           rdf:resource="http://purl.org/dc/dcmitype/StillImage" />
        <dc:title>elements hierarchy icon</dc:title>
      </cc:Work>
    </rdf:RDF>
  </metadata>
  <defs
     id="defs4152" />
  <sodipodi:namedview
     pagecolor="#ffffff"
     bordercolor="#666666"
     borderopacity="1"
     objecttolerance="10"
     gridtolerance="10"
     guidetolerance="10"
     inkscape:pageopacity="0"
     inkscape:pageshadow="2"
     inkscape:window-width="1920"
     inkscape:window-height="1017"
     id="namedview4150"
     showgrid="false"
     inkscape:zoom="1.6601562"
     inkscape:cx="256"
     inkscape:cy="235.00491"
     inkscape:window-x="1912"
     inkscape:window-y="-8"
     inkscape:window-maximized="1"
     inkscape:current-layer="svg4136" />
  <title
     id="title4138">elements hierarchy icon</title>
  <desc
     id="desc4140">elements hierarchy icon from the IconExperience.com G-Collection. Copyright by INCORS GmbH (www.incors.com).</desc>
  <g
     id="g4142"
     transform="translate(0,-64)">
    <path
       d="m 416,336 0,-64 -144,0 0,64 -32,0 0,-64 -144,0 0,64 -32,0 0,-80 c 0,-8.85 7.15,-16 16,-16 l 160,0 0,-80 32,0 0,80 160,0 c 8.85,0 16,7.15 16,16 l 0,80 z"
       id="path4144"
       inkscape:connector-curvature="0"
       style="fill:#546e7a" />
    <path
       d="m 368,320 128,0 c 8.8,0 16,7.2 16,16 l 0,96 c 0,8.8 -7.2,16 -16,16 l -128,0 c -8.8,0 -16,-7.2 -16,-16 l 0,-96 c 0,-8.8 7.2,-16 16,-16 z m -176,0 128,0 c 8.8,0 16,7.2 16,16 l 0,96 c 0,8.8 -7.2,16 -16,16 l -128,0 c -8.8,0 -16,-7.2 -16,-16 l 0,-96 c 0,-8.8 7.2,-16 16,-16 z m -176,0 128,0 c 8.8,0 16,7.2 16,16 l 0,96 c 0,8.8 -7.2,16 -16,16 L 16,448 C 7.2,448 0,440.8 0,432 l 0,-96 c 0,-8.8 7.2,-16 16,-16 z M 192,64 320,64 c 8.8,0 16,7.2 16,16 l 0,96 c 0,8.8 -7.2,16 -16,16 l -128,0 c -8.8,0 -16,-7.2 -16,-16 l 0,-96 c 0,-8.8 7.2,-16 16,-16 z"
       id="path4146"
       inkscape:connector-curvature="0"
       style="fill:#28b5f5" />
    <path
       d="M 330.75,68.2 C 334,71.1 336,75.35 336,80 l 0,96 c 0,8.8 -7.2,16 -16,16 l -128,0 c -4.15,0 -7.9,-1.6 -10.75,-4.2 z m 176,256 c 3.25,2.9 5.25,7.15 5.25,11.8 l 0,96 c 0,8.8 -7.2,16 -16,16 l -128,0 c -4.15,0 -7.9,-1.6 -10.75,-4.2 z m -176,0 c 3.25,2.9 5.25,7.15 5.25,11.8 l 0,96 c 0,8.8 -7.2,16 -16,16 l -128,0 c -4.15,0 -7.9,-1.6 -10.75,-4.2 z m -176,0 c 3.25,2.9 5.25,7.15 5.25,11.8 l 0,96 c 0,8.8 -7.2,16 -16,16 l -128,0 c -4.15,0 -7.9,-1.6 -10.75,-4.2 z"
       id="path4148"
       inkscape:connector-curvature="0"
       style="fill:#0299e3" />
  </g>
  <g
     id="g4360"
     transform="matrix(1.625,0,0,1.625,253.77411,-45.745874)">
    <path
       id="path4311"
       d="m 78.90824,183.22823 c 44.2,0 80,35.8 80,80 0,44.2 -35.8,80 -80,80 -44.2,0 -80,-35.8 -80,-80 0,-44.2 35.8,-80 80,-80 z"
       inkscape:connector-curvature="0"
       style="fill:#ffc928" />
    <path
       id="path4313"
       d="m 135.45824,206.67823 c 31.25,31.2 31.25,81.9 0,113.1 -31.2,31.25 -81.9,31.25 -113.1,0 z"
       inkscape:connector-curvature="0"
       style="fill:#ffb100" />
    <path
       id="path4315"
       d="m 78.90824,199.22823 c 35.35,0 64,28.65 64,64 0,35.35 -28.65,64 -64,64 -35.35,0 -64,-28.65 -64,-64 0,-35.35 28.65,-64 64,-64 z"
       inkscape:connector-curvature="0"
       style="fill:#ffdf28" />
    <path
       id="path4317"
       d="m 124.15824,217.97823 c 25,25 25,65.5 0,90.5 -25,25 -65.5,25 -90.5,0 z"
       inkscape:connector-curvature="0"
       style="fill:#ffc928" />
  </g>
</svg>
