<?xml version="1.0" encoding="UTF-8" standalone="no"?>
<!-- Created with Inkscape (http://www.inkscape.org/) -->

<svg
   xmlns:dc="http://purl.org/dc/elements/1.1/"
   xmlns:cc="http://creativecommons.org/ns#"
   xmlns:rdf="http://www.w3.org/1999/02/22-rdf-syntax-ns#"
   xmlns:svg="http://www.w3.org/2000/svg"
   xmlns="http://www.w3.org/2000/svg"
   xmlns:sodipodi="http://sodipodi.sourceforge.net/DTD/sodipodi-0.dtd"
   xmlns:inkscape="http://www.inkscape.org/namespaces/inkscape"
   width="512"
   height="512"
   viewBox="0 0 512.00001 512.00001"
   id="svg2"
   version="1.1"
   inkscape:version="0.91 r13725"
   sodipodi:docname="switch_valve.svg">
  <defs
     id="defs4">
    <clipPath
       id="clipPath4160"
       clipPathUnits="userSpaceOnUse">
      <path
         inkscape:connector-curvature="0"
         id="path4162"
         d="m 0,0 841.89,0 0,595.276 L 0,595.276 0,0 Z" />
    </clipPath>
    <clipPath
       id="clipPath4174"
       clipPathUnits="userSpaceOnUse">
      <path
         inkscape:connector-curvature="0"
         id="path4176"
         d="m 0,0 841.89,0 0,595.276 L 0,595.276 0,0 Z" />
    </clipPath>
    <clipPath
       id="clipPath4188"
       clipPathUnits="userSpaceOnUse">
      <path
         inkscape:connector-curvature="0"
         id="path4190"
         d="m 0,0 841.89,0 0,595.276 L 0,595.276 0,0 Z" />
    </clipPath>
    <clipPath
       id="clipPath4202"
       clipPathUnits="userSpaceOnUse">
      <path
         inkscape:connector-curvature="0"
         id="path4204"
         d="m 0,0 841.89,0 0,595.276 L 0,595.276 0,0 Z" />
    </clipPath>
    <clipPath
       id="clipPath4216"
       clipPathUnits="userSpaceOnUse">
      <path
         inkscape:connector-curvature="0"
         id="path4218"
         d="m 0,0 841.89,0 0,595.276 L 0,595.276 0,0 Z" />
    </clipPath>
    <clipPath
       id="clipPath4234"
       clipPathUnits="userSpaceOnUse">
      <path
         inkscape:connector-curvature="0"
         id="path4236"
         d="m 0,0 841.89,0 0,595.276 L 0,595.276 0,0 Z" />
    </clipPath>
    <clipPath
       id="clipPath4541"
       clipPathUnits="userSpaceOnUse">
      <path
         inkscape:connector-curvature="0"
         id="path4543"
         d="m 0,0 841.89,0 0,595.276 L 0,595.276 0,0 Z" />
    </clipPath>
    <clipPath
       id="clipPath4555"
       clipPathUnits="userSpaceOnUse">
      <path
         inkscape:connector-curvature="0"
         id="path4557"
         d="m 0,0 841.89,0 0,595.276 L 0,595.276 0,0 Z" />
    </clipPath>
    <clipPath
       id="clipPath4569"
       clipPathUnits="userSpaceOnUse">
      <path
         inkscape:connector-curvature="0"
         id="path4571"
         d="m 0,0 841.89,0 0,595.276 L 0,595.276 0,0 Z" />
    </clipPath>
    <clipPath
       id="clipPath4583"
       clipPathUnits="userSpaceOnUse">
      <path
         inkscape:connector-curvature="0"
         id="path4585"
         d="m 0,0 841.89,0 0,595.276 L 0,595.276 0,0 Z" />
    </clipPath>
    <clipPath
       id="clipPath4597"
       clipPathUnits="userSpaceOnUse">
      <path
         inkscape:connector-curvature="0"
         id="path4599"
         d="m 0,0 841.89,0 0,595.276 L 0,595.276 0,0 Z" />
    </clipPath>
    <clipPath
       id="clipPath4615"
       clipPathUnits="userSpaceOnUse">
      <path
         inkscape:connector-curvature="0"
         id="path4617"
         d="m 0,0 841.89,0 0,595.276 L 0,595.276 0,0 Z" />
    </clipPath>
  </defs>
  <sodipodi:namedview
     id="base"
     pagecolor="#323232"
     bordercolor="#666666"
     borderopacity="1.0"
     inkscape:pageopacity="0"
     inkscape:pageshadow="2"
     inkscape:zoom="1.35"
     inkscape:cx="8.87713"
     inkscape:cy="-1070.1468"
     inkscape:document-units="px"
     inkscape:current-layer="layer1"
     showgrid="false"
     units="px"
     showguides="true"
     inkscape:guide-bbox="true"
     inkscape:window-width="1920"
     inkscape:window-height="1017"
     inkscape:window-x="-8"
     inkscape:window-y="-8"
     inkscape:window-maximized="1">
    <sodipodi:guide
       position="354.81482,450.37038"
       orientation="0,1"
       id="guide4480" />
    <sodipodi:guide
       position="255.55556,333.33334"
       orientation="1,0"
       id="guide4777" />
    <sodipodi:guide
       position="411.11112,257.03704"
       orientation="0,1"
       id="guide4779" />
    <sodipodi:guide
       position="0,205.92593"
       orientation="1,0"
       id="guide4843" />
    <sodipodi:guide
       position="255.55556,0"
       orientation="0,1"
       id="guide4845" />
    <sodipodi:guide
       position="512.00001,384.44445"
       orientation="1,0"
       id="guide4847"
       inkscape:label=""
       inkscape:color="rgb(0,0,255)" />
    <sodipodi:guide
       position="147.407,512.00001"
       orientation="0,1"
       id="guide4849"
       inkscape:label=""
       inkscape:color="rgb(0,0,255)" />
  </sodipodi:namedview>
  <metadata
     id="metadata7">
    <rdf:RDF>
      <cc:Work
         rdf:about="">
        <dc:format>image/svg+xml</dc:format>
        <dc:type
           rdf:resource="http://purl.org/dc/dcmitype/StillImage" />
        <dc:title />
      </cc:Work>
    </rdf:RDF>
  </metadata>
  <g
     inkscape:label="Ebene 1"
     inkscape:groupmode="layer"
     id="layer1"
     transform="translate(0,-540.36216)">
    <circle
       style="fill:#68ba1c;fill-opacity:1;stroke:none;stroke-width:20;stroke-miterlimit:4;stroke-dasharray:none;stroke-opacity:1"
       id="path4793"
       cx="256"
       cy="795.32513"
       r="111.85184" />
    <path
       style="fill:#53a616;fill-opacity:1;stroke:none;stroke-width:20;stroke-miterlimit:4;stroke-dasharray:none;stroke-opacity:1"
       d="M 335.57812 176.42188 L 177.49414 334.50586 A 111.85184 111.85184 0 0 0 256 366.81445 A 111.85184 111.85184 0 0 0 367.85156 254.96289 A 111.85184 111.85184 0 0 0 335.57812 176.42188 z "
       transform="translate(0,540.36216)"
       id="circle4856" />
    <path
       style="fill:#e0e0e0;fill-opacity:1;stroke:none;stroke-width:20;stroke-miterlimit:4;stroke-dasharray:none;stroke-opacity:1"
       d="m 256.00781,546.37002 c -17.03348,0 -31.03357,12.90587 -32.75976,29.48242 l -0.19141,0 0,39.86524 a 183.7037,183.7037 0 0 0 -71.40625,29.70703 l -28.28125,-28.28125 -0.12695,0.12695 c -12.93377,-10.49679 -31.97229,-9.72107 -44.01758,2.32422 -12.0326,12.03259 -12.80733,31.06814 -2.31055,44.00195 l -0.12695,0.12891 28.16406,28.16405 a 183.7037,183.7037 0 0 0 -29.53125,71.53711 l -39.92187,0 0,0.17579 C 18.9215,765.32864 6,779.34337 6,796.36416 c 0,17.02079 12.9215,31.03161 29.49805,32.75782 l 0,0.17968 39.85547,0 a 183.7037,183.7037 0 0 0 29.71093,71.41602 l -28.27734,28.27148 0.12695,0.13867 c -10.49678,12.93377 -9.72204,31.97327 2.31055,44.00586 12.04529,12.04526 31.08381,12.80736 44.01758,2.31055 l 0.12695,0.13867 28.16602,-28.16406 a 183.7037,183.7037 0 0 0 71.52148,29.52148 l 0,39.92967 0.19141,0 c 1.72619,16.5638 15.72628,29.4843 32.75976,29.4843 17.02079,0 31.03259,-12.9205 32.7461,-29.4843 l 0.18945,0 0,-39.86326 a 183.7037,183.7037 0 0 0 71.41016,-29.70898 l 28.27929,28.28515 0.12696,-0.13867 c 12.93377,10.49681 31.98498,9.73471 44.01757,-2.31055 12.04529,-12.03259 12.80734,-31.07207 2.31055,-44.00586 l 0.12695,-0.13867 -28.16015,-28.16015 a 183.7037,183.7037 0 0 0 29.52343,-71.52735 l 39.9375,0 0,-0.17968 C 493.0795,827.39578 506,813.38495 506,796.36416 c 0,-17.0208 -12.9205,-31.03552 -29.48438,-32.76172 l 0,-0.17578 -39.86914,0 a 183.7037,183.7037 0 0 0 -29.71093,-71.41797 l 28.27929,-28.2832 -0.12695,-0.1289 c 10.49679,-12.93377 9.73474,-31.97036 -2.31055,-44.01563 -12.03259,-12.0326 -31.07111,-12.80734 -44.01757,-2.31055 l -0.12696,-0.12695 -28.16601,28.16406 a 183.7037,183.7037 0 0 0 -71.52344,-29.52345 l 0,-39.93164 -0.18945,0 C 287.0404,559.28857 273.0286,546.37 256.00781,546.37 Z M 255.55469,662.7333 A 132.59259,132.59259 0 0 1 388.14844,795.3251 132.59259,132.59259 0 0 1 255.55469,927.9169 132.59259,132.59259 0 0 1 122.96289,795.3251 132.59259,132.59259 0 0 1 255.55469,662.7333 Z"
       id="path4784"
       inkscape:connector-curvature="0" />
    <path
       style="clip-rule:evenodd;fill:#ffffff;fill-opacity:1;fill-rule:nonzero;image-rendering:optimizeQuality;shape-rendering:geometricPrecision;text-rendering:geometricPrecision"
       inkscape:connector-curvature="0"
       id="curve1"
       d="m 185.9464,826.86723 0,-90.96738 c 0,-5.27522 4.31607,-9.59129 9.59129,-9.59129 l 90.96736,0 c 5.30519,0 9.83108,1.88829 13.57769,5.63488 l 24.54769,24.54771 c 1.40873,1.40872 1.79837,3.38693 1.04905,5.21526 -0.74932,1.82834 -2.45777,2.9673 -4.43597,2.9673 l -69.8066,0 68.99734,68.99733 c 3.71662,3.71663 3.71662,9.83108 0,13.5477 l -13.57767,13.57767 c -3.71662,3.71662 -9.83107,3.71662 -13.5477,0 l -68.99733,-68.99734 0,69.8066 c 0,1.9782 -1.13896,3.68665 -2.9673,4.43597 -1.82835,0.74932 -3.80654,0.35968 -5.21526,-1.04905 L 191.58128,840.4449 c -3.74659,-3.74661 -5.63488,-8.2725 -5.63488,-13.57767 z" />
    <path
       style="fill:#68ba1c;fill-opacity:1;stroke:none;stroke-width:20;stroke-miterlimit:4;stroke-dasharray:none;stroke-opacity:1"
       d="M 102.35938 68.337891 C 93.668326 68.337891 84.977891 71.66664 78.318359 78.326172 C 64.999296 91.645235 64.999296 113.09109 78.318359 126.41016 L 141.29297 189.38477 A 131.85185 131.85185 0 0 1 189.25391 141.17969 L 126.40039 78.326172 C 119.74086 71.66664 111.05042 68.337891 102.35938 68.337891 z "
       transform="translate(0,540.36216)"
       id="rect4830" />
    <path
       style="fill:#bebebe;fill-opacity:1;stroke:none;stroke-width:20;stroke-miterlimit:4;stroke-dasharray:none;stroke-opacity:1"
       d="M 432.7793 79.220703 L 350.02148 161.97852 A 132.59259 132.59259 0 0 1 388.14844 254.96289 A 132.59259 132.59259 0 0 1 255.55469 387.55469 A 132.59259 132.59259 0 0 1 162.625 349.375 L 79.226562 432.77344 C 91.271958 444.81682 110.30912 445.57827 123.24219 435.08203 L 123.36914 435.2207 L 151.53516 407.05664 A 183.7037 183.7037 0 0 0 223.05664 436.57812 L 223.05664 476.50781 L 223.24805 476.50781 C 224.97424 493.07161 238.97433 505.99219 256.00781 505.99219 C 273.0286 505.99219 287.0404 493.07161 288.75391 476.50781 L 288.94336 476.50781 L 288.94336 436.64453 A 183.7037 183.7037 0 0 0 360.35352 406.93555 L 388.63281 435.2207 L 388.75977 435.08203 C 401.69354 445.57884 420.74475 444.81674 432.77734 432.77148 C 444.82263 420.73889 445.58468 401.69941 435.08789 388.76562 L 435.21484 388.62695 L 407.05469 360.4668 A 183.7037 183.7037 0 0 0 436.57812 288.93945 L 476.51562 288.93945 L 476.51562 288.75977 C 493.0795 287.03357 506 273.02274 506 256.00195 C 506 238.98115 493.07951 224.96643 476.51562 223.24023 L 476.51562 223.06445 L 436.64648 223.06445 A 183.7037 183.7037 0 0 0 406.93555 151.64648 L 435.21484 123.36328 L 435.08789 123.23438 C 445.58411 110.30131 444.82271 91.266078 432.7793 79.220703 z "
       transform="translate(0,540.36216)"
       id="path4841" />
    <path
       style="clip-rule:evenodd;fill:#ebedef;fill-opacity:1;fill-rule:nonzero;image-rendering:optimizeQuality;shape-rendering:geometricPrecision;text-rendering:geometricPrecision;stroke:none;stroke-opacity:1"
       d="M 310.25 201.75 L 287.6875 224.3125 L 321.24414 224.3125 C 323.22234 224.3125 324.93037 223.17209 325.67969 221.34375 C 326.42901 219.51542 326.03959 217.53763 324.63086 216.12891 L 310.25 201.75 z M 269.5625 242.4375 L 242.4375 269.5625 L 293.30859 320.43359 C 297.02522 324.15021 303.1408 324.15021 306.85742 320.43359 L 320.43359 306.85742 C 324.15021 303.1408 324.15021 297.02522 320.43359 293.30859 L 269.5625 242.4375 z M 224.3125 287.6875 L 201.75 310.25 L 216.12891 324.63086 C 217.53763 326.03959 219.5154 326.42901 221.34375 325.67969 C 223.17209 324.93037 224.3125 323.22234 224.3125 321.24414 L 224.3125 287.6875 z "
       transform="translate(0,540.36216)"
       id="path4861" />
  </g>
</svg>
