<?xml version="1.0" encoding="UTF-8" standalone="no"?>
<svg
   xmlns:dc="http://purl.org/dc/elements/1.1/"
   xmlns:cc="http://creativecommons.org/ns#"
   xmlns:rdf="http://www.w3.org/1999/02/22-rdf-syntax-ns#"
   xmlns:svg="http://www.w3.org/2000/svg"
   xmlns="http://www.w3.org/2000/svg"
   xmlns:sodipodi="http://sodipodi.sourceforge.net/DTD/sodipodi-0.dtd"
   xmlns:inkscape="http://www.inkscape.org/namespaces/inkscape"
   x="0"
   y="0"
   width="512"
   height="512"
   version="1.1"
   viewBox="0 0 512 512"
   id="svg4136"
   inkscape:version="0.91 r13725"
   sodipodi:docname="pid_loop.svg">
  <metadata
     id="metadata4152">
    <rdf:RDF>
      <cc:Work
         rdf:about="">
        <dc:format>image/svg+xml</dc:format>
        <dc:type
           rdf:resource="http://purl.org/dc/dcmitype/StillImage" />
        <dc:title>arrow loop2 icon</dc:title>
      </cc:Work>
    </rdf:RDF>
  </metadata>
  <defs
     id="defs4150" />
  <sodipodi:namedview
     pagecolor="#ffffff"
     bordercolor="#666666"
     borderopacity="1"
     objecttolerance="10"
     gridtolerance="10"
     guidetolerance="10"
     inkscape:pageopacity="0"
     inkscape:pageshadow="2"
     inkscape:window-width="1920"
     inkscape:window-height="1017"
     id="namedview4148"
     showgrid="false"
     inkscape:zoom="0.9"
     inkscape:cx="256"
     inkscape:cy="256"
     inkscape:window-x="1912"
     inkscape:window-y="-8"
     inkscape:window-maximized="1"
     inkscape:current-layer="svg4136" />
  <title
     id="title4138">arrow loop2 icon</title>
  <desc
     id="desc4140">arrow loop2 icon from the IconExperience.com G-Collection. Copyright by INCORS GmbH (www.incors.com).</desc>
  <path
     style="fill:#28b5f5;fill-opacity:1"
     inkscape:connector-curvature="0"
     id="path4144"
     d="m 304,48 0,80 64,0 c 39.7,0 75.7,16.15 101.75,42.25 C 495.85,196.3 512,232.3 512,272 512,311.7 495.85,347.7 469.75,373.75 443.7,399.85 407.7,416 368,416 l -224,0 C 104.3,416 68.3,399.85 42.25,373.75 16.15,347.7 0,311.7 0,272 0,232.3 16.15,196.3 42.25,170.25 68.3,144.15 104.3,128 144,128 l 34.85,0 -32,32 32,32 -34.85,0 c -22,0 -42,9 -56.5,23.5 C 73,230 64,250 64,272 c 0,22 9,42 23.5,56.5 C 102,343 122,352 144,352 l 224,0 c 22,0 42,-9 56.5,-23.5 C 439,314 448,294 448,272 448,250 439,230 424.5,215.5 410,201 390,192 368,192 l -64,0 0,80 -112,-112 z" />
  <path
     style="fill:#0299e3;fill-opacity:1"
     inkscape:connector-curvature="0"
     id="path4146"
     d="m 480,272 c 0,61.7 -50.3,112 -112,112 l -224,0 C 82.3,384 32,333.7 32,272 32,210.3 82.3,160 144,160 l 2.85,0 32,32 -34.85,0 c -22,0 -42,9 -56.5,23.5 C 73,230 64,250 64,272 c 0,22 9,42 23.5,56.5 C 102,343 122,352 144,352 l 224,0 c 22,0 42,-9 56.5,-23.5 C 439,314 448,294 448,272 448,250 439,230 424.5,215.5 410,201 390,192 368,192 l -64,0 0,80 -112,-112 176,0 c 61.7,0 112,50.3 112,112 z" />
</svg>
