<?xml version="1.0" encoding="UTF-8" standalone="no"?>
<!-- Created with Inkscape (http://www.inkscape.org/) -->

<svg
   xmlns:dc="http://purl.org/dc/elements/1.1/"
   xmlns:cc="http://creativecommons.org/ns#"
   xmlns:rdf="http://www.w3.org/1999/02/22-rdf-syntax-ns#"
   xmlns:svg="http://www.w3.org/2000/svg"
   xmlns="http://www.w3.org/2000/svg"
   xmlns:sodipodi="http://sodipodi.sourceforge.net/DTD/sodipodi-0.dtd"
   xmlns:inkscape="http://www.inkscape.org/namespaces/inkscape"
   width="144.49777mm"
   height="144.49777mm"
   viewBox="0 0 511.99998 511.99998"
   id="svg5048"
   version="1.1"
   inkscape:version="0.91 r13725"
   sodipodi:docname="save_as2.svg">
  <defs
     id="defs5050" />
  <sodipodi:namedview
     id="base"
     pagecolor="#ffffff"
     bordercolor="#666666"
     borderopacity="1.0"
     inkscape:pageopacity="0.0"
     inkscape:pageshadow="2"
     inkscape:zoom="1.1894531"
     inkscape:cx="425.26152"
     inkscape:cy="219.7088"
     inkscape:document-units="px"
     inkscape:current-layer="layer1"
     showgrid="false"
     fit-margin-top="0"
     fit-margin-left="0"
     fit-margin-right="0"
     fit-margin-bottom="0"
     inkscape:window-width="1920"
     inkscape:window-height="1017"
     inkscape:window-x="1912"
     inkscape:window-y="-8"
     inkscape:window-maximized="1" />
  <metadata
     id="metadata5053">
    <rdf:RDF>
      <cc:Work
         rdf:about="">
        <dc:format>image/svg+xml</dc:format>
        <dc:type
           rdf:resource="http://purl.org/dc/dcmitype/StillImage" />
        <dc:title></dc:title>
      </cc:Work>
    </rdf:RDF>
  </metadata>
  <g
     inkscape:label="Ebene 1"
     inkscape:groupmode="layer"
     id="layer1"
     transform="translate(387.99343,-121.26205)">
    <g
       id="g4293"
       transform="matrix(0.89285714,0,0,0.89285714,-416.56486,92.690603)">
      <path
         id="path4295"
         d="m 480,48 0,416 c 0,8.8 -7.2,16 -16,16 L 64,480 32,448 32,48 c 0,-8.8 7.2,-16 16,-16 l 416,0 c 8.8,0 16,7.2 16,16 z"
         inkscape:connector-curvature="0"
         style="fill:#546e7a" />
      <path
         id="path4297"
         d="m 480,48 0,416 c 0,8.8 -7.2,16 -16,16 l -208,0 0,-448 208,0 c 8.8,0 16,7.2 16,16 z"
         inkscape:connector-curvature="0"
         style="fill:#445a64" />
      <path
         id="path4299"
         d="m 96,32 320,0 0,224 c 0,8.8 -7.2,16 -16,16 l -288,0 c -8.8,0 -16,-7.2 -16,-16 z"
         inkscape:connector-curvature="0"
         style="fill:#dff3fd" />
      <path
         id="path4301"
         d="m 256,32 160,0 0,224 c 0,8.8 -7.2,16 -16,16 l -144,0 z"
         inkscape:connector-curvature="0"
         style="fill:#b1e3fb" />
      <path
         id="path4303"
         d="m 416,208 0,48 c 0,8.8 -7.2,16 -16,16 l -288,0 c -8.8,0 -16,-7.2 -16,-16 l 0,-48 z"
         inkscape:connector-curvature="0"
         style="fill:#f98b00" />
      <path
         id="path4305"
         d="m 416,208 0,48 c 0,8.8 -7.2,16 -16,16 l -144,0 0,-64 z"
         inkscape:connector-curvature="0"
         style="fill:#f37c00" />
      <path
         id="path4307"
         d="m 384,336 0,144 -256,0 0,-144 c 0,-8.8 7.2,-16 16,-16 l 224,0 c 8.8,0 16,7.2 16,16 z m -224,0 0,112 64,0 0,-112 z"
         inkscape:connector-curvature="0"
         style="fill:#ebedef" />
      <path
         id="path4309"
         d="m 384,336 0,144 -128,0 0,-160 112,0 c 8.8,0 16,7.2 16,16 z"
         inkscape:connector-curvature="0"
         style="fill:#cdd7db" />
    </g>
    <g
       id="g4417"
       transform="matrix(0.95704767,0,0,0.95704767,-0.60427459,9.7588945)">
      <g
         transform="matrix(1.326104,0,0,1.326104,90.747946,-174.71546)"
         id="g4387">
        <g
           id="g4369"
           transform="matrix(0.75408867,0,0,1,-68.431998,0)">
          <path
             id="path4334"
             d="m -272.02916,484.28667 387.5,0 c 3.4375,0 6.25,2.8125 6.25,6.25 l 0,112.5 c 0,3.4375 -2.8125,6.25 -6.25,6.25 l -387.5,0 c -3.4375,0 -6.25,-2.8125 -6.25,-6.25 l 0,-112.5 c 0,-3.4375 2.8125,-6.25 6.25,-6.25 z"
             inkscape:connector-curvature="0"
             style="fill:#ebedef" />
          <path
             id="path4336"
             d="m -278.27916,546.78667 400,0 0,56.25 c 0,3.4375 -2.8125,6.25 -6.25,6.25 l -387.5,0 c -3.4375,0 -6.25,-2.8125 -6.25,-6.25 z"
             inkscape:connector-curvature="0"
             style="fill:#cdd7db" />
        </g>
        <g
           id="g4365"
           transform="matrix(1,0,0,0.5964532,-205.97701,222.33545)">
          <path
             id="path4342"
             d="m -40.77916,459.28667 25,0 c 2.265625,0 4.414063,0.625 6.25,1.67969 1.8359375,-1.05469 3.984375,-1.67969 6.25,-1.67969 l 25,0 0,12.5 -25,0 0,150 25,0 0,12.5 -25,0 c -2.265625,0 -4.4140625,-0.625 -6.25,-1.67969 -1.835937,1.05469 -3.984375,1.67969 -6.25,1.67969 l -25,0 0,-12.5 25,0 0,-150 -25,0 z"
             inkscape:connector-curvature="0"
             style="fill:#546e7a" />
          <path
             id="path4344"
             d="m -3.27916,546.78667 0,75 25,0 0,12.5 -25,0 c -2.265625,0 -4.4140625,-0.625 -6.25,-1.67969 -1.835937,1.05469 -3.984375,1.67969 -6.25,1.67969 l -25,0 0,-12.5 25,0 0,-75 z"
             inkscape:connector-curvature="0"
             style="fill:#445a64" />
        </g>
      </g>
      <path
         style="fill:none;stroke:#212d32;stroke-width:18.77839279;stroke-miterlimit:4;stroke-dasharray:none;stroke-opacity:1"
         inkscape:connector-curvature="0"
         d="m -272.4696,460.34572 386.69944,0 c 3.43039,0 6.23709,4.08939 6.23709,9.08755 l 0,163.57595 c 0,4.99815 -2.8067,9.08756 -6.23709,9.08756 l -386.69944,0 c -3.43039,0 -6.23709,-4.08941 -6.23709,-9.08756 l 0,-163.57595 c 0,-4.99816 2.8067,-9.08755 6.23709,-9.08755 z"
         id="path4399" />
    </g>
  </g>
</svg>
