<?xml version="1.0" encoding="UTF-8" standalone="no"?>
<svg
   xmlns:dc="http://purl.org/dc/elements/1.1/"
   xmlns:cc="http://creativecommons.org/ns#"
   xmlns:rdf="http://www.w3.org/1999/02/22-rdf-syntax-ns#"
   xmlns:svg="http://www.w3.org/2000/svg"
   xmlns="http://www.w3.org/2000/svg"
   xmlns:sodipodi="http://sodipodi.sourceforge.net/DTD/sodipodi-0.dtd"
   xmlns:inkscape="http://www.inkscape.org/namespaces/inkscape"
   x="0"
   y="0"
   width="512"
   height="512"
   version="1.1"
   viewBox="0 0 512 512"
   id="svg8513"
   inkscape:version="0.91 r13725"
   sodipodi:docname="element.svg">
  <metadata
     id="metadata8531">
    <rdf:RDF>
      <cc:Work
         rdf:about="">
        <dc:format>image/svg+xml</dc:format>
        <dc:type
           rdf:resource="http://purl.org/dc/dcmitype/StillImage" />
        <dc:title>elements hierarchy icon</dc:title>
      </cc:Work>
    </rdf:RDF>
  </metadata>
  <defs
     id="defs8529" />
  <sodipodi:namedview
     pagecolor="#ffffff"
     bordercolor="#666666"
     borderopacity="1"
     objecttolerance="10"
     gridtolerance="10"
     guidetolerance="10"
     inkscape:pageopacity="0"
     inkscape:pageshadow="2"
     inkscape:window-width="1920"
     inkscape:window-height="1017"
     id="namedview8527"
     showgrid="false"
     showguides="true"
     inkscape:guide-bbox="true"
     inkscape:zoom="0.4609375"
     inkscape:cx="256"
     inkscape:cy="256"
     inkscape:window-x="1912"
     inkscape:window-y="-8"
     inkscape:window-maximized="1"
     inkscape:current-layer="svg8513" />
  <title
     id="title8515">elements hierarchy icon</title>
  <desc
     id="desc8517">elements hierarchy icon from the IconExperience.com G-Collection. Copyright by INCORS GmbH (www.incors.com).</desc>
  <g
     id="g9141"
     transform="matrix(1.6237288,0,0,1.6237288,1.0460327,126.10169)">
    <path
       style="fill:#28b5f5"
       d="m 77.017578,0 c -8.8,0 -16,7.1999998 -16,16 l 0,128 c 0,8.8 7.2,16 16,16 l 160.000002,0 c 8.8,0 16,-7.2 16,-16 l 0,-128 c 0,-8.8000002 -7.2,-16 -16,-16 L 77.017578,0 Z"
       id="path9143"
       inkscape:connector-curvature="0" />
    <path
       style="fill:#0299e3"
       d="M 247.86719,4.3007812 66.166016,155.69922 c 2.85,2.65 6.651562,4.30078 10.851562,4.30078 l 160.000002,0 c 8.8,0 16,-7.2 16,-16 l 0,-128 c 0,-4.6 -2.00039,-8.7992187 -5.15039,-11.6992188 z"
       id="path9145"
       inkscape:connector-curvature="0" />
  </g>
</svg>
