<?xml version="1.0" encoding="UTF-8" standalone="no"?>
<svg
   xmlns:dc="http://purl.org/dc/elements/1.1/"
   xmlns:cc="http://creativecommons.org/ns#"
   xmlns:rdf="http://www.w3.org/1999/02/22-rdf-syntax-ns#"
   xmlns:svg="http://www.w3.org/2000/svg"
   xmlns="http://www.w3.org/2000/svg"
   xmlns:sodipodi="http://sodipodi.sourceforge.net/DTD/sodipodi-0.dtd"
   xmlns:inkscape="http://www.inkscape.org/namespaces/inkscape"
   x="0"
   y="0"
   width="512"
   height="512"
   version="1.1"
   viewBox="0 0 512 512"
   id="svg4136"
   inkscape:version="0.92.0 r15299"
   sodipodi:docname="dcf_export.svg">
  <metadata
     id="metadata4154">
    <rdf:RDF>
      <cc:Work
         rdf:about="">
        <dc:format>image/svg+xml</dc:format>
        <dc:type
           rdf:resource="http://purl.org/dc/dcmitype/StillImage" />
        <dc:title>elements hierarchy icon</dc:title>
      </cc:Work>
    </rdf:RDF>
  </metadata>
  <defs
     id="defs4152" />
  <sodipodi:namedview
     pagecolor="#ffffff"
     bordercolor="#666666"
     borderopacity="1"
     objecttolerance="10"
     gridtolerance="10"
     guidetolerance="10"
     inkscape:pageopacity="0"
     inkscape:pageshadow="2"
     inkscape:window-width="1920"
     inkscape:window-height="1017"
     id="namedview4150"
     showgrid="false"
     inkscape:zoom="0.47502285"
     inkscape:cx="124.38588"
     inkscape:cy="253.43422"
     inkscape:window-x="1912"
     inkscape:window-y="-8"
     inkscape:window-maximized="1"
     inkscape:current-layer="svg4136" />
  <title
     id="title4138">elements hierarchy icon</title>
  <desc
     id="desc4140">elements hierarchy icon from the IconExperience.com G-Collection. Copyright by INCORS GmbH (www.incors.com).</desc>
  <path
     style="fill:#dff3fd"
     inkscape:connector-curvature="0"
     id="path7832"
     d="m 393.84614,194.35421 v 305.23076 c 0,5.41538 -4.43077,9.84615 -9.84615,9.84615 H 9.846154 C 4.430769,509.43112 0,505.00035 0,499.58497 V 7.27729 C 0,1.8619 4.430769,-2.56887 9.846154,-2.56887 H 39.384615 196.92307 c 10.83077,0 20.73846,4.43077 27.87692,11.56923 l 157.47692,157.47692 c 7.13846,7.13846 11.56923,16.98462 11.56923,27.87693 z" />
  <path
     style="fill:#b1e3fb"
     inkscape:connector-curvature="0"
     id="path7834"
     d="m 393.84614,194.35421 v 305.23076 c 0,5.41538 -4.43077,9.84615 -9.84615,9.84615 H 9.846154 c -2.892308,0 -5.538462,-1.29231 -7.323077,-3.26154 L 315.32307,99.52344 l 66.95384,66.95384 c 7.13846,7.13846 11.56923,16.98462 11.56923,27.87693 z" />
  <path
     style="fill:#28b5f5"
     inkscape:connector-curvature="0"
     id="path7836"
     d="m 224.79999,9.00036 c 7.07693,7.13847 11.5077,16.98462 11.5077,27.81539 v 108.30769 c 0,5.41538 4.43076,9.84615 9.84615,9.84615 h 108.30769 c 10.46154,0 20.43077,4.18462 27.81538,11.56923 z" />
  <path
     style="fill:#9daeb6;stroke-width:0.60277909;fill-opacity:1"
     inkscape:connector-curvature="0"
     d="m 104.4869,425.04878 h 24.92492 v 38.57786 H 104.4869 c -2.68237,0 -4.942789,-0.9343 -6.841539,-2.83306 l -3.97834,-3.97834 c -1.89876,-1.89875 -4.15918,-2.83306 -6.84155,-2.83306 h -15.28045 v -19.28893 h 15.28045 c 2.68237,0 4.94279,-0.93431 6.84155,-2.83306 l 3.97834,-3.97835 c 1.89875,-1.89875 4.159169,-2.83306 6.841539,-2.83306 z m 0,-57.86679 h 24.92492 v 38.57786 H 104.4869 c -2.68237,0 -4.942789,-0.93431 -6.841539,-2.83306 l -3.97834,-3.97834 c -1.89876,-1.89876 -4.15918,-2.83306 -6.84155,-2.83306 h -15.28045 v -19.28894 h 15.28045 c 2.68237,0 4.94279,-0.9343 6.84155,-2.83306 l 3.97834,-3.97834 c 1.89875,-1.89875 4.159169,-2.83306 6.841539,-2.83306 z m 0,-57.86679 h 24.92492 v 38.57786 H 104.4869 c -2.68237,0 -4.942789,-0.93431 -6.841539,-2.83306 l -3.97834,-3.97835 c -1.89876,-1.89875 -4.15918,-2.83306 -6.84155,-2.83306 h -15.28045 v -19.28893 h 15.28045 c 2.68237,0 4.94279,-0.93431 6.84155,-2.83306 l 3.97834,-3.97834 c 1.89875,-1.89876 4.159169,-2.83306 6.841539,-2.83306 z m 0,-57.8668 h 24.92492 v 38.57787 H 104.4869 c -2.68237,0 -4.942789,-0.93431 -6.841539,-2.83307 l -3.97834,-3.97834 c -1.89876,-1.89875 -4.15918,-2.83306 -6.84155,-2.83306 h -15.28045 v -19.28893 h 15.28045 c 2.68237,0 4.94279,-0.93431 6.84155,-2.83306 l 3.97834,-3.97834 c 1.89875,-1.89876 4.159169,-2.83307 6.841539,-2.83307 z m 0,-57.86679 h 24.92492 v 38.57786 H 104.4869 c -2.68237,0 -4.942789,-0.9343 -6.841539,-2.83306 l -3.97834,-3.97834 c -1.89876,-1.89876 -4.15918,-2.83306 -6.84155,-2.83306 h -15.28045 v -19.28893 h 15.28045 c 2.68237,0 4.94279,-0.93431 6.84155,-2.83307 l 3.97834,-3.97834 c 1.89875,-1.89875 4.159169,-2.83306 6.841539,-2.83306 z"
     id="path4503" />
  <path
     style="fill:#9daeb6;stroke-width:0.60277909;fill-opacity:1"
     inkscape:connector-curvature="0"
     d="m 289.35925,425.04878 h -24.92492 v 38.57786 h 24.92492 c 2.68236,0 4.94279,-0.9343 6.84154,-2.83306 l 3.97834,-3.97834 c 1.89876,-1.89875 4.15918,-2.83306 6.84154,-2.83306 h 15.28045 v -19.28893 h -15.28045 c -2.68236,0 -4.94278,-0.93431 -6.84154,-2.83306 l -3.97834,-3.97835 c -1.89875,-1.89875 -4.15918,-2.83306 -6.84154,-2.83306 z m 0,-57.86679 h -24.92492 v 38.57786 h 24.92492 c 2.68236,0 4.94279,-0.93431 6.84154,-2.83306 l 3.97834,-3.97834 c 1.89876,-1.89876 4.15918,-2.83306 6.84154,-2.83306 h 15.28045 v -19.28894 h -15.28045 c -2.68236,0 -4.94278,-0.9343 -6.84154,-2.83306 l -3.97834,-3.97834 c -1.89875,-1.89875 -4.15918,-2.83306 -6.84154,-2.83306 z m 0,-57.86679 h -24.92492 v 38.57786 h 24.92492 c 2.68236,0 4.94279,-0.93431 6.84154,-2.83306 l 3.97834,-3.97835 c 1.89876,-1.89875 4.15918,-2.83306 6.84154,-2.83306 h 15.28045 v -19.28893 h -15.28045 c -2.68236,0 -4.94278,-0.93431 -6.84154,-2.83306 l -3.97834,-3.97834 c -1.89875,-1.89876 -4.15918,-2.83306 -6.84154,-2.83306 z m 0,-57.8668 h -24.92492 v 38.57787 h 24.92492 c 2.68236,0 4.94279,-0.93431 6.84154,-2.83307 l 3.97834,-3.97834 c 1.89876,-1.89875 4.15918,-2.83306 6.84154,-2.83306 h 15.28045 v -19.28893 h -15.28045 c -2.68236,0 -4.94278,-0.93431 -6.84154,-2.83306 l -3.97834,-3.97834 c -1.89875,-1.89876 -4.15918,-2.83307 -6.84154,-2.83307 z m 0,-57.86679 h -24.92492 v 38.57786 h 24.92492 c 2.68236,0 4.94279,-0.9343 6.84154,-2.83306 l 3.97834,-3.97834 c 1.89876,-1.89876 4.15918,-2.83306 6.84154,-2.83306 h 15.28045 v -19.28893 h -15.28045 c -2.68236,0 -4.94278,-0.93431 -6.84154,-2.83307 l -3.97834,-3.97834 c -1.89875,-1.89875 -4.15918,-2.83306 -6.84154,-2.83306 z"
     id="path4505" />
  <path
     style="fill:#546e7a;stroke-width:0.60277909"
     inkscape:connector-curvature="0"
     d="m 129.41182,174.29268 h 135.02251 c 5.30446,0 9.64447,4.34001 9.64447,9.64447 v 289.33396 c 0,5.30445 -4.34001,9.64446 -9.64447,9.64446 H 129.41182 c -5.30446,0 -9.64447,-4.34001 -9.64447,-9.64446 V 183.93715 c 0,-5.30446 4.34001,-9.64447 9.64447,-9.64447 z"
     id="path4507" />
  <path
     inkscape:connector-curvature="0"
     style="fill:#445a64;fill-opacity:1;stroke-width:0.60277909"
     d="M 260.17307,174.29297 119.76682,354.07031 v 119.20117 c 0,5.30445 4.34007,9.64454 9.64453,9.64454 h 135.02344 c 5.30446,0 9.64453,-4.34009 9.64453,-9.64454 V 183.9375 c 0,-5.30446 -4.34007,-9.64453 -9.64453,-9.64453 z"
     id="path4534" />
  <path
     style="fill:#36464e;stroke-width:0.60277909"
     inkscape:connector-curvature="0"
     d="m 196.92307,453.98218 c 15.97365,0 28.9334,12.95975 28.9334,28.93339 h -57.86679 c 0,-15.97364 12.95975,-28.93339 28.93339,-28.93339 z"
     id="path4511" />
  <polygon
     style="fill:#9bed49;fill-opacity:1"
     points="416,144 256,304 96,144 192,144 192,0 320,0 320,144 "
     id="polygon4755"
     transform="matrix(0,1,1,0,208,96)" />
  <polygon
     style="fill:#85d435;fill-opacity:1"
     points="256,0 320,0 320,144 416,144 256,304 "
     id="polygon4757"
     transform="matrix(0,1,1,0,208,96)" />
</svg>
