<svg x="0" y="0" width="512" height="512" version="1.1"
    xmlns="http://www.w3.org/2000/svg"
    xmlns:xlink="http://www.w3.org/1999/xlink" viewBox="0 0 512 512">
    <title>sign stop icon</title>
    <desc>sign stop icon from the IconExperience.com G-Collection. Copyright by INCORS GmbH (www.incors.com).</desc>
    <g>
        <polygon points="156.6,16 355.4,16 496,156.6 496,355.4 355.4,496 156.6,496 16,355.4 16,156.6" fill="#d74214"/>
        <polygon points="425.7,86.3 496,156.6 496,355.4 355.4,496 156.6,496 86.3,425.7" fill="#bd360c"/>
        <path d="M109.8,285.35c0,-4.45 -1.45,-7.9 -4.25,-10.4c-2.85,-2.5 -7.8,-5.05 -14.85,-7.65c-7.1,-2.65 -12.85,-5.15 -17.35,-7.6c-14.65,-7.95 -21.95,-18.85 -21.95,-32.7c0,-6.9 1.8,-13 5.45,-18.3c3.65,-5.25 8.8,-9.35 15.5,-12.3c6.65,-2.95 14.15,-4.4 22.45,-4.4c8.1,0 15.4,1.6 21.85,4.8c6.4,3.15 11.4,7.7 15,13.6c3.55,5.9 5.3,12.65 5.3,20.2l-27.1,0c0,-5.05 -1.4,-9 -4.25,-11.8c-2.8,-2.8 -6.6,-4.2 -11.4,-4.2c-4.9,0 -8.7,1.2 -11.5,3.55c-2.85,2.35 -4.25,5.4 -4.25,9.05c0,3.2 1.55,6.1 4.65,8.7c3.1,2.6 8.55,5.25 16.35,8.05c7.8,2.75 14.2,5.75 19.2,8.95c12.2,7.75 18.3,18.45 18.3,32.1c0,10.9 -3.7,19.45 -11.15,25.65c-7.45,6.25 -17.65,9.35 -30.6,9.35c-9.15,0 -17.45,-1.8 -24.85,-5.45c-7.4,-3.6 -13,-8.55 -16.75,-14.85c-3.75,-6.25 -5.6,-13.5 -5.6,-21.7l27.3,0c0,6.75 1.55,11.75 4.65,14.95c3.15,3.2 8.2,4.8 15.25,4.8c4.5,0 8.05,-1.05 10.65,-3.25c2.6,-2.15 3.95,-5.2 3.95,-9.15z M245.1,216.85l-33.85,0l0,101.4l-27.25,0l0,-101.4l-33.25,0l0,-23.1l94.35,0z M355.5,258.55c0,12.15 -2.05,22.95 -6.1,32.25c-4.1,9.4 -9.9,16.6 -17.4,21.65c-7.55,5.05 -16.1,7.55 -25.7,7.55c-9.6,0 -18.15,-2.45 -25.6,-7.35c-7.4,-4.85 -13.2,-11.8 -17.4,-20.9c-4.15,-9.05 -6.3,-19.45 -6.55,-31.25l0,-7c0,-12.2 2.05,-22.95 6.1,-32.3c4.05,-9.3 9.85,-16.5 17.45,-21.6c7.55,-5.05 16.2,-7.6 25.85,-7.6c9.55,0 18.1,2.5 25.55,7.55c7.5,5 13.35,12.15 17.5,21.4c4.15,9.3 6.25,19.9 6.3,31.9z M327.85,253.45c0,-12.4 -1.85,-21.9 -5.65,-28.35c-3.75,-6.45 -9.1,-9.65 -16.05,-9.65c-13.65,0 -20.85,11.35 -21.65,34.05l-0.05,9.2c0,12.25 1.8,21.7 5.5,28.3c3.65,6.6 9.1,9.9 16.35,9.9c6.85,0 12.15,-3.25 15.85,-9.75c3.75,-6.45 5.65,-15.75 5.7,-27.9z M402.4,275.85l0,42.4l-27.2,0l0,-124.5l45,0c8.65,0 16.3,1.75 22.95,5.25c6.6,3.5 11.75,8.45 15.4,14.95c3.6,6.45 5.45,13.75 5.45,21.95c0,12.15 -3.95,21.8 -11.85,29.1c-7.85,7.25 -18.65,10.85 -32.4,10.85z M402.4,252.75l17.8,0c5.3,0 9.3,-1.45 12.05,-4.35c2.8,-2.9 4.15,-7 4.15,-12.3c0,-5.8 -1.4,-10.45 -4.25,-13.9c-2.85,-3.55 -6.7,-5.3 -11.6,-5.35l-18.15,0z" fill="#ffffff"/>
        <path d="M193.75,318.25l17.5,-17.5l0,17.5z M256.75,255.25l61.7,-61.7c4.75,1.25 9.15,3.25 13.25,6c7.5,5 13.35,12.15 17.5,21.4c4.15,9.3 6.25,19.9 6.3,31.9l0,5.7c0,12.15 -2.05,22.95 -6.1,32.25c-4.1,9.4 -9.9,16.6 -17.4,21.65c-7.55,5.05 -16.1,7.55 -25.7,7.55c-9.6,0 -18.15,-2.45 -25.6,-7.35c-7.4,-4.85 -13.2,-11.8 -17.4,-20.9c-4.15,-9.05 -6.3,-19.45 -6.55,-31.25z M327.85,253.45c0,-12.4 -1.85,-21.9 -5.65,-28.35c-3.75,-6.45 -9.1,-9.65 -16.05,-9.65c-13.65,0 -20.85,11.35 -21.65,34.05l-0.05,9.2c0,12.25 1.8,21.7 5.5,28.3c3.65,6.6 9.1,9.9 16.35,9.9c6.85,0 12.15,-3.25 15.85,-9.75c3.75,-6.45 5.65,-15.75 5.7,-27.9z M402.4,275.85l0,42.4l-27.2,0l0,-124.5l45,0c8.65,0 16.3,1.75 22.95,5.25c6.6,3.5 11.75,8.45 15.4,14.95c3.6,6.45 5.45,13.75 5.45,21.95c0,12.15 -3.95,21.8 -11.85,29.1c-7.85,7.25 -18.65,10.85 -32.4,10.85z M402.4,252.75l17.8,0c5.3,0 9.3,-1.45 12.05,-4.35c2.8,-2.9 4.15,-7 4.15,-12.3c0,-5.8 -1.4,-10.45 -4.25,-13.9c-2.85,-3.55 -6.7,-5.3 -11.6,-5.35l-18.15,0z" fill="#ebedef"/>
    </g>
</svg>