<svg x="0" y="0" width="512" height="512" version="1.1"
    xmlns="http://www.w3.org/2000/svg"
    xmlns:xlink="http://www.w3.org/1999/xlink" viewBox="0 0 512 512">
    <title>beaker2 icon</title>
    <desc>beaker2 icon from the IconExperience.com G-Collection. Copyright by INCORS GmbH (www.incors.com).</desc>
    <g>
        <path d="M322.8,198.25l120.9,268.6c9.55,21.3 -5.85,45.15 -29.2,45.15l-94.5,0l-128,0l-94.5,0c-23.35,0 -38.75,-23.85 -29.2,-45.15l120.9,-268.6c1.95,-4.3 2.8,-8.35 2.8,-13.1l0,-133.05c0,-9.45 -3.65,-17.6 -10.7,-23.9c-3.45,-3.05 -5.2,-7.65 -5.2,-12.2c0,-8 5.3,-16 15.9,-16l128,0c10.6,0 15.9,8 15.9,16c0,4.55 -1.75,9.15 -5.2,12.2c-7.05,6.3 -10.7,14.45 -10.7,23.9l0,133.05c0,4.75 0.85,8.8 2.8,13.1z" fill="#cdd7db"/>
        <path d="M322.8,198.25l120.9,268.6c9.55,21.3 -5.85,45.15 -29.2,45.15l-94.5,0l-64,0l0,-512l64,0c10.6,0 15.9,8 15.9,16c0,4.55 -1.75,9.15 -5.2,12.2c-7.05,6.3 -10.7,14.45 -10.7,23.9l0,133.05c0,4.75 0.85,8.8 2.8,13.1z" fill="#afbdc3"/>
        <path d="M319.8,16.5c0.05,-0.15 0.1,-0.4 0.1,-0.5l-127.8,0c0,0.1 0.05,0.35 0.1,0.5c10.3,9.3 15.8,21.7 15.8,35.6l0,133.05c0,6.95 -1.35,13.3 -4.25,19.7l-120.85,268.6c-4.8,10.7 2.85,22.55 14.6,22.55l317,0c11.75,0 19.4,-11.85 14.6,-22.55l-120.85,-268.6c-2.9,-6.4 -4.25,-12.75 -4.25,-19.7l0,-133.05c0,-13.9 5.5,-26.3 15.8,-35.6z" fill="#ebedef"/>
        <path d="M319.8,16.5c0.05,-0.15 0.1,-0.4 0.1,-0.5c0,0 -58.6,0 -63.9,0l0,480l158.5,0c11.75,0 19.4,-11.85 14.6,-22.55l-120.85,-268.6c-2.9,-6.4 -4.25,-12.75 -4.25,-19.7l0,-133.05c0,-13.9 5.5,-26.3 15.8,-35.6z" fill="#cdd7db"/>
        <path d="M173.55,272l-90.65,201.45c-4.8,10.7 2.85,22.55 14.6,22.55l317,0c11.75,0 19.4,-11.85 14.6,-22.55l-90.65,-201.45z" fill="#28b5f5"/>
        <path d="M256,496l158.5,0c11.75,0 19.4,-11.85 14.6,-22.55l-90.65,-201.45l-82.45,0z" fill="#0299e3"/>
        <path d="M240,432c-8.85,0 -16,7.15 -16,16c0,8.85 7.15,16 16,16c8.85,0 16,-7.15 16,-16c0,-8.85 -7.15,-16 -16,-16z M232,304c-22.1,0 -40,17.9 -40,40c0,22.1 17.9,40 40,40c22.1,0 40,-17.9 40,-40c0,-22.1 -17.9,-40 -40,-40z" fill="#dff3fd"/>
        <path d="M280,384c-13.25,0 -24,10.75 -24,24c0,13.25 10.75,24 24,24c13.25,0 24,-10.75 24,-24c0,-13.25 -10.75,-24 -24,-24z M256,376l0,-64c9.7,7.3 16,18.9 16,32c0,13.1 -6.3,24.7 -16,32z" fill="#b1e3fb"/>
    </g>
</svg>