<svg x="0" y="0" width="512" height="512" version="1.1"
    xmlns="http://www.w3.org/2000/svg"
    xmlns:xlink="http://www.w3.org/1999/xlink" viewBox="0 0 512 512">
    <title>user icon</title>
    <desc>user icon from the IconExperience.com G-Collection. Copyright by INCORS GmbH (www.incors.com).</desc>
    <g>
        <path d="M183.8,297.6l-0.2,-54.95c48.85,0 95.95,0 144.8,0l-0.2,54.95c9.9,9 21.5,16.15 32.9,23.05c28.6,17.25 54.25,32.25 69.25,63.8c9.6,20.1 12.65,42.75 12.65,64.8c0,2.25 -0.3,4.45 -0.95,6.65c-7.5,25.6 -58.15,37.6 -82,42.15c-33.85,6.4 -69.7,8.95 -104.05,8.95c-34.35,0 -70.2,-2.55 -104.05,-8.95c-23.85,-4.55 -74.5,-16.55 -82,-42.15c-0.65,-2.2 -0.95,-4.4 -0.95,-6.65c0,-22.05 3.05,-44.7 12.65,-64.8c15,-31.55 40.65,-46.55 69.25,-63.8c11.4,-6.9 23,-14.05 32.9,-23.05z" fill="#f5a557"/>
        <path d="M256,512c-80,0 -192,-15.7 -192,-62.75c0,-98.9 61,-115.5 103,-144.8c5.85,12.45 18.95,21.2 31.35,26.65c17.6,7.75 38.5,11.55 57.65,11.55c19.15,0 40.05,-3.8 57.65,-11.55c12.4,-5.45 25.5,-14.2 31.35,-26.65c42,29.3 103,45.9 103,144.8c0,47.05 -112,62.75 -192,62.75z" fill="#0299e3"/>
        <path d="M345,304.45c42,29.3 103,45.9 103,144.8c0,47.05 -112,62.75 -192,62.75l0,-169.35c19.15,0 40.05,-3.8 57.65,-11.55c12.4,-5.45 25.5,-14.2 31.35,-26.65z" fill="#0287cf"/>
        <path d="M256,342.65c-19.15,0 -40.05,-3.8 -57.65,-11.55c-12.4,-5.45 -25.5,-14.2 -31.35,-26.65c6.15,-4.25 11.7,-8.65 16.8,-13.75c0.1,16.5 36,31.95 72.2,31.95c36.2,0 72.1,-15.55 72.2,-32.05c5.1,5.1 10.65,9.6 16.8,13.85c-5.85,12.45 -18.95,21.2 -31.35,26.65c-17.6,7.75 -38.5,11.55 -57.65,11.55z" fill="#ffffff"/>
        <path d="M328.2,290.6c5.1,5.1 10.65,9.6 16.8,13.85c-5.85,12.45 -18.95,21.2 -31.35,26.65c-17.6,7.75 -38.5,11.55 -57.65,11.55l0,-20c36.2,0 72.1,-15.55 72.2,-32.05z" fill="#ebedef"/>
        <path d="M256,0c91.7,0 122.3,64 122.3,128c0,80 -61.15,160 -122.3,160c-61.15,0 -122.3,-80 -122.3,-160c0,-64 30.6,-128 122.3,-128z" fill="#f5b673"/>
        <path d="M256,0c91.7,0 122.3,64 122.3,128c0,80 -61.15,160 -122.3,160z" fill="#f5a557"/>
    </g>
</svg>