<svg x="0" y="0" width="512" height="512" version="1.1"
    xmlns="http://www.w3.org/2000/svg"
    xmlns:xlink="http://www.w3.org/1999/xlink" viewBox="0 0 512 512">
    <title>document gear icon</title>
    <desc>document gear icon from the IconExperience.com G-Collection. Copyright by INCORS GmbH (www.incors.com).</desc>
    <g>
        <path d="M288,0l-216,0c-4.4,0 -8,3.6 -8,8l0,496c0,4.4 3.6,8 8,8l368,0c4.4,0 8,-3.6 8,-8l0,-344c0,-8.85 -3.6,-16.85 -9.4,-22.65l-127.95,-127.95c-5.8,-5.8 -13.8,-9.4 -22.65,-9.4z" fill="#dff3fd"/>
        <path d="M66.1,509.35c1.45,1.65 3.55,2.65 5.9,2.65l368,0c4.4,0 8,-3.6 8,-8l0,-344c0,-8.85 -3.6,-16.85 -9.4,-22.65c-5.8,-5.75 -13.8,-9.35 -22.6,-9.35l-48,0z" fill="#b1e3fb"/>
        <path d="M438.6,137.35c-5.8,-5.75 -13.8,-9.35 -22.6,-9.35l-88,0c-4.4,0 -8,-3.6 -8,-8l0,-88c0,-8.5 -3.4,-16.6 -9.4,-22.6z" fill="#28b5f5"/>
        <path d="M258,217.1c1.8,-0.8 3.35,-2.05 4.7,-3.7l25.1,-31.3c1.2,-1.5 2.8,-2.35 4.75,-2.45c8.2,-0.4 15.9,0.95 22.9,4.05c7,3.05 13.2,7.8 18.5,14.15c1.2,1.5 1.65,3.2 1.35,5.1l-6.05,39.7c-0.3,2.1 -0.15,4.1 0.5,5.95c2.25,2.4 4.35,4.85 6.4,7.45c1.7,0.9 3.7,1.4 5.75,1.4l40.2,0.1c1.9,0 3.55,0.7 4.85,2.2c5.4,6.15 9.15,13.05 11.1,20.4c1.95,7.4 2.15,15.2 0.5,23.3c-0.4,1.9 -1.5,3.3 -3.15,4.25l-34.85,20.05c-1.8,1 -3.25,2.4 -4.3,4c-0.45,3.3 -1.1,6.55 -1.85,9.75c0.35,1.9 1.2,3.7 2.5,5.35l24.95,31.45c1.2,1.5 1.65,3.25 1.35,5.15c-1.45,8.1 -4.5,15.35 -9.05,21.45c-4.55,6.15 -10.55,11.15 -17.9,14.85c-1.75,0.9 -3.55,0.95 -5.3,0.25l-37.35,-14.75c-1.95,-0.75 -3.95,-1.05 -5.85,-0.85c-2.85,1.65 -5.8,3.2 -8.8,4.6c-1.25,1.5 -2.15,3.25 -2.6,5.3l-9.05,39.15c-0.45,1.85 -1.5,3.3 -3.2,4.2c-7.2,3.95 -14.8,6.05 -22.4,6.3c-7.6,0.3 -15.3,-1.3 -22.8,-4.7c-1.75,-0.8 -2.9,-2.2 -3.45,-4l-11.8,-38.4c-0.6,-2 -1.6,-3.7 -2.9,-5.1c-3.15,-1.2 -6.15,-2.55 -9.1,-4c-1.95,-0.05 -3.9,0.35 -5.75,1.25l-36.25,17.35c-1.75,0.8 -3.55,0.9 -5.3,0.15c-7.6,-3.2 -13.95,-7.8 -18.9,-13.6c-4.95,-5.8 -8.55,-12.75 -10.55,-20.75c-0.45,-1.9 -0.1,-3.65 1,-5.2l22.65,-33.15c1.2,-1.75 1.9,-3.6 2.15,-5.5c-1,-3.15 -1.85,-6.35 -2.55,-9.6c-1.15,-1.55 -2.7,-2.8 -4.55,-3.7l-36.15,-17.55c-1.7,-0.85 -2.9,-2.2 -3.45,-4.05c-2.2,-7.95 -2.6,-15.75 -1.15,-23.25c1.45,-7.5 4.7,-14.65 9.7,-21.15c1.15,-1.55 2.75,-2.35 4.65,-2.5l40.05,-2.95c2.1,-0.15 4,-0.75 5.7,-1.75c1.8,-2.75 3.75,-5.4 5.85,-7.9c0.5,-1.9 0.5,-3.9 0.05,-5.95l-8.8,-39.2c-0.4,-1.85 -0.1,-3.65 1,-5.2c4.8,-6.7 10.7,-11.85 17.45,-15.4c6.75,-3.55 14.35,-5.5 22.6,-5.65c1.95,-0.05 3.55,0.7 4.85,2.1l27.3,29.5c1.4,1.55 3.1,2.65 4.9,3.35c3.3,-0.3 6.55,-0.4 9.85,-0.35z M256.6,346.95c16.15,0 29.25,-13.1 29.25,-29.25c0,-16.15 -13.1,-29.25 -29.25,-29.25c-16.15,0 -29.3,13.1 -29.3,29.25c0,16.15 13.15,29.25 29.3,29.25z" fill="#788f9b"/>
        <path d="M321.4,186.85c4.6,2.85 8.8,6.5 12.55,11c1.2,1.5 1.65,3.2 1.35,5.1l-6.05,39.7c-0.3,2.1 -0.15,4.1 0.5,5.95c2.25,2.4 4.35,4.85 6.4,7.45c1.7,0.9 3.7,1.4 5.75,1.4l40.2,0.1c1.9,0 3.55,0.7 4.85,2.2c5.45,6.15 9.15,13.05 11.1,20.4c1.95,7.4 2.15,15.2 0.5,23.3c-0.4,1.9 -1.5,3.3 -3.15,4.25l-34.85,20.05c-1.8,1 -3.25,2.4 -4.3,4c-0.45,3.3 -1.1,6.55 -1.85,9.75c0.35,1.9 1.2,3.7 2.5,5.35l24.95,31.45c1.2,1.5 1.65,3.25 1.35,5.15c-1.45,8.1 -4.5,15.35 -9.05,21.45c-4.55,6.15 -10.55,11.15 -17.9,14.85c-1.75,0.9 -3.55,0.95 -5.3,0.25l-37.35,-14.75c-1.95,-0.75 -3.95,-1.05 -5.85,-0.85c-2.85,1.65 -5.8,3.2 -8.8,4.6c-1.25,1.5 -2.15,3.25 -2.6,5.3l-9.05,39.15c-0.45,1.85 -1.5,3.3 -3.2,4.2c-7.2,3.95 -14.75,6.05 -22.4,6.3c-7.6,0.3 -15.3,-1.3 -22.8,-4.7c-1.75,-0.8 -2.9,-2.2 -3.45,-4l-11.8,-38.4c-0.6,-2 -1.6,-3.7 -2.9,-5.1c-3.15,-1.2 -6.15,-2.55 -9.1,-4c-1.95,-0.05 -3.9,0.35 -5.75,1.25l-36.25,17.35c-1.75,0.8 -3.55,0.9 -5.3,0.15c-7.6,-3.2 -13.95,-7.8 -18.9,-13.6c-0.55,-0.6 -1.05,-1.2 -1.55,-1.85z M256.6,346.95c16.15,0 29.25,-13.1 29.25,-29.25c0,-16.15 -13.1,-29.25 -29.25,-29.25c-16.15,0 -29.25,13.1 -29.25,29.25c0,16.15 13.1,29.25 29.25,29.25z" fill="#546e7a"/>
        <path d="M256.6,273.8c-24.25,0 -43.9,19.65 -43.9,43.9c0,24.25 19.65,43.9 43.9,43.9c24.25,0 43.9,-19.65 43.9,-43.9c0,-24.25 -19.65,-43.9 -43.9,-43.9z M256.6,229.9c48.5,0 87.8,39.3 87.8,87.8c0,48.5 -39.3,87.8 -87.8,87.8c-48.5,0 -87.8,-39.3 -87.8,-87.8c0,-48.5 39.3,-87.8 87.8,-87.8z" fill="#8fa3ad"/>
        <path d="M256.6,273.8c24.25,0 43.9,19.65 43.9,43.9c0,24.25 -19.65,43.9 -43.9,43.9c-22.25,0 -40.6,-16.5 -43.5,-37.95l-31.5,39.8c15.45,25.2 43.25,42.05 75,42.05c48.5,0 87.8,-39.3 87.8,-87.8c0,-38.95 -25.35,-72 -60.5,-83.5l-31.45,39.8c1.35,-0.15 2.75,-0.2 4.15,-0.2z" fill="#788f9b"/>
    </g>
</svg>