<svg x="0" y="0" width="512" height="512" version="1.1"
    xmlns="http://www.w3.org/2000/svg"
    xmlns:xlink="http://www.w3.org/1999/xlink" viewBox="0 0 512 512">
    <title>dial knob icon</title>
    <desc>dial knob icon from the IconExperience.com G-Collection. Copyright by INCORS GmbH (www.incors.com).</desc>
    <g>
        <path d="M256,16c132.55,0 240,107.45 240,240c0,132.55 -107.45,240 -240,240c-132.55,0 -240,-107.45 -240,-240c0,-132.55 107.45,-240 240,-240z" fill="#546e7a"/>
        <path d="M425.7,86.3c43.45,43.45 70.3,103.45 70.3,169.7c0,132.55 -107.45,240 -240,240c-66.25,0 -126.25,-26.85 -169.7,-70.3z" fill="#445a64"/>
        <path d="M137.15,445.9l24.05,-41.6c4.45,2.85 9.05,5.5 13.75,7.95l-24,41.6c-4.7,-2.45 -9.3,-5.15 -13.8,-7.95z M107.7,350.8l-41.6,24.05c-2.8,-4.5 -5.5,-9.1 -7.95,-13.8l41.6,-24c2.45,4.7 5.1,9.3 7.95,13.75z M80.2,264l-48.05,0c-0.1,-2.65 -0.15,-5.3 -0.15,-8c0,-2.7 0.05,-5.35 0.15,-8l48.05,0c-0.15,2.65 -0.2,5.3 -0.2,8c0,2.7 0.05,5.35 0.2,8z M99.75,175l-41.65,-24.05c2.5,-4.7 5.2,-9.3 8,-13.8l41.6,24.05c-2.85,4.45 -5.5,9.05 -7.95,13.8z M161.2,107.7l-24.05,-41.6c4.5,-2.8 9.1,-5.5 13.8,-8l24,41.65c-4.7,2.45 -9.3,5.1 -13.75,7.95z M248,80.2l0,-48.05c2.65,-0.1 5.3,-0.15 8,-0.15c2.7,0 5.35,0.05 8,0.15l0,48.05c-2.65,-0.15 -5.3,-0.2 -8,-0.2c-2.7,0 -5.35,0.05 -8,0.2z M337.05,99.75l24,-41.65c4.7,2.5 9.3,5.2 13.8,8l-24.05,41.6c-4.45,-2.85 -9.05,-5.5 -13.75,-7.95z M404.3,161.2l41.6,-24.05c2.8,4.5 5.5,9.1 8,13.8l-41.65,24c-2.45,-4.7 -5.1,-9.3 -7.95,-13.75z M431.8,248l48.05,0c0.1,2.65 0.15,5.3 0.15,8c0,2.7 -0.05,5.35 -0.15,8l-48.05,0c0.15,-2.65 0.2,-5.3 0.2,-8c0,-2.7 -0.05,-5.35 -0.2,-8z M412.25,337.05l41.6,24c-2.45,4.7 -5.15,9.3 -7.95,13.8l-41.6,-24.05c2.85,-4.45 5.5,-9.05 7.95,-13.75z M350.8,404.3l24.05,41.6c-4.5,2.8 -9.1,5.45 -13.8,7.95l-24,-41.6c4.7,-2.45 9.3,-5.1 13.75,-7.95z M264,431.8l0,48.05c-2.65,0.1 -5.3,0.15 -8,0.15c-2.7,0 -5.35,-0.05 -8,-0.15l0,-48.05c2.65,0.15 5.3,0.2 8,0.2c2.7,0 5.35,-0.05 8,-0.2z" fill="#cdd7db"/>
        <path d="M137.15,445.9l24.05,-41.6c4.45,2.85 9.05,5.5 13.75,7.95l-24,41.6c-4.7,-2.45 -9.3,-5.15 -13.8,-7.95z M404.3,161.2l41.6,-24.05c2.8,4.5 5.5,9.1 8,13.8l-41.65,24c-2.45,-4.7 -5.1,-9.3 -7.95,-13.75z M431.8,248l48.05,0c0.1,2.65 0.15,5.3 0.15,8c0,2.7 -0.05,5.35 -0.15,8l-48.05,0c0.15,-2.65 0.2,-5.3 0.2,-8c0,-2.7 -0.05,-5.35 -0.2,-8z M412.25,337.05l41.6,24c-2.45,4.7 -5.15,9.3 -7.95,13.8l-41.6,-24.05c2.85,-4.45 5.5,-9.05 7.95,-13.75z M350.8,404.3l24.05,41.6c-4.5,2.8 -9.1,5.45 -13.8,7.95l-24,-41.6c4.7,-2.45 9.3,-5.1 13.75,-7.95z M264,431.8l0,48.05c-2.65,0.1 -5.3,0.15 -8,0.15c-2.7,0 -5.35,-0.05 -8,-0.15l0,-48.05c2.65,0.15 5.3,0.2 8,0.2c2.7,0 5.35,-0.05 8,-0.2z" fill="#afbdc3"/>
        <path d="M176,117.45c76.55,-44.15 174.35,-17.95 218.55,58.55c44.15,76.55 17.95,174.35 -58.55,218.55c-76.55,44.15 -174.35,17.95 -218.55,-58.55c-44.15,-76.55 -17.95,-174.35 58.55,-218.55z" fill="#445a64"/>
        <path d="M369.15,142.85c28.95,28.95 46.85,68.95 46.85,113.15c0,88.35 -71.65,160 -160,160c-44.2,0 -84.2,-17.9 -113.15,-46.85z" fill="#36464e"/>
        <path d="M256,112c79.55,0 144,64.45 144,144c0,79.55 -64.45,144 -144,144c-79.55,0 -144,-64.45 -144,-144c0,-79.55 64.45,-144 144,-144z" fill="#788f9b"/>
        <path d="M357.8,154.2c26.1,26.05 42.2,62.05 42.2,101.8c0,79.55 -64.45,144 -144,144c-39.75,0 -75.75,-16.1 -101.8,-42.2z" fill="#546e7a"/>
        <path d="M256,128c70.7,0 128,57.3 128,128c0,70.7 -57.3,128 -128,128c-70.7,0 -128,-57.3 -128,-128c0,-70.7 57.3,-128 128,-128z" fill="#8fa3ad"/>
        <path d="M346.5,165.5c23.15,23.15 37.5,55.15 37.5,90.5c0,70.7 -57.3,128 -128,128c-35.35,0 -67.35,-14.35 -90.5,-37.5z" fill="#788f9b"/>
        <polygon points="260.7,228.7 323.9,165.5 346.5,165.5 346.5,188.1 283.3,251.3" fill="#ffb100"/>
        <polygon points="346.5,165.5 346.5,188.1 283.3,251.3 272,240" fill="#ff9f00"/>
    </g>
</svg>