<svg x="0" y="0" width="512" height="512" version="1.1"
    xmlns="http://www.w3.org/2000/svg"
    xmlns:xlink="http://www.w3.org/1999/xlink" viewBox="0 0 512 512">
    <title>debug icon</title>
    <desc>debug icon from the IconExperience.com G-Collection. Copyright by INCORS GmbH (www.incors.com).</desc>
    <g>
        <path d="M33.2,442.05l32,-80c0.8,-2.05 2.05,-3.85 3.5,-5.35l0,0l48,-48l22.6,22.6l-45.75,45.75l-38.25,72.9z M4.7,292.7l48,-48c2.35,-2.35 5.2,-3.8 8.25,-4.4l63.2,-15.8l7.75,31l-59.7,14.9l-51.65,38.15z M68,62.5l26.15,70.75l57,28.5l-14.25,28.5l-62.75,-31.35c-4.9,-1.95 -8.75,-6.25 -9.85,-11.8l-16,-79.7z" fill="#546e7a"/>
        <path d="M478.8,442.05l-32,-80c-0.8,-2.05 -2.05,-3.85 -3.5,-5.35l0,0l-48,-48l-22.6,22.6l45.75,45.75l38.25,72.9z M507.3,292.7l-48,-48c-2.35,-2.35 -5.2,-3.8 -8.25,-4.4l-63.2,-15.8l-7.75,31l59.7,14.9l51.65,38.15z M444,62.5l-26.15,70.75l-57,28.5l14.25,28.5l62.75,-31.35c4.9,-1.95 8.75,-6.25 9.85,-11.8l16,-79.7z" fill="#445a64"/>
        <path d="M256,230.6c-64,0 -112,-58.9 -112,-67.05c0.1,-6.3 0.95,-12.55 2.45,-18.7l5.2,-0.35c6.35,-23.55 23.3,-44.1 43.6,-57.35l-2.75,-4.2c1.75,-8.55 7.8,-16.3 16.8,-22.3l-6.95,-7c-0.8,-0.8 -1.4,-1.75 -1.8,-2.75l-15.65,-31.35l14.25,-7.1l15.35,30.75l10,10c9.3,-3.3 20.05,-5.2 31.5,-5.2c11.45,0 22.2,1.9 31.5,5.2l10,-10l15.35,-30.75l14.25,7.1l-15.65,31.35c-0.4,1 -1,1.95 -1.8,2.75l-6.95,7c9,6 15.05,13.75 16.8,22.3l-2.75,4.2c20.3,13.25 37.25,33.8 43.6,57.35l5.2,0.35c1.5,6.15 2.35,12.4 2.45,18.7c0,8.15 -48,67.05 -112,67.05z" fill="#546e7a"/>
        <path d="M256,48c11.45,0 22.2,1.9 31.5,5.2l10,-10l15.35,-30.75l14.25,7.1l-15.65,31.35c-0.4,1 -1,1.95 -1.8,2.75l-6.95,7c9,6 15.05,13.75 16.8,22.3l-2.75,4.2c20.3,13.25 37.25,33.8 43.6,57.35l5.2,0.35c1.5,6.15 2.35,12.4 2.45,18.7c0,8.15 -48,67.05 -112,67.05z" fill="#445a64"/>
        <path d="M238.45,477.4c-62.6,-17.95 -142.45,-57.2 -142.45,-189.4c0,-48.3 0,-86.5 32,-127.95c17.1,-22.1 96,0 128,32.2c32,-32.2 110.9,-54.3 128,-32.2c32,41.45 32,79.65 32,127.95c0,132.2 -79.85,171.45 -142.45,189.4c-12,3.45 -23.1,3.45 -35.1,0z" fill="#ffa526"/>
        <path d="M256,192.25c32,-32.2 110.9,-54.3 128,-32.2c32,41.45 32,79.65 32,127.95c0,132.2 -79.85,171.45 -142.45,189.4c-6,1.75 -11.8,2.6 -17.55,2.6z" fill="#f98b00"/>
        <path d="M319.5,83c-9.45,3.1 -15.65,7.8 -15.65,22.3c0,14.5 20.55,38.15 35.5,42.4c14.95,4.25 19.55,1.55 26,-2.95c0,-26.6 -20.7,-53.7 -45.85,-61.75z M192.35,83.1c9.45,3.1 15.65,11.15 15.65,22.3c0,17.85 -15.9,36.8 -35.5,42.4c-10.3,2.9 -19.55,1.55 -26.05,-2.95c0.05,-26.6 20.7,-53.7 45.9,-61.75z" fill="#cdd7db"/>
        <path d="M319.5,83c-9.45,3.1 -15.65,7.8 -15.65,22.3c0,14.5 20.55,38.15 35.5,42.4c14.95,4.25 19.55,1.55 26,-2.95c0,-26.6 -20.7,-53.7 -45.85,-61.75z" fill="#afbdc3"/>
        <path d="M160,224c70.7,0 128,57.3 128,128c0,70.7 -57.3,128 -128,128c-70.7,0 -128,-57.3 -128,-128c0,-70.7 57.3,-128 128,-128z" fill="#c3dfa3"/>
        <path d="M160,224c70.7,0 128,57.3 128,128c0,70.7 -57.3,128 -128,128z" fill="#add37f"/>
        <path d="M144,192l32,0l0,16.9c66.75,7.35 119.75,60.35 127.1,127.1l16.9,0l0,32l-16.9,0c-7.35,66.75 -60.35,119.75 -127.1,127.1l0,16.9l-32,0l0,-16.9c-66.75,-7.35 -119.75,-60.35 -127.1,-127.1l-16.9,0l0,-32l16.9,0c7.35,-66.75 60.35,-119.75 127.1,-127.1z M176,241.15l0,65.6c-5,-1.8 -10.4,-2.75 -16,-2.75c-5.6,0 -11,0.95 -16,2.75l0,-65.6c-49.05,7 -87.85,45.8 -94.85,94.85l65.6,0c-1.8,5 -2.75,10.4 -2.75,16c0,5.6 0.95,11 2.75,16l-65.6,0c7,49.05 45.8,87.85 94.85,94.85l0,-65.6c5,1.8 10.4,2.75 16,2.75c5.6,0 11,-0.95 16,-2.75l0,65.6c49.05,-7 87.85,-45.8 94.85,-94.85l-65.6,0c1.8,-5 2.75,-10.4 2.75,-16c0,-5.6 -0.95,-11 -2.75,-16l65.6,0c-7,-49.05 -45.8,-87.85 -94.85,-94.85z" fill="#429f46"/>
        <path d="M160,192l16,0l0,16.9c66.75,7.35 119.75,60.35 127.1,127.1l16.9,0l0,32l-16.9,0c-7.35,66.75 -60.35,119.75 -127.1,127.1l0,16.9l-16,0l0,-112c5.6,0 11,-0.95 16,-2.75l0,65.6c49.05,-7 87.85,-45.8 94.85,-94.85l-65.6,0c1.8,-5 2.75,-10.4 2.75,-16c0,-5.6 -0.95,-11 -2.75,-16l65.6,0c-7,-49.05 -45.8,-87.85 -94.85,-94.85l0,65.6c-5,-1.8 -10.4,-2.75 -16,-2.75z" fill="#388d3c"/>
    </g>
</svg>