<?xml version="1.0" encoding="UTF-8" standalone="no"?>
<svg
   xmlns:dc="http://purl.org/dc/elements/1.1/"
   xmlns:cc="http://creativecommons.org/ns#"
   xmlns:rdf="http://www.w3.org/1999/02/22-rdf-syntax-ns#"
   xmlns:svg="http://www.w3.org/2000/svg"
   xmlns="http://www.w3.org/2000/svg"
   xmlns:sodipodi="http://sodipodi.sourceforge.net/DTD/sodipodi-0.dtd"
   xmlns:inkscape="http://www.inkscape.org/namespaces/inkscape"
   version="1.1"
   width="512"
   height="512"
   viewBox="0 0 512 512"
   enable-background="new 0 0 24.00 24.00"
   xml:space="preserve"
   id="svg4"
   sodipodi:docname="expand-all2.svg"
   inkscape:version="0.92.4 (5da689c313, 2019-01-14)"><metadata
   id="metadata10"><rdf:RDF><cc:Work
       rdf:about=""><dc:format>image/svg+xml</dc:format><dc:type
         rdf:resource="http://purl.org/dc/dcmitype/StillImage" /><dc:title></dc:title></cc:Work></rdf:RDF></metadata><defs
   id="defs8" /><sodipodi:namedview
   pagecolor="#333333"
   bordercolor="#666666"
   borderopacity="1"
   objecttolerance="10"
   gridtolerance="10"
   guidetolerance="10"
   inkscape:pageopacity="0"
   inkscape:pageshadow="2"
   inkscape:window-width="1617"
   inkscape:window-height="844"
   id="namedview6"
   showgrid="false"
   fit-margin-top="0"
   fit-margin-left="0"
   fit-margin-right="0"
   fit-margin-bottom="0"
   inkscape:zoom="0.5"
   inkscape:cx="108.51469"
   inkscape:cy="257.35629"
   inkscape:window-x="2179"
   inkscape:window-y="23"
   inkscape:window-maximized="0"
   inkscape:current-layer="svg4" />
	<path
   d="M 409.6,153.6 H 153.60001 v 256 h -51.2 v -256 c 0,-28.16 23.04,-51.2 51.2,-51.2 H 409.6 Z M 307.2,0 H 51.2 C 23.04,0 0,23.04 0,51.2 v 256 h 51.2 v -256 h 256 z M 512,256 v 204.8 c 0,28.16 -23.04,51.2 -51.2,51.2 H 256.00001 c -28.16,0 -51.2,-23.04 -51.2,-51.2 V 256 c 0,-28.16 23.04,-51.2 51.2,-51.2 H 460.8 c 28.16,0 51.2,23.04 51.2,51.2 z m -51.2,76.8 H 384 V 256 h -51.2 v 76.8 H 256.00001 V 384 H 332.8 v 76.8 H 384 V 384 h 76.8 z"
   id="path2"
   inkscape:connector-curvature="0"
   style="fill:#68ba1c;fill-opacity:1;stroke-width:1.33333015;stroke-linejoin:miter" />
</svg>