<svg x="0" y="0" width="512" height="512" version="1.1"
    xmlns="http://www.w3.org/2000/svg"
    xmlns:xlink="http://www.w3.org/1999/xlink" viewBox="0 0 512 512">
    <title>link icon</title>
    <desc>link icon from the IconExperience.com G-Collection. Copyright by INCORS GmbH (www.incors.com).</desc>
    <g>
        <path d="M47.7,310.8l43.85,-43.85c42.25,-42.25 111.2,-42.25 153.5,0l0,0c42.25,42.3 42.25,111.25 0,153.5l-43.85,43.85c-42.3,42.25 -111.25,42.25 -153.5,0l0,0c-42.25,-42.25 -42.25,-111.2 0,-153.5z M464.3,201.2l-43.85,43.85c-42.25,42.25 -111.2,42.25 -153.5,0l0,0c-42.25,-42.3 -42.25,-111.25 0,-153.5l43.85,-43.85c42.3,-42.25 111.25,-42.25 153.5,0l0,0c42.25,42.25 42.25,111.2 0,153.5z M420.45,157.35c18.05,-18.1 18.05,-47.75 0,-65.8c-18.05,-18.05 -47.7,-18.05 -65.8,0l-43.85,43.85c-18.05,18.05 -18.05,47.7 0,65.8c18.1,18.05 47.75,18.05 65.8,0z M91.55,354.65c-18.05,18.1 -18.05,47.75 0,65.8c18.05,18.05 47.7,18.05 65.8,0l43.85,-43.85c18.05,-18.05 18.05,-47.7 0,-65.8c-18.1,-18.05 -47.75,-18.05 -65.8,0z" fill="#f98b00"/>
        <path d="M245.05,266.95l0,0c42.25,42.3 42.25,111.25 0,153.5l-43.85,43.85c-42.3,42.25 -111.25,42.25 -153.5,0l0,0l43.85,-43.85l0,0c18.05,18.05 47.7,18.05 65.8,0l43.85,-43.85c18.05,-18.05 18.05,-47.7 0,-65.8z M266.95,245.05l43.85,-43.85l0,0c18.1,18.05 47.75,18.05 65.8,0l43.85,-43.85c18.05,-18.1 18.05,-47.75 0,-65.8l43.85,-43.85l0,0c42.25,42.25 42.25,111.2 0,153.5l-43.85,43.85c-42.25,42.25 -111.2,42.25 -153.5,0z" fill="#f37c00"/>
        <path d="M157.35,310.8l153.45,-153.45c12.1,-12.1 31.8,-12.1 43.85,0l0,0c12.1,12.05 12.1,31.75 0,43.85l-153.45,153.45c-12.1,12.1 -31.8,12.1 -43.85,0l0,0c-12.1,-12.05 -12.1,-31.75 0,-43.85z" fill="#ffb54c"/>
        <path d="M157.35,354.65l197.3,-197.3c12.1,12.05 12.1,31.75 0,43.85l-153.45,153.45c-12.1,12.1 -31.8,12.1 -43.85,0z" fill="#ffa526"/>
    </g>
</svg>