<?xml version="1.0" encoding="UTF-8"?>
<svg id="mdi-code-array" width="512" height="512" version="1.1" viewBox="0 0 512 512" xml:space="preserve" xmlns="http://www.w3.org/2000/svg"><g><path d="m59.889 3a56.889 56.889 0 0 0-56.889 56.889v398.22c0 31.289 25.316 56.889 56.889 56.889h398.22a56.889 56.889 0 0 0 56.889-56.889v-398.22a56.889 56.889 0 0 0-56.889-56.889z" fill="#cf0f7c"/><path d="m59.889 3a56.889 56.889 0 0 0-56.889 56.889v398.22c0 14.642 5.5921 27.994 14.727 38.104l476.92-479.84a56.889 56.889 0 0 0-36.531-13.373h-398.22z" fill="#ef1090"/><path d="m81.316 134.88 160.35-80.176c9.3205-4.6603 19.343-4.6603 28.663 0l160.35 80.176c11.124 5.5622 17.739 16.236 17.739 28.713v184.81c0 12.477-6.6146 23.151-17.739 28.713l-160.35 80.176c-9.3205 4.6603-19.343 4.6603-28.663 0l-160.35-80.176c-11.124-5.5623-17.739-16.236-17.739-28.713v-184.81c0-12.477 6.6146-23.151 17.739-28.713zm14.332 42.744v170.78l144.32 72.159v-170.78zm299.06-24.855-138.71-69.353-138.71 69.353 138.71 69.353z" fill="#fff" stroke-width=".1"/></g></svg>
