<svg x="0" y="0" width="512" height="512" version="1.1"
    xmlns="http://www.w3.org/2000/svg"
    xmlns:xlink="http://www.w3.org/1999/xlink" viewBox="0 0 512 512">
    <title>speech balloon question icon</title>
    <desc>speech balloon question icon from the IconExperience.com G-Collection. Copyright by INCORS GmbH (www.incors.com).</desc>
    <g>
        <path d="M296.05,512c7.95,-32 7.95,-80 -19.65,-104.45c-9.05,2.65 -18.6,4.75 -28.5,6.15c-109.9,15.6 -226.35,-46.65 -245.1,-158.55c-19.05,-113.85 59.9,-232.7 197.1,-252.2c140.65,-19.95 285,62.2 308.4,201.8c25.05,149.65 -80.1,271.9 -212.25,307.25z" fill="#7cb142"/>
        <path d="M296.05,512c7.95,-32 7.95,-80 -19.65,-104.45c-9.05,2.65 -18.6,4.75 -28.5,6.15c-61.9,8.8 -125.9,-7.15 -173.35,-42.7l362.85,-296.85c36.25,33.85 62.1,78.15 70.9,130.6c25.05,149.65 -80.1,271.9 -212.25,307.25z" fill="#689d38"/>
        <path d="M225.45,260.5c0,-18.85 2.1,-33.75 6.4,-44.65c4.2,-10.9 11.15,-20.35 20.65,-28.3c9.55,-8.05 16.85,-15.4 21.8,-22c4.95,-6.65 7.45,-14 7.45,-22c0,-19.45 -8.4,-29.25 -25.15,-29.25c-7.75,0 -14,2.85 -18.75,8.55c-4.85,5.65 -7.35,13.4 -7.6,23l-65.35,0c0.25,-25.8 8.35,-45.85 24.35,-60.25c16,-14.4 38.45,-21.6 67.35,-21.6c28.7,0 51.05,6.65 66.8,19.95c15.8,13.25 23.7,32.2 23.7,56.7c0,10.7 -2.1,20.45 -6.4,29.25c-4.2,8.8 -11.1,17.75 -20.45,26.9l-22.25,20.7c-6.35,6.1 -10.7,12.3 -13.15,18.7c-2.5,6.4 -3.85,14.45 -4.1,24.3z M217.5,319.3c0,-9.55 3.45,-17.35 10.35,-23.5c6.9,-6.15 15.55,-9.15 25.85,-9.15c10.3,0 18.85,3 25.8,9.15c6.85,6.15 10.35,13.95 10.35,23.5c0,9.55 -3.5,17.4 -10.35,23.5c-6.95,6.15 -15.5,9.2 -25.8,9.2c-10.3,0 -18.95,-3.05 -25.85,-9.2c-6.9,-6.1 -10.35,-13.95 -10.35,-23.5z" fill="#ffffff"/>
        <path d="M225.45,260.5c0,-4.65 0.1,-9.1 0.35,-13.25l120.95,-98.95c-0.8,7.75 -2.8,14.95 -6.05,21.6c-4.2,8.8 -11.1,17.75 -20.45,26.9l-22.25,20.7c-6.35,6.1 -10.7,12.3 -13.15,18.7c-2.5,6.4 -3.85,14.45 -4.1,24.3z M217.5,319.3c0,-9.55 3.45,-17.35 10.35,-23.5c6.9,-6.15 15.55,-9.15 25.85,-9.15c10.3,0 18.85,3 25.8,9.15c6.85,6.15 10.35,13.95 10.35,23.5c0,9.55 -3.5,17.4 -10.35,23.5c-6.95,6.15 -15.5,9.2 -25.8,9.2c-10.3,0 -18.95,-3.05 -25.85,-9.2c-6.9,-6.1 -10.35,-13.95 -10.35,-23.5z" fill="#ebedef"/>
    </g>
</svg>