<svg x="0" y="0" width="512" height="512" version="1.1"
    xmlns="http://www.w3.org/2000/svg"
    xmlns:xlink="http://www.w3.org/1999/xlink" viewBox="0 0 512 512">
    <title>zoom in icon</title>
    <desc>zoom in icon from the IconExperience.com G-Collection. Copyright by INCORS GmbH (www.incors.com).</desc>
    <g>
        <polygon points="144.4,333.4 234.95,242.9 268.85,276.85 178.35,367.35" fill="#788f9b"/>
        <polygon points="251.9,259.9 268.85,276.85 178.35,367.35 161.4,350.4" fill="#546e7a"/>
        <path d="M18.35,437.1l139.7,-139.75c3.1,-3.1 8.2,-3.1 11.3,0l45.3,45.3c3.1,3.1 3.1,8.2 0,11.3l-139.75,139.7c-3.1,3.15 -8.2,3.15 -11.3,0l-22.65,-22.6l-22.6,-22.65c-3.15,-3.1 -3.15,-8.2 0,-11.3z" fill="#ffa526"/>
        <path d="M192,320l22.65,22.65c3.1,3.1 3.1,8.2 0,11.3l-139.75,139.7c-3.1,3.15 -8.2,3.15 -11.3,0l-22.65,-22.6z" fill="#f98b00"/>
        <path d="M336,16c-88.35,0 -160,71.65 -160,160c0,88.35 71.65,160 160,160c88.35,0 160,-71.65 160,-160c0,-88.35 -71.65,-160 -160,-160z" fill="#788f9b"/>
        <path d="M336,48c70.7,0 128,57.3 128,128c0,70.7 -57.3,128 -128,128c-70.7,0 -128,-57.3 -128,-128c0,-70.7 57.3,-128 128,-128z" fill="#ffffff"/>
        <path d="M426.5,85.45c23.15,23.2 37.5,55.2 37.5,90.55c0,70.7 -57.3,128 -128,128c-35.35,0 -67.35,-14.35 -90.55,-37.5z" fill="#ebedef"/>
        <polygon points="272,160 320,160 320,112 352,112 352,160 400,160 400,192 352,192 352,240 320,240 320,192 272,192" fill="#689d38"/>
        <polygon points="352,159.95 352,160 400,160 400,192 352,192 352,240 320,240 320,192 319.95,192" fill="#54892e"/>
    </g>
</svg>