<?xml version="1.0" encoding="UTF-8" standalone="no"?>
<svg
   xmlns:dc="http://purl.org/dc/elements/1.1/"
   xmlns:cc="http://creativecommons.org/ns#"
   xmlns:rdf="http://www.w3.org/1999/02/22-rdf-syntax-ns#"
   xmlns:svg="http://www.w3.org/2000/svg"
   xmlns="http://www.w3.org/2000/svg"
   xmlns:sodipodi="http://sodipodi.sourceforge.net/DTD/sodipodi-0.dtd"
   xmlns:inkscape="http://www.inkscape.org/namespaces/inkscape"
   x="0"
   y="0"
   width="512"
   height="512"
   version="1.1"
   viewBox="0 0 512 512"
   id="svg7293"
   inkscape:version="0.91 r13725"
   sodipodi:docname="log_stop2.svg">
  <metadata
     id="metadata7335">
    <rdf:RDF>
      <cc:Work
         rdf:about="">
        <dc:format>image/svg+xml</dc:format>
        <dc:type
           rdf:resource="http://purl.org/dc/dcmitype/StillImage" />
        <dc:title>history2 icon</dc:title>
      </cc:Work>
    </rdf:RDF>
  </metadata>
  <defs
     id="defs7333" />
  <sodipodi:namedview
     pagecolor="#ffffff"
     bordercolor="#666666"
     borderopacity="1"
     objecttolerance="10"
     gridtolerance="10"
     guidetolerance="10"
     inkscape:pageopacity="0"
     inkscape:pageshadow="2"
     inkscape:window-width="1920"
     inkscape:window-height="1017"
     id="namedview7331"
     showgrid="false"
     inkscape:zoom="1.1"
     inkscape:cx="256"
     inkscape:cy="298.33073"
     inkscape:window-x="1912"
     inkscape:window-y="-8"
     inkscape:window-maximized="1"
     inkscape:current-layer="svg7293" />
  <title
     id="title7295">history2 icon</title>
  <desc
     id="desc7297">history2 icon from the IconExperience.com G-Collection. Copyright by INCORS GmbH (www.incors.com).</desc>
  <g
     id="g7352"
     transform="matrix(1.7647059,0,0,1.7647059,-423.52942,-367.05883)">
    <path
       d="m 240,208 0,272 240,0 0,-272 z m 24,16 c 4.4,0 8,3.6 8,8 0,4.4 -3.6,8 -8,8 -4.4,0 -8,-3.6 -8,-8 0,-4.4 3.6,-8 8,-8 z m 192,0 c 4.4,0 8,3.6 8,8 0,4.4 -3.6,8 -8,8 -4.4,0 -8,-3.6 -8,-8 0,-4.4 3.6,-8 8,-8 z m 0,32 c 4.4,0 8,3.6 8,8 0,4.4 -3.6,8 -8,8 -4.4,0 -8,-3.6 -8,-8 0,-4.4 3.6,-8 8,-8 z m 0,32 c 4.4,0 8,3.6 8,8 0,4.4 -3.6,8 -8,8 -4.4,0 -8,-3.6 -8,-8 0,-4.4 3.6,-8 8,-8 z m 0,32 c 4.4,0 8,3.6 8,8 0,4.4 -3.6,8 -8,8 -4.4,0 -8,-3.6 -8,-8 0,-4.4 3.6,-8 8,-8 z m 0,32 c 4.4,0 8,3.6 8,8 0,4.4 -3.6,8 -8,8 -4.4,0 -8,-3.6 -8,-8 0,-4.4 3.6,-8 8,-8 z m 0,32 c 4.4,0 8,3.6 8,8 0,4.4 -3.6,8 -8,8 -4.4,0 -8,-3.6 -8,-8 0,-4.4 3.6,-8 8,-8 z m 0,32 c 4.4,0 8,3.6 8,8 0,4.4 -3.6,8 -8,8 -4.4,0 -8,-3.6 -8,-8 0,-4.4 3.6,-8 8,-8 z m 0,32 c 4.4,0 8,3.6 8,8 0,4.4 -3.6,8 -8,8 -4.4,0 -8,-3.6 -8,-8 0,-4.4 3.6,-8 8,-8 z M 264,256 c 4.4,0 8,3.6 8,8 0,4.4 -3.6,8 -8,8 -4.4,0 -8,-3.6 -8,-8 0,-4.4 3.6,-8 8,-8 z m 0,32 c 4.4,0 8,3.6 8,8 0,4.4 -3.6,8 -8,8 -4.4,0 -8,-3.6 -8,-8 0,-4.4 3.6,-8 8,-8 z m 0,32 c 4.4,0 8,3.6 8,8 0,4.4 -3.6,8 -8,8 -4.4,0 -8,-3.6 -8,-8 0,-4.4 3.6,-8 8,-8 z m 0,32 c 4.4,0 8,3.6 8,8 0,4.4 -3.6,8 -8,8 -4.4,0 -8,-3.6 -8,-8 0,-4.4 3.6,-8 8,-8 z m 0,32 c 4.4,0 8,3.6 8,8 0,4.4 -3.6,8 -8,8 -4.4,0 -8,-3.6 -8,-8 0,-4.4 3.6,-8 8,-8 z m 0,32 c 4.4,0 8,3.6 8,8 0,4.4 -3.6,8 -8,8 -4.4,0 -8,-3.6 -8,-8 0,-4.4 3.6,-8 8,-8 z m 0,32 c 4.4,0 8,3.6 8,8 0,4.4 -3.6,8 -8,8 -4.4,0 -8,-3.6 -8,-8 0,-4.4 3.6,-8 8,-8 z"
       id="path7301"
       inkscape:connector-curvature="0"
       style="fill:#7fc9c3" />
    <path
       d="m 288,336 144,0 0,16 -144,0 z m 0,96 144,0 0,16 -144,0 z m 0,-48 144,0 0,16 -144,0 z m 0,-96 144,0 0,16 -144,0 z m 0,-48 144,0 0,16 -144,0 z"
       id="path7303"
       inkscape:connector-curvature="0"
       style="fill:#546e7a" />
  </g>
  <path
     id="path4324"
     d="m 283.97803,266.80769 206.04395,0 c 9.47051,0 17.17033,7.69982 17.17033,17.17033 l 0,206.04395 c 0,9.47051 -7.69982,17.17034 -17.17033,17.17034 l -206.04395,0 c -9.47051,0 -17.17034,-7.69983 -17.17034,-17.17034 l 0,-206.04395 c 0,-9.47051 7.69983,-17.17033 17.17034,-17.17033 z"
     inkscape:connector-curvature="0"
     style="fill:#f30c0c;fill-opacity:1;stroke:#b80000;stroke-width:9.61538506;stroke-miterlimit:4;stroke-dasharray:none;stroke-opacity:1" />
</svg>
