<svg x="0" y="0" width="512" height="512" version="1.1"
    xmlns="http://www.w3.org/2000/svg"
    xmlns:xlink="http://www.w3.org/1999/xlink" viewBox="0 0 512 512">
    <title>lightbulb off icon</title>
    <desc>lightbulb off icon from the IconExperience.com G-Collection. Copyright by INCORS GmbH (www.incors.com).</desc>
    <g>
        <path d="M192,368l128,0l0,93.65c0,10.15 -4.5,18.85 -12.8,24.95l-21.2,15.5c-18.05,13.2 -41.95,13.2 -60,0l-21.2,-15.5c-8.35,-6.1 -12.8,-14.8 -12.8,-24.95z" fill="#8fa3ad"/>
        <path d="M320,368l0,93.65c0,10.15 -4.5,18.85 -12.8,24.95l-21.2,15.5c-9.05,6.6 -19.5,9.9 -30,9.9l0,-112l-64,0l0,-32z" fill="#788f9b"/>
        <path d="M294.35,496l-8.35,6.1c-18.05,13.2 -41.95,13.2 -60,0l-8.35,-6.1z" fill="#546e7a"/>
        <path d="M294.35,496l-8.35,6.1c-9.05,6.6 -19.5,9.9 -30,9.9l0,-16z" fill="#445a64"/>
        <path d="M256,0c88.35,0 160,73.9 160,144c0,115.6 -80,128.4 -80,192.4c0,17.45 0,48 -16,48l-128,0c-16,0 -16,-30.55 -16,-48c0,-64 -80,-76.8 -80,-192.4c0,-70.1 71.65,-144 160,-144z" fill="#dff3fd"/>
        <path d="M256,0c88.35,0 160,73.9 160,144c0,115.6 -80,128.4 -80,192.4c0,17.45 0,48 -16,48l-64,0z" fill="#b1e3fb"/>
    </g>
</svg>