<?xml version="1.0" encoding="UTF-8" standalone="no"?>
<svg
   xmlns:dc="http://purl.org/dc/elements/1.1/"
   xmlns:cc="http://creativecommons.org/ns#"
   xmlns:rdf="http://www.w3.org/1999/02/22-rdf-syntax-ns#"
   xmlns:svg="http://www.w3.org/2000/svg"
   xmlns="http://www.w3.org/2000/svg"
   xmlns:sodipodi="http://sodipodi.sourceforge.net/DTD/sodipodi-0.dtd"
   xmlns:inkscape="http://www.inkscape.org/namespaces/inkscape"
   x="0"
   y="0"
   width="512"
   height="512"
   version="1.1"
   viewBox="0 0 512 512"
   id="svg4136"
   inkscape:version="0.91 r13725"
   sodipodi:docname="node_start.svg">
  <metadata
     id="metadata4154">
    <rdf:RDF>
      <cc:Work
         rdf:about="">
        <dc:format>image/svg+xml</dc:format>
        <dc:type
           rdf:resource="http://purl.org/dc/dcmitype/StillImage" />
        <dc:title>elements hierarchy icon</dc:title>
      </cc:Work>
    </rdf:RDF>
  </metadata>
  <defs
     id="defs4152" />
  <sodipodi:namedview
     pagecolor="#ffffff"
     bordercolor="#666666"
     borderopacity="1"
     objecttolerance="10"
     gridtolerance="10"
     guidetolerance="10"
     inkscape:pageopacity="0"
     inkscape:pageshadow="2"
     inkscape:window-width="1920"
     inkscape:window-height="1017"
     id="namedview4150"
     showgrid="false"
     inkscape:zoom="1.6601562"
     inkscape:cx="124.38588"
     inkscape:cy="235.00491"
     inkscape:window-x="1912"
     inkscape:window-y="-8"
     inkscape:window-maximized="1"
     inkscape:current-layer="svg4136" />
  <title
     id="title4138">elements hierarchy icon</title>
  <desc
     id="desc4140">elements hierarchy icon from the IconExperience.com G-Collection. Copyright by INCORS GmbH (www.incors.com).</desc>
  <g
     id="g6363"
     transform="translate(-48,0)">
    <path
       id="path6365"
       d="m 102.65,416 41.35,0 0,64 -41.35,0 c -4.45,0 -8.2,-1.55 -11.35,-4.7 l -6.6,-6.6 C 81.55,465.55 77.8,464 73.35,464 l -25.35,0 0,-32 25.35,0 c 4.45,0 8.2,-1.55 11.35,-4.7 l 6.6,-6.6 c 3.15,-3.15 6.9,-4.7 11.35,-4.7 z m 0,-96 41.35,0 0,64 -41.35,0 c -4.45,0 -8.2,-1.55 -11.35,-4.7 l -6.6,-6.6 C 81.55,369.55 77.8,368 73.35,368 l -25.35,0 0,-32 25.35,0 c 4.45,0 8.2,-1.55 11.35,-4.7 l 6.6,-6.6 c 3.15,-3.15 6.9,-4.7 11.35,-4.7 z m 0,-96 41.35,0 0,64 -41.35,0 c -4.45,0 -8.2,-1.55 -11.35,-4.7 l -6.6,-6.6 C 81.55,273.55 77.8,272 73.35,272 l -25.35,0 0,-32 25.35,0 c 4.45,0 8.2,-1.55 11.35,-4.7 l 6.6,-6.6 c 3.15,-3.15 6.9,-4.7 11.35,-4.7 z m 0,-96 41.35,0 0,64 -41.35,0 c -4.45,0 -8.2,-1.55 -11.35,-4.7 l -6.6,-6.6 C 81.55,177.55 77.8,176 73.35,176 l -25.35,0 0,-32 25.35,0 c 4.45,0 8.2,-1.55 11.35,-4.7 l 6.6,-6.6 c 3.15,-3.15 6.9,-4.7 11.35,-4.7 z m 0,-96 41.35,0 0,64 -41.35,0 C 98.2,96 94.45,94.45 91.3,91.3 L 84.7,84.7 C 81.55,81.55 77.8,80 73.35,80 L 48,80 48,48 73.35,48 c 4.45,0 8.2,-1.55 11.35,-4.7 l 6.6,-6.6 C 94.45,33.55 98.2,32 102.65,32 Z"
       inkscape:connector-curvature="0"
       style="fill:#cdd7db" />
    <path
       id="path6367"
       d="m 409.35,416 -41.35,0 0,64 41.35,0 c 4.45,0 8.2,-1.55 11.35,-4.7 l 6.6,-6.6 c 3.15,-3.15 6.9,-4.7 11.35,-4.7 l 25.35,0 0,-32 -25.35,0 c -4.45,0 -8.2,-1.55 -11.35,-4.7 l -6.6,-6.6 c -3.15,-3.15 -6.9,-4.7 -11.35,-4.7 z m 0,-96 -41.35,0 0,64 41.35,0 c 4.45,0 8.2,-1.55 11.35,-4.7 l 6.6,-6.6 c 3.15,-3.15 6.9,-4.7 11.35,-4.7 l 25.35,0 0,-32 -25.35,0 c -4.45,0 -8.2,-1.55 -11.35,-4.7 l -6.6,-6.6 c -3.15,-3.15 -6.9,-4.7 -11.35,-4.7 z m 0,-96 -41.35,0 0,64 41.35,0 c 4.45,0 8.2,-1.55 11.35,-4.7 l 6.6,-6.6 c 3.15,-3.15 6.9,-4.7 11.35,-4.7 l 25.35,0 0,-32 -25.35,0 c -4.45,0 -8.2,-1.55 -11.35,-4.7 l -6.6,-6.6 c -3.15,-3.15 -6.9,-4.7 -11.35,-4.7 z m 0,-96 -41.35,0 0,64 41.35,0 c 4.45,0 8.2,-1.55 11.35,-4.7 l 6.6,-6.6 c 3.15,-3.15 6.9,-4.7 11.35,-4.7 l 25.35,0 0,-32 -25.35,0 c -4.45,0 -8.2,-1.55 -11.35,-4.7 l -6.6,-6.6 c -3.15,-3.15 -6.9,-4.7 -11.35,-4.7 z m 0,-96 -41.35,0 0,64 41.35,0 c 4.45,0 8.2,-1.55 11.35,-4.7 l 6.6,-6.6 c 3.15,-3.15 6.9,-4.7 11.35,-4.7 l 25.35,0 0,-32 -25.35,0 c -4.45,0 -8.2,-1.55 -11.35,-4.7 l -6.6,-6.6 C 417.55,33.55 413.8,32 409.35,32 Z"
       inkscape:connector-curvature="0"
       style="fill:#afbdc3" />
    <path
       id="path6369"
       d="m 144,0 224,0 c 8.8,0 16,7.2 16,16 l 0,480 c 0,8.8 -7.2,16 -16,16 l -224,0 c -8.8,0 -16,-7.2 -16,-16 l 0,-480 c 0,-8.8 7.2,-16 16,-16 z"
       inkscape:connector-curvature="0"
       style="fill:#546e7a" />
    <path
       id="path6371"
       d="m 380.8,6.4 c 2,2.7 3.2,6 3.2,9.6 l 0,480 c 0,8.8 -7.2,16 -16,16 l -224,0 c -5.2,0 -9.85,-2.5 -12.8,-6.4 z"
       inkscape:connector-curvature="0"
       style="fill:#445a64" />
    <path
       id="path6373"
       d="m 256,464 c 26.5,0 48,21.5 48,48 l -96,0 c 0,-26.5 21.5,-48 48,-48 z"
       inkscape:connector-curvature="0"
       style="fill:#36464e" />
  </g>
  <g
     id="g4433"
     transform="matrix(1.625,0,0,1.625,297.82116,-322.38589)">
    <path
       id="path4376"
       d="m 51.80236,353.46824 c 44.2,0 80,35.8 80,80 0,44.2 -35.8,80 -80,80 -44.2,0 -80,-35.8 -80,-80 0,-44.2 35.8,-80 80,-80 z"
       inkscape:connector-curvature="0"
       style="fill:#85d435" />
    <path
       id="path4378"
       d="m 108.35236,376.91824 c 31.25,31.2 31.25,81.9 0,113.1 -31.2,31.25 -81.9,31.25 -113.1,0 z"
       inkscape:connector-curvature="0"
       style="fill:#68ba1c" />
    <path
       id="path4380"
       d="m 51.80236,369.46824 c 35.35,0 64,28.65 64,64 0,35.35 -28.65,64 -64,64 -35.35,0 -64,-28.65 -64,-64 0,-35.35 28.65,-64 64,-64 z"
       inkscape:connector-curvature="0"
       style="fill:#9bed49" />
    <path
       id="path4382"
       d="m 97.05236,388.21824 c 25,25 25,65.5 0,90.5 -25,25 -65.5,25 -90.5,0 z"
       inkscape:connector-curvature="0"
       style="fill:#85d435" />
  </g>
</svg>
