<?xml version="1.0" encoding="UTF-8"?>
<svg width="512" height="512" version="1.1" viewBox="0 0 512 512" xml:space="preserve" xmlns="http://www.w3.org/2000/svg"><title>document checks icon</title><desc>document checks icon from the IconExperience.com G-Collection. Copyright by INCORS GmbH (www.incors.com).</desc><path d="m72 0c-4.4 0-8 3.6-8 8v496c0 4.4 3.6 8 8 8h290.69c0.16588-0.85871 0.35105-1.7173 0.55273-2.5625 2.1187-8.6884 3.1028-17.698 2.4082-26.631-0.53935-6.9095-2.0203-13.899-5.5566-19.936-0.18067-0.79989-1.0366-0.15897-1.5879-0.16797-5.7898 1.1948-11.759 2.0902-17.568 2.627-7.8885 0.75792-16.115 0.89193-23.988 0.46289-3.942-0.20881-7.9782-0.57937-11.881-1.0684-4.0508-0.51283-8.0045-1.1552-11.977-1.9551-5.9507-1.1955-11.744-2.702-17.502-4.5293-2.1196-0.68439-4.3607-1.4427-6.4941-2.2285-6.7612-2.4768-13.472-5.4626-19.877-8.8887-2.285-1.2236-4.5504-2.505-6.8398-3.8867-14.99-8.9974-28.382-20.737-38.908-34.721-0.63578-0.82893-1.3445-1.8194-1.8984-2.5742-8.3016-11.589-14.627-24.6-18.484-38.328-0.44844-1.5652-0.86643-3.1764-1.2715-4.8281-2.3897-9.8343-3.6363-20.008-3.793-30.043-0.5075-27.678 7.2692-55.364 21.68-78.963 11.194-18.467 26.477-34.378 44.266-46.592 1.2579-0.8646 2.362-1.601 3.6523-2.4375 6.8639-4.4543 14.178-8.3927 21.566-11.701 6.3664-2.8429 13.152-5.3577 19.926-7.3789 3.8132-1.14 7.7933-2.1782 11.586-3.0293 2.7785-0.63195 5.6567-1.2017 8.5293-1.7148 1.994-0.34182 4.161-0.6973 6.1992-0.98242 7.9374-1.1316 16.033-1.7496 23.975-1.9043 5.712-0.09148 11.586 0.04561 17.199 0.42578 2.4865 0.16142 4.8296 0.3642 7.2852 0.60743 1.7087 0.17621 3.5511 0.39087 5.1719 0.5957 11.274 1.4508 22.43 3.8358 33.301 7.1602 1.0147 0.31106 2.1885 0.68585 3.0977 0.97461 11.268 3.6593 22.214 8.3206 32.627 13.973 0.91292 0.49332 1.9631 1.091 2.7793 1.5352 2.4124 1.3654 4.7831 2.8007 7.1328 4.2715v-47.582c0-8.85-3.6004-16.85-9.4004-22.65l-127.95-127.95c-5.8-5.8-13.8-9.4004-22.65-9.4004h-216zm376 493.61c-1.0741 0.77055-2.123 1.5868-3.209 2.334-8.1919 5.6416-16.866 10.734-25.734 15.104-0.67036 0.33102-1.3782 0.62768-2.0566 0.95312h23c4.4 0 8-3.6 8-8v-10.391z" fill="#dff3fd"/><path d="m368 128-40.059 50.6c3.8336-0.29147 7.6675-0.48659 11.465-0.56055 5.712-0.09148 11.586 0.04561 17.199 0.42578 2.4865 0.16142 4.8296 0.3642 7.2852 0.60743 1.7087 0.17621 3.5511 0.39087 5.1719 0.5957 11.274 1.4508 22.43 3.8358 33.301 7.1602 1.0147 0.31106 2.1885 0.68585 3.0977 0.97461 11.268 3.6593 22.214 8.3206 32.627 13.973 0.91292 0.49332 1.9631 1.091 2.7793 1.5352 2.4298 1.3752 4.7666 2.9045 7.1328 4.3867v-47.697c0-8.85-3.6004-16.85-9.4004-22.65-5.8-5.75-13.8-9.3496-22.6-9.3496h-48zm-186.1 235.08-115.8 146.27c1.45 1.65 3.5504 2.6504 5.9004 2.6504h290.69c0.16588-0.85871 0.35105-1.7173 0.55273-2.5625 2.1187-8.6884 3.1028-17.698 2.4082-26.631-0.53935-6.9095-2.0203-13.899-5.5566-19.936-0.18067-0.79989-1.0366-0.15897-1.5879-0.16797-5.7898 1.1948-11.759 2.0902-17.568 2.627-7.8885 0.75792-16.115 0.89193-23.988 0.46289-3.942-0.20881-7.9782-0.57937-11.881-1.0684-4.0508-0.51283-8.0045-1.1552-11.977-1.9551-5.9507-1.1955-11.744-2.702-17.502-4.5293-2.1196-0.68439-4.3607-1.4427-6.4941-2.2285-6.7612-2.4768-13.472-5.4626-19.877-8.8887-2.285-1.2236-4.5504-2.505-6.8398-3.8867-14.99-8.9974-28.382-20.737-38.908-34.721-0.63578-0.82893-1.3445-1.8194-1.8984-2.5742-8.3016-11.589-14.627-24.6-18.484-38.328-0.42125-1.4703-0.81319-2.9882-1.1953-4.5352zm266.1 130.53c-1.0741 0.77055-2.123 1.5868-3.209 2.334-8.1919 5.6416-16.866 10.734-25.734 15.104-0.67036 0.33102-1.3782 0.62768-2.0566 0.95312h23c4.4 0 8-3.6 8-8v-10.391z" fill="#b1e3fb"/><path d="m438.6 137.35c-5.8-5.75-13.8-9.35-22.6-9.35h-88c-4.4 0-8-3.6-8-8v-88c0-8.5-3.4-16.6-9.4-22.6z" fill="#28b5f5"/><g stroke-width="1.6"><path d="m377.03 512c4.9686-19.999 4.9686-49.998-12.281-65.279-5.6561 1.6562-11.625 2.9687-17.812 3.8436-68.685 9.7497-141.46-29.155-153.18-99.091-11.906-71.154 37.436-145.43 123.18-157.62 87.903-12.468 178.12 38.874 192.74 126.12 15.656 93.528-50.061 169.93-132.65 192.02z" fill="#ffb100"/><path d="m377.03 512c4.9686-19.999 4.9686-49.998-12.281-65.279-5.6561 1.6562-11.625 2.9687-17.812 3.8436-38.686 5.4998-78.685-4.4686-108.34-26.687l226.77-185.53c22.656 21.156 38.811 48.842 44.311 81.622 15.656 93.528-50.061 169.93-132.65 192.02z" fill="#ff9f00"/><path d="m282 302.01h140v9.9997h-140zm0-29.999h140v9.9997h-140zm0 89.997h140v9.9997h-140zm0-29.999h140v9.9997h-140z" fill="#fff"/><path d="m387.56 302.01h34.436v9.9997h-46.655zm-85.56 69.998 12.218-9.9997h107.78v9.9997zm36.655-29.999 12.218-9.9997h71.123v9.9997zm73.341-59.998 9.9997-8.1872v8.1872z" fill="#ebedef"/></g><style/></svg>
