<?xml version="1.0" encoding="UTF-8"?>
<svg width="512" height="512" version="1.1" viewBox="0 0 512 512" xml:space="preserve" xmlns="http://www.w3.org/2000/svg"><title>step icon</title><desc>step icon from the IconExperience.com G-Collection. Copyright by INCORS GmbH (www.incors.com).</desc><path d="m91.8 430.35 13.2 40.15c10.3 31.45 44.65 48.7 76.7 38.6s49.65-43.75 39.35-75.15l-13.2-40.2zm3.15-293.1c-44.45 24.4-77.4 66.75-56.5 160.25 9.75 43.55 30.05 68.9 48.3 118l116-36.55c-17.45-69.2-3.75-78-5.5-136.35-2.1-71.45-39.4-139.9-102.3-105.35zm325.25 165.1-13.2 40.15c-10.3 31.45-44.65 48.7-76.7 38.6s-49.65-43.75-39.35-75.15l13.2-40.2zm-3.15-293.1c44.45 24.4 77.4 66.75 56.5 160.25-9.75 43.55-30.05 68.9-48.3 118l-116-36.55c17.45-69.2 3.75-78 5.5-136.35 2.1-71.45 39.4-139.9 102.3-105.35z" fill="#ffb100"/><path d="m420.2 302.35-13.2 40.15c-10.3 31.45-44.65 48.7-76.7 38.6l31.85-97.05zm-53.2-33.2c31.6-98.75 47.55-177.7 18.4-269.15h-0.05c9.7 0.1 20.25 2.95 31.7 9.25 44.45 24.4 77.4 66.75 56.5 160.25-9.75 43.55-30.05 68.9-48.3 118zm-185.3 239.95c32.05-10.1 49.65-43.75 39.35-75.15l-13.2-40.2-58 18.3zm-36.7-111.95c-31.6-98.75-47.55-177.7-18.4-269.15 43.6-0.35 68.95 56.1 70.65 114.6 1.75 58.35-11.95 67.15 5.5 136.35z" fill="#ff9f00"/></svg>
