<svg x="0" y="0" width="512" height="512" version="1.1"
    xmlns="http://www.w3.org/2000/svg"
    xmlns:xlink="http://www.w3.org/1999/xlink" viewBox="0 0 512 512">
    <title>wifi icon</title>
    <desc>wifi icon from the IconExperience.com G-Collection. Copyright by INCORS GmbH (www.incors.com).</desc>
    <g>
        <path d="M256,352c26.5,0 48,21.5 48,48c0,26.5 -21.5,48 -48,48c-26.5,0 -48,-21.5 -48,-48c0,-26.5 21.5,-48 48,-48z" fill="#0299e3"/>
        <path d="M256,352c26.5,0 48,21.5 48,48c0,26.5 -21.5,48 -48,48z" fill="#0287cf"/>
        <path d="M256,256c50.1,0 94.25,25.6 120.05,64.45l-34.25,36.4c-15.8,-31.35 -48.3,-52.85 -85.8,-52.85c-37.5,0 -70,21.5 -85.8,52.85l-34.25,-36.4c25.8,-38.85 69.95,-64.45 120.05,-64.45z" fill="#28b5f5"/>
        <path d="M256,256c50.1,0 94.25,25.6 120.05,64.45l-34.25,36.4c-15.8,-31.35 -48.3,-52.85 -85.8,-52.85z" fill="#0299e3"/>
        <path d="M256,160c75.55,0 142.9,34.9 186.9,89.45l-33.3,35.35c-35,-46.65 -90.8,-76.8 -153.6,-76.8c-62.8,0 -118.6,30.15 -153.6,76.8l-33.3,-35.35c44,-54.55 111.35,-89.45 186.9,-89.45z" fill="#4ec1f5"/>
        <path d="M256,160c75.55,0 142.9,34.9 186.9,89.45l-33.3,35.35c-35,-46.65 -90.8,-76.8 -153.6,-76.8z" fill="#28b5f5"/>
        <path d="M256,64c100.95,0 191.55,44.55 253.15,115.05l-33.1,35.15c-52.85,-62.5 -131.8,-102.2 -220.05,-102.2c-88.25,0 -167.2,39.7 -220.05,102.2l-33.1,-35.15c61.6,-70.5 152.2,-115.05 253.15,-115.05z" fill="#7fd3f9"/>
        <path d="M256,64c100.95,0 191.55,44.55 253.15,115.05l-33.1,35.15c-52.85,-62.5 -131.8,-102.2 -220.05,-102.2z" fill="#4ec1f5"/>
    </g>
</svg>