<?xml version="1.0" encoding="UTF-8" standalone="no"?>
<svg
   xmlns:dc="http://purl.org/dc/elements/1.1/"
   xmlns:cc="http://creativecommons.org/ns#"
   xmlns:rdf="http://www.w3.org/1999/02/22-rdf-syntax-ns#"
   xmlns:svg="http://www.w3.org/2000/svg"
   xmlns="http://www.w3.org/2000/svg"
   xmlns:sodipodi="http://sodipodi.sourceforge.net/DTD/sodipodi-0.dtd"
   xmlns:inkscape="http://www.inkscape.org/namespaces/inkscape"
   x="0"
   y="0"
   width="512"
   height="512"
   version="1.1"
   viewBox="0 0 512 512"
   id="svg7293"
   inkscape:version="0.91 r13725"
   sodipodi:docname="log_start2.svg">
  <metadata
     id="metadata7335">
    <rdf:RDF>
      <cc:Work
         rdf:about="">
        <dc:format>image/svg+xml</dc:format>
        <dc:type
           rdf:resource="http://purl.org/dc/dcmitype/StillImage" />
        <dc:title>history2 icon</dc:title>
      </cc:Work>
    </rdf:RDF>
  </metadata>
  <defs
     id="defs7333" />
  <sodipodi:namedview
     pagecolor="#ffffff"
     bordercolor="#666666"
     borderopacity="1"
     objecttolerance="10"
     gridtolerance="10"
     guidetolerance="10"
     inkscape:pageopacity="0"
     inkscape:pageshadow="2"
     inkscape:window-width="1920"
     inkscape:window-height="1017"
     id="namedview7331"
     showgrid="false"
     inkscape:zoom="1.1"
     inkscape:cx="256"
     inkscape:cy="298.33073"
     inkscape:window-x="1912"
     inkscape:window-y="-8"
     inkscape:window-maximized="1"
     inkscape:current-layer="svg7293" />
  <title
     id="title7295">history2 icon</title>
  <desc
     id="desc7297">history2 icon from the IconExperience.com G-Collection. Copyright by INCORS GmbH (www.incors.com).</desc>
  <g
     id="g7352"
     transform="matrix(1.7647059,0,0,1.7647059,-423.52942,-367.05883)">
    <path
       d="m 240,208 0,272 240,0 0,-272 z m 24,16 c 4.4,0 8,3.6 8,8 0,4.4 -3.6,8 -8,8 -4.4,0 -8,-3.6 -8,-8 0,-4.4 3.6,-8 8,-8 z m 192,0 c 4.4,0 8,3.6 8,8 0,4.4 -3.6,8 -8,8 -4.4,0 -8,-3.6 -8,-8 0,-4.4 3.6,-8 8,-8 z m 0,32 c 4.4,0 8,3.6 8,8 0,4.4 -3.6,8 -8,8 -4.4,0 -8,-3.6 -8,-8 0,-4.4 3.6,-8 8,-8 z m 0,32 c 4.4,0 8,3.6 8,8 0,4.4 -3.6,8 -8,8 -4.4,0 -8,-3.6 -8,-8 0,-4.4 3.6,-8 8,-8 z m 0,32 c 4.4,0 8,3.6 8,8 0,4.4 -3.6,8 -8,8 -4.4,0 -8,-3.6 -8,-8 0,-4.4 3.6,-8 8,-8 z m 0,32 c 4.4,0 8,3.6 8,8 0,4.4 -3.6,8 -8,8 -4.4,0 -8,-3.6 -8,-8 0,-4.4 3.6,-8 8,-8 z m 0,32 c 4.4,0 8,3.6 8,8 0,4.4 -3.6,8 -8,8 -4.4,0 -8,-3.6 -8,-8 0,-4.4 3.6,-8 8,-8 z m 0,32 c 4.4,0 8,3.6 8,8 0,4.4 -3.6,8 -8,8 -4.4,0 -8,-3.6 -8,-8 0,-4.4 3.6,-8 8,-8 z m 0,32 c 4.4,0 8,3.6 8,8 0,4.4 -3.6,8 -8,8 -4.4,0 -8,-3.6 -8,-8 0,-4.4 3.6,-8 8,-8 z M 264,256 c 4.4,0 8,3.6 8,8 0,4.4 -3.6,8 -8,8 -4.4,0 -8,-3.6 -8,-8 0,-4.4 3.6,-8 8,-8 z m 0,32 c 4.4,0 8,3.6 8,8 0,4.4 -3.6,8 -8,8 -4.4,0 -8,-3.6 -8,-8 0,-4.4 3.6,-8 8,-8 z m 0,32 c 4.4,0 8,3.6 8,8 0,4.4 -3.6,8 -8,8 -4.4,0 -8,-3.6 -8,-8 0,-4.4 3.6,-8 8,-8 z m 0,32 c 4.4,0 8,3.6 8,8 0,4.4 -3.6,8 -8,8 -4.4,0 -8,-3.6 -8,-8 0,-4.4 3.6,-8 8,-8 z m 0,32 c 4.4,0 8,3.6 8,8 0,4.4 -3.6,8 -8,8 -4.4,0 -8,-3.6 -8,-8 0,-4.4 3.6,-8 8,-8 z m 0,32 c 4.4,0 8,3.6 8,8 0,4.4 -3.6,8 -8,8 -4.4,0 -8,-3.6 -8,-8 0,-4.4 3.6,-8 8,-8 z m 0,32 c 4.4,0 8,3.6 8,8 0,4.4 -3.6,8 -8,8 -4.4,0 -8,-3.6 -8,-8 0,-4.4 3.6,-8 8,-8 z"
       id="path7301"
       inkscape:connector-curvature="0"
       style="fill:#7fc9c3" />
    <path
       d="m 288,336 144,0 0,16 -144,0 z m 0,96 144,0 0,16 -144,0 z m 0,-48 144,0 0,16 -144,0 z m 0,-96 144,0 0,16 -144,0 z m 0,-48 144,0 0,16 -144,0 z"
       id="path7303"
       inkscape:connector-curvature="0"
       style="fill:#546e7a" />
  </g>
  <path
     id="path4249"
     d="m 281.75971,229.0208 220.4486,129.77093 c 3.115,1.869 4.984,4.984 4.984,8.62854 0,3.64455 -1.83785,6.79071 -4.984,8.62855 l -220.4486,129.80212 c -3.14614,1.86894 -6.7907,1.83779 -9.968,0 -3.17729,-1.83789 -4.98402,-4.98404 -4.98402,-8.62856 l 0,-129.80211 0,-129.77091 c 0,-3.6757 1.80673,-6.82186 4.98402,-8.62856 3.1773,-1.83785 6.82186,-1.90014 9.968,0 z"
     inkscape:connector-curvature="0"
     style="fill:#78e918;fill-opacity:1;stroke:#489d00;stroke-width:9.6153841;stroke-miterlimit:4;stroke-dasharray:none;stroke-opacity:1" />
</svg>
