<?xml version="1.0" encoding="UTF-8"?>
<svg width="144.5mm" height="144.5mm" version="1.1" viewBox="0 0 512 512" xml:space="preserve" xmlns="http://www.w3.org/2000/svg"><style/><path transform="matrix(.83007 0 0 .62255 -53.124 4e-7)" d="m64-6.4252e-7v512h271.82v-197.27h112.18v-314.73h-384z" fill="#dff3fd" stroke-width="1.1765"/><path d="m28.637 23.657v20.4h89.45v-20.4zm38.336 40.801v20.4h140.57v-20.4zm51.115 40.801v20.4h153.34v-20.4zm0 40.801v20.4h89.45v-20.4zm-51.115 40.801v20.4h115.01v-20.4zm0 40.801v20.4h89.45v-20.4zm0 40.801v20.4h153.34v-20.4z" fill="#445a64" stroke-width=".93748"/><g transform="matrix(1.0714 0 0 1.0714 -36.558 -615.5)"><path d="m273.36 772.36h68.182c6.25 0 11.364 4.5 11.364 10v260c0 5.5-5.1136 10-11.364 10h-68.182c-6.25 0-11.364-4.5-11.364-10v-260c0-5.5 5.1136-10 11.364-10zm159.09 0h68.182c6.25 0 11.364 4.5 11.364 10v260c0 5.5-5.1136 10-11.364 10h-68.182c-6.25 0-11.364-4.5-11.364-10v-260c0-5.5 5.1136-10 11.364-10z" fill="#0299e3" stroke-width="0"/><path d="m352.91 912.36v130c0 5.5-5.1136 10-11.364 10h-68.182c-6.25 0-11.364-4.5-11.364-10v-130zm68.182 0h90.909v130c0 5.5-5.1136 10-11.364 10h-68.182c-6.25 0-11.364-4.5-11.364-10z" fill="#027cb8" stroke-width=".875"/></g></svg>
