<?xml version="1.0" encoding="UTF-8"?>
<svg width="144.5mm" height="144.5mm" version="1.1" viewBox="0 0 512 512" xmlns="http://www.w3.org/2000/svg">
 <g transform="translate(387.99 -121.26)">
  <path d="m-269.41 275.94h393.62v59.591h-393.62zm0 148.98h393.62v59.591h-393.62zm0 148.98h262.41v59.591h-262.41z" fill="#0299e3"/>
  <g transform="matrix(.66964 0 0 .66964 -409.42 121.26)" stroke-width="1.96">
   <path d="m256 512c-131.65-55.75-224-185.6-224-336.95v-111.75c0-4.5 1.65-8.35 4.95-11.45 3.25-3.15 7.2-4.6 11.75-4.45 5.05 0.25 10.15 0.35 15.3 0.35 67.05 0 129.85-14.4 184-45.55 2.55-1.45 5.25-2.2 8-2.2s5.45 0.75 8 2.2c54.15 31.15 116.95 45.55 184 45.55 5.15 0 10.25-0.1 15.3-0.35 4.55-0.15 8.5 1.3 11.75 4.45 3.3 3.1 4.95 6.95 4.95 11.45v111.75c0 151.35-92.3 281.2-224 336.95z" fill="#cdd7db"/>
   <path d="m256 0c2.75 0 5.45 0.75 8 2.2 54.15 31.15 116.95 45.55 184 45.55 5.15 0 10.25-0.1 15.3-0.35 4.55-0.15 8.5 1.3 11.75 4.45 3.3 3.1 4.95 6.95 4.95 11.45v111.75c0 151.35-92.3 281.2-224 336.95z" fill="#afbdc3"/>
   <path d="m256 477.1c116.75-55.1 192-172.35 192-302.05v-95.5c-66.95 0-133.05-13.5-192-45.35-58.95 31.85-125.05 45.35-192 45.35v95.5c0 129.7 75.25 246.95 192 302.05z" fill="#ff9f00"/>
   <path d="m256 477.1c116.75-55.1 192-172.35 192-302.05v-95.5c-66.95 0-133.05-13.5-192-45.35z" fill="#ff8d00"/>
  </g>
 </g>
</svg>
