<?xml version="1.0" encoding="UTF-8"?>
<svg width="180.25" height="180.21" version="1.0" viewBox="0 -26.361 180.25 180.21" xml:space="preserve" xmlns="http://www.w3.org/2000/svg" xmlns:xlink="http://www.w3.org/1999/xlink">




<g><g transform="matrix(2.561 0 0 2.561 -14.875 -41.254)" display="none"><path d="m52.318 29.679v0c-2.8966-2.8985-6.8982-4.6888-11.318-4.6888-4.4214 0-8.4226 1.7903-11.319 4.6877-2.8977 2.8993-4.6908 6.9024-4.6908 11.322h16.01 16.01c0-4.419-1.7938-8.4222-4.692-11.321z" fill="#515151"/><path d="m41 39.829h-14.838c0-2.7333 1.5443-6.5163 4.348-9.323 2.8005-2.8013 6.526-4.3437 10.49-4.3437 3.9629 0 7.6881 1.5432 10.489 4.3452 2.8048 2.8044 4.3487 6.1976 4.3487 9.3214z" fill="#323232"/><path d="m35.833 36.314h10.348l-5.1738-5.1738z" fill="#e3e3e3" stroke="#e3e3e3" stroke-linejoin="round" stroke-width="1.5521"/></g><g transform="matrix(2.561 0 0 2.561 -14.875 63.746)" display="none"><path d="m41 0h-16.01c0 4.4194 1.7931 8.4226 4.6904 11.322 2.8966 2.8973 6.8978 4.6877 11.319 4.6877 4.4194 0 8.421-1.7903 11.318-4.6884v-3.91e-4c2.8981-2.8985 4.692-6.9017 4.692-11.321h-16.01z" fill="#515151"/><path d="m41 14.838c-3.9649 0-7.6904-1.5424-10.49-4.3444-2.8036-2.8056-4.348-6.198-4.348-9.3218h14.838 14.838c0 3.1238-1.5439 6.5163-4.3487 9.3211-2.8005 2.8021-6.5252 4.3452-10.489 4.3452z" fill="#323232"/><path d="m35.817 4.6797h10.348l-5.1738 5.1738z" fill="#e3e3e3" stroke="#e3e3e3" stroke-linejoin="round" stroke-width="1.5521"/></g><g transform="translate(26.705 93.553)"><path d="m93.331 1e-3c-7.599 7.604-18.098 12.3-29.691 12.3-11.599 0-22.097-4.696-29.694-12.298l-33.946 33.937c35.148 35.147 92.129 35.147 127.28 0l-33.947-33.939z" fill="#515151"/><path d="m63.64 57.3c-22.234 0-43.196-8.285-59.36-23.396l29.734-29.728c8.2 7.196 18.609 11.125 29.626 11.125 11.015 0 21.424-3.929 29.622-11.125l29.737 29.729c-16.166 15.11-37.127 23.395-59.359 23.395z" fill="#323232"/><path d="m50.389 30.051h26.5l-13.25 13.25z" fill="#e3e3e3" stroke="#e3e3e3" stroke-linejoin="round" stroke-width="3.975"/></g><g transform="translate(26.269 -26.361)"><path d="m33.945 60.298c7.597-7.602 18.095-12.298 29.694-12.298 11.594 0 22.093 4.696 29.691 12.3v1e-3l33.947-33.94c-35.148-35.148-92.129-35.148-127.28-1e-3z" fill="#515151"/><path d="m93.261 56.127c-8.199-7.198-18.606-11.127-29.622-11.127-11.018 0-21.427 3.93-29.627 11.123l-29.734-29.727c16.164-15.11 37.127-23.396 59.361-23.396s43.196 8.286 59.361 23.396z" fill="#323232"/><path d="m50.389 30.25h26.5l-13.25-13.25z" fill="#e3e3e3" stroke="#e3e3e3" stroke-linejoin="round" stroke-width="3.975"/></g><g transform="translate(119.85 .10612)"><path d="m33.839 0-33.839 34.049c7.626 7.58 12.366 18.067 12.403 29.66 0.037 11.592-4.637 22.11-12.214 29.739l34.056 33.831c35.036-35.261 34.854-92.243-0.406-127.28z" fill="#515151"/><path d="m34.195 123-29.832-29.639c7.177-8.234 11.075-18.657 11.042-29.666-0.036-11.007-4.003-21.405-11.231-29.592l29.642-29.828c31.246 33.24 31.411 85.287 0.379 118.72z" fill="#323232"/><path d="m30.153 51.401v26.5l13.25-13.25z" fill="#e3e3e3" stroke="#e3e3e3" stroke-linejoin="round" stroke-width="3.975"/></g><path d="m26.564 127.38 33.839-34.049c-7.626-7.58-12.366-18.067-12.403-29.659s4.637-22.11 12.214-29.739l-34.056-33.831c-35.036 35.261-34.853 92.242 0.406 127.28z" fill="#515151"/><path d="m26.587 123.11c-15.163-16.114-23.516-37.052-23.587-59.285-0.07-22.236 8.146-43.223 23.206-59.435l29.834 29.633c-7.176 8.236-11.076 18.657-11.04 29.667s4.001 21.408 11.229 29.594z" fill="#323232"/><path d="m31.25 51.495v26.5l-13.25-13.25z" fill="#e3e3e3" stroke="#e3e3e3" stroke-linejoin="round" stroke-width="3.975"/><g transform="matrix(2.561 0 0 2.561 -14.875 -41.254)"><path d="m52.318 29.679v0c-2.8966-2.8985-6.8982-4.6888-11.318-4.6888-4.4214 0-8.4226 1.7903-11.319 4.6877-2.8977 2.8993-4.6908 6.9024-4.6908 11.322h16.01 16.01c0-4.419-1.7938-8.4222-4.692-11.321z" fill="#1dace7"/><path d="m41 39.829h-14.838c0-2.7333 1.5443-6.5163 4.348-9.323 2.8005-2.8013 6.526-4.3437 10.49-4.3437 3.9629 0 7.6881 1.5432 10.489 4.3452 2.8048 2.8044 4.3487 6.1976 4.3487 9.3214z" fill="#1f5779"/><path d="m35.833 36.314h10.348l-5.1738-5.1738z" fill="#e3e3e3" stroke="#e3e3e3" stroke-linejoin="round" stroke-width="1.5521"/></g><g transform="matrix(2.561 0 0 2.561 -14.875 63.746)"><path d="m41 0h-16.01c0 4.4194 1.7931 8.4226 4.6904 11.322 2.8966 2.8973 6.8978 4.6877 11.319 4.6877 4.4194 0 8.421-1.7903 11.318-4.6884v-3.91e-4c2.8981-2.8985 4.692-6.9017 4.692-11.321h-16.01z" fill="#1dace7"/><path d="m41 14.838c-3.9649 0-7.6904-1.5424-10.49-4.3444-2.8036-2.8056-4.348-6.198-4.348-9.3218h14.838 14.838c0 3.1238-1.5439 6.5163-4.3487 9.3211-2.8005 2.8021-6.5252 4.3452-10.489 4.3452z" fill="#1f5779"/><path d="m35.817 4.6797h10.348l-5.1738 5.1738z" fill="#e3e3e3" stroke="#e3e3e3" stroke-linejoin="round" stroke-width="1.5521"/></g><g transform="translate(26.486 93.553)" display="none"><path d="m93.331 1e-3c-7.599 7.604-18.098 12.3-29.691 12.3-11.599 0-22.097-4.696-29.694-12.298l-33.946 33.937c35.148 35.147 92.129 35.147 127.28 0l-33.947-33.939z" fill="#1dace7"/><path d="m63.64 57.3c-22.234 0-43.196-8.285-59.36-23.396l29.734-29.728c8.2 7.196 18.609 11.125 29.626 11.125 11.015 0 21.424-3.929 29.622-11.125l29.737 29.729c-16.166 15.11-37.127 23.395-59.359 23.395z" fill="#1f5779"/><path d="m50.389 30.051h26.5l-13.25 13.25z" fill="#e3e3e3" stroke="#e3e3e3" stroke-linejoin="round" stroke-width="3.975"/></g><g transform="translate(119.85 .10669)" display="none"><path d="m33.839 0-33.839 34.049c7.626 7.58 12.366 18.067 12.403 29.66 0.037 11.592-4.637 22.11-12.214 29.739l34.056 33.831c35.036-35.261 34.854-92.243-0.406-127.28z" fill="#1dace7"/><path d="m34.195 123-29.832-29.639c7.177-8.234 11.075-18.657 11.042-29.666-0.036-11.007-4.003-21.405-11.231-29.592l29.642-29.828c31.246 33.24 31.411 85.287 0.379 118.72z" fill="#1f5779"/><path d="m30.153 51.401v26.5l13.25-13.25z" fill="#e3e3e3" stroke="#e3e3e3" stroke-linejoin="round" stroke-width="3.975"/></g><g transform="translate(26.487 -26.361)" display="none"><path d="m33.945 60.298c7.597-7.602 18.095-12.298 29.694-12.298 11.594 0 22.093 4.696 29.691 12.3v1e-3l33.947-33.94c-35.148-35.148-92.129-35.148-127.28-1e-3z" fill="#1dace7"/><path d="m93.261 56.127c-8.199-7.198-18.606-11.127-29.622-11.127-11.018 0-21.427 3.93-29.627 11.123l-29.734-29.727c16.164-15.11 37.127-23.396 59.361-23.396s43.196 8.286 59.361 23.396z" fill="#1f5779"/><path d="m50.389 30.25h26.5l-13.25-13.25z" fill="#e3e3e3" stroke="#e3e3e3" stroke-linejoin="round" stroke-width="3.975"/></g><g transform="translate(8.7675e-5 .10719)" display="none"><path d="m26.564 127.28 33.839-34.049c-7.626-7.58-12.366-18.067-12.403-29.659s4.637-22.11 12.214-29.739l-34.056-33.831c-35.036 35.261-34.853 92.242 0.406 127.28z" fill="#1dace7"/><path d="m26.587 123c-15.163-16.114-23.516-37.052-23.587-59.285-0.07-22.236 8.146-43.223 23.206-59.435l29.834 29.633c-7.176 8.236-11.076 18.657-11.04 29.667s4.001 21.408 11.229 29.594z" fill="#1f5779"/><path d="m31.25 51.389v26.5l-13.25-13.25z" fill="#e3e3e3" stroke="#e3e3e3" stroke-linejoin="round" stroke-width="3.975"/></g></g></svg>
